solid clock_case
  facet normal 0.000000 -1.000000 0.000000
    outer loop
      vertex 1.1102230246251565e-15 -20 50.700570148083365
      vertex -20.04818585549492 -20 59.00480063040581
      vertex -21.514353491811686 -20 53.53298851925848
    endloop
  endfacet
  facet normal 0.000000 -1.000000 0.000000
    outer loop
      vertex 1.1102230246251565e-15 -20 50.700570148083365
      vertex -17.215767484319805 -20 63.9106931575726
      vertex -20.04818585549492 -20 59.00480063040581
    endloop
  endfacet
  facet normal 0.000000 -1.000000 0.000000
    outer loop
      vertex 1.1102230246251565e-15 -20 50.700570148083365
      vertex -13.210123009489237 -20 67.91633763240317
      vertex -17.215767484319805 -20 63.9106931575726
    endloop
  endfacet
  facet normal 0.000000 -1.000000 0.000000
    outer loop
      vertex 1.1102230246251565e-15 -20 50.700570148083365
      vertex -8.304230482322449 -20 70.74875600357828
      vertex -13.210123009489237 -20 67.91633763240317
    endloop
  endfacet
  facet normal 0.000000 -1.000000 0.000000
    outer loop
      vertex 1.1102230246251565e-15 -20 50.700570148083365
      vertex -2.8324183711751214 -20 72.21492363989505
      vertex -8.304230482322449 -20 70.74875600357828
    endloop
  endfacet
  facet normal 0.000000 -1.000000 0.000000
    outer loop
      vertex 1.1102230246251565e-15 -20 50.700570148083365
      vertex 2.8324183711751205 -20 72.21492363989505
      vertex -2.8324183711751214 -20 72.21492363989505
    endloop
  endfacet
  facet normal 0.000000 -1.000000 0.000000
    outer loop
      vertex 1.1102230246251565e-15 -20 50.700570148083365
      vertex 8.304230482322444 -20 70.7487560035783
      vertex 2.8324183711751205 -20 72.21492363989505
    endloop
  endfacet
  facet normal 0.000000 -1.000000 0.000000
    outer loop
      vertex 1.1102230246251565e-15 -20 50.700570148083365
      vertex 13.21012300948924 -20 67.91633763240317
      vertex 8.304230482322444 -20 70.7487560035783
    endloop
  endfacet
  facet normal 0.000000 -1.000000 0.000000
    outer loop
      vertex 1.1102230246251565e-15 -20 50.700570148083365
      vertex 17.2157674843198 -20 63.91069315757261
      vertex 13.21012300948924 -20 67.91633763240317
    endloop
  endfacet
  facet normal 0.000000 -1.000000 0.000000
    outer loop
      vertex 1.1102230246251565e-15 -20 50.700570148083365
      vertex 20.04818585549492 -20 59.00480063040582
      vertex 17.2157674843198 -20 63.91069315757261
    endloop
  endfacet
  facet normal 0.000000 -1.000000 0.000000
    outer loop
      vertex 1.1102230246251565e-15 -20 50.700570148083365
      vertex 21.514353491811686 -20 53.532988519258495
      vertex 20.04818585549492 -20 59.00480063040582
    endloop
  endfacet
  facet normal 0.000000 -1.000000 0.000000
    outer loop
      vertex 1.1102230246251565e-15 -20 50.700570148083365
      vertex 21.514353491811686 -20 47.86815177690824
      vertex 21.514353491811686 -20 53.532988519258495
    endloop
  endfacet
  facet normal 0.000000 -1.000000 0.000000
    outer loop
      vertex 1.1102230246251565e-15 -20 50.700570148083365
      vertex 20.048185855494925 -20 42.39633966576092
      vertex 21.514353491811686 -20 47.86815177690824
    endloop
  endfacet
  facet normal 0.000000 -1.000000 0.000000
    outer loop
      vertex 1.1102230246251565e-15 -20 50.700570148083365
      vertex 17.215767484319805 -20 37.49044713859413
      vertex 20.048185855494925 -20 42.39633966576092
    endloop
  endfacet
  facet normal 0.000000 -1.000000 0.000000
    outer loop
      vertex 1.1102230246251565e-15 -20 50.700570148083365
      vertex 13.210123009489244 -20 33.48480266376357
      vertex 17.215767484319805 -20 37.49044713859413
    endloop
  endfacet
  facet normal 0.000000 -1.000000 0.000000
    outer loop
      vertex 1.1102230246251565e-15 -20 50.700570148083365
      vertex 8.304230482322444 -20 30.65238429258844
      vertex 13.210123009489244 -20 33.48480266376357
    endloop
  endfacet
  facet normal 0.000000 -1.000000 0.000000
    outer loop
      vertex 1.1102230246251565e-15 -20 50.700570148083365
      vertex 2.8324183711751214 -20 29.18621665627168
      vertex 8.304230482322444 -20 30.65238429258844
    endloop
  endfacet
  facet normal 0.000000 -1.000000 0.000000
    outer loop
      vertex 1.1102230246251565e-15 -20 50.700570148083365
      vertex -2.8324183711751116 -20 29.18621665627168
      vertex 2.8324183711751214 -20 29.18621665627168
    endloop
  endfacet
  facet normal 0.000000 -1.000000 0.000000
    outer loop
      vertex 1.1102230246251565e-15 -20 50.700570148083365
      vertex -8.304230482322435 -20 30.65238429258844
      vertex -2.8324183711751116 -20 29.18621665627168
    endloop
  endfacet
  facet normal 0.000000 -1.000000 0.000000
    outer loop
      vertex 1.1102230246251565e-15 -20 50.700570148083365
      vertex -13.21012300948922 -20 33.484802663763546
      vertex -8.304230482322435 -20 30.65238429258844
    endloop
  endfacet
  facet normal 0.000000 -1.000000 0.000000
    outer loop
      vertex 1.1102230246251565e-15 -20 50.700570148083365
      vertex -17.215767484319798 -20 37.49044713859412
      vertex -13.21012300948922 -20 33.484802663763546
    endloop
  endfacet
  facet normal 0.000000 -1.000000 0.000000
    outer loop
      vertex 1.1102230246251565e-15 -20 50.700570148083365
      vertex -20.048185855494925 -20 42.39633966576092
      vertex -17.215767484319798 -20 37.49044713859412
    endloop
  endfacet
  facet normal 0.000000 -1.000000 0.000000
    outer loop
      vertex 1.1102230246251565e-15 -20 50.700570148083365
      vertex -21.514353491811686 -20 47.86815177690824
      vertex -20.048185855494925 -20 42.39633966576092
    endloop
  endfacet
  facet normal 0.000000 -1.000000 0.000000
    outer loop
      vertex 1.1102230246251565e-15 -20 50.700570148083365
      vertex -21.514353491811686 -20 53.53298851925848
      vertex -21.514353491811686 -20 47.86815177690824
    endloop
  endfacet
  facet normal -0.451223 -0.884183 0.120905
    outer loop
      vertex -21.514353491811686 -20 53.53298851925848
      vertex -20.04818585549492 -20 59.00480063040581
      vertex -27.80877392858973 -15.600000000000001 62.21934146227257
    endloop
  endfacet
  facet normal -0.451223 -0.884183 0.120905
    outer loop
      vertex -21.514353491811686 -20 53.53298851925848
      vertex -27.80877392858973 -15.600000000000001 62.21934146227257
      vertex -29.842490327351694 -15.600000000000001 54.62940853390692
    endloop
  endfacet
  facet normal -0.404555 -0.884183 0.233570
    outer loop
      vertex -20.04818585549492 -20 59.00480063040581
      vertex -17.215767484319805 -20 63.9106931575726
      vertex -27.80877392858973 -15.600000000000001 62.21934146227257
    endloop
  endfacet
  facet normal -0.404555 -0.884183 0.233570
    outer loop
      vertex -17.215767484319805 -20 63.9106931575726
      vertex -23.87993554276618 -15.600000000000001 69.02428916124586
      vertex -27.80877392858973 -15.600000000000001 62.21934146227257
    endloop
  endfacet
  facet normal -0.330318 -0.884183 0.330318
    outer loop
      vertex -17.215767484319805 -20 63.9106931575726
      vertex -13.210123009489237 -20 67.91633763240317
      vertex -23.87993554276618 -15.600000000000001 69.02428916124586
    endloop
  endfacet
  facet normal -0.330318 -0.884183 0.330318
    outer loop
      vertex -13.210123009489237 -20 67.91633763240317
      vertex -18.323719013162492 -15.600000000000001 74.58050569084955
      vertex -23.87993554276618 -15.600000000000001 69.02428916124586
    endloop
  endfacet
  facet normal -0.233570 -0.884183 0.404555
    outer loop
      vertex -13.210123009489237 -20 67.91633763240317
      vertex -8.304230482322449 -20 70.74875600357828
      vertex -11.518771314189204 -15.600000000000001 78.5093440766731
    endloop
  endfacet
  facet normal -0.233570 -0.884183 0.404555
    outer loop
      vertex -13.210123009489237 -20 67.91633763240317
      vertex -11.518771314189204 -15.600000000000001 78.5093440766731
      vertex -18.323719013162492 -15.600000000000001 74.58050569084955
    endloop
  endfacet
  facet normal -0.120905 -0.884183 0.451223
    outer loop
      vertex -8.304230482322449 -20 70.74875600357828
      vertex -2.8324183711751214 -20 72.21492363989505
      vertex -11.518771314189204 -15.600000000000001 78.5093440766731
    endloop
  endfacet
  facet normal -0.120905 -0.884183 0.451223
    outer loop
      vertex -2.8324183711751214 -20 72.21492363989505
      vertex -3.928838385823556 -15.600000000000001 80.54306047543506
      vertex -11.518771314189204 -15.600000000000001 78.5093440766731
    endloop
  endfacet
  facet normal 0.000000 -0.884183 0.467140
    outer loop
      vertex -2.8324183711751214 -20 72.21492363989505
      vertex 2.8324183711751205 -20 72.21492363989505
      vertex 3.9288383858235534 -15.600000000000001 80.54306047543506
    endloop
  endfacet
  facet normal 0.000000 -0.884183 0.467140
    outer loop
      vertex -2.8324183711751214 -20 72.21492363989505
      vertex 3.9288383858235534 -15.600000000000001 80.54306047543506
      vertex -3.928838385823556 -15.600000000000001 80.54306047543506
    endloop
  endfacet
  facet normal 0.120905 -0.884183 0.451223
    outer loop
      vertex 2.8324183711751205 -20 72.21492363989505
      vertex 8.304230482322444 -20 70.7487560035783
      vertex 11.518771314189195 -15.600000000000001 78.5093440766731
    endloop
  endfacet
  facet normal 0.120905 -0.884183 0.451223
    outer loop
      vertex 2.8324183711751205 -20 72.21492363989505
      vertex 11.518771314189195 -15.600000000000001 78.5093440766731
      vertex 3.9288383858235534 -15.600000000000001 80.54306047543506
    endloop
  endfacet
  facet normal 0.233570 -0.884183 0.404555
    outer loop
      vertex 8.304230482322444 -20 70.7487560035783
      vertex 13.21012300948924 -20 67.91633763240317
      vertex 18.323719013162492 -15.600000000000001 74.58050569084955
    endloop
  endfacet
  facet normal 0.233570 -0.884183 0.404555
    outer loop
      vertex 8.304230482322444 -20 70.7487560035783
      vertex 18.323719013162492 -15.600000000000001 74.58050569084955
      vertex 11.518771314189195 -15.600000000000001 78.5093440766731
    endloop
  endfacet
  facet normal 0.330318 -0.884183 0.330318
    outer loop
      vertex 13.21012300948924 -20 67.91633763240317
      vertex 17.2157674843198 -20 63.91069315757261
      vertex 23.879935542766177 -15.600000000000001 69.02428916124586
    endloop
  endfacet
  facet normal 0.330318 -0.884183 0.330318
    outer loop
      vertex 13.21012300948924 -20 67.91633763240317
      vertex 23.879935542766177 -15.600000000000001 69.02428916124586
      vertex 18.323719013162492 -15.600000000000001 74.58050569084955
    endloop
  endfacet
  facet normal 0.404555 -0.884183 0.233570
    outer loop
      vertex 17.2157674843198 -20 63.91069315757261
      vertex 20.04818585549492 -20 59.00480063040582
      vertex 27.80877392858973 -15.600000000000001 62.21934146227257
    endloop
  endfacet
  facet normal 0.404555 -0.884183 0.233570
    outer loop
      vertex 17.2157674843198 -20 63.91069315757261
      vertex 27.80877392858973 -15.600000000000001 62.21934146227257
      vertex 23.879935542766177 -15.600000000000001 69.02428916124586
    endloop
  endfacet
  facet normal 0.451223 -0.884183 0.120905
    outer loop
      vertex 20.04818585549492 -20 59.00480063040582
      vertex 21.514353491811686 -20 53.532988519258495
      vertex 27.80877392858973 -15.600000000000001 62.21934146227257
    endloop
  endfacet
  facet normal 0.451223 -0.884183 0.120905
    outer loop
      vertex 21.514353491811686 -20 53.532988519258495
      vertex 29.842490327351694 -15.600000000000001 54.62940853390693
      vertex 27.80877392858973 -15.600000000000001 62.21934146227257
    endloop
  endfacet
  facet normal 0.467140 -0.884183 0.000000
    outer loop
      vertex 21.514353491811686 -20 53.532988519258495
      vertex 21.514353491811686 -20 47.86815177690824
      vertex 29.842490327351694 -15.600000000000001 46.771731762259805
    endloop
  endfacet
  facet normal 0.467140 -0.884183 0.000000
    outer loop
      vertex 21.514353491811686 -20 53.532988519258495
      vertex 29.842490327351694 -15.600000000000001 46.771731762259805
      vertex 29.842490327351694 -15.600000000000001 54.62940853390693
    endloop
  endfacet
  facet normal 0.451223 -0.884183 -0.120905
    outer loop
      vertex 21.514353491811686 -20 47.86815177690824
      vertex 20.048185855494925 -20 42.39633966576092
      vertex 27.808773928589734 -15.600000000000001 39.18179883389416
    endloop
  endfacet
  facet normal 0.451223 -0.884183 -0.120905
    outer loop
      vertex 21.514353491811686 -20 47.86815177690824
      vertex 27.808773928589734 -15.600000000000001 39.18179883389416
      vertex 29.842490327351694 -15.600000000000001 46.771731762259805
    endloop
  endfacet
  facet normal 0.404555 -0.884183 -0.233570
    outer loop
      vertex 20.048185855494925 -20 42.39633966576092
      vertex 17.215767484319805 -20 37.49044713859413
      vertex 27.808773928589734 -15.600000000000001 39.18179883389416
    endloop
  endfacet
  facet normal 0.404555 -0.884183 -0.233570
    outer loop
      vertex 17.215767484319805 -20 37.49044713859413
      vertex 23.87993554276618 -15.600000000000001 32.37685113492087
      vertex 27.808773928589734 -15.600000000000001 39.18179883389416
    endloop
  endfacet
  facet normal 0.330318 -0.884183 -0.330318
    outer loop
      vertex 17.215767484319805 -20 37.49044713859413
      vertex 13.210123009489244 -20 33.48480266376357
      vertex 23.87993554276618 -15.600000000000001 32.37685113492087
    endloop
  endfacet
  facet normal 0.330318 -0.884183 -0.330318
    outer loop
      vertex 13.210123009489244 -20 33.48480266376357
      vertex 18.3237190131625 -15.600000000000001 26.820634605317192
      vertex 23.87993554276618 -15.600000000000001 32.37685113492087
    endloop
  endfacet
  facet normal 0.233570 -0.884183 -0.404555
    outer loop
      vertex 13.210123009489244 -20 33.48480266376357
      vertex 8.304230482322444 -20 30.65238429258844
      vertex 18.3237190131625 -15.600000000000001 26.820634605317192
    endloop
  endfacet
  facet normal 0.233570 -0.884183 -0.404555
    outer loop
      vertex 8.304230482322444 -20 30.65238429258844
      vertex 11.518771314189195 -15.600000000000001 22.89179621949363
      vertex 18.3237190131625 -15.600000000000001 26.820634605317192
    endloop
  endfacet
  facet normal 0.120905 -0.884183 -0.451223
    outer loop
      vertex 8.304230482322444 -20 30.65238429258844
      vertex 2.8324183711751214 -20 29.18621665627168
      vertex 11.518771314189195 -15.600000000000001 22.89179621949363
    endloop
  endfacet
  facet normal 0.120905 -0.884183 -0.451223
    outer loop
      vertex 2.8324183711751214 -20 29.18621665627168
      vertex 3.9288383858235543 -15.600000000000001 20.85807982073167
      vertex 11.518771314189195 -15.600000000000001 22.89179621949363
    endloop
  endfacet
  facet normal 0.000000 -0.884183 -0.467140
    outer loop
      vertex 2.8324183711751214 -20 29.18621665627168
      vertex -2.8324183711751116 -20 29.18621665627168
      vertex -3.9288383858235427 -15.600000000000001 20.85807982073167
    endloop
  endfacet
  facet normal 0.000000 -0.884183 -0.467140
    outer loop
      vertex 2.8324183711751214 -20 29.18621665627168
      vertex -3.9288383858235427 -15.600000000000001 20.85807982073167
      vertex 3.9288383858235543 -15.600000000000001 20.85807982073167
    endloop
  endfacet
  facet normal -0.120905 -0.884183 -0.451223
    outer loop
      vertex -2.8324183711751116 -20 29.18621665627168
      vertex -8.304230482322435 -20 30.65238429258844
      vertex -11.518771314189184 -15.600000000000001 22.89179621949363
    endloop
  endfacet
  facet normal -0.120905 -0.884183 -0.451223
    outer loop
      vertex -2.8324183711751116 -20 29.18621665627168
      vertex -11.518771314189184 -15.600000000000001 22.89179621949363
      vertex -3.9288383858235427 -15.600000000000001 20.85807982073167
    endloop
  endfacet
  facet normal -0.233570 -0.884183 -0.404555
    outer loop
      vertex -8.304230482322435 -20 30.65238429258844
      vertex -13.21012300948922 -20 33.484802663763546
      vertex -11.518771314189184 -15.600000000000001 22.89179621949363
    endloop
  endfacet
  facet normal -0.233570 -0.884183 -0.404555
    outer loop
      vertex -13.21012300948922 -20 33.484802663763546
      vertex -18.323719013162467 -15.600000000000001 26.82063460531717
      vertex -11.518771314189184 -15.600000000000001 22.89179621949363
    endloop
  endfacet
  facet normal -0.330318 -0.884183 -0.330318
    outer loop
      vertex -13.21012300948922 -20 33.484802663763546
      vertex -17.215767484319798 -20 37.49044713859412
      vertex -18.323719013162467 -15.600000000000001 26.82063460531717
    endloop
  endfacet
  facet normal -0.330318 -0.884183 -0.330318
    outer loop
      vertex -17.215767484319798 -20 37.49044713859412
      vertex -23.879935542766173 -15.600000000000001 32.37685113492087
      vertex -18.323719013162467 -15.600000000000001 26.82063460531717
    endloop
  endfacet
  facet normal -0.404555 -0.884183 -0.233570
    outer loop
      vertex -17.215767484319798 -20 37.49044713859412
      vertex -20.048185855494925 -20 42.39633966576092
      vertex -23.879935542766173 -15.600000000000001 32.37685113492087
    endloop
  endfacet
  facet normal -0.404555 -0.884183 -0.233570
    outer loop
      vertex -20.048185855494925 -20 42.39633966576092
      vertex -27.808773928589734 -15.600000000000001 39.18179883389417
      vertex -23.879935542766173 -15.600000000000001 32.37685113492087
    endloop
  endfacet
  facet normal -0.451223 -0.884183 -0.120905
    outer loop
      vertex -20.048185855494925 -20 42.39633966576092
      vertex -21.514353491811686 -20 47.86815177690824
      vertex -29.842490327351694 -15.600000000000001 46.77173176225981
    endloop
  endfacet
  facet normal -0.451223 -0.884183 -0.120905
    outer loop
      vertex -20.048185855494925 -20 42.39633966576092
      vertex -29.842490327351694 -15.600000000000001 46.77173176225981
      vertex -27.808773928589734 -15.600000000000001 39.18179883389417
    endloop
  endfacet
  facet normal -0.467140 -0.884183 0.000000
    outer loop
      vertex -21.514353491811686 -20 47.86815177690824
      vertex -21.514353491811686 -20 53.53298851925848
      vertex -29.842490327351694 -15.600000000000001 54.62940853390692
    endloop
  endfacet
  facet normal -0.467140 -0.884183 0.000000
    outer loop
      vertex -21.514353491811686 -20 47.86815177690824
      vertex -29.842490327351694 -15.600000000000001 54.62940853390692
      vertex -29.842490327351694 -15.600000000000001 46.77173176225981
    endloop
  endfacet
  facet normal -0.729633 -0.655296 0.195505
    outer loop
      vertex -29.842490327351694 -15.600000000000001 54.62940853390692
      vertex -27.80877392858973 -15.600000000000001 62.21934146227257
      vertex -32.335783637895034 -10 64.0944902808615
    endloop
  endfacet
  facet normal -0.729633 -0.655296 0.195505
    outer loop
      vertex -29.842490327351694 -15.600000000000001 54.62940853390692
      vertex -32.335783637895034 -10 64.0944902808615
      vertex -34.700570148083365 -10 55.268986875785174
    endloop
  endfacet
  facet normal -0.654171 -0.655296 0.377686
    outer loop
      vertex -27.80877392858973 -15.600000000000001 62.21934146227257
      vertex -23.87993554276618 -15.600000000000001 69.02428916124586
      vertex -32.335783637895034 -10 64.0944902808615
    endloop
  endfacet
  facet normal -0.654171 -0.655296 0.377686
    outer loop
      vertex -23.87993554276618 -15.600000000000001 69.02428916124586
      vertex -27.767366910193232 -10 72.00722016338858
      vertex -32.335783637895034 -10 64.0944902808615
    endloop
  endfacet
  facet normal -0.534129 -0.655296 0.534129
    outer loop
      vertex -23.87993554276618 -15.600000000000001 69.02428916124586
      vertex -18.323719013162492 -15.600000000000001 74.58050569084955
      vertex -21.306650015305223 -10 78.46793705827659
    endloop
  endfacet
  facet normal -0.534129 -0.655296 0.534129
    outer loop
      vertex -23.87993554276618 -15.600000000000001 69.02428916124586
      vertex -21.306650015305223 -10 78.46793705827659
      vertex -27.767366910193232 -10 72.00722016338858
    endloop
  endfacet
  facet normal -0.377686 -0.655296 0.654171
    outer loop
      vertex -18.323719013162492 -15.600000000000001 74.58050569084955
      vertex -11.518771314189204 -15.600000000000001 78.5093440766731
      vertex -13.393920132778144 -10 83.0363537859784
    endloop
  endfacet
  facet normal -0.377686 -0.655296 0.654171
    outer loop
      vertex -18.323719013162492 -15.600000000000001 74.58050569084955
      vertex -13.393920132778144 -10 83.0363537859784
      vertex -21.306650015305223 -10 78.46793705827659
    endloop
  endfacet
  facet normal -0.195505 -0.655296 0.729633
    outer loop
      vertex -11.518771314189204 -15.600000000000001 78.5093440766731
      vertex -3.928838385823556 -15.600000000000001 80.54306047543506
      vertex -4.56841672770181 -10 85.40114029616673
    endloop
  endfacet
  facet normal -0.195505 -0.655296 0.729633
    outer loop
      vertex -11.518771314189204 -15.600000000000001 78.5093440766731
      vertex -4.56841672770181 -10 85.40114029616673
      vertex -13.393920132778144 -10 83.0363537859784
    endloop
  endfacet
  facet normal 0.000000 -0.655296 0.755372
    outer loop
      vertex -3.928838385823556 -15.600000000000001 80.54306047543506
      vertex 3.9288383858235534 -15.600000000000001 80.54306047543506
      vertex 4.568416727701806 -10 85.40114029616673
    endloop
  endfacet
  facet normal 0.000000 -0.655296 0.755372
    outer loop
      vertex -3.928838385823556 -15.600000000000001 80.54306047543506
      vertex 4.568416727701806 -10 85.40114029616673
      vertex -4.56841672770181 -10 85.40114029616673
    endloop
  endfacet
  facet normal 0.195505 -0.655296 0.729633
    outer loop
      vertex 3.9288383858235534 -15.600000000000001 80.54306047543506
      vertex 11.518771314189195 -15.600000000000001 78.5093440766731
      vertex 13.393920132778133 -10 83.0363537859784
    endloop
  endfacet
  facet normal 0.195505 -0.655296 0.729633
    outer loop
      vertex 3.9288383858235534 -15.600000000000001 80.54306047543506
      vertex 13.393920132778133 -10 83.0363537859784
      vertex 4.568416727701806 -10 85.40114029616673
    endloop
  endfacet
  facet normal 0.377686 -0.655296 0.654171
    outer loop
      vertex 11.518771314189195 -15.600000000000001 78.5093440766731
      vertex 18.323719013162492 -15.600000000000001 74.58050569084955
      vertex 13.393920132778133 -10 83.0363537859784
    endloop
  endfacet
  facet normal 0.377686 -0.655296 0.654171
    outer loop
      vertex 18.323719013162492 -15.600000000000001 74.58050569084955
      vertex 21.306650015305223 -10 78.46793705827659
      vertex 13.393920132778133 -10 83.0363537859784
    endloop
  endfacet
  facet normal 0.534129 -0.655296 0.534129
    outer loop
      vertex 18.323719013162492 -15.600000000000001 74.58050569084955
      vertex 23.879935542766177 -15.600000000000001 69.02428916124586
      vertex 21.306650015305223 -10 78.46793705827659
    endloop
  endfacet
  facet normal 0.534129 -0.655296 0.534129
    outer loop
      vertex 23.879935542766177 -15.600000000000001 69.02428916124586
      vertex 27.76736691019323 -10 72.0072201633886
      vertex 21.306650015305223 -10 78.46793705827659
    endloop
  endfacet
  facet normal 0.654171 -0.655296 0.377686
    outer loop
      vertex 23.879935542766177 -15.600000000000001 69.02428916124586
      vertex 27.80877392858973 -15.600000000000001 62.21934146227257
      vertex 32.335783637895034 -10 64.0944902808615
    endloop
  endfacet
  facet normal 0.654171 -0.655296 0.377686
    outer loop
      vertex 23.879935542766177 -15.600000000000001 69.02428916124586
      vertex 32.335783637895034 -10 64.0944902808615
      vertex 27.76736691019323 -10 72.0072201633886
    endloop
  endfacet
  facet normal 0.729633 -0.655296 0.195505
    outer loop
      vertex 27.80877392858973 -15.600000000000001 62.21934146227257
      vertex 29.842490327351694 -15.600000000000001 54.62940853390693
      vertex 32.335783637895034 -10 64.0944902808615
    endloop
  endfacet
  facet normal 0.729633 -0.655296 0.195505
    outer loop
      vertex 29.842490327351694 -15.600000000000001 54.62940853390693
      vertex 34.700570148083365 -10 55.26898687578519
      vertex 32.335783637895034 -10 64.0944902808615
    endloop
  endfacet
  facet normal 0.755372 -0.655296 0.000000
    outer loop
      vertex 29.842490327351694 -15.600000000000001 54.62940853390693
      vertex 29.842490327351694 -15.600000000000001 46.771731762259805
      vertex 34.700570148083365 -10 46.132153420381556
    endloop
  endfacet
  facet normal 0.755372 -0.655296 0.000000
    outer loop
      vertex 29.842490327351694 -15.600000000000001 54.62940853390693
      vertex 34.700570148083365 -10 46.132153420381556
      vertex 34.700570148083365 -10 55.26898687578519
    endloop
  endfacet
  facet normal 0.729633 -0.655296 -0.195505
    outer loop
      vertex 29.842490327351694 -15.600000000000001 46.771731762259805
      vertex 27.808773928589734 -15.600000000000001 39.18179883389416
      vertex 34.700570148083365 -10 46.132153420381556
    endloop
  endfacet
  facet normal 0.729633 -0.655296 -0.195505
    outer loop
      vertex 27.808773928589734 -15.600000000000001 39.18179883389416
      vertex 32.33578363789504 -10 37.30665001530522
      vertex 34.700570148083365 -10 46.132153420381556
    endloop
  endfacet
  facet normal 0.654171 -0.655296 -0.377686
    outer loop
      vertex 27.808773928589734 -15.600000000000001 39.18179883389416
      vertex 23.87993554276618 -15.600000000000001 32.37685113492087
      vertex 27.767366910193232 -10 29.393920132778142
    endloop
  endfacet
  facet normal 0.654171 -0.655296 -0.377686
    outer loop
      vertex 27.808773928589734 -15.600000000000001 39.18179883389416
      vertex 27.767366910193232 -10 29.393920132778142
      vertex 32.33578363789504 -10 37.30665001530522
    endloop
  endfacet
  facet normal 0.534129 -0.655296 -0.534129
    outer loop
      vertex 23.87993554276618 -15.600000000000001 32.37685113492087
      vertex 18.3237190131625 -15.600000000000001 26.820634605317192
      vertex 21.30665001530523 -10 22.93320323789014
    endloop
  endfacet
  facet normal 0.534129 -0.655296 -0.534129
    outer loop
      vertex 23.87993554276618 -15.600000000000001 32.37685113492087
      vertex 21.30665001530523 -10 22.93320323789014
      vertex 27.767366910193232 -10 29.393920132778142
    endloop
  endfacet
  facet normal 0.377686 -0.655296 -0.654171
    outer loop
      vertex 18.3237190131625 -15.600000000000001 26.820634605317192
      vertex 11.518771314189195 -15.600000000000001 22.89179621949363
      vertex 21.30665001530523 -10 22.93320323789014
    endloop
  endfacet
  facet normal 0.377686 -0.655296 -0.654171
    outer loop
      vertex 11.518771314189195 -15.600000000000001 22.89179621949363
      vertex 13.393920132778133 -10 18.364786510188324
      vertex 21.30665001530523 -10 22.93320323789014
    endloop
  endfacet
  facet normal 0.195505 -0.655296 -0.729633
    outer loop
      vertex 11.518771314189195 -15.600000000000001 22.89179621949363
      vertex 3.9288383858235543 -15.600000000000001 20.85807982073167
      vertex 13.393920132778133 -10 18.364786510188324
    endloop
  endfacet
  facet normal 0.195505 -0.655296 -0.729633
    outer loop
      vertex 3.9288383858235543 -15.600000000000001 20.85807982073167
      vertex 4.568416727701807 -10 16
      vertex 13.393920132778133 -10 18.364786510188324
    endloop
  endfacet
  facet normal 0.000000 -0.655296 -0.755372
    outer loop
      vertex 3.9288383858235543 -15.600000000000001 20.85807982073167
      vertex -3.9288383858235427 -15.600000000000001 20.85807982073167
      vertex -4.568416727701794 -10 16
    endloop
  endfacet
  facet normal 0.000000 -0.655296 -0.755372
    outer loop
      vertex 3.9288383858235543 -15.600000000000001 20.85807982073167
      vertex -4.568416727701794 -10 16
      vertex 4.568416727701807 -10 16
    endloop
  endfacet
  facet normal -0.195505 -0.655296 -0.729633
    outer loop
      vertex -3.9288383858235427 -15.600000000000001 20.85807982073167
      vertex -11.518771314189184 -15.600000000000001 22.89179621949363
      vertex -13.39392013277812 -10 18.364786510188324
    endloop
  endfacet
  facet normal -0.195505 -0.655296 -0.729633
    outer loop
      vertex -3.9288383858235427 -15.600000000000001 20.85807982073167
      vertex -13.39392013277812 -10 18.364786510188324
      vertex -4.568416727701794 -10 16
    endloop
  endfacet
  facet normal -0.377686 -0.655296 -0.654171
    outer loop
      vertex -11.518771314189184 -15.600000000000001 22.89179621949363
      vertex -18.323719013162467 -15.600000000000001 26.82063460531717
      vertex -13.39392013277812 -10 18.364786510188324
    endloop
  endfacet
  facet normal -0.377686 -0.655296 -0.654171
    outer loop
      vertex -18.323719013162467 -15.600000000000001 26.82063460531717
      vertex -21.306650015305195 -10 22.933203237890115
      vertex -13.39392013277812 -10 18.364786510188324
    endloop
  endfacet
  facet normal -0.534129 -0.655296 -0.534129
    outer loop
      vertex -18.323719013162467 -15.600000000000001 26.82063460531717
      vertex -23.879935542766173 -15.600000000000001 32.37685113492087
      vertex -21.306650015305195 -10 22.933203237890115
    endloop
  endfacet
  facet normal -0.534129 -0.655296 -0.534129
    outer loop
      vertex -23.879935542766173 -15.600000000000001 32.37685113492087
      vertex -27.767366910193225 -10 29.393920132778135
      vertex -21.306650015305195 -10 22.933203237890115
    endloop
  endfacet
  facet normal -0.654171 -0.655296 -0.377686
    outer loop
      vertex -23.879935542766173 -15.600000000000001 32.37685113492087
      vertex -27.808773928589734 -15.600000000000001 39.18179883389417
      vertex -27.767366910193225 -10 29.393920132778135
    endloop
  endfacet
  facet normal -0.654171 -0.655296 -0.377686
    outer loop
      vertex -27.808773928589734 -15.600000000000001 39.18179883389417
      vertex -32.33578363789504 -10 37.30665001530523
      vertex -27.767366910193225 -10 29.393920132778135
    endloop
  endfacet
  facet normal -0.729633 -0.655296 -0.195505
    outer loop
      vertex -27.808773928589734 -15.600000000000001 39.18179883389417
      vertex -29.842490327351694 -15.600000000000001 46.77173176225981
      vertex -32.33578363789504 -10 37.30665001530523
    endloop
  endfacet
  facet normal -0.729633 -0.655296 -0.195505
    outer loop
      vertex -29.842490327351694 -15.600000000000001 46.77173176225981
      vertex -34.700570148083365 -10 46.132153420381556
      vertex -32.33578363789504 -10 37.30665001530523
    endloop
  endfacet
  facet normal -0.755372 -0.655296 0.000000
    outer loop
      vertex -29.842490327351694 -15.600000000000001 46.77173176225981
      vertex -29.842490327351694 -15.600000000000001 54.62940853390692
      vertex -34.700570148083365 -10 55.268986875785174
    endloop
  endfacet
  facet normal -0.755372 -0.655296 0.000000
    outer loop
      vertex -29.842490327351694 -15.600000000000001 46.77173176225981
      vertex -34.700570148083365 -10 55.268986875785174
      vertex -34.700570148083365 -10 46.132153420381556
    endloop
  endfacet
  facet normal -0.965926 0.000000 0.258819
    outer loop
      vertex -34.700570148083365 -10 55.268986875785174
      vertex -32.335783637895034 -10 64.0944902808615
      vertex -32.335783637895034 0 64.0944902808615
    endloop
  endfacet
  facet normal -0.965926 0.000000 0.258819
    outer loop
      vertex -34.700570148083365 -10 55.268986875785174
      vertex -32.335783637895034 0 64.0944902808615
      vertex -34.700570148083365 0 55.268986875785174
    endloop
  endfacet
  facet normal -0.866025 0.000000 0.500000
    outer loop
      vertex -32.335783637895034 -10 64.0944902808615
      vertex -27.767366910193232 -10 72.00722016338858
      vertex -27.767366910193232 0 72.00722016338858
    endloop
  endfacet
  facet normal -0.866025 0.000000 0.500000
    outer loop
      vertex -32.335783637895034 -10 64.0944902808615
      vertex -27.767366910193232 0 72.00722016338858
      vertex -32.335783637895034 0 64.0944902808615
    endloop
  endfacet
  facet normal -0.707107 0.000000 0.707107
    outer loop
      vertex -27.767366910193232 -10 72.00722016338858
      vertex -21.306650015305223 -10 78.46793705827659
      vertex -21.306650015305223 0 78.46793705827659
    endloop
  endfacet
  facet normal -0.707107 0.000000 0.707107
    outer loop
      vertex -27.767366910193232 -10 72.00722016338858
      vertex -21.306650015305223 0 78.46793705827659
      vertex -27.767366910193232 0 72.00722016338858
    endloop
  endfacet
  facet normal -0.500000 0.000000 0.866025
    outer loop
      vertex -21.306650015305223 -10 78.46793705827659
      vertex -13.393920132778144 -10 83.0363537859784
      vertex -13.393920132778144 0 83.0363537859784
    endloop
  endfacet
  facet normal -0.500000 0.000000 0.866025
    outer loop
      vertex -21.306650015305223 -10 78.46793705827659
      vertex -13.393920132778144 0 83.0363537859784
      vertex -21.306650015305223 0 78.46793705827659
    endloop
  endfacet
  facet normal -0.258819 0.000000 0.965926
    outer loop
      vertex -13.393920132778144 -10 83.0363537859784
      vertex -4.56841672770181 -10 85.40114029616673
      vertex -4.56841672770181 0 85.40114029616673
    endloop
  endfacet
  facet normal -0.258819 0.000000 0.965926
    outer loop
      vertex -13.393920132778144 -10 83.0363537859784
      vertex -4.56841672770181 0 85.40114029616673
      vertex -13.393920132778144 0 83.0363537859784
    endloop
  endfacet
  facet normal 0.000000 0.000000 1.000000
    outer loop
      vertex -4.56841672770181 -10 85.40114029616673
      vertex 4.568416727701806 -10 85.40114029616673
      vertex 4.568416727701806 0 85.40114029616673
    endloop
  endfacet
  facet normal 0.000000 0.000000 1.000000
    outer loop
      vertex -4.56841672770181 -10 85.40114029616673
      vertex 4.568416727701806 0 85.40114029616673
      vertex -4.56841672770181 0 85.40114029616673
    endloop
  endfacet
  facet normal 0.258819 0.000000 0.965926
    outer loop
      vertex 4.568416727701806 -10 85.40114029616673
      vertex 13.393920132778133 -10 83.0363537859784
      vertex 13.393920132778133 0 83.0363537859784
    endloop
  endfacet
  facet normal 0.258819 0.000000 0.965926
    outer loop
      vertex 4.568416727701806 -10 85.40114029616673
      vertex 13.393920132778133 0 83.0363537859784
      vertex 4.568416727701806 0 85.40114029616673
    endloop
  endfacet
  facet normal 0.500000 0.000000 0.866025
    outer loop
      vertex 13.393920132778133 -10 83.0363537859784
      vertex 21.306650015305223 -10 78.46793705827659
      vertex 21.306650015305223 0 78.46793705827659
    endloop
  endfacet
  facet normal 0.500000 0.000000 0.866025
    outer loop
      vertex 13.393920132778133 -10 83.0363537859784
      vertex 21.306650015305223 0 78.46793705827659
      vertex 13.393920132778133 0 83.0363537859784
    endloop
  endfacet
  facet normal 0.707107 0.000000 0.707107
    outer loop
      vertex 21.306650015305223 -10 78.46793705827659
      vertex 27.76736691019323 -10 72.0072201633886
      vertex 27.76736691019323 0 72.0072201633886
    endloop
  endfacet
  facet normal 0.707107 0.000000 0.707107
    outer loop
      vertex 21.306650015305223 -10 78.46793705827659
      vertex 27.76736691019323 0 72.0072201633886
      vertex 21.306650015305223 0 78.46793705827659
    endloop
  endfacet
  facet normal 0.866025 0.000000 0.500000
    outer loop
      vertex 27.76736691019323 -10 72.0072201633886
      vertex 32.335783637895034 -10 64.0944902808615
      vertex 32.335783637895034 0 64.0944902808615
    endloop
  endfacet
  facet normal 0.866025 0.000000 0.500000
    outer loop
      vertex 27.76736691019323 -10 72.0072201633886
      vertex 32.335783637895034 0 64.0944902808615
      vertex 27.76736691019323 0 72.0072201633886
    endloop
  endfacet
  facet normal 0.965926 0.000000 0.258819
    outer loop
      vertex 32.335783637895034 -10 64.0944902808615
      vertex 34.700570148083365 -10 55.26898687578519
      vertex 34.700570148083365 0 55.26898687578519
    endloop
  endfacet
  facet normal 0.965926 0.000000 0.258819
    outer loop
      vertex 32.335783637895034 -10 64.0944902808615
      vertex 34.700570148083365 0 55.26898687578519
      vertex 32.335783637895034 0 64.0944902808615
    endloop
  endfacet
  facet normal 1.000000 0.000000 0.000000
    outer loop
      vertex 34.700570148083365 -10 55.26898687578519
      vertex 34.700570148083365 -10 46.132153420381556
      vertex 34.700570148083365 0 46.132153420381556
    endloop
  endfacet
  facet normal 1.000000 0.000000 0.000000
    outer loop
      vertex 34.700570148083365 -10 55.26898687578519
      vertex 34.700570148083365 0 46.132153420381556
      vertex 34.700570148083365 0 55.26898687578519
    endloop
  endfacet
  facet normal 0.965926 0.000000 -0.258819
    outer loop
      vertex 34.700570148083365 -10 46.132153420381556
      vertex 32.33578363789504 -10 37.30665001530522
      vertex 32.33578363789504 0 37.30665001530522
    endloop
  endfacet
  facet normal 0.965926 0.000000 -0.258819
    outer loop
      vertex 34.700570148083365 -10 46.132153420381556
      vertex 32.33578363789504 0 37.30665001530522
      vertex 34.700570148083365 0 46.132153420381556
    endloop
  endfacet
  facet normal 0.866025 0.000000 -0.500000
    outer loop
      vertex 32.33578363789504 -10 37.30665001530522
      vertex 27.767366910193232 -10 29.393920132778142
      vertex 27.767366910193232 0 29.393920132778142
    endloop
  endfacet
  facet normal 0.866025 0.000000 -0.500000
    outer loop
      vertex 32.33578363789504 -10 37.30665001530522
      vertex 27.767366910193232 0 29.393920132778142
      vertex 32.33578363789504 0 37.30665001530522
    endloop
  endfacet
  facet normal 0.707107 0.000000 -0.707107
    outer loop
      vertex 27.767366910193232 -10 29.393920132778142
      vertex 21.30665001530523 -10 22.93320323789014
      vertex 21.30665001530523 0 22.93320323789014
    endloop
  endfacet
  facet normal 0.707107 0.000000 -0.707107
    outer loop
      vertex 27.767366910193232 -10 29.393920132778142
      vertex 21.30665001530523 0 22.93320323789014
      vertex 27.767366910193232 0 29.393920132778142
    endloop
  endfacet
  facet normal 0.500000 0.000000 -0.866025
    outer loop
      vertex 21.30665001530523 -10 22.93320323789014
      vertex 13.393920132778133 -10 18.364786510188324
      vertex 13.393920132778133 0 18.364786510188324
    endloop
  endfacet
  facet normal 0.500000 0.000000 -0.866025
    outer loop
      vertex 21.30665001530523 -10 22.93320323789014
      vertex 13.393920132778133 0 18.364786510188324
      vertex 21.30665001530523 0 22.93320323789014
    endloop
  endfacet
  facet normal 0.258819 0.000000 -0.965926
    outer loop
      vertex 13.393920132778133 -10 18.364786510188324
      vertex 4.568416727701807 -10 16
      vertex 4.568416727701807 0 16
    endloop
  endfacet
  facet normal 0.258819 0.000000 -0.965926
    outer loop
      vertex 13.393920132778133 -10 18.364786510188324
      vertex 4.568416727701807 0 16
      vertex 13.393920132778133 0 18.364786510188324
    endloop
  endfacet
  facet normal 0.000000 0.000000 -1.000000
    outer loop
      vertex 4.568416727701807 -10 16
      vertex -4.568416727701794 -10 16
      vertex -4.568416727701794 0 16
    endloop
  endfacet
  facet normal 0.000000 0.000000 -1.000000
    outer loop
      vertex 4.568416727701807 -10 16
      vertex -4.568416727701794 0 16
      vertex 4.568416727701807 0 16
    endloop
  endfacet
  facet normal -0.258819 0.000000 -0.965926
    outer loop
      vertex -4.568416727701794 -10 16
      vertex -13.39392013277812 -10 18.364786510188324
      vertex -13.39392013277812 0 18.364786510188324
    endloop
  endfacet
  facet normal -0.258819 0.000000 -0.965926
    outer loop
      vertex -4.568416727701794 -10 16
      vertex -13.39392013277812 0 18.364786510188324
      vertex -4.568416727701794 0 16
    endloop
  endfacet
  facet normal -0.500000 0.000000 -0.866025
    outer loop
      vertex -13.39392013277812 -10 18.364786510188324
      vertex -21.306650015305195 -10 22.933203237890115
      vertex -21.306650015305195 0 22.933203237890115
    endloop
  endfacet
  facet normal -0.500000 0.000000 -0.866025
    outer loop
      vertex -13.39392013277812 -10 18.364786510188324
      vertex -21.306650015305195 0 22.933203237890115
      vertex -13.39392013277812 0 18.364786510188324
    endloop
  endfacet
  facet normal -0.707107 0.000000 -0.707107
    outer loop
      vertex -21.306650015305195 -10 22.933203237890115
      vertex -27.767366910193225 -10 29.393920132778135
      vertex -27.767366910193225 0 29.393920132778135
    endloop
  endfacet
  facet normal -0.707107 0.000000 -0.707107
    outer loop
      vertex -21.306650015305195 -10 22.933203237890115
      vertex -27.767366910193225 0 29.393920132778135
      vertex -21.306650015305195 0 22.933203237890115
    endloop
  endfacet
  facet normal -0.866025 0.000000 -0.500000
    outer loop
      vertex -27.767366910193225 -10 29.393920132778135
      vertex -32.33578363789504 -10 37.30665001530523
      vertex -32.33578363789504 0 37.30665001530523
    endloop
  endfacet
  facet normal -0.866025 0.000000 -0.500000
    outer loop
      vertex -27.767366910193225 -10 29.393920132778135
      vertex -32.33578363789504 0 37.30665001530523
      vertex -27.767366910193225 0 29.393920132778135
    endloop
  endfacet
  facet normal -0.965926 0.000000 -0.258819
    outer loop
      vertex -32.33578363789504 -10 37.30665001530523
      vertex -34.700570148083365 -10 46.132153420381556
      vertex -34.700570148083365 0 46.132153420381556
    endloop
  endfacet
  facet normal -0.965926 0.000000 -0.258819
    outer loop
      vertex -32.33578363789504 -10 37.30665001530523
      vertex -34.700570148083365 0 46.132153420381556
      vertex -32.33578363789504 0 37.30665001530523
    endloop
  endfacet
  facet normal -1.000000 0.000000 0.000000
    outer loop
      vertex -34.700570148083365 -10 46.132153420381556
      vertex -34.700570148083365 -10 55.268986875785174
      vertex -34.700570148083365 0 55.268986875785174
    endloop
  endfacet
  facet normal -1.000000 0.000000 0.000000
    outer loop
      vertex -34.700570148083365 -10 46.132153420381556
      vertex -34.700570148083365 0 55.268986875785174
      vertex -34.700570148083365 0 46.132153420381556
    endloop
  endfacet
  facet normal 0.000000 1.000000 0.000000
    outer loop
      vertex 1.1102230246251565e-15 0 50.700570148083365
      vertex -34.700570148083365 0 55.268986875785174
      vertex -32.335783637895034 0 64.0944902808615
    endloop
  endfacet
  facet normal 0.000000 1.000000 0.000000
    outer loop
      vertex 1.1102230246251565e-15 0 50.700570148083365
      vertex -32.335783637895034 0 64.0944902808615
      vertex -27.767366910193232 0 72.00722016338858
    endloop
  endfacet
  facet normal 0.000000 1.000000 0.000000
    outer loop
      vertex 1.1102230246251565e-15 0 50.700570148083365
      vertex -27.767366910193232 0 72.00722016338858
      vertex -21.306650015305223 0 78.46793705827659
    endloop
  endfacet
  facet normal 0.000000 1.000000 0.000000
    outer loop
      vertex 1.1102230246251565e-15 0 50.700570148083365
      vertex -21.306650015305223 0 78.46793705827659
      vertex -13.393920132778144 0 83.0363537859784
    endloop
  endfacet
  facet normal 0.000000 1.000000 0.000000
    outer loop
      vertex 1.1102230246251565e-15 0 50.700570148083365
      vertex -13.393920132778144 0 83.0363537859784
      vertex -4.56841672770181 0 85.40114029616673
    endloop
  endfacet
  facet normal 0.000000 1.000000 0.000000
    outer loop
      vertex 1.1102230246251565e-15 0 50.700570148083365
      vertex -4.56841672770181 0 85.40114029616673
      vertex 4.568416727701806 0 85.40114029616673
    endloop
  endfacet
  facet normal 0.000000 1.000000 0.000000
    outer loop
      vertex 1.1102230246251565e-15 0 50.700570148083365
      vertex 4.568416727701806 0 85.40114029616673
      vertex 13.393920132778133 0 83.0363537859784
    endloop
  endfacet
  facet normal 0.000000 1.000000 0.000000
    outer loop
      vertex 1.1102230246251565e-15 0 50.700570148083365
      vertex 13.393920132778133 0 83.0363537859784
      vertex 21.306650015305223 0 78.46793705827659
    endloop
  endfacet
  facet normal 0.000000 1.000000 0.000000
    outer loop
      vertex 1.1102230246251565e-15 0 50.700570148083365
      vertex 21.306650015305223 0 78.46793705827659
      vertex 27.76736691019323 0 72.0072201633886
    endloop
  endfacet
  facet normal 0.000000 1.000000 0.000000
    outer loop
      vertex 1.1102230246251565e-15 0 50.700570148083365
      vertex 27.76736691019323 0 72.0072201633886
      vertex 32.335783637895034 0 64.0944902808615
    endloop
  endfacet
  facet normal 0.000000 1.000000 0.000000
    outer loop
      vertex 1.1102230246251565e-15 0 50.700570148083365
      vertex 32.335783637895034 0 64.0944902808615
      vertex 34.700570148083365 0 55.26898687578519
    endloop
  endfacet
  facet normal 0.000000 1.000000 0.000000
    outer loop
      vertex 1.1102230246251565e-15 0 50.700570148083365
      vertex 34.700570148083365 0 55.26898687578519
      vertex 34.700570148083365 0 46.132153420381556
    endloop
  endfacet
  facet normal 0.000000 1.000000 0.000000
    outer loop
      vertex 1.1102230246251565e-15 0 50.700570148083365
      vertex 34.700570148083365 0 46.132153420381556
      vertex 32.33578363789504 0 37.30665001530522
    endloop
  endfacet
  facet normal 0.000000 1.000000 0.000000
    outer loop
      vertex 1.1102230246251565e-15 0 50.700570148083365
      vertex 32.33578363789504 0 37.30665001530522
      vertex 27.767366910193232 0 29.393920132778142
    endloop
  endfacet
  facet normal 0.000000 1.000000 0.000000
    outer loop
      vertex 1.1102230246251565e-15 0 50.700570148083365
      vertex 27.767366910193232 0 29.393920132778142
      vertex 21.30665001530523 0 22.93320323789014
    endloop
  endfacet
  facet normal 0.000000 1.000000 0.000000
    outer loop
      vertex 1.1102230246251565e-15 0 50.700570148083365
      vertex 21.30665001530523 0 22.93320323789014
      vertex 13.393920132778133 0 18.364786510188324
    endloop
  endfacet
  facet normal 0.000000 1.000000 0.000000
    outer loop
      vertex 1.1102230246251565e-15 0 50.700570148083365
      vertex 13.393920132778133 0 18.364786510188324
      vertex 4.568416727701807 0 16
    endloop
  endfacet
  facet normal 0.000000 1.000000 0.000000
    outer loop
      vertex 1.1102230246251565e-15 0 50.700570148083365
      vertex 4.568416727701807 0 16
      vertex -4.568416727701794 0 16
    endloop
  endfacet
  facet normal 0.000000 1.000000 0.000000
    outer loop
      vertex 1.1102230246251565e-15 0 50.700570148083365
      vertex -4.568416727701794 0 16
      vertex -13.39392013277812 0 18.364786510188324
    endloop
  endfacet
  facet normal 0.000000 1.000000 0.000000
    outer loop
      vertex 1.1102230246251565e-15 0 50.700570148083365
      vertex -13.39392013277812 0 18.364786510188324
      vertex -21.306650015305195 0 22.933203237890115
    endloop
  endfacet
  facet normal 0.000000 1.000000 0.000000
    outer loop
      vertex 1.1102230246251565e-15 0 50.700570148083365
      vertex -21.306650015305195 0 22.933203237890115
      vertex -27.767366910193225 0 29.393920132778135
    endloop
  endfacet
  facet normal 0.000000 1.000000 0.000000
    outer loop
      vertex 1.1102230246251565e-15 0 50.700570148083365
      vertex -27.767366910193225 0 29.393920132778135
      vertex -32.33578363789504 0 37.30665001530523
    endloop
  endfacet
  facet normal 0.000000 1.000000 0.000000
    outer loop
      vertex 1.1102230246251565e-15 0 50.700570148083365
      vertex -32.33578363789504 0 37.30665001530523
      vertex -34.700570148083365 0 46.132153420381556
    endloop
  endfacet
  facet normal 0.000000 1.000000 0.000000
    outer loop
      vertex 1.1102230246251565e-15 0 50.700570148083365
      vertex -34.700570148083365 0 46.132153420381556
      vertex -34.700570148083365 0 55.268986875785174
    endloop
  endfacet
endsolid clock_case
