solid deskLampShade
  facet normal 0.909565 0.376754 -0.175353
    outer loop
      vertex 50 0 0
      vertex 35.35533905932738 35.35533905932737 0
      vertex 45.639648906057566 18.904561558835436 18
    endloop
  endfacet
  facet normal 0.687231 0.687231 0.235432
    outer loop
      vertex 35.35533905932738 35.35533905932737 0
      vertex 18.904561558835436 45.639648906057566 18
      vertex 45.639648906057566 18.904561558835436 18
    endloop
  endfacet
  facet normal 0.376754 0.909565 -0.175353
    outer loop
      vertex 35.35533905932738 35.35533905932737 0
      vertex 3.061616997868383e-15 50 0
      vertex 18.904561558835436 45.639648906057566 18
    endloop
  endfacet
  facet normal 0.000000 0.971891 0.235432
    outer loop
      vertex 3.061616997868383e-15 50 0
      vertex -18.904561558835432 45.639648906057566 18
      vertex 18.904561558835436 45.639648906057566 18
    endloop
  endfacet
  facet normal -0.376754 0.909565 -0.175353
    outer loop
      vertex 3.061616997868383e-15 50 0
      vertex -35.35533905932737 35.35533905932738 0
      vertex -18.904561558835432 45.639648906057566 18
    endloop
  endfacet
  facet normal -0.687231 0.687231 0.235432
    outer loop
      vertex -35.35533905932737 35.35533905932738 0
      vertex -45.639648906057566 18.90456155883544 18
      vertex -18.904561558835432 45.639648906057566 18
    endloop
  endfacet
  facet normal -0.909565 0.376754 -0.175353
    outer loop
      vertex -35.35533905932737 35.35533905932738 0
      vertex -50 6.123233995736766e-15 0
      vertex -45.639648906057566 18.90456155883544 18
    endloop
  endfacet
  facet normal -0.971891 0.000000 0.235432
    outer loop
      vertex -50 6.123233995736766e-15 0
      vertex -45.639648906057566 -18.90456155883543 18
      vertex -45.639648906057566 18.90456155883544 18
    endloop
  endfacet
  facet normal -0.909565 -0.376754 -0.175353
    outer loop
      vertex -50 6.123233995736766e-15 0
      vertex -35.355339059327385 -35.35533905932737 0
      vertex -45.639648906057566 -18.90456155883543 18
    endloop
  endfacet
  facet normal -0.687231 -0.687231 0.235432
    outer loop
      vertex -35.355339059327385 -35.35533905932737 0
      vertex -18.90456155883546 -45.63964890605755 18
      vertex -45.639648906057566 -18.90456155883543 18
    endloop
  endfacet
  facet normal -0.376754 -0.909565 -0.175353
    outer loop
      vertex -35.355339059327385 -35.35533905932737 0
      vertex -9.184850993605149e-15 -50 0
      vertex -18.90456155883546 -45.63964890605755 18
    endloop
  endfacet
  facet normal -0.000000 -0.971891 0.235432
    outer loop
      vertex -9.184850993605149e-15 -50 0
      vertex 18.904561558835447 -45.63964890605756 18
      vertex -18.90456155883546 -45.63964890605755 18
    endloop
  endfacet
  facet normal 0.376754 -0.909565 -0.175353
    outer loop
      vertex -9.184850993605149e-15 -50 0
      vertex 35.35533905932737 -35.355339059327385 0
      vertex 18.904561558835447 -45.63964890605756 18
    endloop
  endfacet
  facet normal 0.687231 -0.687231 0.235432
    outer loop
      vertex 35.35533905932737 -35.355339059327385 0
      vertex 45.63964890605755 -18.904561558835464 18
      vertex 18.904561558835447 -45.63964890605756 18
    endloop
  endfacet
  facet normal 0.909565 -0.376754 -0.175353
    outer loop
      vertex 35.35533905932737 -35.355339059327385 0
      vertex 50 0 0
      vertex 45.63964890605755 -18.904561558835464 18
    endloop
  endfacet
  facet normal 0.971891 -0.000000 0.235432
    outer loop
      vertex 50 0 0
      vertex 45.639648906057566 18.904561558835436 18
      vertex 45.63964890605755 -18.904561558835464 18
    endloop
  endfacet
  facet normal 0.701105 0.701105 -0.130018
    outer loop
      vertex 45.639648906057566 18.904561558835436 18
      vertex 18.904561558835436 45.639648906057566 18
      vertex 33.941125496954285 33.94112549695428 36
    endloop
  endfacet
  facet normal 0.889486 0.368437 0.270313
    outer loop
      vertex 45.639648906057566 18.904561558835436 18
      vertex 33.941125496954285 33.94112549695428 36
      vertex 48 0 36
    endloop
  endfacet
  facet normal 0.000000 0.991512 -0.130018
    outer loop
      vertex 18.904561558835436 45.639648906057566 18
      vertex -18.904561558835432 45.639648906057566 18
      vertex 2.9391523179536475e-15 48 36
    endloop
  endfacet
  facet normal 0.368437 0.889486 0.270313
    outer loop
      vertex 18.904561558835436 45.639648906057566 18
      vertex 2.9391523179536475e-15 48 36
      vertex 33.941125496954285 33.94112549695428 36
    endloop
  endfacet
  facet normal -0.701105 0.701105 -0.130018
    outer loop
      vertex -18.904561558835432 45.639648906057566 18
      vertex -45.639648906057566 18.90456155883544 18
      vertex -33.94112549695428 33.941125496954285 36
    endloop
  endfacet
  facet normal -0.368437 0.889486 0.270313
    outer loop
      vertex -18.904561558835432 45.639648906057566 18
      vertex -33.94112549695428 33.941125496954285 36
      vertex 2.9391523179536475e-15 48 36
    endloop
  endfacet
  facet normal -0.991512 0.000000 -0.130018
    outer loop
      vertex -45.639648906057566 18.90456155883544 18
      vertex -45.639648906057566 -18.90456155883543 18
      vertex -48 5.878304635907295e-15 36
    endloop
  endfacet
  facet normal -0.889486 0.368437 0.270313
    outer loop
      vertex -45.639648906057566 18.90456155883544 18
      vertex -48 5.878304635907295e-15 36
      vertex -33.94112549695428 33.941125496954285 36
    endloop
  endfacet
  facet normal -0.701105 -0.701105 -0.130018
    outer loop
      vertex -45.639648906057566 -18.90456155883543 18
      vertex -18.90456155883546 -45.63964890605755 18
      vertex -33.941125496954285 -33.94112549695428 36
    endloop
  endfacet
  facet normal -0.889486 -0.368437 0.270313
    outer loop
      vertex -45.639648906057566 -18.90456155883543 18
      vertex -33.941125496954285 -33.94112549695428 36
      vertex -48 5.878304635907295e-15 36
    endloop
  endfacet
  facet normal -0.000000 -0.991512 -0.130018
    outer loop
      vertex -18.90456155883546 -45.63964890605755 18
      vertex 18.904561558835447 -45.63964890605756 18
      vertex -8.817456953860943e-15 -48 36
    endloop
  endfacet
  facet normal -0.368437 -0.889486 0.270313
    outer loop
      vertex -18.90456155883546 -45.63964890605755 18
      vertex -8.817456953860943e-15 -48 36
      vertex -33.941125496954285 -33.94112549695428 36
    endloop
  endfacet
  facet normal 0.701105 -0.701105 -0.130018
    outer loop
      vertex 18.904561558835447 -45.63964890605756 18
      vertex 45.63964890605755 -18.904561558835464 18
      vertex 33.94112549695427 -33.941125496954285 36
    endloop
  endfacet
  facet normal 0.368437 -0.889486 0.270313
    outer loop
      vertex 18.904561558835447 -45.63964890605756 18
      vertex 33.94112549695427 -33.941125496954285 36
      vertex -8.817456953860943e-15 -48 36
    endloop
  endfacet
  facet normal 0.991512 -0.000000 -0.130018
    outer loop
      vertex 45.63964890605755 -18.904561558835464 18
      vertex 45.639648906057566 18.904561558835436 18
      vertex 48 0 36
    endloop
  endfacet
  facet normal 0.889486 -0.368437 0.270313
    outer loop
      vertex 45.63964890605755 -18.904561558835464 18
      vertex 48 0 36
      vertex 33.94112549695427 -33.941125496954285 36
    endloop
  endfacet
  facet normal 0.921056 0.381514 -0.078122
    outer loop
      vertex 48 0 36
      vertex 33.941125496954285 33.94112549695428 36
      vertex 42.128906682514675 17.450364515848094 52
    endloop
  endfacet
  facet normal 0.663826 0.663826 0.344484
    outer loop
      vertex 33.941125496954285 33.94112549695428 36
      vertex 17.450364515848097 42.128906682514675 52
      vertex 42.128906682514675 17.450364515848094 52
    endloop
  endfacet
  facet normal 0.381514 0.921056 -0.078122
    outer loop
      vertex 33.941125496954285 33.94112549695428 36
      vertex 2.9391523179536475e-15 48 36
      vertex 17.450364515848097 42.128906682514675 52
    endloop
  endfacet
  facet normal 0.000000 0.938792 0.344484
    outer loop
      vertex 2.9391523179536475e-15 48 36
      vertex -17.450364515848094 42.128906682514675 52
      vertex 17.450364515848097 42.128906682514675 52
    endloop
  endfacet
  facet normal -0.381514 0.921056 -0.078122
    outer loop
      vertex 2.9391523179536475e-15 48 36
      vertex -33.94112549695428 33.941125496954285 36
      vertex -17.450364515848094 42.128906682514675 52
    endloop
  endfacet
  facet normal -0.663826 0.663826 0.344484
    outer loop
      vertex -33.94112549695428 33.941125496954285 36
      vertex -42.128906682514675 17.4503645158481 52
      vertex -17.450364515848094 42.128906682514675 52
    endloop
  endfacet
  facet normal -0.921056 0.381514 -0.078122
    outer loop
      vertex -33.94112549695428 33.941125496954285 36
      vertex -48 5.878304635907295e-15 36
      vertex -42.128906682514675 17.4503645158481 52
    endloop
  endfacet
  facet normal -0.938792 0.000000 0.344484
    outer loop
      vertex -48 5.878304635907295e-15 36
      vertex -42.12890668251468 -17.45036451584809 52
      vertex -42.128906682514675 17.4503645158481 52
    endloop
  endfacet
  facet normal -0.921056 -0.381514 -0.078122
    outer loop
      vertex -48 5.878304635907295e-15 36
      vertex -33.941125496954285 -33.94112549695428 36
      vertex -42.12890668251468 -17.45036451584809 52
    endloop
  endfacet
  facet normal -0.663826 -0.663826 0.344484
    outer loop
      vertex -33.941125496954285 -33.94112549695428 36
      vertex -17.45036451584812 -42.12890668251467 52
      vertex -42.12890668251468 -17.45036451584809 52
    endloop
  endfacet
  facet normal -0.381514 -0.921056 -0.078122
    outer loop
      vertex -33.941125496954285 -33.94112549695428 36
      vertex -8.817456953860943e-15 -48 36
      vertex -17.45036451584812 -42.12890668251467 52
    endloop
  endfacet
  facet normal -0.000000 -0.938792 0.344484
    outer loop
      vertex -8.817456953860943e-15 -48 36
      vertex 17.450364515848104 -42.128906682514675 52
      vertex -17.45036451584812 -42.12890668251467 52
    endloop
  endfacet
  facet normal 0.381514 -0.921056 -0.078122
    outer loop
      vertex -8.817456953860943e-15 -48 36
      vertex 33.94112549695427 -33.941125496954285 36
      vertex 17.450364515848104 -42.128906682514675 52
    endloop
  endfacet
  facet normal 0.663826 -0.663826 0.344484
    outer loop
      vertex 33.94112549695427 -33.941125496954285 36
      vertex 42.12890668251467 -17.450364515848122 52
      vertex 17.450364515848104 -42.128906682514675 52
    endloop
  endfacet
  facet normal 0.921056 -0.381514 -0.078122
    outer loop
      vertex 33.94112549695427 -33.941125496954285 36
      vertex 48 0 36
      vertex 42.12890668251467 -17.450364515848122 52
    endloop
  endfacet
  facet normal 0.938792 -0.000000 0.344484
    outer loop
      vertex 48 0 36
      vertex 42.128906682514675 17.450364515848094 52
      vertex 42.12890668251467 -17.450364515848122 52
    endloop
  endfacet
  facet normal 0.706150 0.706150 0.051994
    outer loop
      vertex 42.128906682514675 17.450364515848094 52
      vertex 17.450364515848097 42.128906682514675 52
      vertex 29.27422074112307 29.274220741123063 66
    endloop
  endfacet
  facet normal 0.817968 0.338813 0.464903
    outer loop
      vertex 42.128906682514675 17.450364515848094 52
      vertex 29.27422074112307 29.274220741123063 66
      vertex 41.4 0 66
    endloop
  endfacet
  facet normal 0.000000 0.998647 0.051994
    outer loop
      vertex 17.450364515848097 42.128906682514675 52
      vertex -17.450364515848094 42.128906682514675 52
      vertex 2.535018874235021e-15 41.4 66
    endloop
  endfacet
  facet normal 0.338813 0.817968 0.464903
    outer loop
      vertex 17.450364515848097 42.128906682514675 52
      vertex 2.535018874235021e-15 41.4 66
      vertex 29.27422074112307 29.274220741123063 66
    endloop
  endfacet
  facet normal -0.706150 0.706150 0.051994
    outer loop
      vertex -17.450364515848094 42.128906682514675 52
      vertex -42.128906682514675 17.4503645158481 52
      vertex -29.274220741123063 29.27422074112307 66
    endloop
  endfacet
  facet normal -0.338813 0.817968 0.464903
    outer loop
      vertex -17.450364515848094 42.128906682514675 52
      vertex -29.274220741123063 29.27422074112307 66
      vertex 2.535018874235021e-15 41.4 66
    endloop
  endfacet
  facet normal -0.998647 0.000000 0.051994
    outer loop
      vertex -42.128906682514675 17.4503645158481 52
      vertex -42.12890668251468 -17.45036451584809 52
      vertex -41.4 5.070037748470042e-15 66
    endloop
  endfacet
  facet normal -0.817968 0.338813 0.464903
    outer loop
      vertex -42.128906682514675 17.4503645158481 52
      vertex -41.4 5.070037748470042e-15 66
      vertex -29.274220741123063 29.27422074112307 66
    endloop
  endfacet
  facet normal -0.706150 -0.706150 0.051994
    outer loop
      vertex -42.12890668251468 -17.45036451584809 52
      vertex -17.45036451584812 -42.12890668251467 52
      vertex -29.274220741123074 -29.274220741123063 66
    endloop
  endfacet
  facet normal -0.817968 -0.338813 0.464903
    outer loop
      vertex -42.12890668251468 -17.45036451584809 52
      vertex -29.274220741123074 -29.274220741123063 66
      vertex -41.4 5.070037748470042e-15 66
    endloop
  endfacet
  facet normal -0.000000 -0.998647 0.051994
    outer loop
      vertex -17.45036451584812 -42.12890668251467 52
      vertex 17.450364515848104 -42.128906682514675 52
      vertex -7.605056622705063e-15 -41.4 66
    endloop
  endfacet
  facet normal -0.338813 -0.817968 0.464903
    outer loop
      vertex -17.45036451584812 -42.12890668251467 52
      vertex -7.605056622705063e-15 -41.4 66
      vertex -29.274220741123074 -29.274220741123063 66
    endloop
  endfacet
  facet normal 0.706150 -0.706150 0.051994
    outer loop
      vertex 17.450364515848104 -42.128906682514675 52
      vertex 42.12890668251467 -17.450364515848122 52
      vertex 29.27422074112306 -29.274220741123074 66
    endloop
  endfacet
  facet normal 0.338813 -0.817968 0.464903
    outer loop
      vertex 17.450364515848104 -42.128906682514675 52
      vertex 29.27422074112306 -29.274220741123074 66
      vertex -7.605056622705063e-15 -41.4 66
    endloop
  endfacet
  facet normal 0.998647 -0.000000 0.051994
    outer loop
      vertex 42.12890668251467 -17.450364515848122 52
      vertex 42.128906682514675 17.450364515848094 52
      vertex 41.4 0 66
    endloop
  endfacet
  facet normal 0.817968 -0.338813 0.464903
    outer loop
      vertex 42.12890668251467 -17.450364515848122 52
      vertex 41.4 0 66
      vertex 29.27422074112306 -29.274220741123074 66
    endloop
  endfacet
  facet normal 0.886047 0.367013 0.283235
    outer loop
      vertex 41.4 0 66
      vertex 29.27422074112307 29.274220741123063 66
      vertex 32.335783637895034 13.393920132778142 77
    endloop
  endfacet
  facet normal 0.545706 0.545706 0.635933
    outer loop
      vertex 29.27422074112307 29.274220741123063 66
      vertex 13.393920132778144 32.335783637895034 77
      vertex 32.335783637895034 13.393920132778142 77
    endloop
  endfacet
  facet normal 0.367013 0.886047 0.283235
    outer loop
      vertex 29.27422074112307 29.274220741123063 66
      vertex 2.535018874235021e-15 41.4 66
      vertex 13.393920132778144 32.335783637895034 77
    endloop
  endfacet
  facet normal 0.000000 0.771745 0.635933
    outer loop
      vertex 2.535018874235021e-15 41.4 66
      vertex -13.39392013277814 32.335783637895034 77
      vertex 13.393920132778144 32.335783637895034 77
    endloop
  endfacet
  facet normal -0.367013 0.886047 0.283235
    outer loop
      vertex 2.535018874235021e-15 41.4 66
      vertex -29.274220741123063 29.27422074112307 66
      vertex -13.39392013277814 32.335783637895034 77
    endloop
  endfacet
  facet normal -0.545706 0.545706 0.635933
    outer loop
      vertex -29.274220741123063 29.27422074112307 66
      vertex -32.335783637895034 13.393920132778145 77
      vertex -13.39392013277814 32.335783637895034 77
    endloop
  endfacet
  facet normal -0.886047 0.367013 0.283235
    outer loop
      vertex -29.274220741123063 29.27422074112307 66
      vertex -41.4 5.070037748470042e-15 66
      vertex -32.335783637895034 13.393920132778145 77
    endloop
  endfacet
  facet normal -0.771745 0.000000 0.635933
    outer loop
      vertex -41.4 5.070037748470042e-15 66
      vertex -32.33578363789504 -13.393920132778138 77
      vertex -32.335783637895034 13.393920132778145 77
    endloop
  endfacet
  facet normal -0.886047 -0.367013 0.283235
    outer loop
      vertex -41.4 5.070037748470042e-15 66
      vertex -29.274220741123074 -29.274220741123063 66
      vertex -32.33578363789504 -13.393920132778138 77
    endloop
  endfacet
  facet normal -0.545706 -0.545706 0.635933
    outer loop
      vertex -29.274220741123074 -29.274220741123063 66
      vertex -13.393920132778161 -32.33578363789503 77
      vertex -32.33578363789504 -13.393920132778138 77
    endloop
  endfacet
  facet normal -0.367013 -0.886047 0.283235
    outer loop
      vertex -29.274220741123074 -29.274220741123063 66
      vertex -7.605056622705063e-15 -41.4 66
      vertex -13.393920132778161 -32.33578363789503 77
    endloop
  endfacet
  facet normal -0.000000 -0.771745 0.635933
    outer loop
      vertex -7.605056622705063e-15 -41.4 66
      vertex 13.39392013277815 -32.335783637895034 77
      vertex -13.393920132778161 -32.33578363789503 77
    endloop
  endfacet
  facet normal 0.367013 -0.886047 0.283235
    outer loop
      vertex -7.605056622705063e-15 -41.4 66
      vertex 29.27422074112306 -29.274220741123074 66
      vertex 13.39392013277815 -32.335783637895034 77
    endloop
  endfacet
  facet normal 0.545706 -0.545706 0.635933
    outer loop
      vertex 29.27422074112306 -29.274220741123074 66
      vertex 32.33578363789503 -13.393920132778163 77
      vertex 13.39392013277815 -32.335783637895034 77
    endloop
  endfacet
  facet normal 0.886047 -0.367013 0.283235
    outer loop
      vertex 29.27422074112306 -29.274220741123074 66
      vertex 41.4 0 66
      vertex 32.33578363789503 -13.393920132778163 77
    endloop
  endfacet
  facet normal 0.771745 -0.000000 0.635933
    outer loop
      vertex 41.4 0 66
      vertex 32.335783637895034 13.393920132778142 77
      vertex 32.33578363789503 -13.393920132778163 77
    endloop
  endfacet
  facet normal 0.524254 0.524254 0.671056
    outer loop
      vertex 32.335783637895034 13.393920132778142 77
      vertex 13.393920132778144 32.335783637895034 77
      vertex 18.38477631085024 18.384776310850235 84
    endloop
  endfacet
  facet normal 0.496679 0.205731 0.843199
    outer loop
      vertex 32.335783637895034 13.393920132778142 77
      vertex 18.38477631085024 18.384776310850235 84
      vertex 26 0 84
    endloop
  endfacet
  facet normal 0.000000 0.741407 0.671056
    outer loop
      vertex 13.393920132778144 32.335783637895034 77
      vertex -13.39392013277814 32.335783637895034 77
      vertex 1.592040838891559e-15 26 84
    endloop
  endfacet
  facet normal 0.205731 0.496679 0.843199
    outer loop
      vertex 13.393920132778144 32.335783637895034 77
      vertex 1.592040838891559e-15 26 84
      vertex 18.38477631085024 18.384776310850235 84
    endloop
  endfacet
  facet normal -0.524254 0.524254 0.671056
    outer loop
      vertex -13.39392013277814 32.335783637895034 77
      vertex -32.335783637895034 13.393920132778145 77
      vertex -18.384776310850235 18.38477631085024 84
    endloop
  endfacet
  facet normal -0.205731 0.496679 0.843199
    outer loop
      vertex -13.39392013277814 32.335783637895034 77
      vertex -18.384776310850235 18.38477631085024 84
      vertex 1.592040838891559e-15 26 84
    endloop
  endfacet
  facet normal -0.741407 0.000000 0.671056
    outer loop
      vertex -32.335783637895034 13.393920132778145 77
      vertex -32.33578363789504 -13.393920132778138 77
      vertex -26 3.184081677783118e-15 84
    endloop
  endfacet
  facet normal -0.496679 0.205731 0.843199
    outer loop
      vertex -32.335783637895034 13.393920132778145 77
      vertex -26 3.184081677783118e-15 84
      vertex -18.384776310850235 18.38477631085024 84
    endloop
  endfacet
  facet normal -0.524254 -0.524254 0.671056
    outer loop
      vertex -32.33578363789504 -13.393920132778138 77
      vertex -13.393920132778161 -32.33578363789503 77
      vertex -18.38477631085024 -18.384776310850235 84
    endloop
  endfacet
  facet normal -0.496679 -0.205731 0.843199
    outer loop
      vertex -32.33578363789504 -13.393920132778138 77
      vertex -18.38477631085024 -18.384776310850235 84
      vertex -26 3.184081677783118e-15 84
    endloop
  endfacet
  facet normal -0.000000 -0.741407 0.671056
    outer loop
      vertex -13.393920132778161 -32.33578363789503 77
      vertex 13.39392013277815 -32.335783637895034 77
      vertex -4.776122516674677e-15 -26 84
    endloop
  endfacet
  facet normal -0.205731 -0.496679 0.843199
    outer loop
      vertex -13.393920132778161 -32.33578363789503 77
      vertex -4.776122516674677e-15 -26 84
      vertex -18.38477631085024 -18.384776310850235 84
    endloop
  endfacet
  facet normal 0.524254 -0.524254 0.671056
    outer loop
      vertex 13.39392013277815 -32.335783637895034 77
      vertex 32.33578363789503 -13.393920132778163 77
      vertex 18.38477631085023 -18.38477631085024 84
    endloop
  endfacet
  facet normal 0.205731 -0.496679 0.843199
    outer loop
      vertex 13.39392013277815 -32.335783637895034 77
      vertex 18.38477631085023 -18.38477631085024 84
      vertex -4.776122516674677e-15 -26 84
    endloop
  endfacet
  facet normal 0.741407 -0.000000 0.671056
    outer loop
      vertex 32.33578363789503 -13.393920132778163 77
      vertex 32.335783637895034 13.393920132778142 77
      vertex 26 0 84
    endloop
  endfacet
  facet normal 0.496679 -0.205731 0.843199
    outer loop
      vertex 32.33578363789503 -13.393920132778163 77
      vertex 26 0 84
      vertex 18.38477631085023 -18.38477631085024 84
    endloop
  endfacet
  facet normal 0.291548 0.120763 0.948903
    outer loop
      vertex 26 0 84
      vertex 18.38477631085024 18.384776310850235 84
      vertex 13.858192987669302 5.740251485476347 87
    endloop
  endfacet
  facet normal 0.169611 0.169611 0.970806
    outer loop
      vertex 18.38477631085024 18.384776310850235 84
      vertex 5.740251485476348 13.858192987669302 87
      vertex 13.858192987669302 5.740251485476347 87
    endloop
  endfacet
  facet normal 0.120763 0.291548 0.948903
    outer loop
      vertex 18.38477631085024 18.384776310850235 84
      vertex 1.592040838891559e-15 26 84
      vertex 5.740251485476348 13.858192987669302 87
    endloop
  endfacet
  facet normal 0.000000 0.239867 0.970806
    outer loop
      vertex 1.592040838891559e-15 26 84
      vertex -5.740251485476346 13.858192987669302 87
      vertex 5.740251485476348 13.858192987669302 87
    endloop
  endfacet
  facet normal -0.120763 0.291548 0.948903
    outer loop
      vertex 1.592040838891559e-15 26 84
      vertex -18.384776310850235 18.38477631085024 84
      vertex -5.740251485476346 13.858192987669302 87
    endloop
  endfacet
  facet normal -0.169611 0.169611 0.970806
    outer loop
      vertex -18.384776310850235 18.38477631085024 84
      vertex -13.858192987669302 5.740251485476349 87
      vertex -5.740251485476346 13.858192987669302 87
    endloop
  endfacet
  facet normal -0.291548 0.120763 0.948903
    outer loop
      vertex -18.384776310850235 18.38477631085024 84
      vertex -26 3.184081677783118e-15 84
      vertex -13.858192987669302 5.740251485476349 87
    endloop
  endfacet
  facet normal -0.239867 0.000000 0.970806
    outer loop
      vertex -26 3.184081677783118e-15 84
      vertex -13.858192987669304 -5.740251485476345 87
      vertex -13.858192987669302 5.740251485476349 87
    endloop
  endfacet
  facet normal -0.291548 -0.120763 0.948903
    outer loop
      vertex -26 3.184081677783118e-15 84
      vertex -18.38477631085024 -18.384776310850235 84
      vertex -13.858192987669304 -5.740251485476345 87
    endloop
  endfacet
  facet normal -0.169611 -0.169611 0.970806
    outer loop
      vertex -18.38477631085024 -18.384776310850235 84
      vertex -5.740251485476355 -13.858192987669298 87
      vertex -13.858192987669304 -5.740251485476345 87
    endloop
  endfacet
  facet normal -0.120763 -0.291548 0.948903
    outer loop
      vertex -18.38477631085024 -18.384776310850235 84
      vertex -4.776122516674677e-15 -26 84
      vertex -5.740251485476355 -13.858192987669298 87
    endloop
  endfacet
  facet normal -0.000000 -0.239867 0.970806
    outer loop
      vertex -4.776122516674677e-15 -26 84
      vertex 5.7402514854763504 -13.8581929876693 87
      vertex -5.740251485476355 -13.858192987669298 87
    endloop
  endfacet
  facet normal 0.120763 -0.291548 0.948903
    outer loop
      vertex -4.776122516674677e-15 -26 84
      vertex 18.38477631085023 -18.38477631085024 84
      vertex 5.7402514854763504 -13.8581929876693 87
    endloop
  endfacet
  facet normal 0.169611 -0.169611 0.970806
    outer loop
      vertex 18.38477631085023 -18.38477631085024 84
      vertex 13.858192987669298 -5.740251485476356 87
      vertex 5.7402514854763504 -13.8581929876693 87
    endloop
  endfacet
  facet normal 0.291548 -0.120763 0.948903
    outer loop
      vertex 18.38477631085023 -18.38477631085024 84
      vertex 26 0 84
      vertex 13.858192987669298 -5.740251485476356 87
    endloop
  endfacet
  facet normal 0.239867 -0.000000 0.970806
    outer loop
      vertex 26 0 84
      vertex 13.858192987669302 5.740251485476347 87
      vertex 13.858192987669298 -5.740251485476356 87
    endloop
  endfacet
  facet normal 0.000000 0.000000 1.000000
    outer loop
      vertex 0 0 87
      vertex 13.858192987669302 5.740251485476347 87
      vertex 5.740251485476348 13.858192987669302 87
    endloop
  endfacet
  facet normal 0.000000 0.000000 1.000000
    outer loop
      vertex 0 0 87
      vertex 5.740251485476348 13.858192987669302 87
      vertex -5.740251485476346 13.858192987669302 87
    endloop
  endfacet
  facet normal 0.000000 0.000000 1.000000
    outer loop
      vertex 0 0 87
      vertex -5.740251485476346 13.858192987669302 87
      vertex -13.858192987669302 5.740251485476349 87
    endloop
  endfacet
  facet normal 0.000000 0.000000 1.000000
    outer loop
      vertex 0 0 87
      vertex -13.858192987669302 5.740251485476349 87
      vertex -13.858192987669304 -5.740251485476345 87
    endloop
  endfacet
  facet normal 0.000000 0.000000 1.000000
    outer loop
      vertex 0 0 87
      vertex -13.858192987669304 -5.740251485476345 87
      vertex -5.740251485476355 -13.858192987669298 87
    endloop
  endfacet
  facet normal 0.000000 0.000000 1.000000
    outer loop
      vertex 0 0 87
      vertex -5.740251485476355 -13.858192987669298 87
      vertex 5.7402514854763504 -13.8581929876693 87
    endloop
  endfacet
  facet normal 0.000000 0.000000 1.000000
    outer loop
      vertex 0 0 87
      vertex 5.7402514854763504 -13.8581929876693 87
      vertex 13.858192987669298 -5.740251485476356 87
    endloop
  endfacet
  facet normal 0.000000 0.000000 1.000000
    outer loop
      vertex 0 0 87
      vertex 13.858192987669298 -5.740251485476356 87
      vertex 13.858192987669302 5.740251485476347 87
    endloop
  endfacet
endsolid deskLampShade
