solid deskLampBase
  facet normal 0.921919 0.381871 -0.065108
    outer loop
      vertex 24 0 0
      vertex 16.970562748477143 16.97056274847714 0
      vertex 22.17310878027088 9.184402376762154 28
    endloop
  endfacet
  facet normal 0.705606 0.705606 0.065108
    outer loop
      vertex 16.970562748477143 16.97056274847714 0
      vertex 9.184402376762156 22.17310878027088 28
      vertex 22.17310878027088 9.184402376762154 28
    endloop
  endfacet
  facet normal 0.381871 0.921919 -0.065108
    outer loop
      vertex 16.970562748477143 16.97056274847714 0
      vertex 1.4695761589768238e-15 24 0
      vertex 9.184402376762156 22.17310878027088 28
    endloop
  endfacet
  facet normal 0.000000 0.997878 0.065108
    outer loop
      vertex 1.4695761589768238e-15 24 0
      vertex -9.184402376762154 22.17310878027088 28
      vertex 9.184402376762156 22.17310878027088 28
    endloop
  endfacet
  facet normal -0.381871 0.921919 -0.065108
    outer loop
      vertex 1.4695761589768238e-15 24 0
      vertex -16.97056274847714 16.970562748477143 0
      vertex -9.184402376762154 22.17310878027088 28
    endloop
  endfacet
  facet normal -0.705606 0.705606 0.065108
    outer loop
      vertex -16.97056274847714 16.970562748477143 0
      vertex -22.17310878027088 9.184402376762158 28
      vertex -9.184402376762154 22.17310878027088 28
    endloop
  endfacet
  facet normal -0.921919 0.381871 -0.065108
    outer loop
      vertex -16.97056274847714 16.970562748477143 0
      vertex -24 2.9391523179536475e-15 0
      vertex -22.17310878027088 9.184402376762158 28
    endloop
  endfacet
  facet normal -0.997878 0.000000 0.065108
    outer loop
      vertex -24 2.9391523179536475e-15 0
      vertex -22.173108780270883 -9.184402376762153 28
      vertex -22.17310878027088 9.184402376762158 28
    endloop
  endfacet
  facet normal -0.921919 -0.381871 -0.065108
    outer loop
      vertex -24 2.9391523179536475e-15 0
      vertex -16.970562748477143 -16.97056274847714 0
      vertex -22.173108780270883 -9.184402376762153 28
    endloop
  endfacet
  facet normal -0.705606 -0.705606 0.065108
    outer loop
      vertex -16.970562748477143 -16.97056274847714 0
      vertex -9.184402376762169 -22.173108780270876 28
      vertex -22.173108780270883 -9.184402376762153 28
    endloop
  endfacet
  facet normal -0.381871 -0.921919 -0.065108
    outer loop
      vertex -16.970562748477143 -16.97056274847714 0
      vertex -4.408728476930472e-15 -24 0
      vertex -9.184402376762169 -22.173108780270876 28
    endloop
  endfacet
  facet normal -0.000000 -0.997878 0.065108
    outer loop
      vertex -4.408728476930472e-15 -24 0
      vertex 9.18440237676216 -22.17310878027088 28
      vertex -9.184402376762169 -22.173108780270876 28
    endloop
  endfacet
  facet normal 0.381871 -0.921919 -0.065108
    outer loop
      vertex -4.408728476930472e-15 -24 0
      vertex 16.970562748477136 -16.970562748477143 0
      vertex 9.18440237676216 -22.17310878027088 28
    endloop
  endfacet
  facet normal 0.705606 -0.705606 0.065108
    outer loop
      vertex 16.970562748477136 -16.970562748477143 0
      vertex 22.173108780270876 -9.184402376762169 28
      vertex 9.18440237676216 -22.17310878027088 28
    endloop
  endfacet
  facet normal 0.921919 -0.381871 -0.065108
    outer loop
      vertex 16.970562748477136 -16.970562748477143 0
      vertex 24 0 0
      vertex 22.173108780270876 -9.184402376762169 28
    endloop
  endfacet
  facet normal 0.997878 -0.000000 0.065108
    outer loop
      vertex 24 0 0
      vertex 22.17310878027088 9.184402376762154 28
      vertex 22.173108780270876 -9.184402376762169 28
    endloop
  endfacet
  facet normal 0.705606 0.705606 -0.065108
    outer loop
      vertex 22.17310878027088 9.184402376762154 28
      vertex 9.184402376762156 22.17310878027088 28
      vertex 16.970562748477143 16.97056274847714 56
    endloop
  endfacet
  facet normal 0.921919 0.381871 0.065108
    outer loop
      vertex 22.17310878027088 9.184402376762154 28
      vertex 16.970562748477143 16.97056274847714 56
      vertex 24 0 56
    endloop
  endfacet
  facet normal 0.000000 0.997878 -0.065108
    outer loop
      vertex 9.184402376762156 22.17310878027088 28
      vertex -9.184402376762154 22.17310878027088 28
      vertex 1.4695761589768238e-15 24 56
    endloop
  endfacet
  facet normal 0.381871 0.921919 0.065108
    outer loop
      vertex 9.184402376762156 22.17310878027088 28
      vertex 1.4695761589768238e-15 24 56
      vertex 16.970562748477143 16.97056274847714 56
    endloop
  endfacet
  facet normal -0.705606 0.705606 -0.065108
    outer loop
      vertex -9.184402376762154 22.17310878027088 28
      vertex -22.17310878027088 9.184402376762158 28
      vertex -16.97056274847714 16.970562748477143 56
    endloop
  endfacet
  facet normal -0.381871 0.921919 0.065108
    outer loop
      vertex -9.184402376762154 22.17310878027088 28
      vertex -16.97056274847714 16.970562748477143 56
      vertex 1.4695761589768238e-15 24 56
    endloop
  endfacet
  facet normal -0.997878 0.000000 -0.065108
    outer loop
      vertex -22.17310878027088 9.184402376762158 28
      vertex -22.173108780270883 -9.184402376762153 28
      vertex -24 2.9391523179536475e-15 56
    endloop
  endfacet
  facet normal -0.921919 0.381871 0.065108
    outer loop
      vertex -22.17310878027088 9.184402376762158 28
      vertex -24 2.9391523179536475e-15 56
      vertex -16.97056274847714 16.970562748477143 56
    endloop
  endfacet
  facet normal -0.705606 -0.705606 -0.065108
    outer loop
      vertex -22.173108780270883 -9.184402376762153 28
      vertex -9.184402376762169 -22.173108780270876 28
      vertex -16.970562748477143 -16.97056274847714 56
    endloop
  endfacet
  facet normal -0.921919 -0.381871 0.065108
    outer loop
      vertex -22.173108780270883 -9.184402376762153 28
      vertex -16.970562748477143 -16.97056274847714 56
      vertex -24 2.9391523179536475e-15 56
    endloop
  endfacet
  facet normal -0.000000 -0.997878 -0.065108
    outer loop
      vertex -9.184402376762169 -22.173108780270876 28
      vertex 9.18440237676216 -22.17310878027088 28
      vertex -4.408728476930472e-15 -24 56
    endloop
  endfacet
  facet normal -0.381871 -0.921919 0.065108
    outer loop
      vertex -9.184402376762169 -22.173108780270876 28
      vertex -4.408728476930472e-15 -24 56
      vertex -16.970562748477143 -16.97056274847714 56
    endloop
  endfacet
  facet normal 0.705606 -0.705606 -0.065108
    outer loop
      vertex 9.18440237676216 -22.17310878027088 28
      vertex 22.173108780270876 -9.184402376762169 28
      vertex 16.970562748477136 -16.970562748477143 56
    endloop
  endfacet
  facet normal 0.381871 -0.921919 0.065108
    outer loop
      vertex 9.18440237676216 -22.17310878027088 28
      vertex 16.970562748477136 -16.970562748477143 56
      vertex -4.408728476930472e-15 -24 56
    endloop
  endfacet
  facet normal 0.997878 -0.000000 -0.065108
    outer loop
      vertex 22.173108780270876 -9.184402376762169 28
      vertex 22.17310878027088 9.184402376762154 28
      vertex 24 0 56
    endloop
  endfacet
  facet normal 0.921919 -0.381871 0.065108
    outer loop
      vertex 22.173108780270876 -9.184402376762169 28
      vertex 24 0 56
      vertex 16.970562748477136 -16.970562748477143 56
    endloop
  endfacet
  facet normal 0.921919 0.381871 -0.065108
    outer loop
      vertex 24 0 56
      vertex 16.970562748477143 16.97056274847714 56
      vertex 22.17310878027088 9.184402376762154 84
    endloop
  endfacet
  facet normal 0.705606 0.705606 0.065108
    outer loop
      vertex 16.970562748477143 16.97056274847714 56
      vertex 9.184402376762156 22.17310878027088 84
      vertex 22.17310878027088 9.184402376762154 84
    endloop
  endfacet
  facet normal 0.381871 0.921919 -0.065108
    outer loop
      vertex 16.970562748477143 16.97056274847714 56
      vertex 1.4695761589768238e-15 24 56
      vertex 9.184402376762156 22.17310878027088 84
    endloop
  endfacet
  facet normal 0.000000 0.997878 0.065108
    outer loop
      vertex 1.4695761589768238e-15 24 56
      vertex -9.184402376762154 22.17310878027088 84
      vertex 9.184402376762156 22.17310878027088 84
    endloop
  endfacet
  facet normal -0.381871 0.921919 -0.065108
    outer loop
      vertex 1.4695761589768238e-15 24 56
      vertex -16.97056274847714 16.970562748477143 56
      vertex -9.184402376762154 22.17310878027088 84
    endloop
  endfacet
  facet normal -0.705606 0.705606 0.065108
    outer loop
      vertex -16.97056274847714 16.970562748477143 56
      vertex -22.17310878027088 9.184402376762158 84
      vertex -9.184402376762154 22.17310878027088 84
    endloop
  endfacet
  facet normal -0.921919 0.381871 -0.065108
    outer loop
      vertex -16.97056274847714 16.970562748477143 56
      vertex -24 2.9391523179536475e-15 56
      vertex -22.17310878027088 9.184402376762158 84
    endloop
  endfacet
  facet normal -0.997878 0.000000 0.065108
    outer loop
      vertex -24 2.9391523179536475e-15 56
      vertex -22.173108780270883 -9.184402376762153 84
      vertex -22.17310878027088 9.184402376762158 84
    endloop
  endfacet
  facet normal -0.921919 -0.381871 -0.065108
    outer loop
      vertex -24 2.9391523179536475e-15 56
      vertex -16.970562748477143 -16.97056274847714 56
      vertex -22.173108780270883 -9.184402376762153 84
    endloop
  endfacet
  facet normal -0.705606 -0.705606 0.065108
    outer loop
      vertex -16.970562748477143 -16.97056274847714 56
      vertex -9.184402376762169 -22.173108780270876 84
      vertex -22.173108780270883 -9.184402376762153 84
    endloop
  endfacet
  facet normal -0.381871 -0.921919 -0.065108
    outer loop
      vertex -16.970562748477143 -16.97056274847714 56
      vertex -4.408728476930472e-15 -24 56
      vertex -9.184402376762169 -22.173108780270876 84
    endloop
  endfacet
  facet normal -0.000000 -0.997878 0.065108
    outer loop
      vertex -4.408728476930472e-15 -24 56
      vertex 9.18440237676216 -22.17310878027088 84
      vertex -9.184402376762169 -22.173108780270876 84
    endloop
  endfacet
  facet normal 0.381871 -0.921919 -0.065108
    outer loop
      vertex -4.408728476930472e-15 -24 56
      vertex 16.970562748477136 -16.970562748477143 56
      vertex 9.18440237676216 -22.17310878027088 84
    endloop
  endfacet
  facet normal 0.705606 -0.705606 0.065108
    outer loop
      vertex 16.970562748477136 -16.970562748477143 56
      vertex 22.173108780270876 -9.184402376762169 84
      vertex 9.18440237676216 -22.17310878027088 84
    endloop
  endfacet
  facet normal 0.921919 -0.381871 -0.065108
    outer loop
      vertex 16.970562748477136 -16.970562748477143 56
      vertex 24 0 56
      vertex 22.173108780270876 -9.184402376762169 84
    endloop
  endfacet
  facet normal 0.997878 -0.000000 0.065108
    outer loop
      vertex 24 0 56
      vertex 22.17310878027088 9.184402376762154 84
      vertex 22.173108780270876 -9.184402376762169 84
    endloop
  endfacet
  facet normal 0.704681 0.704681 -0.082756
    outer loop
      vertex 22.17310878027088 9.184402376762154 84
      vertex 9.184402376762156 22.17310878027088 84
      vertex 16.970562748477143 16.97056274847714 106
    endloop
  endfacet
  facet normal 0.920711 0.381371 0.082756
    outer loop
      vertex 22.17310878027088 9.184402376762154 84
      vertex 16.970562748477143 16.97056274847714 106
      vertex 24 0 106
    endloop
  endfacet
  facet normal 0.000000 0.996570 -0.082756
    outer loop
      vertex 9.184402376762156 22.17310878027088 84
      vertex -9.184402376762154 22.17310878027088 84
      vertex 1.4695761589768238e-15 24 106
    endloop
  endfacet
  facet normal 0.381371 0.920711 0.082756
    outer loop
      vertex 9.184402376762156 22.17310878027088 84
      vertex 1.4695761589768238e-15 24 106
      vertex 16.970562748477143 16.97056274847714 106
    endloop
  endfacet
  facet normal -0.704681 0.704681 -0.082756
    outer loop
      vertex -9.184402376762154 22.17310878027088 84
      vertex -22.17310878027088 9.184402376762158 84
      vertex -16.97056274847714 16.970562748477143 106
    endloop
  endfacet
  facet normal -0.381371 0.920711 0.082756
    outer loop
      vertex -9.184402376762154 22.17310878027088 84
      vertex -16.97056274847714 16.970562748477143 106
      vertex 1.4695761589768238e-15 24 106
    endloop
  endfacet
  facet normal -0.996570 0.000000 -0.082756
    outer loop
      vertex -22.17310878027088 9.184402376762158 84
      vertex -22.173108780270883 -9.184402376762153 84
      vertex -24 2.9391523179536475e-15 106
    endloop
  endfacet
  facet normal -0.920711 0.381371 0.082756
    outer loop
      vertex -22.17310878027088 9.184402376762158 84
      vertex -24 2.9391523179536475e-15 106
      vertex -16.97056274847714 16.970562748477143 106
    endloop
  endfacet
  facet normal -0.704681 -0.704681 -0.082756
    outer loop
      vertex -22.173108780270883 -9.184402376762153 84
      vertex -9.184402376762169 -22.173108780270876 84
      vertex -16.970562748477143 -16.97056274847714 106
    endloop
  endfacet
  facet normal -0.920711 -0.381371 0.082756
    outer loop
      vertex -22.173108780270883 -9.184402376762153 84
      vertex -16.970562748477143 -16.97056274847714 106
      vertex -24 2.9391523179536475e-15 106
    endloop
  endfacet
  facet normal -0.000000 -0.996570 -0.082756
    outer loop
      vertex -9.184402376762169 -22.173108780270876 84
      vertex 9.18440237676216 -22.17310878027088 84
      vertex -4.408728476930472e-15 -24 106
    endloop
  endfacet
  facet normal -0.381371 -0.920711 0.082756
    outer loop
      vertex -9.184402376762169 -22.173108780270876 84
      vertex -4.408728476930472e-15 -24 106
      vertex -16.970562748477143 -16.97056274847714 106
    endloop
  endfacet
  facet normal 0.704681 -0.704681 -0.082756
    outer loop
      vertex 9.18440237676216 -22.17310878027088 84
      vertex 22.173108780270876 -9.184402376762169 84
      vertex 16.970562748477136 -16.970562748477143 106
    endloop
  endfacet
  facet normal 0.381371 -0.920711 0.082756
    outer loop
      vertex 9.18440237676216 -22.17310878027088 84
      vertex 16.970562748477136 -16.970562748477143 106
      vertex -4.408728476930472e-15 -24 106
    endloop
  endfacet
  facet normal 0.996570 -0.000000 -0.082756
    outer loop
      vertex 22.173108780270876 -9.184402376762169 84
      vertex 22.17310878027088 9.184402376762154 84
      vertex 24 0 106
    endloop
  endfacet
  facet normal 0.920711 -0.381371 0.082756
    outer loop
      vertex 22.173108780270876 -9.184402376762169 84
      vertex 24 0 106
      vertex 16.970562748477136 -16.970562748477143 106
    endloop
  endfacet
  facet normal 0.920653 0.381347 0.083501
    outer loop
      vertex 24 0 106
      vertex 16.970562748477143 16.97056274847714 106
      vertex 19.40147018273702 8.036352079666885 120
    endloop
  endfacet
  facet normal 0.671795 0.671795 0.312063
    outer loop
      vertex 16.970562748477143 16.97056274847714 106
      vertex 8.036352079666887 19.40147018273702 120
      vertex 19.40147018273702 8.036352079666885 120
    endloop
  endfacet
  facet normal 0.381347 0.920653 0.083501
    outer loop
      vertex 16.970562748477143 16.97056274847714 106
      vertex 1.4695761589768238e-15 24 106
      vertex 8.036352079666887 19.40147018273702 120
    endloop
  endfacet
  facet normal 0.000000 0.950061 0.312063
    outer loop
      vertex 1.4695761589768238e-15 24 106
      vertex -8.036352079666884 19.40147018273702 120
      vertex 8.036352079666887 19.40147018273702 120
    endloop
  endfacet
  facet normal -0.381347 0.920653 0.083501
    outer loop
      vertex 1.4695761589768238e-15 24 106
      vertex -16.97056274847714 16.970562748477143 106
      vertex -8.036352079666884 19.40147018273702 120
    endloop
  endfacet
  facet normal -0.671795 0.671795 0.312063
    outer loop
      vertex -16.97056274847714 16.970562748477143 106
      vertex -19.40147018273702 8.036352079666887 120
      vertex -8.036352079666884 19.40147018273702 120
    endloop
  endfacet
  facet normal -0.920653 0.381347 0.083501
    outer loop
      vertex -16.97056274847714 16.970562748477143 106
      vertex -24 2.9391523179536475e-15 106
      vertex -19.40147018273702 8.036352079666887 120
    endloop
  endfacet
  facet normal -0.950061 0.000000 0.312063
    outer loop
      vertex -24 2.9391523179536475e-15 106
      vertex -19.401470182737025 -8.036352079666884 120
      vertex -19.40147018273702 8.036352079666887 120
    endloop
  endfacet
  facet normal -0.920653 -0.381347 0.083501
    outer loop
      vertex -24 2.9391523179536475e-15 106
      vertex -16.970562748477143 -16.97056274847714 106
      vertex -19.401470182737025 -8.036352079666884 120
    endloop
  endfacet
  facet normal -0.671795 -0.671795 0.312063
    outer loop
      vertex -16.970562748477143 -16.97056274847714 106
      vertex -8.036352079666898 -19.401470182737018 120
      vertex -19.401470182737025 -8.036352079666884 120
    endloop
  endfacet
  facet normal -0.381347 -0.920653 0.083501
    outer loop
      vertex -16.970562748477143 -16.97056274847714 106
      vertex -4.408728476930472e-15 -24 106
      vertex -8.036352079666898 -19.401470182737018 120
    endloop
  endfacet
  facet normal 0.000000 -0.950061 0.312063
    outer loop
      vertex -4.408728476930472e-15 -24 106
      vertex 8.03635207966689 -19.401470182737018 120
      vertex -8.036352079666898 -19.401470182737018 120
    endloop
  endfacet
  facet normal 0.381347 -0.920653 0.083501
    outer loop
      vertex -4.408728476930472e-15 -24 106
      vertex 16.970562748477136 -16.970562748477143 106
      vertex 8.03635207966689 -19.401470182737018 120
    endloop
  endfacet
  facet normal 0.671795 -0.671795 0.312063
    outer loop
      vertex 16.970562748477136 -16.970562748477143 106
      vertex 19.401470182737018 -8.036352079666898 120
      vertex 8.03635207966689 -19.401470182737018 120
    endloop
  endfacet
  facet normal 0.920653 -0.381347 0.083501
    outer loop
      vertex 16.970562748477136 -16.970562748477143 106
      vertex 24 0 106
      vertex 19.401470182737018 -8.036352079666898 120
    endloop
  endfacet
  facet normal 0.950061 -0.000000 0.312063
    outer loop
      vertex 24 0 106
      vertex 19.40147018273702 8.036352079666885 120
      vertex 19.401470182737018 -8.036352079666898 120
    endloop
  endfacet
  facet normal 0.635213 0.635213 0.439329
    outer loop
      vertex 19.40147018273702 8.036352079666885 120
      vertex 8.036352079666887 19.40147018273702 120
      vertex 10.606601717798213 10.606601717798211 129
    endloop
  endfacet
  facet normal 0.723706 0.299769 0.621602
    outer loop
      vertex 19.40147018273702 8.036352079666885 120
      vertex 10.606601717798213 10.606601717798211 129
      vertex 15 0 129
    endloop
  endfacet
  facet normal 0.000000 0.898326 0.439329
    outer loop
      vertex 8.036352079666887 19.40147018273702 120
      vertex -8.036352079666884 19.40147018273702 120
      vertex 9.18485099360515e-16 15 129
    endloop
  endfacet
  facet normal 0.299769 0.723706 0.621602
    outer loop
      vertex 8.036352079666887 19.40147018273702 120
      vertex 9.18485099360515e-16 15 129
      vertex 10.606601717798213 10.606601717798211 129
    endloop
  endfacet
  facet normal -0.635213 0.635213 0.439329
    outer loop
      vertex -8.036352079666884 19.40147018273702 120
      vertex -19.40147018273702 8.036352079666887 120
      vertex -10.606601717798211 10.606601717798213 129
    endloop
  endfacet
  facet normal -0.299769 0.723706 0.621602
    outer loop
      vertex -8.036352079666884 19.40147018273702 120
      vertex -10.606601717798211 10.606601717798213 129
      vertex 9.18485099360515e-16 15 129
    endloop
  endfacet
  facet normal -0.898326 0.000000 0.439329
    outer loop
      vertex -19.40147018273702 8.036352079666887 120
      vertex -19.401470182737025 -8.036352079666884 120
      vertex -15 1.83697019872103e-15 129
    endloop
  endfacet
  facet normal -0.723706 0.299769 0.621602
    outer loop
      vertex -19.40147018273702 8.036352079666887 120
      vertex -15 1.83697019872103e-15 129
      vertex -10.606601717798211 10.606601717798213 129
    endloop
  endfacet
  facet normal -0.635213 -0.635213 0.439329
    outer loop
      vertex -19.401470182737025 -8.036352079666884 120
      vertex -8.036352079666898 -19.401470182737018 120
      vertex -10.606601717798215 -10.606601717798211 129
    endloop
  endfacet
  facet normal -0.723706 -0.299769 0.621602
    outer loop
      vertex -19.401470182737025 -8.036352079666884 120
      vertex -10.606601717798215 -10.606601717798211 129
      vertex -15 1.83697019872103e-15 129
    endloop
  endfacet
  facet normal 0.000000 -0.898326 0.439329
    outer loop
      vertex -8.036352079666898 -19.401470182737018 120
      vertex 8.03635207966689 -19.401470182737018 120
      vertex -2.7554552980815444e-15 -15 129
    endloop
  endfacet
  facet normal -0.299769 -0.723706 0.621602
    outer loop
      vertex -8.036352079666898 -19.401470182737018 120
      vertex -2.7554552980815444e-15 -15 129
      vertex -10.606601717798215 -10.606601717798211 129
    endloop
  endfacet
  facet normal 0.635213 -0.635213 0.439329
    outer loop
      vertex 8.03635207966689 -19.401470182737018 120
      vertex 19.401470182737018 -8.036352079666898 120
      vertex 10.60660171779821 -10.606601717798215 129
    endloop
  endfacet
  facet normal 0.299769 -0.723706 0.621602
    outer loop
      vertex 8.03635207966689 -19.401470182737018 120
      vertex 10.60660171779821 -10.606601717798215 129
      vertex -2.7554552980815444e-15 -15 129
    endloop
  endfacet
  facet normal 0.898326 -0.000000 0.439329
    outer loop
      vertex 19.401470182737018 -8.036352079666898 120
      vertex 19.40147018273702 8.036352079666885 120
      vertex 15 0 129
    endloop
  endfacet
  facet normal 0.723706 -0.299769 0.621602
    outer loop
      vertex 19.401470182737018 -8.036352079666898 120
      vertex 15 0 129
      vertex 10.60660171779821 -10.606601717798215 129
    endloop
  endfacet
  facet normal 0.520969 0.215792 0.825848
    outer loop
      vertex 15 0 129
      vertex 10.606601717798213 10.606601717798211 129
      vertex 7.391036260090294 3.0614674589207183 133
    endloop
  endfacet
  facet normal 0.329029 0.329029 0.885144
    outer loop
      vertex 10.606601717798213 10.606601717798211 129
      vertex 3.0614674589207187 7.391036260090294 133
      vertex 7.391036260090294 3.0614674589207183 133
    endloop
  endfacet
  facet normal 0.215792 0.520969 0.825848
    outer loop
      vertex 10.606601717798213 10.606601717798211 129
      vertex 9.18485099360515e-16 15 129
      vertex 3.0614674589207187 7.391036260090294 133
    endloop
  endfacet
  facet normal 0.000000 0.465317 0.885144
    outer loop
      vertex 9.18485099360515e-16 15 129
      vertex -3.061467458920718 7.391036260090294 133
      vertex 3.0614674589207187 7.391036260090294 133
    endloop
  endfacet
  facet normal -0.215792 0.520969 0.825848
    outer loop
      vertex 9.18485099360515e-16 15 129
      vertex -10.606601717798211 10.606601717798213 129
      vertex -3.061467458920718 7.391036260090294 133
    endloop
  endfacet
  facet normal -0.329029 0.329029 0.885144
    outer loop
      vertex -10.606601717798211 10.606601717798213 129
      vertex -7.391036260090294 3.061467458920719 133
      vertex -3.061467458920718 7.391036260090294 133
    endloop
  endfacet
  facet normal -0.520969 0.215792 0.825848
    outer loop
      vertex -10.606601717798211 10.606601717798213 129
      vertex -15 1.83697019872103e-15 129
      vertex -7.391036260090294 3.061467458920719 133
    endloop
  endfacet
  facet normal -0.465317 0.000000 0.885144
    outer loop
      vertex -15 1.83697019872103e-15 129
      vertex -7.391036260090295 -3.0614674589207174 133
      vertex -7.391036260090294 3.061467458920719 133
    endloop
  endfacet
  facet normal -0.520969 -0.215792 0.825848
    outer loop
      vertex -15 1.83697019872103e-15 129
      vertex -10.606601717798215 -10.606601717798211 129
      vertex -7.391036260090295 -3.0614674589207174 133
    endloop
  endfacet
  facet normal -0.329029 -0.329029 0.885144
    outer loop
      vertex -10.606601717798215 -10.606601717798211 129
      vertex -3.0614674589207227 -7.391036260090292 133
      vertex -7.391036260090295 -3.0614674589207174 133
    endloop
  endfacet
  facet normal -0.215792 -0.520969 0.825848
    outer loop
      vertex -10.606601717798215 -10.606601717798211 129
      vertex -2.7554552980815444e-15 -15 129
      vertex -3.0614674589207227 -7.391036260090292 133
    endloop
  endfacet
  facet normal -0.000000 -0.465317 0.885144
    outer loop
      vertex -2.7554552980815444e-15 -15 129
      vertex 3.06146745892072 -7.391036260090293 133
      vertex -3.0614674589207227 -7.391036260090292 133
    endloop
  endfacet
  facet normal 0.215792 -0.520969 0.825848
    outer loop
      vertex -2.7554552980815444e-15 -15 129
      vertex 10.60660171779821 -10.606601717798215 129
      vertex 3.06146745892072 -7.391036260090293 133
    endloop
  endfacet
  facet normal 0.329029 -0.329029 0.885144
    outer loop
      vertex 10.60660171779821 -10.606601717798215 129
      vertex 7.391036260090292 -3.061467458920723 133
      vertex 3.06146745892072 -7.391036260090293 133
    endloop
  endfacet
  facet normal 0.520969 -0.215792 0.825848
    outer loop
      vertex 10.60660171779821 -10.606601717798215 129
      vertex 15 0 129
      vertex 7.391036260090292 -3.061467458920723 133
    endloop
  endfacet
  facet normal 0.465317 -0.000000 0.885144
    outer loop
      vertex 15 0 129
      vertex 7.391036260090294 3.0614674589207183 133
      vertex 7.391036260090292 -3.061467458920723 133
    endloop
  endfacet
  facet normal 0.000000 0.000000 1.000000
    outer loop
      vertex 0 0 133
      vertex 7.391036260090294 3.0614674589207183 133
      vertex 3.0614674589207187 7.391036260090294 133
    endloop
  endfacet
  facet normal 0.000000 0.000000 1.000000
    outer loop
      vertex 0 0 133
      vertex 3.0614674589207187 7.391036260090294 133
      vertex -3.061467458920718 7.391036260090294 133
    endloop
  endfacet
  facet normal 0.000000 0.000000 1.000000
    outer loop
      vertex 0 0 133
      vertex -3.061467458920718 7.391036260090294 133
      vertex -7.391036260090294 3.061467458920719 133
    endloop
  endfacet
  facet normal 0.000000 0.000000 1.000000
    outer loop
      vertex 0 0 133
      vertex -7.391036260090294 3.061467458920719 133
      vertex -7.391036260090295 -3.0614674589207174 133
    endloop
  endfacet
  facet normal 0.000000 0.000000 1.000000
    outer loop
      vertex 0 0 133
      vertex -7.391036260090295 -3.0614674589207174 133
      vertex -3.0614674589207227 -7.391036260090292 133
    endloop
  endfacet
  facet normal 0.000000 0.000000 1.000000
    outer loop
      vertex 0 0 133
      vertex -3.0614674589207227 -7.391036260090292 133
      vertex 3.06146745892072 -7.391036260090293 133
    endloop
  endfacet
  facet normal 0.000000 0.000000 1.000000
    outer loop
      vertex 0 0 133
      vertex 3.06146745892072 -7.391036260090293 133
      vertex 7.391036260090292 -3.061467458920723 133
    endloop
  endfacet
  facet normal 0.000000 0.000000 1.000000
    outer loop
      vertex 0 0 133
      vertex 7.391036260090292 -3.061467458920723 133
      vertex 7.391036260090294 3.0614674589207183 133
    endloop
  endfacet
endsolid deskLampBase
