solid drums_tom_high
  facet normal 0.000000 1.000000 0.000000
    outer loop
      vertex -33.21340285602264 0 102.14232000070595
      vertex -12.888053140774332 0 110.56135551273792
      vertex -11.40161590579881 0 105.01389622954709
    endloop
  endfacet
  facet normal 0.000000 1.000000 0.000000
    outer loop
      vertex -33.21340285602264 0 102.14232000070595
      vertex -15.759629369615467 0 115.5350714388978
      vertex -12.888053140774332 0 110.56135551273792
    endloop
  endfacet
  facet normal 0.000000 1.000000 0.000000
    outer loop
      vertex -33.21340285602264 0 102.14232000070595
      vertex -19.820651417830785 0 119.59609348711312
      vertex -15.759629369615467 0 115.5350714388978
    endloop
  endfacet
  facet normal 0.000000 1.000000 0.000000
    outer loop
      vertex -33.21340285602264 0 102.14232000070595
      vertex -24.794367343990665 0 122.46766971595426
      vertex -19.820651417830785 0 119.59609348711312
    endloop
  endfacet
  facet normal 0.000000 1.000000 0.000000
    outer loop
      vertex -33.21340285602264 0 102.14232000070595
      vertex -30.3418266271815 0 123.95410695092978
      vertex -24.794367343990665 0 122.46766971595426
    endloop
  endfacet
  facet normal 0.000000 1.000000 0.000000
    outer loop
      vertex -33.21340285602264 0 102.14232000070595
      vertex -36.084979084863775 0 123.95410695092978
      vertex -30.3418266271815 0 123.95410695092978
    endloop
  endfacet
  facet normal 0.000000 1.000000 0.000000
    outer loop
      vertex -33.21340285602264 0 102.14232000070595
      vertex -41.63243836805461 0 122.46766971595426
      vertex -36.084979084863775 0 123.95410695092978
    endloop
  endfacet
  facet normal 0.000000 1.000000 0.000000
    outer loop
      vertex -33.21340285602264 0 102.14232000070595
      vertex -46.60615429421449 0 119.59609348711312
      vertex -41.63243836805461 0 122.46766971595426
    endloop
  endfacet
  facet normal 0.000000 1.000000 0.000000
    outer loop
      vertex -33.21340285602264 0 102.14232000070595
      vertex -50.66717634242981 0 115.5350714388978
      vertex -46.60615429421449 0 119.59609348711312
    endloop
  endfacet
  facet normal 0.000000 1.000000 0.000000
    outer loop
      vertex -33.21340285602264 0 102.14232000070595
      vertex -53.53875257127095 0 110.56135551273793
      vertex -50.66717634242981 0 115.5350714388978
    endloop
  endfacet
  facet normal 0.000000 1.000000 0.000000
    outer loop
      vertex -33.21340285602264 0 102.14232000070595
      vertex -55.02518980624647 0 105.0138962295471
      vertex -53.53875257127095 0 110.56135551273793
    endloop
  endfacet
  facet normal 0.000000 1.000000 0.000000
    outer loop
      vertex -33.21340285602264 0 102.14232000070595
      vertex -55.02518980624647 0 99.27074377186482
      vertex -55.02518980624647 0 105.0138962295471
    endloop
  endfacet
  facet normal 0.000000 1.000000 0.000000
    outer loop
      vertex -33.21340285602264 0 102.14232000070595
      vertex -53.53875257127095 0 93.72328448867398
      vertex -55.02518980624647 0 99.27074377186482
    endloop
  endfacet
  facet normal 0.000000 1.000000 0.000000
    outer loop
      vertex -33.21340285602264 0 102.14232000070595
      vertex -50.66717634242981 0 88.7495685625141
      vertex -53.53875257127095 0 93.72328448867398
    endloop
  endfacet
  facet normal 0.000000 1.000000 0.000000
    outer loop
      vertex -33.21340285602264 0 102.14232000070595
      vertex -46.6061542942145 0 84.68854651429878
      vertex -50.66717634242981 0 88.7495685625141
    endloop
  endfacet
  facet normal 0.000000 1.000000 0.000000
    outer loop
      vertex -33.21340285602264 0 102.14232000070595
      vertex -41.63243836805461 0 81.81697028545764
      vertex -46.6061542942145 0 84.68854651429878
    endloop
  endfacet
  facet normal 0.000000 1.000000 0.000000
    outer loop
      vertex -33.21340285602264 0 102.14232000070595
      vertex -36.084979084863775 0 80.33053305048212
      vertex -41.63243836805461 0 81.81697028545764
    endloop
  endfacet
  facet normal 0.000000 1.000000 0.000000
    outer loop
      vertex -33.21340285602264 0 102.14232000070595
      vertex -30.34182662718151 0 80.33053305048212
      vertex -36.084979084863775 0 80.33053305048212
    endloop
  endfacet
  facet normal 0.000000 1.000000 0.000000
    outer loop
      vertex -33.21340285602264 0 102.14232000070595
      vertex -24.79436734399068 0 81.81697028545764
      vertex -30.34182662718151 0 80.33053305048212
    endloop
  endfacet
  facet normal 0.000000 1.000000 0.000000
    outer loop
      vertex -33.21340285602264 0 102.14232000070595
      vertex -19.820651417830803 0 84.68854651429876
      vertex -24.79436734399068 0 81.81697028545764
    endloop
  endfacet
  facet normal 0.000000 1.000000 0.000000
    outer loop
      vertex -33.21340285602264 0 102.14232000070595
      vertex -15.759629369615471 0 88.7495685625141
      vertex -19.820651417830803 0 84.68854651429876
    endloop
  endfacet
  facet normal 0.000000 1.000000 0.000000
    outer loop
      vertex -33.21340285602264 0 102.14232000070595
      vertex -12.888053140774328 0 93.72328448867398
      vertex -15.759629369615471 0 88.7495685625141
    endloop
  endfacet
  facet normal 0.000000 1.000000 0.000000
    outer loop
      vertex -33.21340285602264 0 102.14232000070595
      vertex -11.40161590579881 0 99.27074377186482
      vertex -12.888053140774328 0 93.72328448867398
    endloop
  endfacet
  facet normal 0.000000 1.000000 0.000000
    outer loop
      vertex -33.21340285602264 0 102.14232000070595
      vertex -11.40161590579881 0 105.01389622954709
      vertex -11.40161590579881 0 99.27074377186482
    endloop
  endfacet
  facet normal 0.000000 -1.000000 0.000000
    outer loop
      vertex -33.21340285602264 -32 102.14232000070595
      vertex -11.40161590579881 -32 105.01389622954709
      vertex -12.888053140774332 -32 110.56135551273792
    endloop
  endfacet
  facet normal 0.000000 -1.000000 0.000000
    outer loop
      vertex -33.21340285602264 -32 102.14232000070595
      vertex -12.888053140774332 -32 110.56135551273792
      vertex -15.759629369615467 -32 115.5350714388978
    endloop
  endfacet
  facet normal 0.000000 -1.000000 0.000000
    outer loop
      vertex -33.21340285602264 -32 102.14232000070595
      vertex -15.759629369615467 -32 115.5350714388978
      vertex -19.820651417830785 -32 119.59609348711312
    endloop
  endfacet
  facet normal 0.000000 -1.000000 0.000000
    outer loop
      vertex -33.21340285602264 -32 102.14232000070595
      vertex -19.820651417830785 -32 119.59609348711312
      vertex -24.794367343990665 -32 122.46766971595426
    endloop
  endfacet
  facet normal 0.000000 -1.000000 0.000000
    outer loop
      vertex -33.21340285602264 -32 102.14232000070595
      vertex -24.794367343990665 -32 122.46766971595426
      vertex -30.3418266271815 -32 123.95410695092978
    endloop
  endfacet
  facet normal 0.000000 -1.000000 0.000000
    outer loop
      vertex -33.21340285602264 -32 102.14232000070595
      vertex -30.3418266271815 -32 123.95410695092978
      vertex -36.084979084863775 -32 123.95410695092978
    endloop
  endfacet
  facet normal 0.000000 -1.000000 0.000000
    outer loop
      vertex -33.21340285602264 -32 102.14232000070595
      vertex -36.084979084863775 -32 123.95410695092978
      vertex -41.63243836805461 -32 122.46766971595426
    endloop
  endfacet
  facet normal 0.000000 -1.000000 0.000000
    outer loop
      vertex -33.21340285602264 -32 102.14232000070595
      vertex -41.63243836805461 -32 122.46766971595426
      vertex -46.60615429421449 -32 119.59609348711312
    endloop
  endfacet
  facet normal 0.000000 -1.000000 0.000000
    outer loop
      vertex -33.21340285602264 -32 102.14232000070595
      vertex -46.60615429421449 -32 119.59609348711312
      vertex -50.66717634242981 -32 115.5350714388978
    endloop
  endfacet
  facet normal 0.000000 -1.000000 0.000000
    outer loop
      vertex -33.21340285602264 -32 102.14232000070595
      vertex -50.66717634242981 -32 115.5350714388978
      vertex -53.53875257127095 -32 110.56135551273793
    endloop
  endfacet
  facet normal 0.000000 -1.000000 0.000000
    outer loop
      vertex -33.21340285602264 -32 102.14232000070595
      vertex -53.53875257127095 -32 110.56135551273793
      vertex -55.02518980624647 -32 105.0138962295471
    endloop
  endfacet
  facet normal 0.000000 -1.000000 0.000000
    outer loop
      vertex -33.21340285602264 -32 102.14232000070595
      vertex -55.02518980624647 -32 105.0138962295471
      vertex -55.02518980624647 -32 99.27074377186482
    endloop
  endfacet
  facet normal 0.000000 -1.000000 0.000000
    outer loop
      vertex -33.21340285602264 -32 102.14232000070595
      vertex -55.02518980624647 -32 99.27074377186482
      vertex -53.53875257127095 -32 93.72328448867398
    endloop
  endfacet
  facet normal 0.000000 -1.000000 0.000000
    outer loop
      vertex -33.21340285602264 -32 102.14232000070595
      vertex -53.53875257127095 -32 93.72328448867398
      vertex -50.66717634242981 -32 88.7495685625141
    endloop
  endfacet
  facet normal 0.000000 -1.000000 0.000000
    outer loop
      vertex -33.21340285602264 -32 102.14232000070595
      vertex -50.66717634242981 -32 88.7495685625141
      vertex -46.6061542942145 -32 84.68854651429878
    endloop
  endfacet
  facet normal 0.000000 -1.000000 0.000000
    outer loop
      vertex -33.21340285602264 -32 102.14232000070595
      vertex -46.6061542942145 -32 84.68854651429878
      vertex -41.63243836805461 -32 81.81697028545764
    endloop
  endfacet
  facet normal 0.000000 -1.000000 0.000000
    outer loop
      vertex -33.21340285602264 -32 102.14232000070595
      vertex -41.63243836805461 -32 81.81697028545764
      vertex -36.084979084863775 -32 80.33053305048212
    endloop
  endfacet
  facet normal 0.000000 -1.000000 0.000000
    outer loop
      vertex -33.21340285602264 -32 102.14232000070595
      vertex -36.084979084863775 -32 80.33053305048212
      vertex -30.34182662718151 -32 80.33053305048212
    endloop
  endfacet
  facet normal 0.000000 -1.000000 0.000000
    outer loop
      vertex -33.21340285602264 -32 102.14232000070595
      vertex -30.34182662718151 -32 80.33053305048212
      vertex -24.79436734399068 -32 81.81697028545764
    endloop
  endfacet
  facet normal 0.000000 -1.000000 0.000000
    outer loop
      vertex -33.21340285602264 -32 102.14232000070595
      vertex -24.79436734399068 -32 81.81697028545764
      vertex -19.820651417830803 -32 84.68854651429876
    endloop
  endfacet
  facet normal 0.000000 -1.000000 0.000000
    outer loop
      vertex -33.21340285602264 -32 102.14232000070595
      vertex -19.820651417830803 -32 84.68854651429876
      vertex -15.759629369615471 -32 88.7495685625141
    endloop
  endfacet
  facet normal 0.000000 -1.000000 0.000000
    outer loop
      vertex -33.21340285602264 -32 102.14232000070595
      vertex -15.759629369615471 -32 88.7495685625141
      vertex -12.888053140774328 -32 93.72328448867398
    endloop
  endfacet
  facet normal 0.000000 -1.000000 0.000000
    outer loop
      vertex -33.21340285602264 -32 102.14232000070595
      vertex -12.888053140774328 -32 93.72328448867398
      vertex -11.40161590579881 -32 99.27074377186482
    endloop
  endfacet
  facet normal 0.000000 -1.000000 0.000000
    outer loop
      vertex -33.21340285602264 -32 102.14232000070595
      vertex -11.40161590579881 -32 99.27074377186482
      vertex -11.40161590579881 -32 105.01389622954709
    endloop
  endfacet
  facet normal 0.965926 0.000000 0.258819
    outer loop
      vertex -11.40161590579881 0 105.01389622954709
      vertex -12.888053140774332 0 110.56135551273792
      vertex -12.888053140774332 -15 110.56135551273792
    endloop
  endfacet
  facet normal 0.965926 0.000000 0.258819
    outer loop
      vertex -11.40161590579881 0 105.01389622954709
      vertex -12.888053140774332 -15 110.56135551273792
      vertex -11.40161590579881 -15 105.01389622954709
    endloop
  endfacet
  facet normal 0.866025 0.000000 0.500000
    outer loop
      vertex -12.888053140774332 0 110.56135551273792
      vertex -15.759629369615467 0 115.5350714388978
      vertex -15.759629369615467 -15 115.5350714388978
    endloop
  endfacet
  facet normal 0.866025 0.000000 0.500000
    outer loop
      vertex -12.888053140774332 0 110.56135551273792
      vertex -15.759629369615467 -15 115.5350714388978
      vertex -12.888053140774332 -15 110.56135551273792
    endloop
  endfacet
  facet normal 0.707107 0.000000 0.707107
    outer loop
      vertex -15.759629369615467 0 115.5350714388978
      vertex -19.820651417830785 0 119.59609348711312
      vertex -19.820651417830785 -15 119.59609348711312
    endloop
  endfacet
  facet normal 0.707107 0.000000 0.707107
    outer loop
      vertex -15.759629369615467 0 115.5350714388978
      vertex -19.820651417830785 -15 119.59609348711312
      vertex -15.759629369615467 -15 115.5350714388978
    endloop
  endfacet
  facet normal 0.500000 0.000000 0.866025
    outer loop
      vertex -19.820651417830785 0 119.59609348711312
      vertex -24.794367343990665 0 122.46766971595426
      vertex -24.794367343990665 -15 122.46766971595426
    endloop
  endfacet
  facet normal 0.500000 0.000000 0.866025
    outer loop
      vertex -19.820651417830785 0 119.59609348711312
      vertex -24.794367343990665 -15 122.46766971595426
      vertex -19.820651417830785 -15 119.59609348711312
    endloop
  endfacet
  facet normal 0.258819 0.000000 0.965926
    outer loop
      vertex -24.794367343990665 0 122.46766971595426
      vertex -30.3418266271815 0 123.95410695092978
      vertex -30.3418266271815 -15 123.95410695092978
    endloop
  endfacet
  facet normal 0.258819 0.000000 0.965926
    outer loop
      vertex -24.794367343990665 0 122.46766971595426
      vertex -30.3418266271815 -15 123.95410695092978
      vertex -24.794367343990665 -15 122.46766971595426
    endloop
  endfacet
  facet normal 0.000000 0.000000 1.000000
    outer loop
      vertex -30.3418266271815 0 123.95410695092978
      vertex -36.084979084863775 0 123.95410695092978
      vertex -36.084979084863775 -15 123.95410695092978
    endloop
  endfacet
  facet normal 0.000000 0.000000 1.000000
    outer loop
      vertex -30.3418266271815 0 123.95410695092978
      vertex -36.084979084863775 -15 123.95410695092978
      vertex -30.3418266271815 -15 123.95410695092978
    endloop
  endfacet
  facet normal -0.258819 0.000000 0.965926
    outer loop
      vertex -36.084979084863775 0 123.95410695092978
      vertex -41.63243836805461 0 122.46766971595426
      vertex -41.63243836805461 -15 122.46766971595426
    endloop
  endfacet
  facet normal -0.258819 0.000000 0.965926
    outer loop
      vertex -36.084979084863775 0 123.95410695092978
      vertex -41.63243836805461 -15 122.46766971595426
      vertex -36.084979084863775 -15 123.95410695092978
    endloop
  endfacet
  facet normal -0.500000 0.000000 0.866025
    outer loop
      vertex -41.63243836805461 0 122.46766971595426
      vertex -46.60615429421449 0 119.59609348711312
      vertex -46.60615429421449 -15 119.59609348711312
    endloop
  endfacet
  facet normal -0.500000 0.000000 0.866025
    outer loop
      vertex -41.63243836805461 0 122.46766971595426
      vertex -46.60615429421449 -15 119.59609348711312
      vertex -41.63243836805461 -15 122.46766971595426
    endloop
  endfacet
  facet normal -0.707107 0.000000 0.707107
    outer loop
      vertex -46.60615429421449 0 119.59609348711312
      vertex -50.66717634242981 0 115.5350714388978
      vertex -50.66717634242981 -15 115.5350714388978
    endloop
  endfacet
  facet normal -0.707107 0.000000 0.707107
    outer loop
      vertex -46.60615429421449 0 119.59609348711312
      vertex -50.66717634242981 -15 115.5350714388978
      vertex -46.60615429421449 -15 119.59609348711312
    endloop
  endfacet
  facet normal -0.866025 0.000000 0.500000
    outer loop
      vertex -50.66717634242981 0 115.5350714388978
      vertex -53.53875257127095 0 110.56135551273793
      vertex -53.53875257127095 -15 110.56135551273793
    endloop
  endfacet
  facet normal -0.866025 0.000000 0.500000
    outer loop
      vertex -50.66717634242981 0 115.5350714388978
      vertex -53.53875257127095 -15 110.56135551273793
      vertex -50.66717634242981 -15 115.5350714388978
    endloop
  endfacet
  facet normal -0.965926 0.000000 0.258819
    outer loop
      vertex -53.53875257127095 0 110.56135551273793
      vertex -55.02518980624647 0 105.0138962295471
      vertex -55.02518980624647 -15 105.0138962295471
    endloop
  endfacet
  facet normal -0.965926 0.000000 0.258819
    outer loop
      vertex -53.53875257127095 0 110.56135551273793
      vertex -55.02518980624647 -15 105.0138962295471
      vertex -53.53875257127095 -15 110.56135551273793
    endloop
  endfacet
  facet normal -1.000000 0.000000 0.000000
    outer loop
      vertex -55.02518980624647 0 105.0138962295471
      vertex -55.02518980624647 0 99.27074377186482
      vertex -55.02518980624647 -15 99.27074377186482
    endloop
  endfacet
  facet normal -1.000000 0.000000 0.000000
    outer loop
      vertex -55.02518980624647 0 105.0138962295471
      vertex -55.02518980624647 -15 99.27074377186482
      vertex -55.02518980624647 -15 105.0138962295471
    endloop
  endfacet
  facet normal -0.965926 0.000000 -0.258819
    outer loop
      vertex -55.02518980624647 0 99.27074377186482
      vertex -53.53875257127095 0 93.72328448867398
      vertex -53.53875257127095 -15 93.72328448867398
    endloop
  endfacet
  facet normal -0.965926 0.000000 -0.258819
    outer loop
      vertex -55.02518980624647 0 99.27074377186482
      vertex -53.53875257127095 -15 93.72328448867398
      vertex -55.02518980624647 -15 99.27074377186482
    endloop
  endfacet
  facet normal -0.866025 0.000000 -0.500000
    outer loop
      vertex -53.53875257127095 0 93.72328448867398
      vertex -50.66717634242981 0 88.7495685625141
      vertex -50.66717634242981 -15 88.7495685625141
    endloop
  endfacet
  facet normal -0.866025 0.000000 -0.500000
    outer loop
      vertex -53.53875257127095 0 93.72328448867398
      vertex -50.66717634242981 -15 88.7495685625141
      vertex -53.53875257127095 -15 93.72328448867398
    endloop
  endfacet
  facet normal -0.707107 0.000000 -0.707107
    outer loop
      vertex -50.66717634242981 0 88.7495685625141
      vertex -46.6061542942145 0 84.68854651429878
      vertex -46.6061542942145 -15 84.68854651429878
    endloop
  endfacet
  facet normal -0.707107 0.000000 -0.707107
    outer loop
      vertex -50.66717634242981 0 88.7495685625141
      vertex -46.6061542942145 -15 84.68854651429878
      vertex -50.66717634242981 -15 88.7495685625141
    endloop
  endfacet
  facet normal -0.500000 0.000000 -0.866025
    outer loop
      vertex -46.6061542942145 0 84.68854651429878
      vertex -41.63243836805461 0 81.81697028545764
      vertex -41.63243836805461 -15 81.81697028545764
    endloop
  endfacet
  facet normal -0.500000 0.000000 -0.866025
    outer loop
      vertex -46.6061542942145 0 84.68854651429878
      vertex -41.63243836805461 -15 81.81697028545764
      vertex -46.6061542942145 -15 84.68854651429878
    endloop
  endfacet
  facet normal -0.258819 0.000000 -0.965926
    outer loop
      vertex -41.63243836805461 0 81.81697028545764
      vertex -36.084979084863775 0 80.33053305048212
      vertex -36.084979084863775 -15 80.33053305048212
    endloop
  endfacet
  facet normal -0.258819 0.000000 -0.965926
    outer loop
      vertex -41.63243836805461 0 81.81697028545764
      vertex -36.084979084863775 -15 80.33053305048212
      vertex -41.63243836805461 -15 81.81697028545764
    endloop
  endfacet
  facet normal 0.000000 0.000000 -1.000000
    outer loop
      vertex -36.084979084863775 0 80.33053305048212
      vertex -30.34182662718151 0 80.33053305048212
      vertex -30.34182662718151 -15 80.33053305048212
    endloop
  endfacet
  facet normal 0.000000 0.000000 -1.000000
    outer loop
      vertex -36.084979084863775 0 80.33053305048212
      vertex -30.34182662718151 -15 80.33053305048212
      vertex -36.084979084863775 -15 80.33053305048212
    endloop
  endfacet
  facet normal 0.258819 0.000000 -0.965926
    outer loop
      vertex -30.34182662718151 0 80.33053305048212
      vertex -24.79436734399068 0 81.81697028545764
      vertex -24.79436734399068 -15 81.81697028545764
    endloop
  endfacet
  facet normal 0.258819 0.000000 -0.965926
    outer loop
      vertex -30.34182662718151 0 80.33053305048212
      vertex -24.79436734399068 -15 81.81697028545764
      vertex -30.34182662718151 -15 80.33053305048212
    endloop
  endfacet
  facet normal 0.866025 0.000000 0.500000
    outer loop
      vertex -19.820651417830803 0 84.68854651429876
      vertex -19.820651417830803 -15 84.68854651429876
      vertex -16.94907518898967 -15 79.71483058813888
    endloop
  endfacet
  facet normal 0.866025 0.000000 0.500000
    outer loop
      vertex -19.820651417830803 0 84.68854651429876
      vertex -16.94907518898967 -15 79.71483058813888
      vertex -16.94907518898967 0 79.71483058813888
    endloop
  endfacet
  facet normal 0.707107 0.000000 -0.707107
    outer loop
      vertex -19.820651417830803 0 84.68854651429876
      vertex -15.759629369615471 0 88.7495685625141
      vertex -15.759629369615471 -15 88.7495685625141
    endloop
  endfacet
  facet normal 0.707107 0.000000 -0.707107
    outer loop
      vertex -19.820651417830803 0 84.68854651429876
      vertex -15.759629369615471 -15 88.7495685625141
      vertex -19.820651417830803 -15 84.68854651429876
    endloop
  endfacet
  facet normal 0.866025 0.000000 -0.500000
    outer loop
      vertex -15.759629369615471 0 88.7495685625141
      vertex -12.888053140774328 0 93.72328448867398
      vertex -12.888053140774328 -15 93.72328448867398
    endloop
  endfacet
  facet normal 0.866025 0.000000 -0.500000
    outer loop
      vertex -15.759629369615471 0 88.7495685625141
      vertex -12.888053140774328 -15 93.72328448867398
      vertex -15.759629369615471 -15 88.7495685625141
    endloop
  endfacet
  facet normal 0.965926 0.000000 -0.258819
    outer loop
      vertex -12.888053140774328 0 93.72328448867398
      vertex -11.40161590579881 0 99.27074377186482
      vertex -11.40161590579881 -15 99.27074377186482
    endloop
  endfacet
  facet normal 0.965926 0.000000 -0.258819
    outer loop
      vertex -12.888053140774328 0 93.72328448867398
      vertex -11.40161590579881 -15 99.27074377186482
      vertex -12.888053140774328 -15 93.72328448867398
    endloop
  endfacet
  facet normal 1.000000 0.000000 0.000000
    outer loop
      vertex -11.40161590579881 0 99.27074377186482
      vertex -11.40161590579881 0 105.01389622954709
      vertex -11.40161590579881 -15 105.01389622954709
    endloop
  endfacet
  facet normal 1.000000 0.000000 0.000000
    outer loop
      vertex -11.40161590579881 0 99.27074377186482
      vertex -11.40161590579881 -15 105.01389622954709
      vertex -11.40161590579881 -15 99.27074377186482
    endloop
  endfacet
  facet normal 0.965926 0.000000 0.258819
    outer loop
      vertex -11.40161590579881 -15 105.01389622954709
      vertex -12.888053140774332 -15 110.56135551273792
      vertex -12.888053140774332 -32 110.56135551273792
    endloop
  endfacet
  facet normal 0.965926 0.000000 0.258819
    outer loop
      vertex -11.40161590579881 -15 105.01389622954709
      vertex -12.888053140774332 -32 110.56135551273792
      vertex -11.40161590579881 -32 105.01389622954709
    endloop
  endfacet
  facet normal 0.866025 0.000000 0.500000
    outer loop
      vertex -12.888053140774332 -15 110.56135551273792
      vertex -15.759629369615467 -15 115.5350714388978
      vertex -15.759629369615467 -32 115.5350714388978
    endloop
  endfacet
  facet normal 0.866025 0.000000 0.500000
    outer loop
      vertex -12.888053140774332 -15 110.56135551273792
      vertex -15.759629369615467 -32 115.5350714388978
      vertex -12.888053140774332 -32 110.56135551273792
    endloop
  endfacet
  facet normal 0.707107 0.000000 0.707107
    outer loop
      vertex -15.759629369615467 -15 115.5350714388978
      vertex -19.820651417830785 -15 119.59609348711312
      vertex -19.820651417830785 -32 119.59609348711312
    endloop
  endfacet
  facet normal 0.707107 0.000000 0.707107
    outer loop
      vertex -15.759629369615467 -15 115.5350714388978
      vertex -19.820651417830785 -32 119.59609348711312
      vertex -15.759629369615467 -32 115.5350714388978
    endloop
  endfacet
  facet normal 0.500000 0.000000 0.866025
    outer loop
      vertex -19.820651417830785 -15 119.59609348711312
      vertex -24.794367343990665 -15 122.46766971595426
      vertex -24.794367343990665 -32 122.46766971595426
    endloop
  endfacet
  facet normal 0.500000 0.000000 0.866025
    outer loop
      vertex -19.820651417830785 -15 119.59609348711312
      vertex -24.794367343990665 -32 122.46766971595426
      vertex -19.820651417830785 -32 119.59609348711312
    endloop
  endfacet
  facet normal 0.258819 0.000000 0.965926
    outer loop
      vertex -24.794367343990665 -15 122.46766971595426
      vertex -30.3418266271815 -15 123.95410695092978
      vertex -30.3418266271815 -32 123.95410695092978
    endloop
  endfacet
  facet normal 0.258819 0.000000 0.965926
    outer loop
      vertex -24.794367343990665 -15 122.46766971595426
      vertex -30.3418266271815 -32 123.95410695092978
      vertex -24.794367343990665 -32 122.46766971595426
    endloop
  endfacet
  facet normal 0.000000 0.000000 1.000000
    outer loop
      vertex -30.3418266271815 -15 123.95410695092978
      vertex -36.084979084863775 -15 123.95410695092978
      vertex -36.084979084863775 -32 123.95410695092978
    endloop
  endfacet
  facet normal 0.000000 0.000000 1.000000
    outer loop
      vertex -30.3418266271815 -15 123.95410695092978
      vertex -36.084979084863775 -32 123.95410695092978
      vertex -30.3418266271815 -32 123.95410695092978
    endloop
  endfacet
  facet normal -0.258819 0.000000 0.965926
    outer loop
      vertex -36.084979084863775 -15 123.95410695092978
      vertex -41.63243836805461 -15 122.46766971595426
      vertex -41.63243836805461 -32 122.46766971595426
    endloop
  endfacet
  facet normal -0.258819 0.000000 0.965926
    outer loop
      vertex -36.084979084863775 -15 123.95410695092978
      vertex -41.63243836805461 -32 122.46766971595426
      vertex -36.084979084863775 -32 123.95410695092978
    endloop
  endfacet
  facet normal -0.500000 0.000000 0.866025
    outer loop
      vertex -41.63243836805461 -15 122.46766971595426
      vertex -46.60615429421449 -15 119.59609348711312
      vertex -46.60615429421449 -32 119.59609348711312
    endloop
  endfacet
  facet normal -0.500000 0.000000 0.866025
    outer loop
      vertex -41.63243836805461 -15 122.46766971595426
      vertex -46.60615429421449 -32 119.59609348711312
      vertex -41.63243836805461 -32 122.46766971595426
    endloop
  endfacet
  facet normal -0.707107 0.000000 0.707107
    outer loop
      vertex -46.60615429421449 -15 119.59609348711312
      vertex -50.66717634242981 -15 115.5350714388978
      vertex -50.66717634242981 -32 115.5350714388978
    endloop
  endfacet
  facet normal -0.707107 0.000000 0.707107
    outer loop
      vertex -46.60615429421449 -15 119.59609348711312
      vertex -50.66717634242981 -32 115.5350714388978
      vertex -46.60615429421449 -32 119.59609348711312
    endloop
  endfacet
  facet normal -0.866025 0.000000 0.500000
    outer loop
      vertex -50.66717634242981 -15 115.5350714388978
      vertex -53.53875257127095 -15 110.56135551273793
      vertex -53.53875257127095 -32 110.56135551273793
    endloop
  endfacet
  facet normal -0.866025 0.000000 0.500000
    outer loop
      vertex -50.66717634242981 -15 115.5350714388978
      vertex -53.53875257127095 -32 110.56135551273793
      vertex -50.66717634242981 -32 115.5350714388978
    endloop
  endfacet
  facet normal -0.965926 0.000000 0.258819
    outer loop
      vertex -53.53875257127095 -15 110.56135551273793
      vertex -55.02518980624647 -15 105.0138962295471
      vertex -55.02518980624647 -32 105.0138962295471
    endloop
  endfacet
  facet normal -0.965926 0.000000 0.258819
    outer loop
      vertex -53.53875257127095 -15 110.56135551273793
      vertex -55.02518980624647 -32 105.0138962295471
      vertex -53.53875257127095 -32 110.56135551273793
    endloop
  endfacet
  facet normal -1.000000 0.000000 0.000000
    outer loop
      vertex -55.02518980624647 -15 105.0138962295471
      vertex -55.02518980624647 -15 99.27074377186482
      vertex -55.02518980624647 -32 99.27074377186482
    endloop
  endfacet
  facet normal -1.000000 0.000000 0.000000
    outer loop
      vertex -55.02518980624647 -15 105.0138962295471
      vertex -55.02518980624647 -32 99.27074377186482
      vertex -55.02518980624647 -32 105.0138962295471
    endloop
  endfacet
  facet normal -0.965926 0.000000 -0.258819
    outer loop
      vertex -55.02518980624647 -15 99.27074377186482
      vertex -53.53875257127095 -15 93.72328448867398
      vertex -53.53875257127095 -32 93.72328448867398
    endloop
  endfacet
  facet normal -0.965926 0.000000 -0.258819
    outer loop
      vertex -55.02518980624647 -15 99.27074377186482
      vertex -53.53875257127095 -32 93.72328448867398
      vertex -55.02518980624647 -32 99.27074377186482
    endloop
  endfacet
  facet normal -0.866025 0.000000 -0.500000
    outer loop
      vertex -53.53875257127095 -15 93.72328448867398
      vertex -50.66717634242981 -15 88.7495685625141
      vertex -50.66717634242981 -32 88.7495685625141
    endloop
  endfacet
  facet normal -0.866025 0.000000 -0.500000
    outer loop
      vertex -53.53875257127095 -15 93.72328448867398
      vertex -50.66717634242981 -32 88.7495685625141
      vertex -53.53875257127095 -32 93.72328448867398
    endloop
  endfacet
  facet normal -0.707107 0.000000 -0.707107
    outer loop
      vertex -50.66717634242981 -15 88.7495685625141
      vertex -46.6061542942145 -15 84.68854651429878
      vertex -46.6061542942145 -32 84.68854651429878
    endloop
  endfacet
  facet normal -0.707107 0.000000 -0.707107
    outer loop
      vertex -50.66717634242981 -15 88.7495685625141
      vertex -46.6061542942145 -32 84.68854651429878
      vertex -50.66717634242981 -32 88.7495685625141
    endloop
  endfacet
  facet normal -0.500000 0.000000 -0.866025
    outer loop
      vertex -46.6061542942145 -15 84.68854651429878
      vertex -41.63243836805461 -15 81.81697028545764
      vertex -41.63243836805461 -32 81.81697028545764
    endloop
  endfacet
  facet normal -0.500000 0.000000 -0.866025
    outer loop
      vertex -46.6061542942145 -15 84.68854651429878
      vertex -41.63243836805461 -32 81.81697028545764
      vertex -46.6061542942145 -32 84.68854651429878
    endloop
  endfacet
  facet normal -0.258819 0.000000 -0.965926
    outer loop
      vertex -41.63243836805461 -15 81.81697028545764
      vertex -36.084979084863775 -15 80.33053305048212
      vertex -36.084979084863775 -32 80.33053305048212
    endloop
  endfacet
  facet normal -0.258819 0.000000 -0.965926
    outer loop
      vertex -41.63243836805461 -15 81.81697028545764
      vertex -36.084979084863775 -32 80.33053305048212
      vertex -41.63243836805461 -32 81.81697028545764
    endloop
  endfacet
  facet normal 0.000000 0.000000 -1.000000
    outer loop
      vertex -36.084979084863775 -15 80.33053305048212
      vertex -30.34182662718151 -15 80.33053305048212
      vertex -30.34182662718151 -32 80.33053305048212
    endloop
  endfacet
  facet normal 0.000000 0.000000 -1.000000
    outer loop
      vertex -36.084979084863775 -15 80.33053305048212
      vertex -30.34182662718151 -32 80.33053305048212
      vertex -36.084979084863775 -32 80.33053305048212
    endloop
  endfacet
  facet normal 0.258819 0.000000 -0.965926
    outer loop
      vertex -30.34182662718151 -15 80.33053305048212
      vertex -24.79436734399068 -15 81.81697028545764
      vertex -24.79436734399068 -32 81.81697028545764
    endloop
  endfacet
  facet normal 0.258819 0.000000 -0.965926
    outer loop
      vertex -30.34182662718151 -15 80.33053305048212
      vertex -24.79436734399068 -32 81.81697028545764
      vertex -30.34182662718151 -32 80.33053305048212
    endloop
  endfacet
  facet normal 0.500000 0.000000 -0.866025
    outer loop
      vertex -24.79436734399068 -15 81.81697028545764
      vertex -19.820651417830803 -15 84.68854651429876
      vertex -19.820651417830803 -32 84.68854651429876
    endloop
  endfacet
  facet normal 0.500000 0.000000 -0.866025
    outer loop
      vertex -24.79436734399068 -15 81.81697028545764
      vertex -19.820651417830803 -32 84.68854651429876
      vertex -24.79436734399068 -32 81.81697028545764
    endloop
  endfacet
  facet normal 0.707107 0.000000 -0.707107
    outer loop
      vertex -19.820651417830803 -15 84.68854651429876
      vertex -15.759629369615471 -15 88.7495685625141
      vertex -15.759629369615471 -32 88.7495685625141
    endloop
  endfacet
  facet normal 0.707107 0.000000 -0.707107
    outer loop
      vertex -19.820651417830803 -15 84.68854651429876
      vertex -15.759629369615471 -32 88.7495685625141
      vertex -19.820651417830803 -32 84.68854651429876
    endloop
  endfacet
  facet normal 0.866025 0.000000 -0.500000
    outer loop
      vertex -15.759629369615471 -15 88.7495685625141
      vertex -12.888053140774328 -15 93.72328448867398
      vertex -12.888053140774328 -32 93.72328448867398
    endloop
  endfacet
  facet normal 0.866025 0.000000 -0.500000
    outer loop
      vertex -15.759629369615471 -15 88.7495685625141
      vertex -12.888053140774328 -32 93.72328448867398
      vertex -15.759629369615471 -32 88.7495685625141
    endloop
  endfacet
  facet normal 0.965926 0.000000 -0.258819
    outer loop
      vertex -12.888053140774328 -15 93.72328448867398
      vertex -11.40161590579881 -15 99.27074377186482
      vertex -11.40161590579881 -32 99.27074377186482
    endloop
  endfacet
  facet normal 0.965926 0.000000 -0.258819
    outer loop
      vertex -12.888053140774328 -15 93.72328448867398
      vertex -11.40161590579881 -32 99.27074377186482
      vertex -12.888053140774328 -32 93.72328448867398
    endloop
  endfacet
  facet normal 1.000000 0.000000 0.000000
    outer loop
      vertex -11.40161590579881 -15 99.27074377186482
      vertex -11.40161590579881 -15 105.01389622954709
      vertex -11.40161590579881 -32 105.01389622954709
    endloop
  endfacet
  facet normal 1.000000 0.000000 0.000000
    outer loop
      vertex -11.40161590579881 -15 99.27074377186482
      vertex -11.40161590579881 -32 105.01389622954709
      vertex -11.40161590579881 -32 99.27074377186482
    endloop
  endfacet
endsolid drums_tom_high
