solid drums_bass
  facet normal 0.000000 1.000000 0.000000
    outer loop
      vertex 0 0 44.61501876182147
      vertex 41.5745789630079 0 61.83577321825051
      vertex 44.61501876182147 0 50.48869741172379
    endloop
  endfacet
  facet normal 0.000000 1.000000 0.000000
    outer loop
      vertex 0 0 44.61501876182147
      vertex 35.700900313105585 0 72.0092830672139
      vertex 41.5745789630079 0 61.83577321825051
    endloop
  endfacet
  facet normal 0.000000 1.000000 0.000000
    outer loop
      vertex 0 0 44.61501876182147
      vertex 27.39426430539243 0 80.31591907492705
      vertex 35.700900313105585 0 72.0092830672139
    endloop
  endfacet
  facet normal 0.000000 1.000000 0.000000
    outer loop
      vertex 0 0 44.61501876182147
      vertex 17.22075445642904 0 86.18959772482937
      vertex 27.39426430539243 0 80.31591907492705
    endloop
  endfacet
  facet normal 0.000000 1.000000 0.000000
    outer loop
      vertex 0 0 44.61501876182147
      vertex 5.8736786499023275 0 89.23003752364293
      vertex 17.22075445642904 0 86.18959772482937
    endloop
  endfacet
  facet normal 0.000000 1.000000 0.000000
    outer loop
      vertex 0 0 44.61501876182147
      vertex -5.873678649902322 0 89.23003752364293
      vertex 5.8736786499023275 0 89.23003752364293
    endloop
  endfacet
  facet normal 0.000000 1.000000 0.000000
    outer loop
      vertex 0 0 44.61501876182147
      vertex -17.220754456429027 0 86.18959772482938
      vertex -5.873678649902322 0 89.23003752364293
    endloop
  endfacet
  facet normal 0.000000 1.000000 0.000000
    outer loop
      vertex 0 0 44.61501876182147
      vertex -27.39426430539243 0 80.31591907492705
      vertex -17.220754456429027 0 86.18959772482938
    endloop
  endfacet
  facet normal 0.000000 1.000000 0.000000
    outer loop
      vertex 0 0 44.61501876182147
      vertex -35.70090031310558 0 72.00928306721391
      vertex -27.39426430539243 0 80.31591907492705
    endloop
  endfacet
  facet normal 0.000000 1.000000 0.000000
    outer loop
      vertex 0 0 44.61501876182147
      vertex -41.5745789630079 0 61.83577321825051
      vertex -35.70090031310558 0 72.00928306721391
    endloop
  endfacet
  facet normal 0.000000 1.000000 0.000000
    outer loop
      vertex 0 0 44.61501876182147
      vertex -44.61501876182147 0 50.488697411723805
      vertex -41.5745789630079 0 61.83577321825051
    endloop
  endfacet
  facet normal 0.000000 1.000000 0.000000
    outer loop
      vertex 0 0 44.61501876182147
      vertex -44.61501876182147 0 38.741340111919136
      vertex -44.61501876182147 0 50.488697411723805
    endloop
  endfacet
  facet normal 0.000000 1.000000 0.000000
    outer loop
      vertex 0 0 44.61501876182147
      vertex -44.18400449481957 0 37.13277296868098
      vertex -44.61501876182147 0 38.741340111919136
    endloop
  endfacet
  facet normal 0.000000 1.000000 0.000000
    outer loop
      vertex 0 0 44.61501876182147
      vertex -43.795775927165785 0 35.683884229247376
      vertex -44.18400449481957 0 37.13277296868098
    endloop
  endfacet
  facet normal 0.000000 1.000000 0.000000
    outer loop
      vertex 0 0 44.61501876182147
      vertex -41.57457896300791 0 27.394264305392433
      vertex -43.795775927165785 0 35.683884229247376
    endloop
  endfacet
  facet normal 0.000000 1.000000 0.000000
    outer loop
      vertex 0 0 44.61501876182147
      vertex -35.700900313105585 0 17.220754456429038
      vertex -41.57457896300791 0 27.394264305392433
    endloop
  endfacet
  facet normal 0.000000 1.000000 0.000000
    outer loop
      vertex 0 0 44.61501876182147
      vertex -27.39426430539244 0 8.914118448715897
      vertex -35.700900313105585 0 17.220754456429038
    endloop
  endfacet
  facet normal 0.000000 1.000000 0.000000
    outer loop
      vertex 0 0 44.61501876182147
      vertex -17.220754456429027 0 3.0404397988135585
      vertex -27.39426430539244 0 8.914118448715897
    endloop
  endfacet
  facet normal 0.000000 1.000000 0.000000
    outer loop
      vertex 0 0 44.61501876182147
      vertex -5.873678649902323 0 0
      vertex -17.220754456429027 0 3.0404397988135585
    endloop
  endfacet
  facet normal 0.000000 1.000000 0.000000
    outer loop
      vertex 0 0 44.61501876182147
      vertex 5.873678649902307 0 -7.105427357601002e-15
      vertex -5.873678649902323 0 0
    endloop
  endfacet
  facet normal 0.000000 1.000000 0.000000
    outer loop
      vertex 0 0 44.61501876182147
      vertex 17.220754456429013 0 3.0404397988135514
      vertex 5.873678649902307 0 -7.105427357601002e-15
    endloop
  endfacet
  facet normal 0.000000 1.000000 0.000000
    outer loop
      vertex 0 0 44.61501876182147
      vertex 27.394264305392394 0 8.914118448715861
      vertex 17.220754456429013 0 3.0404397988135514
    endloop
  endfacet
  facet normal 0.000000 1.000000 0.000000
    outer loop
      vertex 0 0 44.61501876182147
      vertex 35.70090031310557 0 17.220754456429027
      vertex 27.394264305392394 0 8.914118448715861
    endloop
  endfacet
  facet normal 0.000000 1.000000 0.000000
    outer loop
      vertex 0 0 44.61501876182147
      vertex 41.57457896300791 0 27.394264305392436
      vertex 35.70090031310557 0 17.220754456429027
    endloop
  endfacet
  facet normal 0.000000 1.000000 0.000000
    outer loop
      vertex 0 0 44.61501876182147
      vertex 44.61501876182147 0 38.74134011191914
      vertex 41.57457896300791 0 27.394264305392436
    endloop
  endfacet
  facet normal 0.000000 1.000000 0.000000
    outer loop
      vertex 0 0 44.61501876182147
      vertex 44.61501876182147 0 50.48869741172379
      vertex 44.61501876182147 0 38.74134011191914
    endloop
  endfacet
  facet normal 0.000000 -1.000000 0.000000
    outer loop
      vertex 0 -74 44.61501876182147
      vertex 44.61501876182147 -74 50.48869741172379
      vertex 41.5745789630079 -74 61.83577321825051
    endloop
  endfacet
  facet normal 0.000000 -1.000000 0.000000
    outer loop
      vertex 0 -74 44.61501876182147
      vertex 41.5745789630079 -74 61.83577321825051
      vertex 35.700900313105585 -74 72.0092830672139
    endloop
  endfacet
  facet normal 0.000000 -1.000000 0.000000
    outer loop
      vertex 0 -74 44.61501876182147
      vertex 35.700900313105585 -74 72.0092830672139
      vertex 27.39426430539243 -74 80.31591907492705
    endloop
  endfacet
  facet normal 0.000000 -1.000000 0.000000
    outer loop
      vertex 0 -74 44.61501876182147
      vertex 27.39426430539243 -74 80.31591907492705
      vertex 17.22075445642904 -74 86.18959772482937
    endloop
  endfacet
  facet normal 0.000000 -1.000000 0.000000
    outer loop
      vertex 0 -74 44.61501876182147
      vertex 17.22075445642904 -74 86.18959772482937
      vertex 5.8736786499023275 -74 89.23003752364293
    endloop
  endfacet
  facet normal 0.000000 -1.000000 0.000000
    outer loop
      vertex 0 -74 44.61501876182147
      vertex 5.8736786499023275 -74 89.23003752364293
      vertex -5.873678649902322 -74 89.23003752364293
    endloop
  endfacet
  facet normal 0.000000 -1.000000 0.000000
    outer loop
      vertex 0 -74 44.61501876182147
      vertex -5.873678649902322 -74 89.23003752364293
      vertex -17.220754456429027 -74 86.18959772482938
    endloop
  endfacet
  facet normal 0.000000 -1.000000 0.000000
    outer loop
      vertex 0 -74 44.61501876182147
      vertex -17.220754456429027 -74 86.18959772482938
      vertex -27.39426430539243 -74 80.31591907492705
    endloop
  endfacet
  facet normal 0.000000 -1.000000 0.000000
    outer loop
      vertex 0 -74 44.61501876182147
      vertex -27.39426430539243 -74 80.31591907492705
      vertex -35.70090031310558 -74 72.00928306721391
    endloop
  endfacet
  facet normal 0.000000 -1.000000 0.000000
    outer loop
      vertex 0 -74 44.61501876182147
      vertex -35.70090031310558 -74 72.00928306721391
      vertex -41.5745789630079 -74 61.83577321825051
    endloop
  endfacet
  facet normal 0.000000 -1.000000 0.000000
    outer loop
      vertex 0 -74 44.61501876182147
      vertex -41.5745789630079 -74 61.83577321825051
      vertex -44.61501876182147 -74 50.488697411723805
    endloop
  endfacet
  facet normal 0.000000 -1.000000 0.000000
    outer loop
      vertex 0 -74 44.61501876182147
      vertex -44.61501876182147 -74 50.488697411723805
      vertex -44.61501876182147 -74 38.741340111919136
    endloop
  endfacet
  facet normal 0.000000 -1.000000 0.000000
    outer loop
      vertex 0 -74 44.61501876182147
      vertex -44.61501876182147 -74 38.741340111919136
      vertex -44.18400449481957 -74 37.13277296868098
    endloop
  endfacet
  facet normal 0.000000 -1.000000 0.000000
    outer loop
      vertex 0 -74 44.61501876182147
      vertex -44.18400449481957 -74 37.13277296868098
      vertex -43.795775927165785 -74 35.683884229247376
    endloop
  endfacet
  facet normal 0.000000 -1.000000 0.000000
    outer loop
      vertex 0 -74 44.61501876182147
      vertex -43.795775927165785 -74 35.683884229247376
      vertex -41.57457896300791 -74 27.394264305392433
    endloop
  endfacet
  facet normal 0.000000 -1.000000 0.000000
    outer loop
      vertex 0 -74 44.61501876182147
      vertex -41.57457896300791 -74 27.394264305392433
      vertex -35.700900313105585 -74 17.220754456429038
    endloop
  endfacet
  facet normal 0.000000 -1.000000 0.000000
    outer loop
      vertex 0 -74 44.61501876182147
      vertex -35.700900313105585 -74 17.220754456429038
      vertex -27.39426430539244 -74 8.914118448715897
    endloop
  endfacet
  facet normal 0.000000 -1.000000 0.000000
    outer loop
      vertex 0 -74 44.61501876182147
      vertex -27.39426430539244 -74 8.914118448715897
      vertex -17.220754456429027 -74 3.0404397988135585
    endloop
  endfacet
  facet normal 0.000000 -1.000000 0.000000
    outer loop
      vertex 0 -74 44.61501876182147
      vertex -17.220754456429027 -74 3.0404397988135585
      vertex -5.873678649902323 -74 0
    endloop
  endfacet
  facet normal 0.000000 -1.000000 0.000000
    outer loop
      vertex 0 -74 44.61501876182147
      vertex -5.873678649902323 -74 0
      vertex 5.873678649902307 -74 -7.105427357601002e-15
    endloop
  endfacet
  facet normal 0.000000 -1.000000 0.000000
    outer loop
      vertex 0 -74 44.61501876182147
      vertex 5.873678649902307 -74 -7.105427357601002e-15
      vertex 17.220754456429013 -74 3.0404397988135514
    endloop
  endfacet
  facet normal 0.000000 -1.000000 0.000000
    outer loop
      vertex 0 -74 44.61501876182147
      vertex 17.220754456429013 -74 3.0404397988135514
      vertex 27.394264305392394 -74 8.914118448715861
    endloop
  endfacet
  facet normal 0.000000 -1.000000 0.000000
    outer loop
      vertex 0 -74 44.61501876182147
      vertex 27.394264305392394 -74 8.914118448715861
      vertex 35.70090031310557 -74 17.220754456429027
    endloop
  endfacet
  facet normal 0.000000 -1.000000 0.000000
    outer loop
      vertex 0 -74 44.61501876182147
      vertex 35.70090031310557 -74 17.220754456429027
      vertex 41.57457896300791 -74 27.394264305392436
    endloop
  endfacet
  facet normal 0.000000 -1.000000 0.000000
    outer loop
      vertex 0 -74 44.61501876182147
      vertex 41.57457896300791 -74 27.394264305392436
      vertex 44.61501876182147 -74 38.74134011191914
    endloop
  endfacet
  facet normal 0.000000 -1.000000 0.000000
    outer loop
      vertex 0 -74 44.61501876182147
      vertex 44.61501876182147 -74 38.74134011191914
      vertex 44.61501876182147 -74 50.48869741172379
    endloop
  endfacet
  facet normal 0.965926 0.000000 0.258819
    outer loop
      vertex 44.61501876182147 0 50.48869741172379
      vertex 41.5745789630079 0 61.83577321825051
      vertex 41.5745789630079 -15 61.83577321825051
    endloop
  endfacet
  facet normal 0.965926 0.000000 0.258819
    outer loop
      vertex 44.61501876182147 0 50.48869741172379
      vertex 41.5745789630079 -15 61.83577321825051
      vertex 44.61501876182147 -15 50.48869741172379
    endloop
  endfacet
  facet normal 0.866025 0.000000 0.500000
    outer loop
      vertex 41.5745789630079 0 61.83577321825051
      vertex 35.700900313105585 0 72.0092830672139
      vertex 35.700900313105585 -15 72.0092830672139
    endloop
  endfacet
  facet normal 0.866025 0.000000 0.500000
    outer loop
      vertex 41.5745789630079 0 61.83577321825051
      vertex 35.700900313105585 -15 72.0092830672139
      vertex 41.5745789630079 -15 61.83577321825051
    endloop
  endfacet
  facet normal 0.707107 0.000000 0.707107
    outer loop
      vertex 35.700900313105585 0 72.0092830672139
      vertex 27.39426430539243 0 80.31591907492705
      vertex 27.39426430539243 -15 80.31591907492705
    endloop
  endfacet
  facet normal 0.707107 0.000000 0.707107
    outer loop
      vertex 35.700900313105585 0 72.0092830672139
      vertex 27.39426430539243 -15 80.31591907492705
      vertex 35.700900313105585 -15 72.0092830672139
    endloop
  endfacet
  facet normal 0.500000 0.000000 0.866025
    outer loop
      vertex 27.39426430539243 0 80.31591907492705
      vertex 17.22075445642904 0 86.18959772482937
      vertex 17.22075445642904 -15 86.18959772482937
    endloop
  endfacet
  facet normal 0.500000 0.000000 0.866025
    outer loop
      vertex 27.39426430539243 0 80.31591907492705
      vertex 17.22075445642904 -15 86.18959772482937
      vertex 27.39426430539243 -15 80.31591907492705
    endloop
  endfacet
  facet normal 0.258819 0.000000 0.965926
    outer loop
      vertex 17.22075445642904 0 86.18959772482937
      vertex 5.8736786499023275 0 89.23003752364293
      vertex 5.8736786499023275 -15 89.23003752364293
    endloop
  endfacet
  facet normal 0.258819 0.000000 0.965926
    outer loop
      vertex 17.22075445642904 0 86.18959772482937
      vertex 5.8736786499023275 -15 89.23003752364293
      vertex 17.22075445642904 -15 86.18959772482937
    endloop
  endfacet
  facet normal 0.000000 0.000000 1.000000
    outer loop
      vertex 5.8736786499023275 0 89.23003752364293
      vertex -5.873678649902322 0 89.23003752364293
      vertex -5.873678649902322 -15 89.23003752364293
    endloop
  endfacet
  facet normal 0.000000 0.000000 1.000000
    outer loop
      vertex 5.8736786499023275 0 89.23003752364293
      vertex -5.873678649902322 -15 89.23003752364293
      vertex 5.8736786499023275 -15 89.23003752364293
    endloop
  endfacet
  facet normal -0.258819 0.000000 0.965926
    outer loop
      vertex -5.873678649902322 0 89.23003752364293
      vertex -17.220754456429027 0 86.18959772482938
      vertex -17.220754456429027 -15 86.18959772482938
    endloop
  endfacet
  facet normal -0.258819 0.000000 0.965926
    outer loop
      vertex -5.873678649902322 0 89.23003752364293
      vertex -17.220754456429027 -15 86.18959772482938
      vertex -5.873678649902322 -15 89.23003752364293
    endloop
  endfacet
  facet normal -0.500000 0.000000 0.866025
    outer loop
      vertex -17.220754456429027 0 86.18959772482938
      vertex -27.39426430539243 0 80.31591907492705
      vertex -27.39426430539243 -15 80.31591907492705
    endloop
  endfacet
  facet normal -0.500000 0.000000 0.866025
    outer loop
      vertex -17.220754456429027 0 86.18959772482938
      vertex -27.39426430539243 -15 80.31591907492705
      vertex -17.220754456429027 -15 86.18959772482938
    endloop
  endfacet
  facet normal -0.707107 0.000000 0.707107
    outer loop
      vertex -27.39426430539243 0 80.31591907492705
      vertex -35.70090031310558 0 72.00928306721391
      vertex -35.70090031310558 -15 72.00928306721391
    endloop
  endfacet
  facet normal -0.707107 0.000000 0.707107
    outer loop
      vertex -27.39426430539243 0 80.31591907492705
      vertex -35.70090031310558 -15 72.00928306721391
      vertex -27.39426430539243 -15 80.31591907492705
    endloop
  endfacet
  facet normal -0.866025 0.000000 0.500000
    outer loop
      vertex -35.70090031310558 0 72.00928306721391
      vertex -41.5745789630079 0 61.83577321825051
      vertex -41.5745789630079 -15 61.83577321825051
    endloop
  endfacet
  facet normal -0.866025 0.000000 0.500000
    outer loop
      vertex -35.70090031310558 0 72.00928306721391
      vertex -41.5745789630079 -15 61.83577321825051
      vertex -35.70090031310558 -15 72.00928306721391
    endloop
  endfacet
  facet normal -0.965926 0.000000 0.258819
    outer loop
      vertex -41.5745789630079 0 61.83577321825051
      vertex -44.61501876182147 0 50.488697411723805
      vertex -44.61501876182147 -15 50.488697411723805
    endloop
  endfacet
  facet normal -0.965926 0.000000 0.258819
    outer loop
      vertex -41.5745789630079 0 61.83577321825051
      vertex -44.61501876182147 -15 50.488697411723805
      vertex -41.5745789630079 -15 61.83577321825051
    endloop
  endfacet
  facet normal -1.000000 0.000000 0.000000
    outer loop
      vertex -44.61501876182147 0 50.488697411723805
      vertex -44.61501876182147 0 38.741340111919136
      vertex -44.61501876182147 -15 38.741340111919136
    endloop
  endfacet
  facet normal -1.000000 0.000000 0.000000
    outer loop
      vertex -44.61501876182147 0 50.488697411723805
      vertex -44.61501876182147 -15 38.741340111919136
      vertex -44.61501876182147 -15 50.488697411723805
    endloop
  endfacet
  facet normal -0.965926 0.000000 -0.258819
    outer loop
      vertex -44.61501876182147 0 38.741340111919136
      vertex -44.18400449481957 0 37.13277296868098
      vertex -44.18400449481957 -15 37.13277296868098
    endloop
  endfacet
  facet normal -0.965926 0.000000 -0.258819
    outer loop
      vertex -44.61501876182147 0 38.741340111919136
      vertex -44.18400449481957 -15 37.13277296868098
      vertex -44.61501876182147 -15 38.741340111919136
    endloop
  endfacet
  facet normal -0.965926 0.000000 -0.258819
    outer loop
      vertex -43.795775927165785 0 35.683884229247376
      vertex -41.57457896300791 0 27.394264305392433
      vertex -41.57457896300791 -15 27.394264305392433
    endloop
  endfacet
  facet normal -0.965926 0.000000 -0.258819
    outer loop
      vertex -43.795775927165785 0 35.683884229247376
      vertex -41.57457896300791 -15 27.394264305392433
      vertex -43.795775927165785 -15 35.683884229247376
    endloop
  endfacet
  facet normal -0.866025 0.000000 -0.500000
    outer loop
      vertex -41.57457896300791 0 27.394264305392433
      vertex -35.700900313105585 0 17.220754456429038
      vertex -35.700900313105585 -15 17.220754456429038
    endloop
  endfacet
  facet normal -0.866025 0.000000 -0.500000
    outer loop
      vertex -41.57457896300791 0 27.394264305392433
      vertex -35.700900313105585 -15 17.220754456429038
      vertex -41.57457896300791 -15 27.394264305392433
    endloop
  endfacet
  facet normal -0.707107 0.000000 -0.707107
    outer loop
      vertex -35.700900313105585 0 17.220754456429038
      vertex -27.39426430539244 0 8.914118448715897
      vertex -27.39426430539244 -15 8.914118448715897
    endloop
  endfacet
  facet normal -0.707107 0.000000 -0.707107
    outer loop
      vertex -35.700900313105585 0 17.220754456429038
      vertex -27.39426430539244 -15 8.914118448715897
      vertex -35.700900313105585 -15 17.220754456429038
    endloop
  endfacet
  facet normal -0.500000 0.000000 -0.866025
    outer loop
      vertex -27.39426430539244 0 8.914118448715897
      vertex -17.220754456429027 0 3.0404397988135585
      vertex -17.220754456429027 -15 3.0404397988135585
    endloop
  endfacet
  facet normal -0.500000 0.000000 -0.866025
    outer loop
      vertex -27.39426430539244 0 8.914118448715897
      vertex -17.220754456429027 -15 3.0404397988135585
      vertex -27.39426430539244 -15 8.914118448715897
    endloop
  endfacet
  facet normal -0.258819 0.000000 -0.965926
    outer loop
      vertex -17.220754456429027 0 3.0404397988135585
      vertex -5.873678649902323 0 0
      vertex -5.873678649902323 -15 0
    endloop
  endfacet
  facet normal -0.258819 0.000000 -0.965926
    outer loop
      vertex -17.220754456429027 0 3.0404397988135585
      vertex -5.873678649902323 -15 0
      vertex -17.220754456429027 -15 3.0404397988135585
    endloop
  endfacet
  facet normal -0.000000 0.000000 -1.000000
    outer loop
      vertex -5.873678649902323 0 0
      vertex 5.873678649902307 0 -7.105427357601002e-15
      vertex 5.873678649902307 -15 -7.105427357601002e-15
    endloop
  endfacet
  facet normal -0.000000 0.000000 -1.000000
    outer loop
      vertex -5.873678649902323 0 0
      vertex 5.873678649902307 -15 -7.105427357601002e-15
      vertex -5.873678649902323 -15 0
    endloop
  endfacet
  facet normal 0.258819 0.000000 -0.965926
    outer loop
      vertex 5.873678649902307 0 -7.105427357601002e-15
      vertex 17.220754456429013 0 3.0404397988135514
      vertex 17.220754456429013 -15 3.0404397988135514
    endloop
  endfacet
  facet normal 0.258819 0.000000 -0.965926
    outer loop
      vertex 5.873678649902307 0 -7.105427357601002e-15
      vertex 17.220754456429013 -15 3.0404397988135514
      vertex 5.873678649902307 -15 -7.105427357601002e-15
    endloop
  endfacet
  facet normal 0.500000 0.000000 -0.866025
    outer loop
      vertex 17.220754456429013 0 3.0404397988135514
      vertex 27.394264305392394 0 8.914118448715861
      vertex 27.394264305392394 -15 8.914118448715861
    endloop
  endfacet
  facet normal 0.500000 0.000000 -0.866025
    outer loop
      vertex 17.220754456429013 0 3.0404397988135514
      vertex 27.394264305392394 -15 8.914118448715861
      vertex 17.220754456429013 -15 3.0404397988135514
    endloop
  endfacet
  facet normal 0.707107 0.000000 -0.707107
    outer loop
      vertex 27.394264305392394 0 8.914118448715861
      vertex 35.70090031310557 0 17.220754456429027
      vertex 35.70090031310557 -15 17.220754456429027
    endloop
  endfacet
  facet normal 0.707107 0.000000 -0.707107
    outer loop
      vertex 27.394264305392394 0 8.914118448715861
      vertex 35.70090031310557 -15 17.220754456429027
      vertex 27.394264305392394 -15 8.914118448715861
    endloop
  endfacet
  facet normal 0.866025 0.000000 -0.500000
    outer loop
      vertex 35.70090031310557 0 17.220754456429027
      vertex 41.57457896300791 0 27.394264305392436
      vertex 41.57457896300791 -15 27.394264305392436
    endloop
  endfacet
  facet normal 0.866025 0.000000 -0.500000
    outer loop
      vertex 35.70090031310557 0 17.220754456429027
      vertex 41.57457896300791 -15 27.394264305392436
      vertex 35.70090031310557 -15 17.220754456429027
    endloop
  endfacet
  facet normal 0.965926 0.000000 -0.258819
    outer loop
      vertex 41.57457896300791 0 27.394264305392436
      vertex 44.61501876182147 0 38.74134011191914
      vertex 44.61501876182147 -15 38.74134011191914
    endloop
  endfacet
  facet normal 0.965926 0.000000 -0.258819
    outer loop
      vertex 41.57457896300791 0 27.394264305392436
      vertex 44.61501876182147 -15 38.74134011191914
      vertex 41.57457896300791 -15 27.394264305392436
    endloop
  endfacet
  facet normal 1.000000 0.000000 0.000000
    outer loop
      vertex 44.61501876182147 0 38.74134011191914
      vertex 44.61501876182147 0 50.48869741172379
      vertex 44.61501876182147 -15 50.48869741172379
    endloop
  endfacet
  facet normal 1.000000 0.000000 0.000000
    outer loop
      vertex 44.61501876182147 0 38.74134011191914
      vertex 44.61501876182147 -15 50.48869741172379
      vertex 44.61501876182147 -15 38.74134011191914
    endloop
  endfacet
  facet normal 0.965926 0.000000 0.258819
    outer loop
      vertex 44.61501876182147 -15 50.48869741172379
      vertex 41.5745789630079 -15 61.83577321825051
      vertex 41.5745789630079 -74 61.83577321825051
    endloop
  endfacet
  facet normal 0.965926 0.000000 0.258819
    outer loop
      vertex 44.61501876182147 -15 50.48869741172379
      vertex 41.5745789630079 -74 61.83577321825051
      vertex 44.61501876182147 -74 50.48869741172379
    endloop
  endfacet
  facet normal 0.866025 0.000000 0.500000
    outer loop
      vertex 41.5745789630079 -15 61.83577321825051
      vertex 35.700900313105585 -15 72.0092830672139
      vertex 35.700900313105585 -74 72.0092830672139
    endloop
  endfacet
  facet normal 0.866025 0.000000 0.500000
    outer loop
      vertex 41.5745789630079 -15 61.83577321825051
      vertex 35.700900313105585 -74 72.0092830672139
      vertex 41.5745789630079 -74 61.83577321825051
    endloop
  endfacet
  facet normal 0.707107 0.000000 0.707107
    outer loop
      vertex 35.700900313105585 -15 72.0092830672139
      vertex 27.39426430539243 -15 80.31591907492705
      vertex 27.39426430539243 -74 80.31591907492705
    endloop
  endfacet
  facet normal 0.707107 0.000000 0.707107
    outer loop
      vertex 35.700900313105585 -15 72.0092830672139
      vertex 27.39426430539243 -74 80.31591907492705
      vertex 35.700900313105585 -74 72.0092830672139
    endloop
  endfacet
  facet normal 0.500000 0.000000 0.866025
    outer loop
      vertex 27.39426430539243 -15 80.31591907492705
      vertex 17.22075445642904 -15 86.18959772482937
      vertex 17.22075445642904 -74 86.18959772482937
    endloop
  endfacet
  facet normal 0.500000 0.000000 0.866025
    outer loop
      vertex 27.39426430539243 -15 80.31591907492705
      vertex 17.22075445642904 -74 86.18959772482937
      vertex 27.39426430539243 -74 80.31591907492705
    endloop
  endfacet
  facet normal 0.258819 0.000000 0.965926
    outer loop
      vertex 17.22075445642904 -15 86.18959772482937
      vertex 5.8736786499023275 -15 89.23003752364293
      vertex 5.8736786499023275 -74 89.23003752364293
    endloop
  endfacet
  facet normal 0.258819 0.000000 0.965926
    outer loop
      vertex 17.22075445642904 -15 86.18959772482937
      vertex 5.8736786499023275 -74 89.23003752364293
      vertex 17.22075445642904 -74 86.18959772482937
    endloop
  endfacet
  facet normal 0.000000 0.000000 1.000000
    outer loop
      vertex 5.8736786499023275 -15 89.23003752364293
      vertex -5.873678649902322 -15 89.23003752364293
      vertex -5.873678649902322 -74 89.23003752364293
    endloop
  endfacet
  facet normal 0.000000 0.000000 1.000000
    outer loop
      vertex 5.8736786499023275 -15 89.23003752364293
      vertex -5.873678649902322 -74 89.23003752364293
      vertex 5.8736786499023275 -74 89.23003752364293
    endloop
  endfacet
  facet normal -0.258819 0.000000 0.965926
    outer loop
      vertex -5.873678649902322 -15 89.23003752364293
      vertex -17.220754456429027 -15 86.18959772482938
      vertex -17.220754456429027 -74 86.18959772482938
    endloop
  endfacet
  facet normal -0.258819 0.000000 0.965926
    outer loop
      vertex -5.873678649902322 -15 89.23003752364293
      vertex -17.220754456429027 -74 86.18959772482938
      vertex -5.873678649902322 -74 89.23003752364293
    endloop
  endfacet
  facet normal -0.500000 0.000000 0.866025
    outer loop
      vertex -17.220754456429027 -15 86.18959772482938
      vertex -27.39426430539243 -15 80.31591907492705
      vertex -27.39426430539243 -74 80.31591907492705
    endloop
  endfacet
  facet normal -0.500000 0.000000 0.866025
    outer loop
      vertex -17.220754456429027 -15 86.18959772482938
      vertex -27.39426430539243 -74 80.31591907492705
      vertex -17.220754456429027 -74 86.18959772482938
    endloop
  endfacet
  facet normal -0.707107 0.000000 0.707107
    outer loop
      vertex -27.39426430539243 -15 80.31591907492705
      vertex -35.70090031310558 -15 72.00928306721391
      vertex -35.70090031310558 -74 72.00928306721391
    endloop
  endfacet
  facet normal -0.707107 0.000000 0.707107
    outer loop
      vertex -27.39426430539243 -15 80.31591907492705
      vertex -35.70090031310558 -74 72.00928306721391
      vertex -27.39426430539243 -74 80.31591907492705
    endloop
  endfacet
  facet normal -0.866025 0.000000 0.500000
    outer loop
      vertex -35.70090031310558 -15 72.00928306721391
      vertex -41.5745789630079 -15 61.83577321825051
      vertex -41.5745789630079 -74 61.83577321825051
    endloop
  endfacet
  facet normal -0.866025 0.000000 0.500000
    outer loop
      vertex -35.70090031310558 -15 72.00928306721391
      vertex -41.5745789630079 -74 61.83577321825051
      vertex -35.70090031310558 -74 72.00928306721391
    endloop
  endfacet
  facet normal -0.965926 0.000000 0.258819
    outer loop
      vertex -41.5745789630079 -15 61.83577321825051
      vertex -44.61501876182147 -15 50.488697411723805
      vertex -44.61501876182147 -74 50.488697411723805
    endloop
  endfacet
  facet normal -0.965926 0.000000 0.258819
    outer loop
      vertex -41.5745789630079 -15 61.83577321825051
      vertex -44.61501876182147 -74 50.488697411723805
      vertex -41.5745789630079 -74 61.83577321825051
    endloop
  endfacet
  facet normal -1.000000 0.000000 0.000000
    outer loop
      vertex -44.61501876182147 -15 50.488697411723805
      vertex -44.61501876182147 -15 38.741340111919136
      vertex -44.61501876182147 -74 38.741340111919136
    endloop
  endfacet
  facet normal -1.000000 0.000000 0.000000
    outer loop
      vertex -44.61501876182147 -15 50.488697411723805
      vertex -44.61501876182147 -74 38.741340111919136
      vertex -44.61501876182147 -74 50.488697411723805
    endloop
  endfacet
  facet normal -0.965926 0.000000 -0.258819
    outer loop
      vertex -44.61501876182147 -15 38.741340111919136
      vertex -44.18400449481957 -15 37.13277296868098
      vertex -44.18400449481957 -74 37.13277296868098
    endloop
  endfacet
  facet normal -0.965926 0.000000 -0.258819
    outer loop
      vertex -44.61501876182147 -15 38.741340111919136
      vertex -44.18400449481957 -74 37.13277296868098
      vertex -44.61501876182147 -74 38.741340111919136
    endloop
  endfacet
  facet normal -0.965926 0.000000 -0.258819
    outer loop
      vertex -44.18400449481957 -15 37.13277296868098
      vertex -43.795775927165785 -15 35.683884229247376
      vertex -43.795775927165785 -74 35.683884229247376
    endloop
  endfacet
  facet normal -0.965926 0.000000 -0.258819
    outer loop
      vertex -44.18400449481957 -15 37.13277296868098
      vertex -43.795775927165785 -74 35.683884229247376
      vertex -44.18400449481957 -74 37.13277296868098
    endloop
  endfacet
  facet normal -0.965926 0.000000 -0.258819
    outer loop
      vertex -43.795775927165785 -15 35.683884229247376
      vertex -41.57457896300791 -15 27.394264305392433
      vertex -41.57457896300791 -74 27.394264305392433
    endloop
  endfacet
  facet normal -0.965926 0.000000 -0.258819
    outer loop
      vertex -43.795775927165785 -15 35.683884229247376
      vertex -41.57457896300791 -74 27.394264305392433
      vertex -43.795775927165785 -74 35.683884229247376
    endloop
  endfacet
  facet normal -0.866025 0.000000 -0.500000
    outer loop
      vertex -41.57457896300791 -15 27.394264305392433
      vertex -35.700900313105585 -15 17.220754456429038
      vertex -35.700900313105585 -74 17.220754456429038
    endloop
  endfacet
  facet normal -0.866025 0.000000 -0.500000
    outer loop
      vertex -41.57457896300791 -15 27.394264305392433
      vertex -35.700900313105585 -74 17.220754456429038
      vertex -41.57457896300791 -74 27.394264305392433
    endloop
  endfacet
  facet normal -0.707107 0.000000 -0.707107
    outer loop
      vertex -35.700900313105585 -15 17.220754456429038
      vertex -27.39426430539244 -15 8.914118448715897
      vertex -27.39426430539244 -74 8.914118448715897
    endloop
  endfacet
  facet normal -0.707107 0.000000 -0.707107
    outer loop
      vertex -35.700900313105585 -15 17.220754456429038
      vertex -27.39426430539244 -74 8.914118448715897
      vertex -35.700900313105585 -74 17.220754456429038
    endloop
  endfacet
  facet normal -0.500000 0.000000 -0.866025
    outer loop
      vertex -27.39426430539244 -15 8.914118448715897
      vertex -17.220754456429027 -15 3.0404397988135585
      vertex -17.220754456429027 -74 3.0404397988135585
    endloop
  endfacet
  facet normal -0.500000 0.000000 -0.866025
    outer loop
      vertex -27.39426430539244 -15 8.914118448715897
      vertex -17.220754456429027 -74 3.0404397988135585
      vertex -27.39426430539244 -74 8.914118448715897
    endloop
  endfacet
  facet normal -0.258819 0.000000 -0.965926
    outer loop
      vertex -17.220754456429027 -15 3.0404397988135585
      vertex -5.873678649902323 -15 0
      vertex -5.873678649902323 -74 0
    endloop
  endfacet
  facet normal -0.258819 0.000000 -0.965926
    outer loop
      vertex -17.220754456429027 -15 3.0404397988135585
      vertex -5.873678649902323 -74 0
      vertex -17.220754456429027 -74 3.0404397988135585
    endloop
  endfacet
  facet normal -0.000000 0.000000 -1.000000
    outer loop
      vertex -5.873678649902323 -15 0
      vertex 5.873678649902307 -15 -7.105427357601002e-15
      vertex 5.873678649902307 -74 -7.105427357601002e-15
    endloop
  endfacet
  facet normal -0.000000 0.000000 -1.000000
    outer loop
      vertex -5.873678649902323 -15 0
      vertex 5.873678649902307 -74 -7.105427357601002e-15
      vertex -5.873678649902323 -74 0
    endloop
  endfacet
  facet normal 0.258819 0.000000 -0.965926
    outer loop
      vertex 5.873678649902307 -15 -7.105427357601002e-15
      vertex 17.220754456429013 -15 3.0404397988135514
      vertex 17.220754456429013 -74 3.0404397988135514
    endloop
  endfacet
  facet normal 0.258819 0.000000 -0.965926
    outer loop
      vertex 5.873678649902307 -15 -7.105427357601002e-15
      vertex 17.220754456429013 -74 3.0404397988135514
      vertex 5.873678649902307 -74 -7.105427357601002e-15
    endloop
  endfacet
  facet normal 0.500000 0.000000 -0.866025
    outer loop
      vertex 17.220754456429013 -15 3.0404397988135514
      vertex 27.394264305392394 -15 8.914118448715861
      vertex 27.394264305392394 -74 8.914118448715861
    endloop
  endfacet
  facet normal 0.500000 0.000000 -0.866025
    outer loop
      vertex 17.220754456429013 -15 3.0404397988135514
      vertex 27.394264305392394 -74 8.914118448715861
      vertex 17.220754456429013 -74 3.0404397988135514
    endloop
  endfacet
  facet normal 0.707107 0.000000 -0.707107
    outer loop
      vertex 27.394264305392394 -15 8.914118448715861
      vertex 35.70090031310557 -15 17.220754456429027
      vertex 35.70090031310557 -74 17.220754456429027
    endloop
  endfacet
  facet normal 0.707107 0.000000 -0.707107
    outer loop
      vertex 27.394264305392394 -15 8.914118448715861
      vertex 35.70090031310557 -74 17.220754456429027
      vertex 27.394264305392394 -74 8.914118448715861
    endloop
  endfacet
  facet normal 0.866025 0.000000 -0.500000
    outer loop
      vertex 35.70090031310557 -15 17.220754456429027
      vertex 41.57457896300791 -15 27.394264305392436
      vertex 41.57457896300791 -74 27.394264305392436
    endloop
  endfacet
  facet normal 0.866025 0.000000 -0.500000
    outer loop
      vertex 35.70090031310557 -15 17.220754456429027
      vertex 41.57457896300791 -74 27.394264305392436
      vertex 35.70090031310557 -74 17.220754456429027
    endloop
  endfacet
  facet normal 0.965926 0.000000 -0.258819
    outer loop
      vertex 41.57457896300791 -15 27.394264305392436
      vertex 44.61501876182147 -15 38.74134011191914
      vertex 44.61501876182147 -74 38.74134011191914
    endloop
  endfacet
  facet normal 0.965926 0.000000 -0.258819
    outer loop
      vertex 41.57457896300791 -15 27.394264305392436
      vertex 44.61501876182147 -74 38.74134011191914
      vertex 41.57457896300791 -74 27.394264305392436
    endloop
  endfacet
  facet normal 1.000000 0.000000 0.000000
    outer loop
      vertex 44.61501876182147 -15 38.74134011191914
      vertex 44.61501876182147 -15 50.48869741172379
      vertex 44.61501876182147 -74 50.48869741172379
    endloop
  endfacet
  facet normal 1.000000 0.000000 0.000000
    outer loop
      vertex 44.61501876182147 -15 38.74134011191914
      vertex 44.61501876182147 -74 50.48869741172379
      vertex 44.61501876182147 -74 38.74134011191914
    endloop
  endfacet
endsolid drums_bass
