solid drums_tom_low
  facet normal 0.000000 1.000000 0.000000
    outer loop
      vertex 34.4527089327399 0 104.2888610917091
      vertex 57.08775747926643 0 113.6646051846538
      vertex 58.743108036398255 0 107.48675280110035
    endloop
  endfacet
  facet normal 0.000000 1.000000 0.000000
    outer loop
      vertex 34.4527089327399 0 104.2888610917091
      vertex 53.889865769875165 0 119.20351610242275
      vertex 57.08775747926643 0 113.6646051846538
    endloop
  endfacet
  facet normal 0.000000 1.000000 0.000000
    outer loop
      vertex 34.4527089327399 0 104.2888610917091
      vertex 49.367363943453554 0 123.72601792884436
      vertex 53.889865769875165 0 119.20351610242275
    endloop
  endfacet
  facet normal 0.000000 1.000000 0.000000
    outer loop
      vertex 34.4527089327399 0 104.2888610917091
      vertex 43.8284530256846 0 126.92390963823561
      vertex 49.367363943453554 0 123.72601792884436
    endloop
  endfacet
  facet normal 0.000000 1.000000 0.000000
    outer loop
      vertex 34.4527089327399 0 104.2888610917091
      vertex 37.65060064213117 0 128.57926019536745
      vertex 43.8284530256846 0 126.92390963823561
    endloop
  endfacet
  facet normal 0.000000 1.000000 0.000000
    outer loop
      vertex 34.4527089327399 0 104.2888610917091
      vertex 31.25481722334864 0 128.57926019536745
      vertex 37.65060064213117 0 128.57926019536745
    endloop
  endfacet
  facet normal 0.000000 1.000000 0.000000
    outer loop
      vertex 34.4527089327399 0 104.2888610917091
      vertex 25.07696483979521 0 126.92390963823561
      vertex 31.25481722334864 0 128.57926019536745
    endloop
  endfacet
  facet normal 0.000000 1.000000 0.000000
    outer loop
      vertex 34.4527089327399 0 104.2888610917091
      vertex 19.538053922026247 0 123.72601792884436
      vertex 25.07696483979521 0 126.92390963823561
    endloop
  endfacet
  facet normal 0.000000 1.000000 0.000000
    outer loop
      vertex 34.4527089327399 0 104.2888610917091
      vertex 15.015552095604644 0 119.20351610242275
      vertex 19.538053922026247 0 123.72601792884436
    endloop
  endfacet
  facet normal 0.000000 1.000000 0.000000
    outer loop
      vertex 34.4527089327399 0 104.2888610917091
      vertex 11.817660386213376 0 113.6646051846538
      vertex 15.015552095604644 0 119.20351610242275
    endloop
  endfacet
  facet normal 0.000000 1.000000 0.000000
    outer loop
      vertex 34.4527089327399 0 104.2888610917091
      vertex 10.162309829081547 0 107.48675280110037
      vertex 11.817660386213376 0 113.6646051846538
    endloop
  endfacet
  facet normal 0.000000 1.000000 0.000000
    outer loop
      vertex 34.4527089327399 0 104.2888610917091
      vertex 10.162309829081547 0 101.09096938231782
      vertex 10.162309829081547 0 107.48675280110037
    endloop
  endfacet
  facet normal 0.000000 1.000000 0.000000
    outer loop
      vertex 34.4527089327399 0 104.2888610917091
      vertex 11.817660386213376 0 94.9131169987644
      vertex 10.162309829081547 0 101.09096938231782
    endloop
  endfacet
  facet normal 0.000000 1.000000 0.000000
    outer loop
      vertex 34.4527089327399 0 104.2888610917091
      vertex 15.01555209560464 0 89.37420608099544
      vertex 11.817660386213376 0 94.9131169987644
    endloop
  endfacet
  facet normal 0.000000 1.000000 0.000000
    outer loop
      vertex 34.4527089327399 0 104.2888610917091
      vertex 19.538053922026243 0 84.85170425457383
      vertex 15.01555209560464 0 89.37420608099544
    endloop
  endfacet
  facet normal 0.000000 1.000000 0.000000
    outer loop
      vertex 34.4527089327399 0 104.2888610917091
      vertex 25.07696483979521 0 81.65381254518257
      vertex 19.538053922026243 0 84.85170425457383
    endloop
  endfacet
  facet normal 0.000000 1.000000 0.000000
    outer loop
      vertex 34.4527089327399 0 104.2888610917091
      vertex 31.25481722334864 0 79.99846198805074
      vertex 25.07696483979521 0 81.65381254518257
    endloop
  endfacet
  facet normal 0.000000 1.000000 0.000000
    outer loop
      vertex 34.4527089327399 0 104.2888610917091
      vertex 37.65060064213116 0 79.99846198805074
      vertex 31.25481722334864 0 79.99846198805074
    endloop
  endfacet
  facet normal 0.000000 1.000000 0.000000
    outer loop
      vertex 34.4527089327399 0 104.2888610917091
      vertex 43.82845302568459 0 81.65381254518256
      vertex 37.65060064213116 0 79.99846198805074
    endloop
  endfacet
  facet normal 0.000000 1.000000 0.000000
    outer loop
      vertex 34.4527089327399 0 104.2888610917091
      vertex 49.36736394345354 0 84.85170425457382
      vertex 43.82845302568459 0 81.65381254518256
    endloop
  endfacet
  facet normal 0.000000 1.000000 0.000000
    outer loop
      vertex 34.4527089327399 0 104.2888610917091
      vertex 53.88986576987516 0 89.37420608099544
      vertex 49.36736394345354 0 84.85170425457382
    endloop
  endfacet
  facet normal 0.000000 1.000000 0.000000
    outer loop
      vertex 34.4527089327399 0 104.2888610917091
      vertex 57.08775747926643 0 94.9131169987644
      vertex 53.88986576987516 0 89.37420608099544
    endloop
  endfacet
  facet normal 0.000000 1.000000 0.000000
    outer loop
      vertex 34.4527089327399 0 104.2888610917091
      vertex 58.743108036398255 0 101.09096938231782
      vertex 57.08775747926643 0 94.9131169987644
    endloop
  endfacet
  facet normal 0.000000 1.000000 0.000000
    outer loop
      vertex 34.4527089327399 0 104.2888610917091
      vertex 58.743108036398255 0 107.48675280110035
      vertex 58.743108036398255 0 101.09096938231782
    endloop
  endfacet
  facet normal 0.000000 -1.000000 0.000000
    outer loop
      vertex 34.4527089327399 -34 104.2888610917091
      vertex 58.743108036398255 -34 107.48675280110035
      vertex 57.08775747926643 -34 113.6646051846538
    endloop
  endfacet
  facet normal 0.000000 -1.000000 0.000000
    outer loop
      vertex 34.4527089327399 -34 104.2888610917091
      vertex 57.08775747926643 -34 113.6646051846538
      vertex 53.889865769875165 -34 119.20351610242275
    endloop
  endfacet
  facet normal 0.000000 -1.000000 0.000000
    outer loop
      vertex 34.4527089327399 -34 104.2888610917091
      vertex 53.889865769875165 -34 119.20351610242275
      vertex 49.367363943453554 -34 123.72601792884436
    endloop
  endfacet
  facet normal 0.000000 -1.000000 0.000000
    outer loop
      vertex 34.4527089327399 -34 104.2888610917091
      vertex 49.367363943453554 -34 123.72601792884436
      vertex 43.8284530256846 -34 126.92390963823561
    endloop
  endfacet
  facet normal 0.000000 -1.000000 0.000000
    outer loop
      vertex 34.4527089327399 -34 104.2888610917091
      vertex 43.8284530256846 -34 126.92390963823561
      vertex 37.65060064213117 -34 128.57926019536745
    endloop
  endfacet
  facet normal 0.000000 -1.000000 0.000000
    outer loop
      vertex 34.4527089327399 -34 104.2888610917091
      vertex 37.65060064213117 -34 128.57926019536745
      vertex 31.25481722334864 -34 128.57926019536745
    endloop
  endfacet
  facet normal 0.000000 -1.000000 0.000000
    outer loop
      vertex 34.4527089327399 -34 104.2888610917091
      vertex 31.25481722334864 -34 128.57926019536745
      vertex 25.07696483979521 -34 126.92390963823561
    endloop
  endfacet
  facet normal 0.000000 -1.000000 0.000000
    outer loop
      vertex 34.4527089327399 -34 104.2888610917091
      vertex 25.07696483979521 -34 126.92390963823561
      vertex 19.538053922026247 -34 123.72601792884436
    endloop
  endfacet
  facet normal 0.000000 -1.000000 0.000000
    outer loop
      vertex 34.4527089327399 -34 104.2888610917091
      vertex 19.538053922026247 -34 123.72601792884436
      vertex 15.015552095604644 -34 119.20351610242275
    endloop
  endfacet
  facet normal 0.000000 -1.000000 0.000000
    outer loop
      vertex 34.4527089327399 -34 104.2888610917091
      vertex 15.015552095604644 -34 119.20351610242275
      vertex 11.817660386213376 -34 113.6646051846538
    endloop
  endfacet
  facet normal 0.000000 -1.000000 0.000000
    outer loop
      vertex 34.4527089327399 -34 104.2888610917091
      vertex 11.817660386213376 -34 113.6646051846538
      vertex 10.162309829081547 -34 107.48675280110037
    endloop
  endfacet
  facet normal 0.000000 -1.000000 0.000000
    outer loop
      vertex 34.4527089327399 -34 104.2888610917091
      vertex 10.162309829081547 -34 107.48675280110037
      vertex 10.162309829081547 -34 101.09096938231782
    endloop
  endfacet
  facet normal 0.000000 -1.000000 0.000000
    outer loop
      vertex 34.4527089327399 -34 104.2888610917091
      vertex 10.162309829081547 -34 101.09096938231782
      vertex 11.817660386213376 -34 94.9131169987644
    endloop
  endfacet
  facet normal 0.000000 -1.000000 0.000000
    outer loop
      vertex 34.4527089327399 -34 104.2888610917091
      vertex 11.817660386213376 -34 94.9131169987644
      vertex 15.01555209560464 -34 89.37420608099544
    endloop
  endfacet
  facet normal 0.000000 -1.000000 0.000000
    outer loop
      vertex 34.4527089327399 -34 104.2888610917091
      vertex 15.01555209560464 -34 89.37420608099544
      vertex 19.538053922026243 -34 84.85170425457383
    endloop
  endfacet
  facet normal 0.000000 -1.000000 0.000000
    outer loop
      vertex 34.4527089327399 -34 104.2888610917091
      vertex 19.538053922026243 -34 84.85170425457383
      vertex 25.07696483979521 -34 81.65381254518257
    endloop
  endfacet
  facet normal 0.000000 -1.000000 0.000000
    outer loop
      vertex 34.4527089327399 -34 104.2888610917091
      vertex 25.07696483979521 -34 81.65381254518257
      vertex 31.25481722334864 -34 79.99846198805074
    endloop
  endfacet
  facet normal 0.000000 -1.000000 0.000000
    outer loop
      vertex 34.4527089327399 -34 104.2888610917091
      vertex 31.25481722334864 -34 79.99846198805074
      vertex 37.65060064213116 -34 79.99846198805074
    endloop
  endfacet
  facet normal 0.000000 -1.000000 0.000000
    outer loop
      vertex 34.4527089327399 -34 104.2888610917091
      vertex 37.65060064213116 -34 79.99846198805074
      vertex 43.82845302568459 -34 81.65381254518256
    endloop
  endfacet
  facet normal 0.000000 -1.000000 0.000000
    outer loop
      vertex 34.4527089327399 -34 104.2888610917091
      vertex 43.82845302568459 -34 81.65381254518256
      vertex 49.36736394345354 -34 84.85170425457382
    endloop
  endfacet
  facet normal 0.000000 -1.000000 0.000000
    outer loop
      vertex 34.4527089327399 -34 104.2888610917091
      vertex 49.36736394345354 -34 84.85170425457382
      vertex 53.88986576987516 -34 89.37420608099544
    endloop
  endfacet
  facet normal 0.000000 -1.000000 0.000000
    outer loop
      vertex 34.4527089327399 -34 104.2888610917091
      vertex 53.88986576987516 -34 89.37420608099544
      vertex 57.08775747926643 -34 94.9131169987644
    endloop
  endfacet
  facet normal 0.000000 -1.000000 0.000000
    outer loop
      vertex 34.4527089327399 -34 104.2888610917091
      vertex 57.08775747926643 -34 94.9131169987644
      vertex 58.743108036398255 -34 101.09096938231782
    endloop
  endfacet
  facet normal 0.000000 -1.000000 0.000000
    outer loop
      vertex 34.4527089327399 -34 104.2888610917091
      vertex 58.743108036398255 -34 101.09096938231782
      vertex 58.743108036398255 -34 107.48675280110035
    endloop
  endfacet
  facet normal 0.965926 0.000000 0.258819
    outer loop
      vertex 58.743108036398255 0 107.48675280110035
      vertex 57.08775747926643 0 113.6646051846538
      vertex 57.08775747926643 -15 113.6646051846538
    endloop
  endfacet
  facet normal 0.965926 0.000000 0.258819
    outer loop
      vertex 58.743108036398255 0 107.48675280110035
      vertex 57.08775747926643 -15 113.6646051846538
      vertex 58.743108036398255 -15 107.48675280110035
    endloop
  endfacet
  facet normal 0.866025 0.000000 0.500000
    outer loop
      vertex 57.08775747926643 0 113.6646051846538
      vertex 53.889865769875165 0 119.20351610242275
      vertex 53.889865769875165 -15 119.20351610242275
    endloop
  endfacet
  facet normal 0.866025 0.000000 0.500000
    outer loop
      vertex 57.08775747926643 0 113.6646051846538
      vertex 53.889865769875165 -15 119.20351610242275
      vertex 57.08775747926643 -15 113.6646051846538
    endloop
  endfacet
  facet normal 0.707107 0.000000 0.707107
    outer loop
      vertex 53.889865769875165 0 119.20351610242275
      vertex 49.367363943453554 0 123.72601792884436
      vertex 49.367363943453554 -15 123.72601792884436
    endloop
  endfacet
  facet normal 0.707107 0.000000 0.707107
    outer loop
      vertex 53.889865769875165 0 119.20351610242275
      vertex 49.367363943453554 -15 123.72601792884436
      vertex 53.889865769875165 -15 119.20351610242275
    endloop
  endfacet
  facet normal 0.500000 0.000000 0.866025
    outer loop
      vertex 49.367363943453554 0 123.72601792884436
      vertex 43.8284530256846 0 126.92390963823561
      vertex 43.8284530256846 -15 126.92390963823561
    endloop
  endfacet
  facet normal 0.500000 0.000000 0.866025
    outer loop
      vertex 49.367363943453554 0 123.72601792884436
      vertex 43.8284530256846 -15 126.92390963823561
      vertex 49.367363943453554 -15 123.72601792884436
    endloop
  endfacet
  facet normal 0.258819 0.000000 0.965926
    outer loop
      vertex 43.8284530256846 0 126.92390963823561
      vertex 37.65060064213117 0 128.57926019536745
      vertex 37.65060064213117 -15 128.57926019536745
    endloop
  endfacet
  facet normal 0.258819 0.000000 0.965926
    outer loop
      vertex 43.8284530256846 0 126.92390963823561
      vertex 37.65060064213117 -15 128.57926019536745
      vertex 43.8284530256846 -15 126.92390963823561
    endloop
  endfacet
  facet normal 0.000000 0.000000 1.000000
    outer loop
      vertex 37.65060064213117 0 128.57926019536745
      vertex 31.25481722334864 0 128.57926019536745
      vertex 31.25481722334864 -15 128.57926019536745
    endloop
  endfacet
  facet normal 0.000000 0.000000 1.000000
    outer loop
      vertex 37.65060064213117 0 128.57926019536745
      vertex 31.25481722334864 -15 128.57926019536745
      vertex 37.65060064213117 -15 128.57926019536745
    endloop
  endfacet
  facet normal -0.258819 0.000000 0.965926
    outer loop
      vertex 31.25481722334864 0 128.57926019536745
      vertex 25.07696483979521 0 126.92390963823561
      vertex 25.07696483979521 -15 126.92390963823561
    endloop
  endfacet
  facet normal -0.258819 0.000000 0.965926
    outer loop
      vertex 31.25481722334864 0 128.57926019536745
      vertex 25.07696483979521 -15 126.92390963823561
      vertex 31.25481722334864 -15 128.57926019536745
    endloop
  endfacet
  facet normal -0.500000 0.000000 0.866025
    outer loop
      vertex 25.07696483979521 0 126.92390963823561
      vertex 19.538053922026247 0 123.72601792884436
      vertex 19.538053922026247 -15 123.72601792884436
    endloop
  endfacet
  facet normal -0.500000 0.000000 0.866025
    outer loop
      vertex 25.07696483979521 0 126.92390963823561
      vertex 19.538053922026247 -15 123.72601792884436
      vertex 25.07696483979521 -15 126.92390963823561
    endloop
  endfacet
  facet normal -0.707107 0.000000 0.707107
    outer loop
      vertex 19.538053922026247 0 123.72601792884436
      vertex 15.015552095604644 0 119.20351610242275
      vertex 15.015552095604644 -15 119.20351610242275
    endloop
  endfacet
  facet normal -0.707107 0.000000 0.707107
    outer loop
      vertex 19.538053922026247 0 123.72601792884436
      vertex 15.015552095604644 -15 119.20351610242275
      vertex 19.538053922026247 -15 123.72601792884436
    endloop
  endfacet
  facet normal -0.866025 0.000000 0.500000
    outer loop
      vertex 15.015552095604644 0 119.20351610242275
      vertex 11.817660386213376 0 113.6646051846538
      vertex 11.817660386213376 -15 113.6646051846538
    endloop
  endfacet
  facet normal -0.866025 0.000000 0.500000
    outer loop
      vertex 15.015552095604644 0 119.20351610242275
      vertex 11.817660386213376 -15 113.6646051846538
      vertex 15.015552095604644 -15 119.20351610242275
    endloop
  endfacet
  facet normal -0.965926 0.000000 0.258819
    outer loop
      vertex 11.817660386213376 0 113.6646051846538
      vertex 10.162309829081547 0 107.48675280110037
      vertex 10.162309829081547 -15 107.48675280110037
    endloop
  endfacet
  facet normal -0.965926 0.000000 0.258819
    outer loop
      vertex 11.817660386213376 0 113.6646051846538
      vertex 10.162309829081547 -15 107.48675280110037
      vertex 11.817660386213376 -15 113.6646051846538
    endloop
  endfacet
  facet normal -1.000000 0.000000 0.000000
    outer loop
      vertex 10.162309829081547 0 107.48675280110037
      vertex 10.162309829081547 0 101.09096938231782
      vertex 10.162309829081547 -15 101.09096938231782
    endloop
  endfacet
  facet normal -1.000000 0.000000 0.000000
    outer loop
      vertex 10.162309829081547 0 107.48675280110037
      vertex 10.162309829081547 -15 101.09096938231782
      vertex 10.162309829081547 -15 107.48675280110037
    endloop
  endfacet
  facet normal -0.965926 0.000000 -0.258819
    outer loop
      vertex 10.162309829081547 0 101.09096938231782
      vertex 11.817660386213376 0 94.9131169987644
      vertex 11.817660386213376 -15 94.9131169987644
    endloop
  endfacet
  facet normal -0.965926 0.000000 -0.258819
    outer loop
      vertex 10.162309829081547 0 101.09096938231782
      vertex 11.817660386213376 -15 94.9131169987644
      vertex 10.162309829081547 -15 101.09096938231782
    endloop
  endfacet
  facet normal -0.866025 0.000000 -0.500000
    outer loop
      vertex 11.817660386213376 0 94.9131169987644
      vertex 15.01555209560464 0 89.37420608099544
      vertex 15.01555209560464 -15 89.37420608099544
    endloop
  endfacet
  facet normal -0.866025 0.000000 -0.500000
    outer loop
      vertex 11.817660386213376 0 94.9131169987644
      vertex 15.01555209560464 -15 89.37420608099544
      vertex 11.817660386213376 -15 94.9131169987644
    endloop
  endfacet
  facet normal -0.707107 0.000000 -0.707107
    outer loop
      vertex 15.01555209560464 0 89.37420608099544
      vertex 19.538053922026243 0 84.85170425457383
      vertex 19.538053922026243 -15 84.85170425457383
    endloop
  endfacet
  facet normal -0.707107 0.000000 -0.707107
    outer loop
      vertex 15.01555209560464 0 89.37420608099544
      vertex 19.538053922026243 -15 84.85170425457383
      vertex 15.01555209560464 -15 89.37420608099544
    endloop
  endfacet
  facet normal 0.866025 0.000000 -0.500000
    outer loop
      vertex 25.07696483979521 0 81.65381254518257
      vertex 25.07696483979521 -15 81.65381254518257
      vertex 21.879073130403945 -15 76.11490162741362
    endloop
  endfacet
  facet normal 0.866025 0.000000 -0.500000
    outer loop
      vertex 25.07696483979521 0 81.65381254518257
      vertex 21.879073130403945 -15 76.11490162741362
      vertex 21.879073130403945 0 76.11490162741362
    endloop
  endfacet
  facet normal -0.258819 0.000000 -0.965926
    outer loop
      vertex 25.07696483979521 0 81.65381254518257
      vertex 31.25481722334864 0 79.99846198805074
      vertex 31.25481722334864 -15 79.99846198805074
    endloop
  endfacet
  facet normal -0.258819 0.000000 -0.965926
    outer loop
      vertex 25.07696483979521 0 81.65381254518257
      vertex 31.25481722334864 -15 79.99846198805074
      vertex 25.07696483979521 -15 81.65381254518257
    endloop
  endfacet
  facet normal 0.000000 0.000000 -1.000000
    outer loop
      vertex 31.25481722334864 0 79.99846198805074
      vertex 37.65060064213116 0 79.99846198805074
      vertex 37.65060064213116 -15 79.99846198805074
    endloop
  endfacet
  facet normal 0.000000 0.000000 -1.000000
    outer loop
      vertex 31.25481722334864 0 79.99846198805074
      vertex 37.65060064213116 -15 79.99846198805074
      vertex 31.25481722334864 -15 79.99846198805074
    endloop
  endfacet
  facet normal 0.258819 0.000000 -0.965926
    outer loop
      vertex 37.65060064213116 0 79.99846198805074
      vertex 43.82845302568459 0 81.65381254518256
      vertex 43.82845302568459 -15 81.65381254518256
    endloop
  endfacet
  facet normal 0.258819 0.000000 -0.965926
    outer loop
      vertex 37.65060064213116 0 79.99846198805074
      vertex 43.82845302568459 -15 81.65381254518256
      vertex 37.65060064213116 -15 79.99846198805074
    endloop
  endfacet
  facet normal 0.500000 0.000000 -0.866025
    outer loop
      vertex 43.82845302568459 0 81.65381254518256
      vertex 49.36736394345354 0 84.85170425457382
      vertex 49.36736394345354 -15 84.85170425457382
    endloop
  endfacet
  facet normal 0.500000 0.000000 -0.866025
    outer loop
      vertex 43.82845302568459 0 81.65381254518256
      vertex 49.36736394345354 -15 84.85170425457382
      vertex 43.82845302568459 -15 81.65381254518256
    endloop
  endfacet
  facet normal 0.707107 0.000000 -0.707107
    outer loop
      vertex 49.36736394345354 0 84.85170425457382
      vertex 53.88986576987516 0 89.37420608099544
      vertex 53.88986576987516 -15 89.37420608099544
    endloop
  endfacet
  facet normal 0.707107 0.000000 -0.707107
    outer loop
      vertex 49.36736394345354 0 84.85170425457382
      vertex 53.88986576987516 -15 89.37420608099544
      vertex 49.36736394345354 -15 84.85170425457382
    endloop
  endfacet
  facet normal 0.866025 0.000000 -0.500000
    outer loop
      vertex 53.88986576987516 0 89.37420608099544
      vertex 57.08775747926643 0 94.9131169987644
      vertex 57.08775747926643 -15 94.9131169987644
    endloop
  endfacet
  facet normal 0.866025 0.000000 -0.500000
    outer loop
      vertex 53.88986576987516 0 89.37420608099544
      vertex 57.08775747926643 -15 94.9131169987644
      vertex 53.88986576987516 -15 89.37420608099544
    endloop
  endfacet
  facet normal 0.965926 0.000000 -0.258819
    outer loop
      vertex 57.08775747926643 0 94.9131169987644
      vertex 58.743108036398255 0 101.09096938231782
      vertex 58.743108036398255 -15 101.09096938231782
    endloop
  endfacet
  facet normal 0.965926 0.000000 -0.258819
    outer loop
      vertex 57.08775747926643 0 94.9131169987644
      vertex 58.743108036398255 -15 101.09096938231782
      vertex 57.08775747926643 -15 94.9131169987644
    endloop
  endfacet
  facet normal 1.000000 0.000000 0.000000
    outer loop
      vertex 58.743108036398255 0 101.09096938231782
      vertex 58.743108036398255 0 107.48675280110035
      vertex 58.743108036398255 -15 107.48675280110035
    endloop
  endfacet
  facet normal 1.000000 0.000000 0.000000
    outer loop
      vertex 58.743108036398255 0 101.09096938231782
      vertex 58.743108036398255 -15 107.48675280110035
      vertex 58.743108036398255 -15 101.09096938231782
    endloop
  endfacet
  facet normal 0.965926 0.000000 0.258819
    outer loop
      vertex 58.743108036398255 -15 107.48675280110035
      vertex 57.08775747926643 -15 113.6646051846538
      vertex 57.08775747926643 -34 113.6646051846538
    endloop
  endfacet
  facet normal 0.965926 0.000000 0.258819
    outer loop
      vertex 58.743108036398255 -15 107.48675280110035
      vertex 57.08775747926643 -34 113.6646051846538
      vertex 58.743108036398255 -34 107.48675280110035
    endloop
  endfacet
  facet normal 0.866025 0.000000 0.500000
    outer loop
      vertex 57.08775747926643 -15 113.6646051846538
      vertex 53.889865769875165 -15 119.20351610242275
      vertex 53.889865769875165 -34 119.20351610242275
    endloop
  endfacet
  facet normal 0.866025 0.000000 0.500000
    outer loop
      vertex 57.08775747926643 -15 113.6646051846538
      vertex 53.889865769875165 -34 119.20351610242275
      vertex 57.08775747926643 -34 113.6646051846538
    endloop
  endfacet
  facet normal 0.707107 0.000000 0.707107
    outer loop
      vertex 53.889865769875165 -15 119.20351610242275
      vertex 49.367363943453554 -15 123.72601792884436
      vertex 49.367363943453554 -34 123.72601792884436
    endloop
  endfacet
  facet normal 0.707107 0.000000 0.707107
    outer loop
      vertex 53.889865769875165 -15 119.20351610242275
      vertex 49.367363943453554 -34 123.72601792884436
      vertex 53.889865769875165 -34 119.20351610242275
    endloop
  endfacet
  facet normal 0.500000 0.000000 0.866025
    outer loop
      vertex 49.367363943453554 -15 123.72601792884436
      vertex 43.8284530256846 -15 126.92390963823561
      vertex 43.8284530256846 -34 126.92390963823561
    endloop
  endfacet
  facet normal 0.500000 0.000000 0.866025
    outer loop
      vertex 49.367363943453554 -15 123.72601792884436
      vertex 43.8284530256846 -34 126.92390963823561
      vertex 49.367363943453554 -34 123.72601792884436
    endloop
  endfacet
  facet normal 0.258819 0.000000 0.965926
    outer loop
      vertex 43.8284530256846 -15 126.92390963823561
      vertex 37.65060064213117 -15 128.57926019536745
      vertex 37.65060064213117 -34 128.57926019536745
    endloop
  endfacet
  facet normal 0.258819 0.000000 0.965926
    outer loop
      vertex 43.8284530256846 -15 126.92390963823561
      vertex 37.65060064213117 -34 128.57926019536745
      vertex 43.8284530256846 -34 126.92390963823561
    endloop
  endfacet
  facet normal 0.000000 0.000000 1.000000
    outer loop
      vertex 37.65060064213117 -15 128.57926019536745
      vertex 31.25481722334864 -15 128.57926019536745
      vertex 31.25481722334864 -34 128.57926019536745
    endloop
  endfacet
  facet normal 0.000000 0.000000 1.000000
    outer loop
      vertex 37.65060064213117 -15 128.57926019536745
      vertex 31.25481722334864 -34 128.57926019536745
      vertex 37.65060064213117 -34 128.57926019536745
    endloop
  endfacet
  facet normal -0.258819 0.000000 0.965926
    outer loop
      vertex 31.25481722334864 -15 128.57926019536745
      vertex 25.07696483979521 -15 126.92390963823561
      vertex 25.07696483979521 -34 126.92390963823561
    endloop
  endfacet
  facet normal -0.258819 0.000000 0.965926
    outer loop
      vertex 31.25481722334864 -15 128.57926019536745
      vertex 25.07696483979521 -34 126.92390963823561
      vertex 31.25481722334864 -34 128.57926019536745
    endloop
  endfacet
  facet normal -0.500000 0.000000 0.866025
    outer loop
      vertex 25.07696483979521 -15 126.92390963823561
      vertex 19.538053922026247 -15 123.72601792884436
      vertex 19.538053922026247 -34 123.72601792884436
    endloop
  endfacet
  facet normal -0.500000 0.000000 0.866025
    outer loop
      vertex 25.07696483979521 -15 126.92390963823561
      vertex 19.538053922026247 -34 123.72601792884436
      vertex 25.07696483979521 -34 126.92390963823561
    endloop
  endfacet
  facet normal -0.707107 0.000000 0.707107
    outer loop
      vertex 19.538053922026247 -15 123.72601792884436
      vertex 15.015552095604644 -15 119.20351610242275
      vertex 15.015552095604644 -34 119.20351610242275
    endloop
  endfacet
  facet normal -0.707107 0.000000 0.707107
    outer loop
      vertex 19.538053922026247 -15 123.72601792884436
      vertex 15.015552095604644 -34 119.20351610242275
      vertex 19.538053922026247 -34 123.72601792884436
    endloop
  endfacet
  facet normal -0.866025 0.000000 0.500000
    outer loop
      vertex 15.015552095604644 -15 119.20351610242275
      vertex 11.817660386213376 -15 113.6646051846538
      vertex 11.817660386213376 -34 113.6646051846538
    endloop
  endfacet
  facet normal -0.866025 0.000000 0.500000
    outer loop
      vertex 15.015552095604644 -15 119.20351610242275
      vertex 11.817660386213376 -34 113.6646051846538
      vertex 15.015552095604644 -34 119.20351610242275
    endloop
  endfacet
  facet normal -0.965926 0.000000 0.258819
    outer loop
      vertex 11.817660386213376 -15 113.6646051846538
      vertex 10.162309829081547 -15 107.48675280110037
      vertex 10.162309829081547 -34 107.48675280110037
    endloop
  endfacet
  facet normal -0.965926 0.000000 0.258819
    outer loop
      vertex 11.817660386213376 -15 113.6646051846538
      vertex 10.162309829081547 -34 107.48675280110037
      vertex 11.817660386213376 -34 113.6646051846538
    endloop
  endfacet
  facet normal -1.000000 0.000000 0.000000
    outer loop
      vertex 10.162309829081547 -15 107.48675280110037
      vertex 10.162309829081547 -15 101.09096938231782
      vertex 10.162309829081547 -34 101.09096938231782
    endloop
  endfacet
  facet normal -1.000000 0.000000 0.000000
    outer loop
      vertex 10.162309829081547 -15 107.48675280110037
      vertex 10.162309829081547 -34 101.09096938231782
      vertex 10.162309829081547 -34 107.48675280110037
    endloop
  endfacet
  facet normal -0.965926 0.000000 -0.258819
    outer loop
      vertex 10.162309829081547 -15 101.09096938231782
      vertex 11.817660386213376 -15 94.9131169987644
      vertex 11.817660386213376 -34 94.9131169987644
    endloop
  endfacet
  facet normal -0.965926 0.000000 -0.258819
    outer loop
      vertex 10.162309829081547 -15 101.09096938231782
      vertex 11.817660386213376 -34 94.9131169987644
      vertex 10.162309829081547 -34 101.09096938231782
    endloop
  endfacet
  facet normal -0.866025 0.000000 -0.500000
    outer loop
      vertex 11.817660386213376 -15 94.9131169987644
      vertex 15.01555209560464 -15 89.37420608099544
      vertex 15.01555209560464 -34 89.37420608099544
    endloop
  endfacet
  facet normal -0.866025 0.000000 -0.500000
    outer loop
      vertex 11.817660386213376 -15 94.9131169987644
      vertex 15.01555209560464 -34 89.37420608099544
      vertex 11.817660386213376 -34 94.9131169987644
    endloop
  endfacet
  facet normal -0.707107 0.000000 -0.707107
    outer loop
      vertex 15.01555209560464 -15 89.37420608099544
      vertex 19.538053922026243 -15 84.85170425457383
      vertex 19.538053922026243 -34 84.85170425457383
    endloop
  endfacet
  facet normal -0.707107 0.000000 -0.707107
    outer loop
      vertex 15.01555209560464 -15 89.37420608099544
      vertex 19.538053922026243 -34 84.85170425457383
      vertex 15.01555209560464 -34 89.37420608099544
    endloop
  endfacet
  facet normal -0.500000 0.000000 -0.866025
    outer loop
      vertex 19.538053922026243 -15 84.85170425457383
      vertex 25.07696483979521 -15 81.65381254518257
      vertex 25.07696483979521 -34 81.65381254518257
    endloop
  endfacet
  facet normal -0.500000 0.000000 -0.866025
    outer loop
      vertex 19.538053922026243 -15 84.85170425457383
      vertex 25.07696483979521 -34 81.65381254518257
      vertex 19.538053922026243 -34 84.85170425457383
    endloop
  endfacet
  facet normal -0.258819 0.000000 -0.965926
    outer loop
      vertex 25.07696483979521 -15 81.65381254518257
      vertex 31.25481722334864 -15 79.99846198805074
      vertex 31.25481722334864 -34 79.99846198805074
    endloop
  endfacet
  facet normal -0.258819 0.000000 -0.965926
    outer loop
      vertex 25.07696483979521 -15 81.65381254518257
      vertex 31.25481722334864 -34 79.99846198805074
      vertex 25.07696483979521 -34 81.65381254518257
    endloop
  endfacet
  facet normal 0.000000 0.000000 -1.000000
    outer loop
      vertex 31.25481722334864 -15 79.99846198805074
      vertex 37.65060064213116 -15 79.99846198805074
      vertex 37.65060064213116 -34 79.99846198805074
    endloop
  endfacet
  facet normal 0.000000 0.000000 -1.000000
    outer loop
      vertex 31.25481722334864 -15 79.99846198805074
      vertex 37.65060064213116 -34 79.99846198805074
      vertex 31.25481722334864 -34 79.99846198805074
    endloop
  endfacet
  facet normal 0.258819 0.000000 -0.965926
    outer loop
      vertex 37.65060064213116 -15 79.99846198805074
      vertex 43.82845302568459 -15 81.65381254518256
      vertex 43.82845302568459 -34 81.65381254518256
    endloop
  endfacet
  facet normal 0.258819 0.000000 -0.965926
    outer loop
      vertex 37.65060064213116 -15 79.99846198805074
      vertex 43.82845302568459 -34 81.65381254518256
      vertex 37.65060064213116 -34 79.99846198805074
    endloop
  endfacet
  facet normal 0.500000 0.000000 -0.866025
    outer loop
      vertex 43.82845302568459 -15 81.65381254518256
      vertex 49.36736394345354 -15 84.85170425457382
      vertex 49.36736394345354 -34 84.85170425457382
    endloop
  endfacet
  facet normal 0.500000 0.000000 -0.866025
    outer loop
      vertex 43.82845302568459 -15 81.65381254518256
      vertex 49.36736394345354 -34 84.85170425457382
      vertex 43.82845302568459 -34 81.65381254518256
    endloop
  endfacet
  facet normal 0.707107 0.000000 -0.707107
    outer loop
      vertex 49.36736394345354 -15 84.85170425457382
      vertex 53.88986576987516 -15 89.37420608099544
      vertex 53.88986576987516 -34 89.37420608099544
    endloop
  endfacet
  facet normal 0.707107 0.000000 -0.707107
    outer loop
      vertex 49.36736394345354 -15 84.85170425457382
      vertex 53.88986576987516 -34 89.37420608099544
      vertex 49.36736394345354 -34 84.85170425457382
    endloop
  endfacet
  facet normal 0.866025 0.000000 -0.500000
    outer loop
      vertex 53.88986576987516 -15 89.37420608099544
      vertex 57.08775747926643 -15 94.9131169987644
      vertex 57.08775747926643 -34 94.9131169987644
    endloop
  endfacet
  facet normal 0.866025 0.000000 -0.500000
    outer loop
      vertex 53.88986576987516 -15 89.37420608099544
      vertex 57.08775747926643 -34 94.9131169987644
      vertex 53.88986576987516 -34 89.37420608099544
    endloop
  endfacet
  facet normal 0.965926 0.000000 -0.258819
    outer loop
      vertex 57.08775747926643 -15 94.9131169987644
      vertex 58.743108036398255 -15 101.09096938231782
      vertex 58.743108036398255 -34 101.09096938231782
    endloop
  endfacet
  facet normal 0.965926 0.000000 -0.258819
    outer loop
      vertex 57.08775747926643 -15 94.9131169987644
      vertex 58.743108036398255 -34 101.09096938231782
      vertex 57.08775747926643 -34 94.9131169987644
    endloop
  endfacet
  facet normal 1.000000 0.000000 0.000000
    outer loop
      vertex 58.743108036398255 -15 101.09096938231782
      vertex 58.743108036398255 -15 107.48675280110035
      vertex 58.743108036398255 -34 107.48675280110035
    endloop
  endfacet
  facet normal 1.000000 0.000000 0.000000
    outer loop
      vertex 58.743108036398255 -15 101.09096938231782
      vertex 58.743108036398255 -34 107.48675280110035
      vertex 58.743108036398255 -34 101.09096938231782
    endloop
  endfacet
endsolid drums_tom_low
