solid teapot_body
  facet normal 0.000000 0.000000 -1.000000
    outer loop
      vertex 0 0 0
      vertex 15.035081932574535 5.472322293210699 0
      vertex 16 0 0
    endloop
  endfacet
  facet normal 0.000000 0.000000 -1.000000
    outer loop
      vertex 0 0 0
      vertex 12.256711089903648 10.284601754984628 0
      vertex 15.035081932574535 5.472322293210699 0
    endloop
  endfacet
  facet normal 0.000000 0.000000 -1.000000
    outer loop
      vertex 0 0 0
      vertex 8.000000000000002 13.856406460551018 0
      vertex 12.256711089903648 10.284601754984628 0
    endloop
  endfacet
  facet normal 0.000000 0.000000 -1.000000
    outer loop
      vertex 0 0 0
      vertex 2.7783708426708866 15.756924048195328 0
      vertex 8.000000000000002 13.856406460551018 0
    endloop
  endfacet
  facet normal 0.000000 0.000000 -1.000000
    outer loop
      vertex 0 0 0
      vertex -2.778370842670885 15.756924048195328 0
      vertex 2.7783708426708866 15.756924048195328 0
    endloop
  endfacet
  facet normal 0.000000 0.000000 -1.000000
    outer loop
      vertex 0 0 0
      vertex -7.9999999999999964 13.85640646055102 0
      vertex -2.778370842670885 15.756924048195328 0
    endloop
  endfacet
  facet normal 0.000000 0.000000 -1.000000
    outer loop
      vertex 0 0 0
      vertex -12.256711089903646 10.284601754984632 0
      vertex -7.9999999999999964 13.85640646055102 0
    endloop
  endfacet
  facet normal 0.000000 0.000000 -1.000000
    outer loop
      vertex 0 0 0
      vertex -15.035081932574533 5.472322293210702 0
      vertex -12.256711089903646 10.284601754984632 0
    endloop
  endfacet
  facet normal 0.000000 0.000000 -1.000000
    outer loop
      vertex 0 0 0
      vertex -16 1.959434878635765e-15 0
      vertex -15.035081932574533 5.472322293210702 0
    endloop
  endfacet
  facet normal 0.000000 0.000000 -1.000000
    outer loop
      vertex 0 0 0
      vertex -15.035081932574535 -5.4723222932106985 0
      vertex -16 1.959434878635765e-15 0
    endloop
  endfacet
  facet normal 0.000000 0.000000 -1.000000
    outer loop
      vertex 0 0 0
      vertex -12.25671108990365 -10.284601754984628 0
      vertex -15.035081932574535 -5.4723222932106985 0
    endloop
  endfacet
  facet normal 0.000000 0.000000 -1.000000
    outer loop
      vertex 0 0 0
      vertex -8.000000000000007 -13.856406460551016 0
      vertex -12.25671108990365 -10.284601754984628 0
    endloop
  endfacet
  facet normal 0.000000 0.000000 -1.000000
    outer loop
      vertex 0 0 0
      vertex -2.7783708426708853 -15.756924048195328 0
      vertex -8.000000000000007 -13.856406460551016 0
    endloop
  endfacet
  facet normal 0.000000 0.000000 -1.000000
    outer loop
      vertex 0 0 0
      vertex 2.7783708426708795 -15.75692404819533 0
      vertex -2.7783708426708853 -15.756924048195328 0
    endloop
  endfacet
  facet normal 0.000000 0.000000 -1.000000
    outer loop
      vertex 0 0 0
      vertex 8.000000000000002 -13.856406460551018 0
      vertex 2.7783708426708795 -15.75692404819533 0
    endloop
  endfacet
  facet normal 0.000000 0.000000 -1.000000
    outer loop
      vertex 0 0 0
      vertex 12.256711089903645 -10.284601754984633 0
      vertex 8.000000000000002 -13.856406460551018 0
    endloop
  endfacet
  facet normal 0.000000 0.000000 -1.000000
    outer loop
      vertex 0 0 0
      vertex 15.03508193257453 -5.472322293210711 0
      vertex 12.256711089903645 -10.284601754984633 0
    endloop
  endfacet
  facet normal 0.000000 0.000000 -1.000000
    outer loop
      vertex 0 0 0
      vertex 16 0 0
      vertex 15.03508193257453 -5.472322293210711 0
    endloop
  endfacet
  facet normal 0.000000 0.000000 1.000000
    outer loop
      vertex 0 0 70
      vertex 14 0 70
      vertex 13.155696691002717 4.788282006559362 70
    endloop
  endfacet
  facet normal 0.000000 0.000000 1.000000
    outer loop
      vertex 0 0 70
      vertex 13.155696691002717 4.788282006559362 70
      vertex 10.724622203665692 8.999026535611549 70
    endloop
  endfacet
  facet normal 0.000000 0.000000 1.000000
    outer loop
      vertex 0 0 70
      vertex 10.724622203665692 8.999026535611549 70
      vertex 7.000000000000002 12.12435565298214 70
    endloop
  endfacet
  facet normal 0.000000 0.000000 1.000000
    outer loop
      vertex 0 0 70
      vertex 7.000000000000002 12.12435565298214 70
      vertex 2.4310744873370256 13.787308542170912 70
    endloop
  endfacet
  facet normal 0.000000 0.000000 1.000000
    outer loop
      vertex 0 0 70
      vertex 2.4310744873370256 13.787308542170912 70
      vertex -2.4310744873370242 13.787308542170912 70
    endloop
  endfacet
  facet normal 0.000000 0.000000 1.000000
    outer loop
      vertex 0 0 70
      vertex -2.4310744873370242 13.787308542170912 70
      vertex -6.9999999999999964 12.124355652982143 70
    endloop
  endfacet
  facet normal 0.000000 0.000000 1.000000
    outer loop
      vertex 0 0 70
      vertex -6.9999999999999964 12.124355652982143 70
      vertex -10.72462220366569 8.999026535611552 70
    endloop
  endfacet
  facet normal 0.000000 0.000000 1.000000
    outer loop
      vertex 0 0 70
      vertex -10.72462220366569 8.999026535611552 70
      vertex -13.155696691002717 4.788282006559364 70
    endloop
  endfacet
  facet normal 0.000000 0.000000 1.000000
    outer loop
      vertex 0 0 70
      vertex -13.155696691002717 4.788282006559364 70
      vertex -14 1.7145055188062944e-15 70
    endloop
  endfacet
  facet normal 0.000000 0.000000 1.000000
    outer loop
      vertex 0 0 70
      vertex -14 1.7145055188062944e-15 70
      vertex -13.155696691002717 -4.788282006559362 70
    endloop
  endfacet
  facet normal 0.000000 0.000000 1.000000
    outer loop
      vertex 0 0 70
      vertex -13.155696691002717 -4.788282006559362 70
      vertex -10.724622203665694 -8.999026535611549 70
    endloop
  endfacet
  facet normal 0.000000 0.000000 1.000000
    outer loop
      vertex 0 0 70
      vertex -10.724622203665694 -8.999026535611549 70
      vertex -7.000000000000006 -12.124355652982139 70
    endloop
  endfacet
  facet normal 0.000000 0.000000 1.000000
    outer loop
      vertex 0 0 70
      vertex -7.000000000000006 -12.124355652982139 70
      vertex -2.4310744873370247 -13.787308542170912 70
    endloop
  endfacet
  facet normal 0.000000 0.000000 1.000000
    outer loop
      vertex 0 0 70
      vertex -2.4310744873370247 -13.787308542170912 70
      vertex 2.4310744873370194 -13.787308542170914 70
    endloop
  endfacet
  facet normal 0.000000 0.000000 1.000000
    outer loop
      vertex 0 0 70
      vertex 2.4310744873370194 -13.787308542170914 70
      vertex 7.000000000000002 -12.12435565298214 70
    endloop
  endfacet
  facet normal 0.000000 0.000000 1.000000
    outer loop
      vertex 0 0 70
      vertex 7.000000000000002 -12.12435565298214 70
      vertex 10.724622203665689 -8.999026535611554 70
    endloop
  endfacet
  facet normal 0.000000 0.000000 1.000000
    outer loop
      vertex 0 0 70
      vertex 10.724622203665689 -8.999026535611554 70
      vertex 13.155696691002714 -4.788282006559372 70
    endloop
  endfacet
  facet normal 0.000000 0.000000 1.000000
    outer loop
      vertex 0 0 70
      vertex 13.155696691002714 -4.788282006559372 70
      vertex 14 0 70
    endloop
  endfacet
  facet normal 0.552066 0.097344 -0.828099
    outer loop
      vertex 16 0 0
      vertex 15.035081932574535 5.472322293210699 0
      vertex 26.311393382005434 9.576564013118723 8
    endloop
  endfacet
  facet normal 0.552066 0.097344 -0.828099
    outer loop
      vertex 16 0 0
      vertex 26.311393382005434 9.576564013118723 8
      vertex 28 0 8
    endloop
  endfacet
  facet normal 0.485479 0.280291 -0.828099
    outer loop
      vertex 15.035081932574535 5.472322293210699 0
      vertex 12.256711089903648 10.284601754984628 0
      vertex 21.449244407331385 17.998053071223097 8
    endloop
  endfacet
  facet normal 0.485479 0.280291 -0.828099
    outer loop
      vertex 15.035081932574535 5.472322293210699 0
      vertex 21.449244407331385 17.998053071223097 8
      vertex 26.311393382005434 9.576564013118723 8
    endloop
  endfacet
  facet normal 0.360335 0.429431 -0.828099
    outer loop
      vertex 12.256711089903648 10.284601754984628 0
      vertex 8.000000000000002 13.856406460551018 0
      vertex 14.000000000000004 24.24871130596428 8
    endloop
  endfacet
  facet normal 0.360335 0.429431 -0.828099
    outer loop
      vertex 12.256711089903648 10.284601754984628 0
      vertex 14.000000000000004 24.24871130596428 8
      vertex 21.449244407331385 17.998053071223097 8
    endloop
  endfacet
  facet normal 0.191730 0.526775 -0.828099
    outer loop
      vertex 8.000000000000002 13.856406460551018 0
      vertex 2.7783708426708866 15.756924048195328 0
      vertex 4.862148974674051 27.574617084341824 8
    endloop
  endfacet
  facet normal 0.191730 0.526775 -0.828099
    outer loop
      vertex 8.000000000000002 13.856406460551018 0
      vertex 4.862148974674051 27.574617084341824 8
      vertex 14.000000000000004 24.24871130596428 8
    endloop
  endfacet
  facet normal 0.000000 0.560582 -0.828099
    outer loop
      vertex 2.7783708426708866 15.756924048195328 0
      vertex -2.778370842670885 15.756924048195328 0
      vertex -4.8621489746740485 27.574617084341824 8
    endloop
  endfacet
  facet normal 0.000000 0.560582 -0.828099
    outer loop
      vertex 2.7783708426708866 15.756924048195328 0
      vertex -4.8621489746740485 27.574617084341824 8
      vertex 4.862148974674051 27.574617084341824 8
    endloop
  endfacet
  facet normal -0.191730 0.526775 -0.828099
    outer loop
      vertex -2.778370842670885 15.756924048195328 0
      vertex -7.9999999999999964 13.85640646055102 0
      vertex -13.999999999999993 24.248711305964285 8
    endloop
  endfacet
  facet normal -0.191730 0.526775 -0.828099
    outer loop
      vertex -2.778370842670885 15.756924048195328 0
      vertex -13.999999999999993 24.248711305964285 8
      vertex -4.8621489746740485 27.574617084341824 8
    endloop
  endfacet
  facet normal -0.360335 0.429431 -0.828099
    outer loop
      vertex -7.9999999999999964 13.85640646055102 0
      vertex -12.256711089903646 10.284601754984632 0
      vertex -21.44924440733138 17.998053071223104 8
    endloop
  endfacet
  facet normal -0.360335 0.429431 -0.828099
    outer loop
      vertex -7.9999999999999964 13.85640646055102 0
      vertex -21.44924440733138 17.998053071223104 8
      vertex -13.999999999999993 24.248711305964285 8
    endloop
  endfacet
  facet normal -0.485479 0.280291 -0.828099
    outer loop
      vertex -12.256711089903646 10.284601754984632 0
      vertex -15.035081932574533 5.472322293210702 0
      vertex -26.311393382005434 9.576564013118729 8
    endloop
  endfacet
  facet normal -0.485479 0.280291 -0.828099
    outer loop
      vertex -12.256711089903646 10.284601754984632 0
      vertex -26.311393382005434 9.576564013118729 8
      vertex -21.44924440733138 17.998053071223104 8
    endloop
  endfacet
  facet normal -0.552066 0.097344 -0.828099
    outer loop
      vertex -15.035081932574533 5.472322293210702 0
      vertex -16 1.959434878635765e-15 0
      vertex -28 3.429011037612589e-15 8
    endloop
  endfacet
  facet normal -0.552066 0.097344 -0.828099
    outer loop
      vertex -15.035081932574533 5.472322293210702 0
      vertex -28 3.429011037612589e-15 8
      vertex -26.311393382005434 9.576564013118729 8
    endloop
  endfacet
  facet normal -0.552066 -0.097344 -0.828099
    outer loop
      vertex -16 1.959434878635765e-15 0
      vertex -15.035081932574535 -5.4723222932106985 0
      vertex -26.311393382005434 -9.576564013118723 8
    endloop
  endfacet
  facet normal -0.552066 -0.097344 -0.828099
    outer loop
      vertex -16 1.959434878635765e-15 0
      vertex -26.311393382005434 -9.576564013118723 8
      vertex -28 3.429011037612589e-15 8
    endloop
  endfacet
  facet normal -0.485479 -0.280291 -0.828099
    outer loop
      vertex -15.035081932574535 -5.4723222932106985 0
      vertex -12.25671108990365 -10.284601754984628 0
      vertex -21.44924440733139 -17.998053071223097 8
    endloop
  endfacet
  facet normal -0.485479 -0.280291 -0.828099
    outer loop
      vertex -15.035081932574535 -5.4723222932106985 0
      vertex -21.44924440733139 -17.998053071223097 8
      vertex -26.311393382005434 -9.576564013118723 8
    endloop
  endfacet
  facet normal -0.360335 -0.429431 -0.828099
    outer loop
      vertex -12.25671108990365 -10.284601754984628 0
      vertex -8.000000000000007 -13.856406460551016 0
      vertex -14.000000000000012 -24.248711305964278 8
    endloop
  endfacet
  facet normal -0.360335 -0.429431 -0.828099
    outer loop
      vertex -12.25671108990365 -10.284601754984628 0
      vertex -14.000000000000012 -24.248711305964278 8
      vertex -21.44924440733139 -17.998053071223097 8
    endloop
  endfacet
  facet normal -0.191730 -0.526775 -0.828099
    outer loop
      vertex -8.000000000000007 -13.856406460551016 0
      vertex -2.7783708426708853 -15.756924048195328 0
      vertex -4.862148974674049 -27.574617084341824 8
    endloop
  endfacet
  facet normal -0.191730 -0.526775 -0.828099
    outer loop
      vertex -8.000000000000007 -13.856406460551016 0
      vertex -4.862148974674049 -27.574617084341824 8
      vertex -14.000000000000012 -24.248711305964278 8
    endloop
  endfacet
  facet normal -0.000000 -0.560582 -0.828099
    outer loop
      vertex -2.7783708426708853 -15.756924048195328 0
      vertex 2.7783708426708795 -15.75692404819533 0
      vertex 4.862148974674039 -27.574617084341828 8
    endloop
  endfacet
  facet normal -0.000000 -0.560582 -0.828099
    outer loop
      vertex -2.7783708426708853 -15.756924048195328 0
      vertex 4.862148974674039 -27.574617084341828 8
      vertex -4.862148974674049 -27.574617084341824 8
    endloop
  endfacet
  facet normal 0.191730 -0.526775 -0.828099
    outer loop
      vertex 2.7783708426708795 -15.75692404819533 0
      vertex 8.000000000000002 -13.856406460551018 0
      vertex 14.000000000000004 -24.24871130596428 8
    endloop
  endfacet
  facet normal 0.191730 -0.526775 -0.828099
    outer loop
      vertex 2.7783708426708795 -15.75692404819533 0
      vertex 14.000000000000004 -24.24871130596428 8
      vertex 4.862148974674039 -27.574617084341828 8
    endloop
  endfacet
  facet normal 0.360335 -0.429431 -0.828099
    outer loop
      vertex 8.000000000000002 -13.856406460551018 0
      vertex 12.256711089903645 -10.284601754984633 0
      vertex 21.449244407331378 -17.998053071223108 8
    endloop
  endfacet
  facet normal 0.360335 -0.429431 -0.828099
    outer loop
      vertex 8.000000000000002 -13.856406460551018 0
      vertex 21.449244407331378 -17.998053071223108 8
      vertex 14.000000000000004 -24.24871130596428 8
    endloop
  endfacet
  facet normal 0.485479 -0.280291 -0.828099
    outer loop
      vertex 12.256711089903645 -10.284601754984633 0
      vertex 15.03508193257453 -5.472322293210711 0
      vertex 26.311393382005427 -9.576564013118745 8
    endloop
  endfacet
  facet normal 0.485479 -0.280291 -0.828099
    outer loop
      vertex 12.256711089903645 -10.284601754984633 0
      vertex 26.311393382005427 -9.576564013118745 8
      vertex 21.449244407331378 -17.998053071223108 8
    endloop
  endfacet
  facet normal 0.552066 -0.097344 -0.828099
    outer loop
      vertex 15.03508193257453 -5.472322293210711 0
      vertex 16 0 0
      vertex 28 0 8
    endloop
  endfacet
  facet normal 0.552066 -0.097344 -0.828099
    outer loop
      vertex 15.03508193257453 -5.472322293210711 0
      vertex 28 0 8
      vertex 26.311393382005427 -9.576564013118745 8
    endloop
  endfacet
  facet normal 0.773571 0.136401 -0.618856
    outer loop
      vertex 28 0 8
      vertex 26.311393382005434 9.576564013118723 8
      vertex 33.828934348292705 12.312725159724074 18
    endloop
  endfacet
  facet normal 0.773571 0.136401 -0.618856
    outer loop
      vertex 28 0 8
      vertex 33.828934348292705 12.312725159724074 18
      vertex 36 0 18
    endloop
  endfacet
  facet normal 0.680267 0.392752 -0.618856
    outer loop
      vertex 26.311393382005434 9.576564013118723 8
      vertex 21.449244407331385 17.998053071223097 8
      vertex 27.577599952283208 23.140353948715415 18
    endloop
  endfacet
  facet normal 0.680267 0.392752 -0.618856
    outer loop
      vertex 26.311393382005434 9.576564013118723 8
      vertex 27.577599952283208 23.140353948715415 18
      vertex 33.828934348292705 12.312725159724074 18
    endloop
  endfacet
  facet normal 0.504912 0.601731 -0.618856
    outer loop
      vertex 21.449244407331385 17.998053071223097 8
      vertex 14.000000000000004 24.24871130596428 8
      vertex 18.000000000000004 31.17691453623979 18
    endloop
  endfacet
  facet normal 0.504912 0.601731 -0.618856
    outer loop
      vertex 21.449244407331385 17.998053071223097 8
      vertex 18.000000000000004 31.17691453623979 18
      vertex 27.577599952283208 23.140353948715415 18
    endloop
  endfacet
  facet normal 0.268658 0.738132 -0.618856
    outer loop
      vertex 14.000000000000004 24.24871130596428 8
      vertex 4.862148974674051 27.574617084341824 8
      vertex 6.251334396009495 35.45307910843949 18
    endloop
  endfacet
  facet normal 0.268658 0.738132 -0.618856
    outer loop
      vertex 14.000000000000004 24.24871130596428 8
      vertex 6.251334396009495 35.45307910843949 18
      vertex 18.000000000000004 31.17691453623979 18
    endloop
  endfacet
  facet normal 0.000000 0.785504 -0.618856
    outer loop
      vertex 4.862148974674051 27.574617084341824 8
      vertex -4.8621489746740485 27.574617084341824 8
      vertex -6.251334396009491 35.45307910843949 18
    endloop
  endfacet
  facet normal 0.000000 0.785504 -0.618856
    outer loop
      vertex 4.862148974674051 27.574617084341824 8
      vertex -6.251334396009491 35.45307910843949 18
      vertex 6.251334396009495 35.45307910843949 18
    endloop
  endfacet
  facet normal -0.268658 0.738132 -0.618856
    outer loop
      vertex -4.8621489746740485 27.574617084341824 8
      vertex -13.999999999999993 24.248711305964285 8
      vertex -17.999999999999993 31.176914536239792 18
    endloop
  endfacet
  facet normal -0.268658 0.738132 -0.618856
    outer loop
      vertex -4.8621489746740485 27.574617084341824 8
      vertex -17.999999999999993 31.176914536239792 18
      vertex -6.251334396009491 35.45307910843949 18
    endloop
  endfacet
  facet normal -0.504912 0.601731 -0.618856
    outer loop
      vertex -13.999999999999993 24.248711305964285 8
      vertex -21.44924440733138 17.998053071223104 8
      vertex -27.577599952283204 23.140353948715422 18
    endloop
  endfacet
  facet normal -0.504912 0.601731 -0.618856
    outer loop
      vertex -13.999999999999993 24.248711305964285 8
      vertex -27.577599952283204 23.140353948715422 18
      vertex -17.999999999999993 31.176914536239792 18
    endloop
  endfacet
  facet normal -0.680267 0.392752 -0.618856
    outer loop
      vertex -21.44924440733138 17.998053071223104 8
      vertex -26.311393382005434 9.576564013118729 8
      vertex -33.8289343482927 12.31272515972408 18
    endloop
  endfacet
  facet normal -0.680267 0.392752 -0.618856
    outer loop
      vertex -21.44924440733138 17.998053071223104 8
      vertex -33.8289343482927 12.31272515972408 18
      vertex -27.577599952283204 23.140353948715422 18
    endloop
  endfacet
  facet normal -0.773571 0.136401 -0.618856
    outer loop
      vertex -26.311393382005434 9.576564013118729 8
      vertex -28 3.429011037612589e-15 8
      vertex -36 4.408728476930472e-15 18
    endloop
  endfacet
  facet normal -0.773571 0.136401 -0.618856
    outer loop
      vertex -26.311393382005434 9.576564013118729 8
      vertex -36 4.408728476930472e-15 18
      vertex -33.8289343482927 12.31272515972408 18
    endloop
  endfacet
  facet normal -0.773571 -0.136401 -0.618856
    outer loop
      vertex -28 3.429011037612589e-15 8
      vertex -26.311393382005434 -9.576564013118723 8
      vertex -27.945239814176656 -6.958352985379242 9.465231483490387
    endloop
  endfacet
  facet normal -0.773571 -0.136401 -0.618856
    outer loop
      vertex -28 3.429011037612589e-15 8
      vertex -27.945239814176656 -6.958352985379242 9.465231483490387
      vertex -28.639832524844376 -3.0191219733304093 9.465231483490387
    endloop
  endfacet
  facet normal -0.773571 -0.136401 -0.618856
    outer loop
      vertex -26.311393382005434 -9.576564013118723 8
      vertex -33.828934348292705 -12.31272515972407 18
      vertex -33.4303313403047 -7.925522613090984 16.53476851650961
    endloop
  endfacet
  facet normal -0.773571 -0.136401 -0.618856
    outer loop
      vertex -26.311393382005434 -9.576564013118723 8
      vertex -33.4303313403047 -7.925522613090984 16.53476851650961
      vertex -27.945239814176656 -6.958352985379242 9.465231483490387
    endloop
  endfacet
  facet normal -0.773571 -0.136401 -0.618856
    outer loop
      vertex -33.828934348292705 -12.31272515972407 18
      vertex -36 4.408728476930472e-15 18
      vertex -34.12492405097242 -3.9862916010421516 16.53476851650961
    endloop
  endfacet
  facet normal -0.773571 -0.136401 -0.618856
    outer loop
      vertex -33.828934348292705 -12.31272515972407 18
      vertex -34.12492405097242 -3.9862916010421516 16.53476851650961
      vertex -33.4303313403047 -7.925522613090984 16.53476851650961
    endloop
  endfacet
  facet normal -0.773571 -0.136401 -0.618856
    outer loop
      vertex -36 4.408728476930472e-15 18
      vertex -28 3.429011037612589e-15 8
      vertex -28.639832524844376 -3.0191219733304093 9.465231483490387
    endloop
  endfacet
  facet normal -0.773571 -0.136401 -0.618856
    outer loop
      vertex -36 4.408728476930472e-15 18
      vertex -28.639832524844376 -3.0191219733304093 9.465231483490387
      vertex -34.12492405097242 -3.9862916010421516 16.53476851650961
    endloop
  endfacet
  facet normal -0.773571 -0.136401 -0.618856
    outer loop
      vertex -28.639832524844376 -3.0191219733304093 9.465231483490387
      vertex -27.945239814176656 -6.958352985379242 9.465231483490387
      vertex -33.4303313403047 -7.925522613090984 16.53476851650961
    endloop
  endfacet
  facet normal -0.773571 -0.136401 -0.618856
    outer loop
      vertex -28.639832524844376 -3.0191219733304093 9.465231483490387
      vertex -33.4303313403047 -7.925522613090984 16.53476851650961
      vertex -34.12492405097242 -3.9862916010421516 16.53476851650961
    endloop
  endfacet
  facet normal -0.680267 -0.392752 -0.618856
    outer loop
      vertex -26.311393382005434 -9.576564013118723 8
      vertex -21.44924440733139 -17.998053071223097 8
      vertex -27.57759995228321 -23.140353948715415 18
    endloop
  endfacet
  facet normal -0.680267 -0.392752 -0.618856
    outer loop
      vertex -26.311393382005434 -9.576564013118723 8
      vertex -27.57759995228321 -23.140353948715415 18
      vertex -33.828934348292705 -12.31272515972407 18
    endloop
  endfacet
  facet normal -0.504912 -0.601731 -0.618856
    outer loop
      vertex -21.44924440733139 -17.998053071223097 8
      vertex -14.000000000000012 -24.248711305964278 8
      vertex -18.000000000000014 -31.176914536239785 18
    endloop
  endfacet
  facet normal -0.504912 -0.601731 -0.618856
    outer loop
      vertex -21.44924440733139 -17.998053071223097 8
      vertex -18.000000000000014 -31.176914536239785 18
      vertex -27.57759995228321 -23.140353948715415 18
    endloop
  endfacet
  facet normal -0.268658 -0.738132 -0.618856
    outer loop
      vertex -14.000000000000012 -24.248711305964278 8
      vertex -4.862148974674049 -27.574617084341824 8
      vertex -6.251334396009492 -35.45307910843949 18
    endloop
  endfacet
  facet normal -0.268658 -0.738132 -0.618856
    outer loop
      vertex -14.000000000000012 -24.248711305964278 8
      vertex -6.251334396009492 -35.45307910843949 18
      vertex -18.000000000000014 -31.176914536239785 18
    endloop
  endfacet
  facet normal -0.000000 -0.785504 -0.618856
    outer loop
      vertex -4.862148974674049 -27.574617084341824 8
      vertex 4.862148974674039 -27.574617084341828 8
      vertex 6.251334396009479 -35.453079108439496 18
    endloop
  endfacet
  facet normal -0.000000 -0.785504 -0.618856
    outer loop
      vertex -4.862148974674049 -27.574617084341824 8
      vertex 6.251334396009479 -35.453079108439496 18
      vertex -6.251334396009492 -35.45307910843949 18
    endloop
  endfacet
  facet normal 0.268658 -0.738132 -0.618856
    outer loop
      vertex 4.862148974674039 -27.574617084341828 8
      vertex 14.000000000000004 -24.24871130596428 8
      vertex 18.000000000000004 -31.17691453623979 18
    endloop
  endfacet
  facet normal 0.268658 -0.738132 -0.618856
    outer loop
      vertex 4.862148974674039 -27.574617084341828 8
      vertex 18.000000000000004 -31.17691453623979 18
      vertex 6.251334396009479 -35.453079108439496 18
    endloop
  endfacet
  facet normal 0.504912 -0.601731 -0.618856
    outer loop
      vertex 14.000000000000004 -24.24871130596428 8
      vertex 21.449244407331378 -17.998053071223108 8
      vertex 27.5775999522832 -23.140353948715426 18
    endloop
  endfacet
  facet normal 0.504912 -0.601731 -0.618856
    outer loop
      vertex 14.000000000000004 -24.24871130596428 8
      vertex 27.5775999522832 -23.140353948715426 18
      vertex 18.000000000000004 -31.17691453623979 18
    endloop
  endfacet
  facet normal 0.680267 -0.392752 -0.618856
    outer loop
      vertex 21.449244407331378 -17.998053071223108 8
      vertex 26.311393382005427 -9.576564013118745 8
      vertex 33.82893434829269 -12.3127251597241 18
    endloop
  endfacet
  facet normal 0.680267 -0.392752 -0.618856
    outer loop
      vertex 21.449244407331378 -17.998053071223108 8
      vertex 33.82893434829269 -12.3127251597241 18
      vertex 27.5775999522832 -23.140353948715426 18
    endloop
  endfacet
  facet normal 0.773571 -0.136401 -0.618856
    outer loop
      vertex 26.311393382005427 -9.576564013118745 8
      vertex 28 0 8
      vertex 36 0 18
    endloop
  endfacet
  facet normal 0.773571 -0.136401 -0.618856
    outer loop
      vertex 26.311393382005427 -9.576564013118745 8
      vertex 36 0 18
      vertex 33.82893434829269 -12.3127251597241 18
    endloop
  endfacet
  facet normal 0.956252 0.168613 -0.239063
    outer loop
      vertex 36 0 18
      vertex 33.828934348292705 12.312725159724074 18
      vertex 36.64801221065043 13.33878558970108 30
    endloop
  endfacet
  facet normal 0.956252 0.168613 -0.239063
    outer loop
      vertex 36 0 18
      vertex 36.64801221065043 13.33878558970108 30
      vertex 39 0 30
    endloop
  endfacet
  facet normal 0.840914 0.485502 -0.239063
    outer loop
      vertex 33.828934348292705 12.312725159724074 18
      vertex 27.577599952283208 23.140353948715415 18
      vertex 29.87573328164014 25.06871677777503 30
    endloop
  endfacet
  facet normal 0.840914 0.485502 -0.239063
    outer loop
      vertex 33.828934348292705 12.312725159724074 18
      vertex 29.87573328164014 25.06871677777503 30
      vertex 36.64801221065043 13.33878558970108 30
    endloop
  endfacet
  facet normal 0.624149 0.743832 -0.239063
    outer loop
      vertex 27.577599952283208 23.140353948715415 18
      vertex 18.000000000000004 31.17691453623979 18
      vertex 19.500000000000004 33.77499074759311 30
    endloop
  endfacet
  facet normal 0.624149 0.743832 -0.239063
    outer loop
      vertex 27.577599952283208 23.140353948715415 18
      vertex 19.500000000000004 33.77499074759311 30
      vertex 29.87573328164014 25.06871677777503 30
    endloop
  endfacet
  facet normal 0.332103 0.912445 -0.239063
    outer loop
      vertex 18.000000000000004 31.17691453623979 18
      vertex 6.251334396009495 35.45307910843949 18
      vertex 6.7722789290102865 38.40750236747611 30
    endloop
  endfacet
  facet normal 0.332103 0.912445 -0.239063
    outer loop
      vertex 18.000000000000004 31.17691453623979 18
      vertex 6.7722789290102865 38.40750236747611 30
      vertex 19.500000000000004 33.77499074759311 30
    endloop
  endfacet
  facet normal 0.000000 0.971004 -0.239063
    outer loop
      vertex 6.251334396009495 35.45307910843949 18
      vertex -6.251334396009491 35.45307910843949 18
      vertex -6.772278929010282 38.40750236747611 30
    endloop
  endfacet
  facet normal 0.000000 0.971004 -0.239063
    outer loop
      vertex 6.251334396009495 35.45307910843949 18
      vertex -6.772278929010282 38.40750236747611 30
      vertex 6.7722789290102865 38.40750236747611 30
    endloop
  endfacet
  facet normal -0.332103 0.912445 -0.239063
    outer loop
      vertex -6.251334396009491 35.45307910843949 18
      vertex -17.999999999999993 31.176914536239792 18
      vertex -19.499999999999993 33.77499074759311 30
    endloop
  endfacet
  facet normal -0.332103 0.912445 -0.239063
    outer loop
      vertex -6.251334396009491 35.45307910843949 18
      vertex -19.499999999999993 33.77499074759311 30
      vertex -6.772278929010282 38.40750236747611 30
    endloop
  endfacet
  facet normal -0.624149 0.743832 -0.239063
    outer loop
      vertex -17.999999999999993 31.176914536239792 18
      vertex -27.577599952283204 23.140353948715422 18
      vertex -29.875733281640137 25.06871677777504 30
    endloop
  endfacet
  facet normal -0.624149 0.743832 -0.239063
    outer loop
      vertex -17.999999999999993 31.176914536239792 18
      vertex -29.875733281640137 25.06871677777504 30
      vertex -19.499999999999993 33.77499074759311 30
    endloop
  endfacet
  facet normal -0.840914 0.485502 -0.239063
    outer loop
      vertex -27.577599952283204 23.140353948715422 18
      vertex -33.8289343482927 12.31272515972408 18
      vertex -36.64801221065042 13.338785589701086 30
    endloop
  endfacet
  facet normal -0.840914 0.485502 -0.239063
    outer loop
      vertex -27.577599952283204 23.140353948715422 18
      vertex -36.64801221065042 13.338785589701086 30
      vertex -29.875733281640137 25.06871677777504 30
    endloop
  endfacet
  facet normal -0.956252 0.168613 -0.239063
    outer loop
      vertex -33.8289343482927 12.31272515972408 18
      vertex -36 4.408728476930472e-15 18
      vertex -39 4.776122516674678e-15 30
    endloop
  endfacet
  facet normal -0.956252 0.168613 -0.239063
    outer loop
      vertex -33.8289343482927 12.31272515972408 18
      vertex -39 4.776122516674678e-15 30
      vertex -36.64801221065042 13.338785589701086 30
    endloop
  endfacet
  facet normal -0.956252 -0.168613 -0.239063
    outer loop
      vertex -36 4.408728476930472e-15 18
      vertex -33.828934348292705 -12.31272515972407 18
      vertex -36.64801221065043 -13.338785589701077 30
    endloop
  endfacet
  facet normal -0.956252 -0.168613 -0.239063
    outer loop
      vertex -36 4.408728476930472e-15 18
      vertex -36.64801221065043 -13.338785589701077 30
      vertex -39 4.776122516674678e-15 30
    endloop
  endfacet
  facet normal -0.840914 -0.485502 -0.239063
    outer loop
      vertex -33.828934348292705 -12.31272515972407 18
      vertex -27.57759995228321 -23.140353948715415 18
      vertex -29.875733281640148 -25.06871677777503 30
    endloop
  endfacet
  facet normal -0.840914 -0.485502 -0.239063
    outer loop
      vertex -33.828934348292705 -12.31272515972407 18
      vertex -29.875733281640148 -25.06871677777503 30
      vertex -36.64801221065043 -13.338785589701077 30
    endloop
  endfacet
  facet normal -0.624149 -0.743832 -0.239063
    outer loop
      vertex -27.57759995228321 -23.140353948715415 18
      vertex -18.000000000000014 -31.176914536239785 18
      vertex -19.500000000000018 -33.7749907475931 30
    endloop
  endfacet
  facet normal -0.624149 -0.743832 -0.239063
    outer loop
      vertex -27.57759995228321 -23.140353948715415 18
      vertex -19.500000000000018 -33.7749907475931 30
      vertex -29.875733281640148 -25.06871677777503 30
    endloop
  endfacet
  facet normal -0.332103 -0.912445 -0.239063
    outer loop
      vertex -18.000000000000014 -31.176914536239785 18
      vertex -6.251334396009492 -35.45307910843949 18
      vertex -6.772278929010283 -38.40750236747611 30
    endloop
  endfacet
  facet normal -0.332103 -0.912445 -0.239063
    outer loop
      vertex -18.000000000000014 -31.176914536239785 18
      vertex -6.772278929010283 -38.40750236747611 30
      vertex -19.500000000000018 -33.7749907475931 30
    endloop
  endfacet
  facet normal -0.000000 -0.971004 -0.239063
    outer loop
      vertex -6.251334396009492 -35.45307910843949 18
      vertex 6.251334396009479 -35.453079108439496 18
      vertex 6.772278929010269 -38.40750236747612 30
    endloop
  endfacet
  facet normal -0.000000 -0.971004 -0.239063
    outer loop
      vertex -6.251334396009492 -35.45307910843949 18
      vertex 6.772278929010269 -38.40750236747612 30
      vertex -6.772278929010283 -38.40750236747611 30
    endloop
  endfacet
  facet normal 0.332103 -0.912445 -0.239063
    outer loop
      vertex 6.251334396009479 -35.453079108439496 18
      vertex 18.000000000000004 -31.17691453623979 18
      vertex 19.500000000000004 -33.77499074759311 30
    endloop
  endfacet
  facet normal 0.332103 -0.912445 -0.239063
    outer loop
      vertex 6.251334396009479 -35.453079108439496 18
      vertex 19.500000000000004 -33.77499074759311 30
      vertex 6.772278929010269 -38.40750236747612 30
    endloop
  endfacet
  facet normal 0.624149 -0.743832 -0.239063
    outer loop
      vertex 18.000000000000004 -31.17691453623979 18
      vertex 27.5775999522832 -23.140353948715426 18
      vertex 29.875733281640134 -25.068716777775045 30
    endloop
  endfacet
  facet normal 0.624149 -0.743832 -0.239063
    outer loop
      vertex 18.000000000000004 -31.17691453623979 18
      vertex 29.875733281640134 -25.068716777775045 30
      vertex 19.500000000000004 -33.77499074759311 30
    endloop
  endfacet
  facet normal 0.840914 -0.485502 -0.239063
    outer loop
      vertex 27.5775999522832 -23.140353948715426 18
      vertex 33.82893434829269 -12.3127251597241 18
      vertex 36.648012210650414 -13.338785589701107 30
    endloop
  endfacet
  facet normal 0.840914 -0.485502 -0.239063
    outer loop
      vertex 27.5775999522832 -23.140353948715426 18
      vertex 36.648012210650414 -13.338785589701107 30
      vertex 29.875733281640134 -25.068716777775045 30
    endloop
  endfacet
  facet normal 0.956252 -0.168613 -0.239063
    outer loop
      vertex 33.82893434829269 -12.3127251597241 18
      vertex 36 0 18
      vertex 39 0 30
    endloop
  endfacet
  facet normal 0.956252 -0.168613 -0.239063
    outer loop
      vertex 33.82893434829269 -12.3127251597241 18
      vertex 39 0 30
      vertex 36.648012210650414 -13.338785589701107 30
    endloop
  endfacet
  facet normal 0.947996 0.167157 0.270856
    outer loop
      vertex 39 0 30
      vertex 36.64801221065043 13.33878558970108 30
      vertex 35.20221440767616 11.365596347530955 36.27803506544394
    endloop
  endfacet
  facet normal 0.947996 0.167157 0.270856
    outer loop
      vertex 39 0 30
      vertex 35.20221440767616 11.365596347530955 36.27803506544394
      vertex 36.96652400598091 1.3596993984882086 36.27803506544394
    endloop
  endfacet
  facet normal 0.947996 0.167157 0.270856
    outer loop
      vertex 36.64801221065043 13.33878558970108 30
      vertex 32.88924172750679 11.970705016398405 44
      vertex 34.8021029630977 11.295045904561535 37.72196493455606
    endloop
  endfacet
  facet normal 0.947996 0.167157 0.270856
    outer loop
      vertex 36.64801221065043 13.33878558970108 30
      vertex 34.8021029630977 11.295045904561535 37.72196493455606
      vertex 35.20221440767616 11.365596347530955 36.27803506544394
    endloop
  endfacet
  facet normal 0.947996 0.167157 0.270856
    outer loop
      vertex 32.88924172750679 11.970705016398405 44
      vertex 35 0 44
      vertex 36.56641256140245 1.2891489555187885 37.72196493455606
    endloop
  endfacet
  facet normal 0.947996 0.167157 0.270856
    outer loop
      vertex 32.88924172750679 11.970705016398405 44
      vertex 36.56641256140245 1.2891489555187885 37.72196493455606
      vertex 34.8021029630977 11.295045904561535 37.72196493455606
    endloop
  endfacet
  facet normal 0.947996 0.167157 0.270856
    outer loop
      vertex 35 0 44
      vertex 39 0 30
      vertex 36.96652400598091 1.3596993984882086 36.27803506544394
    endloop
  endfacet
  facet normal 0.947996 0.167157 0.270856
    outer loop
      vertex 35 0 44
      vertex 36.96652400598091 1.3596993984882086 36.27803506544394
      vertex 36.56641256140245 1.2891489555187885 37.72196493455606
    endloop
  endfacet
  facet normal 0.947996 0.167157 0.270856
    outer loop
      vertex 36.96652400598091 1.3596993984882086 36.27803506544394
      vertex 35.20221440767616 11.365596347530955 36.27803506544394
      vertex 34.8021029630977 11.295045904561535 37.72196493455606
    endloop
  endfacet
  facet normal 0.947996 0.167157 0.270856
    outer loop
      vertex 36.96652400598091 1.3596993984882086 36.27803506544394
      vertex 34.8021029630977 11.295045904561535 37.72196493455606
      vertex 36.56641256140245 1.2891489555187885 37.72196493455606
    endloop
  endfacet
  facet normal 0.833653 0.481310 0.270856
    outer loop
      vertex 36.64801221065043 13.33878558970108 30
      vertex 29.87573328164014 25.06871677777503 30
      vertex 26.81155550916423 22.497566339028875 44
    endloop
  endfacet
  facet normal 0.833653 0.481310 0.270856
    outer loop
      vertex 36.64801221065043 13.33878558970108 30
      vertex 26.81155550916423 22.497566339028875 44
      vertex 32.88924172750679 11.970705016398405 44
    endloop
  endfacet
  facet normal 0.618760 0.737410 0.270856
    outer loop
      vertex 29.87573328164014 25.06871677777503 30
      vertex 19.500000000000004 33.77499074759311 30
      vertex 17.500000000000004 30.31088913245535 44
    endloop
  endfacet
  facet normal 0.618760 0.737410 0.270856
    outer loop
      vertex 29.87573328164014 25.06871677777503 30
      vertex 17.500000000000004 30.31088913245535 44
      vertex 26.81155550916423 22.497566339028875 44
    endloop
  endfacet
  facet normal 0.329235 0.904567 0.270856
    outer loop
      vertex 19.500000000000004 33.77499074759311 30
      vertex 6.7722789290102865 38.40750236747611 30
      vertex 6.077686218342564 34.468271355427284 44
    endloop
  endfacet
  facet normal 0.329235 0.904567 0.270856
    outer loop
      vertex 19.500000000000004 33.77499074759311 30
      vertex 6.077686218342564 34.468271355427284 44
      vertex 17.500000000000004 30.31088913245535 44
    endloop
  endfacet
  facet normal 0.000000 0.962620 0.270856
    outer loop
      vertex 6.7722789290102865 38.40750236747611 30
      vertex -6.772278929010282 38.40750236747611 30
      vertex -6.077686218342561 34.468271355427284 44
    endloop
  endfacet
  facet normal 0.000000 0.962620 0.270856
    outer loop
      vertex 6.7722789290102865 38.40750236747611 30
      vertex -6.077686218342561 34.468271355427284 44
      vertex 6.077686218342564 34.468271355427284 44
    endloop
  endfacet
  facet normal -0.329235 0.904567 0.270856
    outer loop
      vertex -6.772278929010282 38.40750236747611 30
      vertex -19.499999999999993 33.77499074759311 30
      vertex -17.499999999999993 30.310889132455355 44
    endloop
  endfacet
  facet normal -0.329235 0.904567 0.270856
    outer loop
      vertex -6.772278929010282 38.40750236747611 30
      vertex -17.499999999999993 30.310889132455355 44
      vertex -6.077686218342561 34.468271355427284 44
    endloop
  endfacet
  facet normal -0.618760 0.737410 0.270856
    outer loop
      vertex -19.499999999999993 33.77499074759311 30
      vertex -29.875733281640137 25.06871677777504 30
      vertex -26.811555509164226 22.497566339028882 44
    endloop
  endfacet
  facet normal -0.618760 0.737410 0.270856
    outer loop
      vertex -19.499999999999993 33.77499074759311 30
      vertex -26.811555509164226 22.497566339028882 44
      vertex -17.499999999999993 30.310889132455355 44
    endloop
  endfacet
  facet normal -0.833653 0.481310 0.270856
    outer loop
      vertex -29.875733281640137 25.06871677777504 30
      vertex -36.64801221065042 13.338785589701086 30
      vertex -32.88924172750679 11.97070501639841 44
    endloop
  endfacet
  facet normal -0.833653 0.481310 0.270856
    outer loop
      vertex -29.875733281640137 25.06871677777504 30
      vertex -32.88924172750679 11.97070501639841 44
      vertex -26.811555509164226 22.497566339028882 44
    endloop
  endfacet
  facet normal -0.947996 0.167157 0.270856
    outer loop
      vertex -36.64801221065042 13.338785589701086 30
      vertex -39 4.776122516674678e-15 30
      vertex -35 4.2862637970157365e-15 44
    endloop
  endfacet
  facet normal -0.947996 0.167157 0.270856
    outer loop
      vertex -36.64801221065042 13.338785589701086 30
      vertex -35 4.2862637970157365e-15 44
      vertex -32.88924172750679 11.97070501639841 44
    endloop
  endfacet
  facet normal -0.947996 -0.167157 0.270856
    outer loop
      vertex -39 4.776122516674678e-15 30
      vertex -36.64801221065043 -13.338785589701077 30
      vertex -32.88924172750679 -11.970705016398403 44
    endloop
  endfacet
  facet normal -0.947996 -0.167157 0.270856
    outer loop
      vertex -39 4.776122516674678e-15 30
      vertex -32.88924172750679 -11.970705016398403 44
      vertex -35 4.2862637970157365e-15 44
    endloop
  endfacet
  facet normal -0.833653 -0.481310 0.270856
    outer loop
      vertex -36.64801221065043 -13.338785589701077 30
      vertex -29.875733281640148 -25.06871677777503 30
      vertex -26.811555509164233 -22.497566339028875 44
    endloop
  endfacet
  facet normal -0.833653 -0.481310 0.270856
    outer loop
      vertex -36.64801221065043 -13.338785589701077 30
      vertex -26.811555509164233 -22.497566339028875 44
      vertex -32.88924172750679 -11.970705016398403 44
    endloop
  endfacet
  facet normal -0.618760 -0.737410 0.270856
    outer loop
      vertex -29.875733281640148 -25.06871677777503 30
      vertex -19.500000000000018 -33.7749907475931 30
      vertex -17.500000000000014 -30.310889132455348 44
    endloop
  endfacet
  facet normal -0.618760 -0.737410 0.270856
    outer loop
      vertex -29.875733281640148 -25.06871677777503 30
      vertex -17.500000000000014 -30.310889132455348 44
      vertex -26.811555509164233 -22.497566339028875 44
    endloop
  endfacet
  facet normal -0.329235 -0.904567 0.270856
    outer loop
      vertex -19.500000000000018 -33.7749907475931 30
      vertex -6.772278929010283 -38.40750236747611 30
      vertex -6.077686218342562 -34.468271355427284 44
    endloop
  endfacet
  facet normal -0.329235 -0.904567 0.270856
    outer loop
      vertex -19.500000000000018 -33.7749907475931 30
      vertex -6.077686218342562 -34.468271355427284 44
      vertex -17.500000000000014 -30.310889132455348 44
    endloop
  endfacet
  facet normal -0.000000 -0.962620 0.270856
    outer loop
      vertex -6.772278929010283 -38.40750236747611 30
      vertex 6.772278929010269 -38.40750236747612 30
      vertex 6.077686218342549 -34.468271355427284 44
    endloop
  endfacet
  facet normal 0.000000 -0.962620 0.270856
    outer loop
      vertex -6.772278929010283 -38.40750236747611 30
      vertex 6.077686218342549 -34.468271355427284 44
      vertex -6.077686218342562 -34.468271355427284 44
    endloop
  endfacet
  facet normal 0.329235 -0.904567 0.270856
    outer loop
      vertex 6.772278929010269 -38.40750236747612 30
      vertex 19.500000000000004 -33.77499074759311 30
      vertex 17.500000000000004 -30.31088913245535 44
    endloop
  endfacet
  facet normal 0.329235 -0.904567 0.270856
    outer loop
      vertex 6.772278929010269 -38.40750236747612 30
      vertex 17.500000000000004 -30.31088913245535 44
      vertex 6.077686218342549 -34.468271355427284 44
    endloop
  endfacet
  facet normal 0.618760 -0.737410 0.270856
    outer loop
      vertex 19.500000000000004 -33.77499074759311 30
      vertex 29.875733281640134 -25.068716777775045 30
      vertex 26.811555509164222 -22.497566339028886 44
    endloop
  endfacet
  facet normal 0.618760 -0.737410 0.270856
    outer loop
      vertex 19.500000000000004 -33.77499074759311 30
      vertex 26.811555509164222 -22.497566339028886 44
      vertex 17.500000000000004 -30.31088913245535 44
    endloop
  endfacet
  facet normal 0.833653 -0.481310 0.270856
    outer loop
      vertex 29.875733281640134 -25.068716777775045 30
      vertex 36.648012210650414 -13.338785589701107 30
      vertex 32.889241727506786 -11.97070501639843 44
    endloop
  endfacet
  facet normal 0.833653 -0.481310 0.270856
    outer loop
      vertex 29.875733281640134 -25.068716777775045 30
      vertex 32.889241727506786 -11.97070501639843 44
      vertex 26.811555509164222 -22.497566339028886 44
    endloop
  endfacet
  facet normal 0.947996 -0.167157 0.270856
    outer loop
      vertex 36.648012210650414 -13.338785589701107 30
      vertex 39 0 30
      vertex 35 0 44
    endloop
  endfacet
  facet normal 0.947996 -0.167157 0.270856
    outer loop
      vertex 36.648012210650414 -13.338785589701107 30
      vertex 35 0 44
      vertex 32.889241727506786 -11.97070501639843 44
    endloop
  endfacet
  facet normal 0.832076 0.146717 0.534906
    outer loop
      vertex 35 0 44
      vertex 32.88924172750679 11.970705016398405 44
      vertex 24.43200814043362 8.892523726467386 58
    endloop
  endfacet
  facet normal 0.832076 0.146717 0.534906
    outer loop
      vertex 35 0 44
      vertex 24.43200814043362 8.892523726467386 58
      vertex 26 0 58
    endloop
  endfacet
  facet normal 0.731715 0.422456 0.534906
    outer loop
      vertex 32.88924172750679 11.970705016398405 44
      vertex 26.81155550916423 22.497566339028875 44
      vertex 19.917155521093427 16.71247785185002 58
    endloop
  endfacet
  facet normal 0.731715 0.422456 0.534906
    outer loop
      vertex 32.88924172750679 11.970705016398405 44
      vertex 19.917155521093427 16.71247785185002 58
      vertex 24.43200814043362 8.892523726467386 58
    endloop
  endfacet
  facet normal 0.543099 0.647240 0.534906
    outer loop
      vertex 26.81155550916423 22.497566339028875 44
      vertex 17.500000000000004 30.31088913245535 44
      vertex 13.000000000000004 22.516660498395403 58
    endloop
  endfacet
  facet normal 0.543099 0.647240 0.534906
    outer loop
      vertex 26.81155550916423 22.497566339028875 44
      vertex 13.000000000000004 22.516660498395403 58
      vertex 19.917155521093427 16.71247785185002 58
    endloop
  endfacet
  facet normal 0.288977 0.793957 0.534906
    outer loop
      vertex 17.500000000000004 30.31088913245535 44
      vertex 6.077686218342564 34.468271355427284 44
      vertex 4.514852619340191 25.60500157831741 58
    endloop
  endfacet
  facet normal 0.288977 0.793957 0.534906
    outer loop
      vertex 17.500000000000004 30.31088913245535 44
      vertex 4.514852619340191 25.60500157831741 58
      vertex 13.000000000000004 22.516660498395403 58
    endloop
  endfacet
  facet normal 0.000000 0.844912 0.534906
    outer loop
      vertex 6.077686218342564 34.468271355427284 44
      vertex -6.077686218342561 34.468271355427284 44
      vertex -4.5148526193401874 25.60500157831741 58
    endloop
  endfacet
  facet normal 0.000000 0.844912 0.534906
    outer loop
      vertex 6.077686218342564 34.468271355427284 44
      vertex -4.5148526193401874 25.60500157831741 58
      vertex 4.514852619340191 25.60500157831741 58
    endloop
  endfacet
  facet normal -0.288977 0.793957 0.534906
    outer loop
      vertex -6.077686218342561 34.468271355427284 44
      vertex -17.499999999999993 30.310889132455355 44
      vertex -12.999999999999995 22.516660498395407 58
    endloop
  endfacet
  facet normal -0.288977 0.793957 0.534906
    outer loop
      vertex -6.077686218342561 34.468271355427284 44
      vertex -12.999999999999995 22.516660498395407 58
      vertex -4.5148526193401874 25.60500157831741 58
    endloop
  endfacet
  facet normal -0.543099 0.647240 0.534906
    outer loop
      vertex -17.499999999999993 30.310889132455355 44
      vertex -26.811555509164226 22.497566339028882 44
      vertex -19.917155521093427 16.712477851850025 58
    endloop
  endfacet
  facet normal -0.543099 0.647240 0.534906
    outer loop
      vertex -17.499999999999993 30.310889132455355 44
      vertex -19.917155521093427 16.712477851850025 58
      vertex -12.999999999999995 22.516660498395407 58
    endloop
  endfacet
  facet normal -0.731715 0.422456 0.534906
    outer loop
      vertex -26.811555509164226 22.497566339028882 44
      vertex -32.88924172750679 11.97070501639841 44
      vertex -24.432008140433616 8.892523726467392 58
    endloop
  endfacet
  facet normal -0.731715 0.422456 0.534906
    outer loop
      vertex -26.811555509164226 22.497566339028882 44
      vertex -24.432008140433616 8.892523726467392 58
      vertex -19.917155521093427 16.712477851850025 58
    endloop
  endfacet
  facet normal -0.832076 0.146717 0.534906
    outer loop
      vertex -32.88924172750679 11.97070501639841 44
      vertex -35 4.2862637970157365e-15 44
      vertex -26 3.184081677783118e-15 58
    endloop
  endfacet
  facet normal -0.832076 0.146717 0.534906
    outer loop
      vertex -32.88924172750679 11.97070501639841 44
      vertex -26 3.184081677783118e-15 58
      vertex -24.432008140433616 8.892523726467392 58
    endloop
  endfacet
  facet normal -0.832076 -0.146717 0.534906
    outer loop
      vertex -35 4.2862637970157365e-15 44
      vertex -32.88924172750679 -11.970705016398403 44
      vertex -31.603523126671238 -7.603407036447573 47.197897216102504
    endloop
  endfacet
  facet normal -0.832076 -0.146717 0.534906
    outer loop
      vertex -35 4.2862637970157365e-15 44
      vertex -31.603523126671238 -7.603407036447573 47.197897216102504
      vertex -32.29811583733896 -3.6641760243987407 47.197897216102504
    endloop
  endfacet
  facet normal -0.832076 -0.146717 0.534906
    outer loop
      vertex -32.88924172750679 -11.970705016398403 44
      vertex -24.43200814043362 -8.892523726467385 58
      vertex -26.86250909663125 -6.767438347034151 54.802102783897496
    endloop
  endfacet
  facet normal -0.832076 -0.146717 0.534906
    outer loop
      vertex -32.88924172750679 -11.970705016398403 44
      vertex -26.86250909663125 -6.767438347034151 54.802102783897496
      vertex -31.603523126671238 -7.603407036447573 47.197897216102504
    endloop
  endfacet
  facet normal -0.832076 -0.146717 0.534906
    outer loop
      vertex -24.43200814043362 -8.892523726467385 58
      vertex -26 3.184081677783118e-15 58
      vertex -27.557101807298974 -2.828207334985318 54.802102783897496
    endloop
  endfacet
  facet normal -0.832076 -0.146717 0.534906
    outer loop
      vertex -24.43200814043362 -8.892523726467385 58
      vertex -27.557101807298974 -2.828207334985318 54.802102783897496
      vertex -26.86250909663125 -6.767438347034151 54.802102783897496
    endloop
  endfacet
  facet normal -0.832076 -0.146717 0.534906
    outer loop
      vertex -26 3.184081677783118e-15 58
      vertex -35 4.2862637970157365e-15 44
      vertex -32.29811583733896 -3.6641760243987407 47.197897216102504
    endloop
  endfacet
  facet normal -0.832076 -0.146717 0.534906
    outer loop
      vertex -26 3.184081677783118e-15 58
      vertex -32.29811583733896 -3.6641760243987407 47.197897216102504
      vertex -27.557101807298974 -2.828207334985318 54.802102783897496
    endloop
  endfacet
  facet normal -0.832076 -0.146717 0.534906
    outer loop
      vertex -32.29811583733896 -3.6641760243987407 47.197897216102504
      vertex -31.603523126671238 -7.603407036447573 47.197897216102504
      vertex -26.86250909663125 -6.767438347034151 54.802102783897496
    endloop
  endfacet
  facet normal -0.832076 -0.146717 0.534906
    outer loop
      vertex -32.29811583733896 -3.6641760243987407 47.197897216102504
      vertex -26.86250909663125 -6.767438347034151 54.802102783897496
      vertex -27.557101807298974 -2.828207334985318 54.802102783897496
    endloop
  endfacet
  facet normal -0.731715 -0.422456 0.534906
    outer loop
      vertex -32.88924172750679 -11.970705016398403 44
      vertex -26.811555509164233 -22.497566339028875 44
      vertex -19.91715552109343 -16.71247785185002 58
    endloop
  endfacet
  facet normal -0.731715 -0.422456 0.534906
    outer loop
      vertex -32.88924172750679 -11.970705016398403 44
      vertex -19.91715552109343 -16.71247785185002 58
      vertex -24.43200814043362 -8.892523726467385 58
    endloop
  endfacet
  facet normal -0.543099 -0.647240 0.534906
    outer loop
      vertex -26.811555509164233 -22.497566339028875 44
      vertex -17.500000000000014 -30.310889132455348 44
      vertex -13.00000000000001 -22.5166604983954 58
    endloop
  endfacet
  facet normal -0.543099 -0.647240 0.534906
    outer loop
      vertex -26.811555509164233 -22.497566339028875 44
      vertex -13.00000000000001 -22.5166604983954 58
      vertex -19.91715552109343 -16.71247785185002 58
    endloop
  endfacet
  facet normal -0.288977 -0.793957 0.534906
    outer loop
      vertex -17.500000000000014 -30.310889132455348 44
      vertex -6.077686218342562 -34.468271355427284 44
      vertex -4.514852619340188 -25.60500157831741 58
    endloop
  endfacet
  facet normal -0.288977 -0.793957 0.534906
    outer loop
      vertex -17.500000000000014 -30.310889132455348 44
      vertex -4.514852619340188 -25.60500157831741 58
      vertex -13.00000000000001 -22.5166604983954 58
    endloop
  endfacet
  facet normal 0.000000 -0.844912 0.534906
    outer loop
      vertex -6.077686218342562 -34.468271355427284 44
      vertex 6.077686218342549 -34.468271355427284 44
      vertex 4.5148526193401795 -25.605001578317413 58
    endloop
  endfacet
  facet normal -0.000000 -0.844912 0.534906
    outer loop
      vertex -6.077686218342562 -34.468271355427284 44
      vertex 4.5148526193401795 -25.605001578317413 58
      vertex -4.514852619340188 -25.60500157831741 58
    endloop
  endfacet
  facet normal 0.288977 -0.793957 0.534906
    outer loop
      vertex 6.077686218342549 -34.468271355427284 44
      vertex 17.500000000000004 -30.31088913245535 44
      vertex 13.000000000000004 -22.516660498395403 58
    endloop
  endfacet
  facet normal 0.288977 -0.793957 0.534906
    outer loop
      vertex 6.077686218342549 -34.468271355427284 44
      vertex 13.000000000000004 -22.516660498395403 58
      vertex 4.5148526193401795 -25.605001578317413 58
    endloop
  endfacet
  facet normal 0.543099 -0.647240 0.534906
    outer loop
      vertex 17.500000000000004 -30.31088913245535 44
      vertex 26.811555509164222 -22.497566339028886 44
      vertex 19.917155521093424 -16.71247785185003 58
    endloop
  endfacet
  facet normal 0.543099 -0.647240 0.534906
    outer loop
      vertex 17.500000000000004 -30.31088913245535 44
      vertex 19.917155521093424 -16.71247785185003 58
      vertex 13.000000000000004 -22.516660498395403 58
    endloop
  endfacet
  facet normal 0.731715 -0.422456 0.534906
    outer loop
      vertex 26.811555509164222 -22.497566339028886 44
      vertex 32.889241727506786 -11.97070501639843 44
      vertex 24.43200814043361 -8.892523726467406 58
    endloop
  endfacet
  facet normal 0.731715 -0.422456 0.534906
    outer loop
      vertex 26.811555509164222 -22.497566339028886 44
      vertex 24.43200814043361 -8.892523726467406 58
      vertex 19.917155521093424 -16.71247785185003 58
    endloop
  endfacet
  facet normal 0.832076 -0.146717 0.534906
    outer loop
      vertex 32.889241727506786 -11.97070501639843 44
      vertex 35 0 44
      vertex 26 0 58
    endloop
  endfacet
  facet normal 0.832076 -0.146717 0.534906
    outer loop
      vertex 32.889241727506786 -11.97070501639843 44
      vertex 26 0 58
      vertex 24.43200814043361 -8.892523726467406 58
    endloop
  endfacet
  facet normal 0.701674 0.123724 0.701674
    outer loop
      vertex 26 0 58
      vertex 24.43200814043362 8.892523726467386 58
      vertex 13.155696691002717 4.788282006559362 70
    endloop
  endfacet
  facet normal 0.701674 0.123724 0.701674
    outer loop
      vertex 26 0 58
      vertex 13.155696691002717 4.788282006559362 70
      vertex 14 0 70
    endloop
  endfacet
  facet normal 0.617042 0.356249 0.701674
    outer loop
      vertex 24.43200814043362 8.892523726467386 58
      vertex 19.917155521093427 16.71247785185002 58
      vertex 10.724622203665692 8.999026535611549 70
    endloop
  endfacet
  facet normal 0.617042 0.356249 0.701674
    outer loop
      vertex 24.43200814043362 8.892523726467386 58
      vertex 10.724622203665692 8.999026535611549 70
      vertex 13.155696691002717 4.788282006559362 70
    endloop
  endfacet
  facet normal 0.457985 0.545805 0.701674
    outer loop
      vertex 19.917155521093427 16.71247785185002 58
      vertex 13.000000000000004 22.516660498395403 58
      vertex 7.000000000000002 12.12435565298214 70
    endloop
  endfacet
  facet normal 0.457985 0.545805 0.701674
    outer loop
      vertex 19.917155521093427 16.71247785185002 58
      vertex 7.000000000000002 12.12435565298214 70
      vertex 10.724622203665692 8.999026535611549 70
    endloop
  endfacet
  facet normal 0.243689 0.669529 0.701674
    outer loop
      vertex 13.000000000000004 22.516660498395403 58
      vertex 4.514852619340191 25.60500157831741 58
      vertex 2.4310744873370256 13.787308542170912 70
    endloop
  endfacet
  facet normal 0.243689 0.669529 0.701674
    outer loop
      vertex 13.000000000000004 22.516660498395403 58
      vertex 2.4310744873370256 13.787308542170912 70
      vertex 7.000000000000002 12.12435565298214 70
    endloop
  endfacet
  facet normal 0.000000 0.712498 0.701674
    outer loop
      vertex 4.514852619340191 25.60500157831741 58
      vertex -4.5148526193401874 25.60500157831741 58
      vertex -2.4310744873370242 13.787308542170912 70
    endloop
  endfacet
  facet normal 0.000000 0.712498 0.701674
    outer loop
      vertex 4.514852619340191 25.60500157831741 58
      vertex -2.4310744873370242 13.787308542170912 70
      vertex 2.4310744873370256 13.787308542170912 70
    endloop
  endfacet
  facet normal -0.243689 0.669529 0.701674
    outer loop
      vertex -4.5148526193401874 25.60500157831741 58
      vertex -12.999999999999995 22.516660498395407 58
      vertex -6.9999999999999964 12.124355652982143 70
    endloop
  endfacet
  facet normal -0.243689 0.669529 0.701674
    outer loop
      vertex -4.5148526193401874 25.60500157831741 58
      vertex -6.9999999999999964 12.124355652982143 70
      vertex -2.4310744873370242 13.787308542170912 70
    endloop
  endfacet
  facet normal -0.457985 0.545805 0.701674
    outer loop
      vertex -12.999999999999995 22.516660498395407 58
      vertex -19.917155521093427 16.712477851850025 58
      vertex -10.72462220366569 8.999026535611552 70
    endloop
  endfacet
  facet normal -0.457985 0.545805 0.701674
    outer loop
      vertex -12.999999999999995 22.516660498395407 58
      vertex -10.72462220366569 8.999026535611552 70
      vertex -6.9999999999999964 12.124355652982143 70
    endloop
  endfacet
  facet normal -0.617042 0.356249 0.701674
    outer loop
      vertex -19.917155521093427 16.712477851850025 58
      vertex -24.432008140433616 8.892523726467392 58
      vertex -13.155696691002717 4.788282006559364 70
    endloop
  endfacet
  facet normal -0.617042 0.356249 0.701674
    outer loop
      vertex -19.917155521093427 16.712477851850025 58
      vertex -13.155696691002717 4.788282006559364 70
      vertex -10.72462220366569 8.999026535611552 70
    endloop
  endfacet
  facet normal -0.701674 0.123724 0.701674
    outer loop
      vertex -24.432008140433616 8.892523726467392 58
      vertex -26 3.184081677783118e-15 58
      vertex -14 1.7145055188062944e-15 70
    endloop
  endfacet
  facet normal -0.701674 0.123724 0.701674
    outer loop
      vertex -24.432008140433616 8.892523726467392 58
      vertex -14 1.7145055188062944e-15 70
      vertex -13.155696691002717 4.788282006559364 70
    endloop
  endfacet
  facet normal -0.701674 -0.123724 0.701674
    outer loop
      vertex -26 3.184081677783118e-15 58
      vertex -24.43200814043362 -8.892523726467385 58
      vertex -13.155696691002717 -4.788282006559362 70
    endloop
  endfacet
  facet normal -0.701674 -0.123724 0.701674
    outer loop
      vertex -26 3.184081677783118e-15 58
      vertex -13.155696691002717 -4.788282006559362 70
      vertex -14 1.7145055188062944e-15 70
    endloop
  endfacet
  facet normal -0.617042 -0.356249 0.701674
    outer loop
      vertex -24.43200814043362 -8.892523726467385 58
      vertex -19.91715552109343 -16.71247785185002 58
      vertex -10.724622203665694 -8.999026535611549 70
    endloop
  endfacet
  facet normal -0.617042 -0.356249 0.701674
    outer loop
      vertex -24.43200814043362 -8.892523726467385 58
      vertex -10.724622203665694 -8.999026535611549 70
      vertex -13.155696691002717 -4.788282006559362 70
    endloop
  endfacet
  facet normal -0.457985 -0.545805 0.701674
    outer loop
      vertex -19.91715552109343 -16.71247785185002 58
      vertex -13.00000000000001 -22.5166604983954 58
      vertex -7.000000000000006 -12.124355652982139 70
    endloop
  endfacet
  facet normal -0.457985 -0.545805 0.701674
    outer loop
      vertex -19.91715552109343 -16.71247785185002 58
      vertex -7.000000000000006 -12.124355652982139 70
      vertex -10.724622203665694 -8.999026535611549 70
    endloop
  endfacet
  facet normal -0.243689 -0.669529 0.701674
    outer loop
      vertex -13.00000000000001 -22.5166604983954 58
      vertex -4.514852619340188 -25.60500157831741 58
      vertex -2.4310744873370247 -13.787308542170912 70
    endloop
  endfacet
  facet normal -0.243689 -0.669529 0.701674
    outer loop
      vertex -13.00000000000001 -22.5166604983954 58
      vertex -2.4310744873370247 -13.787308542170912 70
      vertex -7.000000000000006 -12.124355652982139 70
    endloop
  endfacet
  facet normal -0.000000 -0.712498 0.701674
    outer loop
      vertex -4.514852619340188 -25.60500157831741 58
      vertex 4.5148526193401795 -25.605001578317413 58
      vertex 2.4310744873370194 -13.787308542170914 70
    endloop
  endfacet
  facet normal -0.000000 -0.712498 0.701674
    outer loop
      vertex -4.514852619340188 -25.60500157831741 58
      vertex 2.4310744873370194 -13.787308542170914 70
      vertex -2.4310744873370247 -13.787308542170912 70
    endloop
  endfacet
  facet normal 0.243689 -0.669529 0.701674
    outer loop
      vertex 4.5148526193401795 -25.605001578317413 58
      vertex 13.000000000000004 -22.516660498395403 58
      vertex 7.000000000000002 -12.12435565298214 70
    endloop
  endfacet
  facet normal 0.243689 -0.669529 0.701674
    outer loop
      vertex 4.5148526193401795 -25.605001578317413 58
      vertex 7.000000000000002 -12.12435565298214 70
      vertex 2.4310744873370194 -13.787308542170914 70
    endloop
  endfacet
  facet normal 0.457985 -0.545805 0.701674
    outer loop
      vertex 13.000000000000004 -22.516660498395403 58
      vertex 19.917155521093424 -16.71247785185003 58
      vertex 10.724622203665689 -8.999026535611554 70
    endloop
  endfacet
  facet normal 0.457985 -0.545805 0.701674
    outer loop
      vertex 13.000000000000004 -22.516660498395403 58
      vertex 10.724622203665689 -8.999026535611554 70
      vertex 7.000000000000002 -12.12435565298214 70
    endloop
  endfacet
  facet normal 0.617042 -0.356249 0.701674
    outer loop
      vertex 19.917155521093424 -16.71247785185003 58
      vertex 24.43200814043361 -8.892523726467406 58
      vertex 13.155696691002714 -4.788282006559372 70
    endloop
  endfacet
  facet normal 0.617042 -0.356249 0.701674
    outer loop
      vertex 19.917155521093424 -16.71247785185003 58
      vertex 13.155696691002714 -4.788282006559372 70
      vertex 10.724622203665689 -8.999026535611554 70
    endloop
  endfacet
  facet normal 0.701674 -0.123724 0.701674
    outer loop
      vertex 24.43200814043361 -8.892523726467406 58
      vertex 26 0 58
      vertex 14 0 70
    endloop
  endfacet
  facet normal 0.701674 -0.123724 0.701674
    outer loop
      vertex 24.43200814043361 -8.892523726467406 58
      vertex 14 0 70
      vertex 13.155696691002714 -4.788282006559372 70
    endloop
  endfacet
endsolid teapot_body
