solid teapot_spout
  facet normal 0.947996 0.167157 0.270856
    outer loop
      vertex 64.32418008268982 11.34208846052827 63.12567617090015
      vertex 63.51453449850476 13.066165211185373 64.89543134771226
      vertex 64.15303107914342 9.445071161521275 64.89543134771226
    endloop
  endfacet
  facet normal 0.947996 0.167157 0.270856
    outer loop
      vertex 64.32418008268982 11.34208846052827 63.12567617090015
      vertex 64.49532908623623 13.239105759535267 61.35592099408804
      vertex 63.51453449850476 13.066165211185373 64.89543134771226
    endloop
  endfacet
  facet normal 0.947996 0.167157 0.270856
    outer loop
      vertex 64.32418008268982 11.34208846052827 63.12567617090015
      vertex 65.13382566687488 9.618011709871167 61.35592099408804
      vertex 64.49532908623623 13.239105759535267 61.35592099408804
    endloop
  endfacet
  facet normal 0.947996 0.167157 0.270856
    outer loop
      vertex 64.32418008268982 11.34208846052827 63.12567617090015
      vertex 64.15303107914342 9.445071161521275 64.89543134771226
      vertex 65.13382566687488 9.618011709871167 61.35592099408804
    endloop
  endfacet
  facet normal -0.631120 -0.111283 0.767661
    outer loop
      vertex 35.55518078541161 2.679262461126803 40.403375340023295
      vertex 63.51453449850476 13.066165211185373 64.89543134771226
      vertex 34.32730274572188 9.642904864326994 40.403375340023295
    endloop
  endfacet
  facet normal -0.631120 -0.111283 0.767661
    outer loop
      vertex 35.55518078541161 2.679262461126803 40.403375340023295
      vertex 64.15303107914342 9.445071161521275 64.89543134771226
      vertex 63.51453449850476 13.066165211185373 64.89543134771226
    endloop
  endfacet
  facet normal -0.127367 0.991768 0.013164
    outer loop
      vertex 34.32730274572188 9.642904864326994 40.403375340023295
      vertex 64.49532908623623 13.239105759535267 61.35592099408804
      vertex 36.213446183667 9.975482841922942 33.596624659976705
    endloop
  endfacet
  facet normal -0.127367 0.991768 0.013164
    outer loop
      vertex 34.32730274572188 9.642904864326994 40.403375340023295
      vertex 63.51453449850476 13.066165211185373 64.89543134771226
      vertex 64.49532908623623 13.239105759535267 61.35592099408804
    endloop
  endfacet
  facet normal 0.688140 0.121338 -0.715360
    outer loop
      vertex 36.213446183667 9.975482841922942 33.596624659976705
      vertex 65.13382566687488 9.618011709871167 61.35592099408804
      vertex 37.44132422335673 3.011840438722751 33.596624659976705
    endloop
  endfacet
  facet normal 0.688140 0.121338 -0.715360
    outer loop
      vertex 36.213446183667 9.975482841922942 33.596624659976705
      vertex 64.49532908623623 13.239105759535267 61.35592099408804
      vertex 65.13382566687488 9.618011709871167 61.35592099408804
    endloop
  endfacet
  facet normal 0.219518 -0.975520 0.013164
    outer loop
      vertex 37.44132422335673 3.011840438722751 33.596624659976705
      vertex 64.15303107914342 9.445071161521275 64.89543134771226
      vertex 35.55518078541161 2.679262461126803 40.403375340023295
    endloop
  endfacet
  facet normal 0.219518 -0.975520 0.013164
    outer loop
      vertex 37.44132422335673 3.011840438722751 33.596624659976705
      vertex 65.13382566687488 9.618011709871167 61.35592099408804
      vertex 64.15303107914342 9.445071161521275 64.89543134771226
    endloop
  endfacet
  facet normal -0.173648 0.984808 0.000000
    outer loop
      vertex 36.213446183667 9.975482841922942 33.596624659976705
      vertex 29.587324979363462 8.80711889615976 39.0490959782066
      vertex 34.32730274572188 9.642904864326994 40.403375340023295
    endloop
  endfacet
  facet normal -0.173648 0.984808 0.000000
    outer loop
      vertex 36.213446183667 9.975482841922942 33.596624659976705
      vertex 31.473468417308585 9.139696873755708 32.24234529816001
      vertex 29.587324979363462 8.80711889615976 39.0490959782066
    endloop
  endfacet
  facet normal 0.173648 -0.984808 -0.000000
    outer loop
      vertex 35.55518078541161 2.679262461126803 40.403375340023295
      vertex 32.70134645699831 2.176054470555518 32.24234529816001
      vertex 37.44132422335673 3.011840438722751 33.596624659976705
    endloop
  endfacet
  facet normal 0.173648 -0.984808 -0.000000
    outer loop
      vertex 35.55518078541161 2.679262461126803 40.403375340023295
      vertex 30.81520301905319 1.84347649295957 39.0490959782066
      vertex 32.70134645699831 2.176054470555518 32.24234529816001
    endloop
  endfacet
endsolid teapot_spout
