solid thermometer_tube
  facet normal 0.965926 0.258819 0.000000
    outer loop
      vertex 14 0 0
      vertex 12.124355652982143 6.999999999999999 0
      vertex 12.124355652982143 6.999999999999999 16.666666666666668
    endloop
  endfacet
  facet normal 0.965926 0.258819 0.000000
    outer loop
      vertex 14 0 0
      vertex 12.124355652982143 6.999999999999999 16.666666666666668
      vertex 14 0 16.666666666666668
    endloop
  endfacet
  facet normal 0.707107 0.707107 0.000000
    outer loop
      vertex 12.124355652982143 6.999999999999999 0
      vertex 7.000000000000002 12.12435565298214 0
      vertex 7.000000000000002 12.12435565298214 16.666666666666668
    endloop
  endfacet
  facet normal 0.707107 0.707107 0.000000
    outer loop
      vertex 12.124355652982143 6.999999999999999 0
      vertex 7.000000000000002 12.12435565298214 16.666666666666668
      vertex 12.124355652982143 6.999999999999999 16.666666666666668
    endloop
  endfacet
  facet normal 0.258819 0.965926 0.000000
    outer loop
      vertex 7.000000000000002 12.12435565298214 0
      vertex 8.572527594031472e-16 14 0
      vertex 8.572527594031472e-16 14 16.666666666666668
    endloop
  endfacet
  facet normal 0.258819 0.965926 0.000000
    outer loop
      vertex 7.000000000000002 12.12435565298214 0
      vertex 8.572527594031472e-16 14 16.666666666666668
      vertex 7.000000000000002 12.12435565298214 16.666666666666668
    endloop
  endfacet
  facet normal -0.258819 0.965926 0.000000
    outer loop
      vertex 8.572527594031472e-16 14 0
      vertex -6.9999999999999964 12.124355652982143 0
      vertex -6.9999999999999964 12.124355652982143 16.666666666666668
    endloop
  endfacet
  facet normal -0.258819 0.965926 0.000000
    outer loop
      vertex 8.572527594031472e-16 14 0
      vertex -6.9999999999999964 12.124355652982143 16.666666666666668
      vertex 8.572527594031472e-16 14 16.666666666666668
    endloop
  endfacet
  facet normal -0.707107 0.707107 0.000000
    outer loop
      vertex -6.9999999999999964 12.124355652982143 0
      vertex -12.124355652982139 7.000000000000004 0
      vertex -12.124355652982139 7.000000000000004 16.666666666666668
    endloop
  endfacet
  facet normal -0.707107 0.707107 0.000000
    outer loop
      vertex -6.9999999999999964 12.124355652982143 0
      vertex -12.124355652982139 7.000000000000004 16.666666666666668
      vertex -6.9999999999999964 12.124355652982143 16.666666666666668
    endloop
  endfacet
  facet normal -0.965926 0.258819 0.000000
    outer loop
      vertex -12.124355652982139 7.000000000000004 0
      vertex -14 1.7145055188062944e-15 0
      vertex -14 1.7145055188062944e-15 16.666666666666668
    endloop
  endfacet
  facet normal -0.965926 0.258819 0.000000
    outer loop
      vertex -12.124355652982139 7.000000000000004 0
      vertex -14 1.7145055188062944e-15 16.666666666666668
      vertex -12.124355652982139 7.000000000000004 16.666666666666668
    endloop
  endfacet
  facet normal -0.965926 -0.258819 0.000000
    outer loop
      vertex -14 1.7145055188062944e-15 0
      vertex -12.124355652982143 -6.9999999999999964 0
      vertex -12.124355652982143 -6.9999999999999964 16.666666666666668
    endloop
  endfacet
  facet normal -0.965926 -0.258819 0.000000
    outer loop
      vertex -14 1.7145055188062944e-15 0
      vertex -12.124355652982143 -6.9999999999999964 16.666666666666668
      vertex -14 1.7145055188062944e-15 16.666666666666668
    endloop
  endfacet
  facet normal -0.707107 -0.707107 0.000000
    outer loop
      vertex -12.124355652982143 -6.9999999999999964 0
      vertex -7.000000000000006 -12.124355652982139 0
      vertex -7.000000000000006 -12.124355652982139 16.666666666666668
    endloop
  endfacet
  facet normal -0.707107 -0.707107 0.000000
    outer loop
      vertex -12.124355652982143 -6.9999999999999964 0
      vertex -7.000000000000006 -12.124355652982139 16.666666666666668
      vertex -12.124355652982143 -6.9999999999999964 16.666666666666668
    endloop
  endfacet
  facet normal -0.258819 -0.965926 0.000000
    outer loop
      vertex -7.000000000000006 -12.124355652982139 0
      vertex -2.5717582782094417e-15 -14 0
      vertex -2.5717582782094417e-15 -14 16.666666666666668
    endloop
  endfacet
  facet normal -0.258819 -0.965926 0.000000
    outer loop
      vertex -7.000000000000006 -12.124355652982139 0
      vertex -2.5717582782094417e-15 -14 16.666666666666668
      vertex -7.000000000000006 -12.124355652982139 16.666666666666668
    endloop
  endfacet
  facet normal 0.258819 -0.965926 0.000000
    outer loop
      vertex -2.5717582782094417e-15 -14 0
      vertex 6.999999999999991 -12.124355652982146 0
      vertex 6.999999999999991 -12.124355652982146 16.666666666666668
    endloop
  endfacet
  facet normal 0.258819 -0.965926 0.000000
    outer loop
      vertex -2.5717582782094417e-15 -14 0
      vertex 6.999999999999991 -12.124355652982146 16.666666666666668
      vertex -2.5717582782094417e-15 -14 16.666666666666668
    endloop
  endfacet
  facet normal 0.707107 -0.707107 0.000000
    outer loop
      vertex 6.999999999999991 -12.124355652982146 0
      vertex 12.124355652982137 -7.000000000000006 0
      vertex 12.124355652982137 -7.000000000000006 16.666666666666668
    endloop
  endfacet
  facet normal 0.707107 -0.707107 0.000000
    outer loop
      vertex 6.999999999999991 -12.124355652982146 0
      vertex 12.124355652982137 -7.000000000000006 16.666666666666668
      vertex 6.999999999999991 -12.124355652982146 16.666666666666668
    endloop
  endfacet
  facet normal 0.965926 -0.258819 0.000000
    outer loop
      vertex 12.124355652982137 -7.000000000000006 0
      vertex 14 0 0
      vertex 14 0 16.666666666666668
    endloop
  endfacet
  facet normal 0.965926 -0.258819 0.000000
    outer loop
      vertex 12.124355652982137 -7.000000000000006 0
      vertex 14 0 16.666666666666668
      vertex 12.124355652982137 -7.000000000000006 16.666666666666668
    endloop
  endfacet
  facet normal 0.965926 0.258819 0.000000
    outer loop
      vertex 14 0 16.666666666666668
      vertex 12.124355652982143 6.999999999999999 16.666666666666668
      vertex 12.124355652982143 6.999999999999999 33.333333333333336
    endloop
  endfacet
  facet normal 0.965926 0.258819 0.000000
    outer loop
      vertex 14 0 16.666666666666668
      vertex 12.124355652982143 6.999999999999999 33.333333333333336
      vertex 14 0 33.333333333333336
    endloop
  endfacet
  facet normal 0.707107 0.707107 0.000000
    outer loop
      vertex 12.124355652982143 6.999999999999999 16.666666666666668
      vertex 7.000000000000002 12.12435565298214 16.666666666666668
      vertex 7.000000000000002 12.12435565298214 33.333333333333336
    endloop
  endfacet
  facet normal 0.707107 0.707107 0.000000
    outer loop
      vertex 12.124355652982143 6.999999999999999 16.666666666666668
      vertex 7.000000000000002 12.12435565298214 33.333333333333336
      vertex 12.124355652982143 6.999999999999999 33.333333333333336
    endloop
  endfacet
  facet normal 0.258819 0.965926 0.000000
    outer loop
      vertex 7.000000000000002 12.12435565298214 16.666666666666668
      vertex 8.572527594031472e-16 14 16.666666666666668
      vertex 8.572527594031472e-16 14 33.333333333333336
    endloop
  endfacet
  facet normal 0.258819 0.965926 0.000000
    outer loop
      vertex 7.000000000000002 12.12435565298214 16.666666666666668
      vertex 8.572527594031472e-16 14 33.333333333333336
      vertex 7.000000000000002 12.12435565298214 33.333333333333336
    endloop
  endfacet
  facet normal -0.258819 0.965926 0.000000
    outer loop
      vertex 8.572527594031472e-16 14 16.666666666666668
      vertex -6.9999999999999964 12.124355652982143 16.666666666666668
      vertex -6.9999999999999964 12.124355652982143 33.333333333333336
    endloop
  endfacet
  facet normal -0.258819 0.965926 0.000000
    outer loop
      vertex 8.572527594031472e-16 14 16.666666666666668
      vertex -6.9999999999999964 12.124355652982143 33.333333333333336
      vertex 8.572527594031472e-16 14 33.333333333333336
    endloop
  endfacet
  facet normal -0.707107 0.707107 0.000000
    outer loop
      vertex -6.9999999999999964 12.124355652982143 16.666666666666668
      vertex -12.124355652982139 7.000000000000004 16.666666666666668
      vertex -12.124355652982139 7.000000000000004 33.333333333333336
    endloop
  endfacet
  facet normal -0.707107 0.707107 0.000000
    outer loop
      vertex -6.9999999999999964 12.124355652982143 16.666666666666668
      vertex -12.124355652982139 7.000000000000004 33.333333333333336
      vertex -6.9999999999999964 12.124355652982143 33.333333333333336
    endloop
  endfacet
  facet normal -0.965926 0.258819 0.000000
    outer loop
      vertex -12.124355652982139 7.000000000000004 16.666666666666668
      vertex -14 1.7145055188062944e-15 16.666666666666668
      vertex -14 1.7145055188062944e-15 33.333333333333336
    endloop
  endfacet
  facet normal -0.965926 0.258819 0.000000
    outer loop
      vertex -12.124355652982139 7.000000000000004 16.666666666666668
      vertex -14 1.7145055188062944e-15 33.333333333333336
      vertex -12.124355652982139 7.000000000000004 33.333333333333336
    endloop
  endfacet
  facet normal -0.965926 -0.258819 0.000000
    outer loop
      vertex -14 1.7145055188062944e-15 16.666666666666668
      vertex -12.124355652982143 -6.9999999999999964 16.666666666666668
      vertex -12.124355652982143 -6.9999999999999964 33.333333333333336
    endloop
  endfacet
  facet normal -0.965926 -0.258819 0.000000
    outer loop
      vertex -14 1.7145055188062944e-15 16.666666666666668
      vertex -12.124355652982143 -6.9999999999999964 33.333333333333336
      vertex -14 1.7145055188062944e-15 33.333333333333336
    endloop
  endfacet
  facet normal -0.707107 -0.707107 0.000000
    outer loop
      vertex -12.124355652982143 -6.9999999999999964 16.666666666666668
      vertex -7.000000000000006 -12.124355652982139 16.666666666666668
      vertex -7.000000000000006 -12.124355652982139 33.333333333333336
    endloop
  endfacet
  facet normal -0.707107 -0.707107 0.000000
    outer loop
      vertex -12.124355652982143 -6.9999999999999964 16.666666666666668
      vertex -7.000000000000006 -12.124355652982139 33.333333333333336
      vertex -12.124355652982143 -6.9999999999999964 33.333333333333336
    endloop
  endfacet
  facet normal -0.258819 -0.965926 0.000000
    outer loop
      vertex -7.000000000000006 -12.124355652982139 16.666666666666668
      vertex -2.5717582782094417e-15 -14 16.666666666666668
      vertex -2.5717582782094417e-15 -14 33.333333333333336
    endloop
  endfacet
  facet normal -0.258819 -0.965926 0.000000
    outer loop
      vertex -7.000000000000006 -12.124355652982139 16.666666666666668
      vertex -2.5717582782094417e-15 -14 33.333333333333336
      vertex -7.000000000000006 -12.124355652982139 33.333333333333336
    endloop
  endfacet
  facet normal 0.258819 -0.965926 0.000000
    outer loop
      vertex -2.5717582782094417e-15 -14 16.666666666666668
      vertex 6.999999999999991 -12.124355652982146 16.666666666666668
      vertex 6.999999999999991 -12.124355652982146 33.333333333333336
    endloop
  endfacet
  facet normal 0.258819 -0.965926 0.000000
    outer loop
      vertex -2.5717582782094417e-15 -14 16.666666666666668
      vertex 6.999999999999991 -12.124355652982146 33.333333333333336
      vertex -2.5717582782094417e-15 -14 33.333333333333336
    endloop
  endfacet
  facet normal 0.707107 -0.707107 0.000000
    outer loop
      vertex 6.999999999999991 -12.124355652982146 16.666666666666668
      vertex 12.124355652982137 -7.000000000000006 16.666666666666668
      vertex 12.124355652982137 -7.000000000000006 33.333333333333336
    endloop
  endfacet
  facet normal 0.707107 -0.707107 0.000000
    outer loop
      vertex 6.999999999999991 -12.124355652982146 16.666666666666668
      vertex 12.124355652982137 -7.000000000000006 33.333333333333336
      vertex 6.999999999999991 -12.124355652982146 33.333333333333336
    endloop
  endfacet
  facet normal 0.965926 -0.258819 0.000000
    outer loop
      vertex 12.124355652982137 -7.000000000000006 16.666666666666668
      vertex 14 0 16.666666666666668
      vertex 14 0 33.333333333333336
    endloop
  endfacet
  facet normal 0.965926 -0.258819 0.000000
    outer loop
      vertex 12.124355652982137 -7.000000000000006 16.666666666666668
      vertex 14 0 33.333333333333336
      vertex 12.124355652982137 -7.000000000000006 33.333333333333336
    endloop
  endfacet
  facet normal 0.965926 0.258819 0.000000
    outer loop
      vertex 14 0 33.333333333333336
      vertex 12.124355652982143 6.999999999999999 33.333333333333336
      vertex 12.124355652982143 6.999999999999999 50
    endloop
  endfacet
  facet normal 0.965926 0.258819 0.000000
    outer loop
      vertex 14 0 33.333333333333336
      vertex 12.124355652982143 6.999999999999999 50
      vertex 14 0 50
    endloop
  endfacet
  facet normal 0.707107 0.707107 0.000000
    outer loop
      vertex 12.124355652982143 6.999999999999999 33.333333333333336
      vertex 7.000000000000002 12.12435565298214 33.333333333333336
      vertex 7.000000000000002 12.12435565298214 50
    endloop
  endfacet
  facet normal 0.707107 0.707107 0.000000
    outer loop
      vertex 12.124355652982143 6.999999999999999 33.333333333333336
      vertex 7.000000000000002 12.12435565298214 50
      vertex 12.124355652982143 6.999999999999999 50
    endloop
  endfacet
  facet normal 0.258819 0.965926 0.000000
    outer loop
      vertex 7.000000000000002 12.12435565298214 33.333333333333336
      vertex 8.572527594031472e-16 14 33.333333333333336
      vertex 8.572527594031472e-16 14 50
    endloop
  endfacet
  facet normal 0.258819 0.965926 0.000000
    outer loop
      vertex 7.000000000000002 12.12435565298214 33.333333333333336
      vertex 8.572527594031472e-16 14 50
      vertex 7.000000000000002 12.12435565298214 50
    endloop
  endfacet
  facet normal -0.258819 0.965926 0.000000
    outer loop
      vertex 8.572527594031472e-16 14 33.333333333333336
      vertex -6.9999999999999964 12.124355652982143 33.333333333333336
      vertex -6.9999999999999964 12.124355652982143 50
    endloop
  endfacet
  facet normal -0.258819 0.965926 0.000000
    outer loop
      vertex 8.572527594031472e-16 14 33.333333333333336
      vertex -6.9999999999999964 12.124355652982143 50
      vertex 8.572527594031472e-16 14 50
    endloop
  endfacet
  facet normal -0.707107 0.707107 0.000000
    outer loop
      vertex -6.9999999999999964 12.124355652982143 33.333333333333336
      vertex -12.124355652982139 7.000000000000004 33.333333333333336
      vertex -12.124355652982139 7.000000000000004 50
    endloop
  endfacet
  facet normal -0.707107 0.707107 0.000000
    outer loop
      vertex -6.9999999999999964 12.124355652982143 33.333333333333336
      vertex -12.124355652982139 7.000000000000004 50
      vertex -6.9999999999999964 12.124355652982143 50
    endloop
  endfacet
  facet normal -0.965926 0.258819 0.000000
    outer loop
      vertex -12.124355652982139 7.000000000000004 33.333333333333336
      vertex -14 1.7145055188062944e-15 33.333333333333336
      vertex -14 1.7145055188062944e-15 50
    endloop
  endfacet
  facet normal -0.965926 0.258819 0.000000
    outer loop
      vertex -12.124355652982139 7.000000000000004 33.333333333333336
      vertex -14 1.7145055188062944e-15 50
      vertex -12.124355652982139 7.000000000000004 50
    endloop
  endfacet
  facet normal -0.965926 -0.258819 0.000000
    outer loop
      vertex -14 1.7145055188062944e-15 33.333333333333336
      vertex -12.124355652982143 -6.9999999999999964 33.333333333333336
      vertex -12.124355652982143 -6.9999999999999964 50
    endloop
  endfacet
  facet normal -0.965926 -0.258819 0.000000
    outer loop
      vertex -14 1.7145055188062944e-15 33.333333333333336
      vertex -12.124355652982143 -6.9999999999999964 50
      vertex -14 1.7145055188062944e-15 50
    endloop
  endfacet
  facet normal -0.707107 -0.707107 0.000000
    outer loop
      vertex -12.124355652982143 -6.9999999999999964 33.333333333333336
      vertex -7.000000000000006 -12.124355652982139 33.333333333333336
      vertex -7.000000000000006 -12.124355652982139 50
    endloop
  endfacet
  facet normal -0.707107 -0.707107 0.000000
    outer loop
      vertex -12.124355652982143 -6.9999999999999964 33.333333333333336
      vertex -7.000000000000006 -12.124355652982139 50
      vertex -12.124355652982143 -6.9999999999999964 50
    endloop
  endfacet
  facet normal -0.258819 -0.965926 0.000000
    outer loop
      vertex -7.000000000000006 -12.124355652982139 33.333333333333336
      vertex -2.5717582782094417e-15 -14 33.333333333333336
      vertex -2.5717582782094417e-15 -14 50
    endloop
  endfacet
  facet normal -0.258819 -0.965926 0.000000
    outer loop
      vertex -7.000000000000006 -12.124355652982139 33.333333333333336
      vertex -2.5717582782094417e-15 -14 50
      vertex -7.000000000000006 -12.124355652982139 50
    endloop
  endfacet
  facet normal 0.258819 -0.965926 0.000000
    outer loop
      vertex -2.5717582782094417e-15 -14 33.333333333333336
      vertex 6.999999999999991 -12.124355652982146 33.333333333333336
      vertex 6.999999999999991 -12.124355652982146 50
    endloop
  endfacet
  facet normal 0.258819 -0.965926 0.000000
    outer loop
      vertex -2.5717582782094417e-15 -14 33.333333333333336
      vertex 6.999999999999991 -12.124355652982146 50
      vertex -2.5717582782094417e-15 -14 50
    endloop
  endfacet
  facet normal 0.707107 -0.707107 0.000000
    outer loop
      vertex 6.999999999999991 -12.124355652982146 33.333333333333336
      vertex 12.124355652982137 -7.000000000000006 33.333333333333336
      vertex 12.124355652982137 -7.000000000000006 50
    endloop
  endfacet
  facet normal 0.707107 -0.707107 0.000000
    outer loop
      vertex 6.999999999999991 -12.124355652982146 33.333333333333336
      vertex 12.124355652982137 -7.000000000000006 50
      vertex 6.999999999999991 -12.124355652982146 50
    endloop
  endfacet
  facet normal 0.965926 -0.258819 0.000000
    outer loop
      vertex 12.124355652982137 -7.000000000000006 33.333333333333336
      vertex 14 0 33.333333333333336
      vertex 14 0 50
    endloop
  endfacet
  facet normal 0.965926 -0.258819 0.000000
    outer loop
      vertex 12.124355652982137 -7.000000000000006 33.333333333333336
      vertex 14 0 50
      vertex 12.124355652982137 -7.000000000000006 50
    endloop
  endfacet
  facet normal 0.965926 0.258819 0.000000
    outer loop
      vertex 14 0 50
      vertex 12.124355652982143 6.999999999999999 50
      vertex 12.124355652982143 6.999999999999999 66.66666666666667
    endloop
  endfacet
  facet normal 0.965926 0.258819 0.000000
    outer loop
      vertex 14 0 50
      vertex 12.124355652982143 6.999999999999999 66.66666666666667
      vertex 14 0 66.66666666666667
    endloop
  endfacet
  facet normal 0.707107 0.707107 0.000000
    outer loop
      vertex 12.124355652982143 6.999999999999999 50
      vertex 7.000000000000002 12.12435565298214 50
      vertex 7.000000000000002 12.12435565298214 66.66666666666667
    endloop
  endfacet
  facet normal 0.707107 0.707107 0.000000
    outer loop
      vertex 12.124355652982143 6.999999999999999 50
      vertex 7.000000000000002 12.12435565298214 66.66666666666667
      vertex 12.124355652982143 6.999999999999999 66.66666666666667
    endloop
  endfacet
  facet normal 0.258819 0.965926 0.000000
    outer loop
      vertex 7.000000000000002 12.12435565298214 50
      vertex 8.572527594031472e-16 14 50
      vertex 8.572527594031472e-16 14 66.66666666666667
    endloop
  endfacet
  facet normal 0.258819 0.965926 0.000000
    outer loop
      vertex 7.000000000000002 12.12435565298214 50
      vertex 8.572527594031472e-16 14 66.66666666666667
      vertex 7.000000000000002 12.12435565298214 66.66666666666667
    endloop
  endfacet
  facet normal -0.258819 0.965926 0.000000
    outer loop
      vertex 8.572527594031472e-16 14 50
      vertex -6.9999999999999964 12.124355652982143 50
      vertex -6.9999999999999964 12.124355652982143 66.66666666666667
    endloop
  endfacet
  facet normal -0.258819 0.965926 0.000000
    outer loop
      vertex 8.572527594031472e-16 14 50
      vertex -6.9999999999999964 12.124355652982143 66.66666666666667
      vertex 8.572527594031472e-16 14 66.66666666666667
    endloop
  endfacet
  facet normal -0.707107 0.707107 0.000000
    outer loop
      vertex -6.9999999999999964 12.124355652982143 50
      vertex -12.124355652982139 7.000000000000004 50
      vertex -12.124355652982139 7.000000000000004 66.66666666666667
    endloop
  endfacet
  facet normal -0.707107 0.707107 0.000000
    outer loop
      vertex -6.9999999999999964 12.124355652982143 50
      vertex -12.124355652982139 7.000000000000004 66.66666666666667
      vertex -6.9999999999999964 12.124355652982143 66.66666666666667
    endloop
  endfacet
  facet normal -0.965926 0.258819 0.000000
    outer loop
      vertex -12.124355652982139 7.000000000000004 50
      vertex -14 1.7145055188062944e-15 50
      vertex -14 1.7145055188062944e-15 66.66666666666667
    endloop
  endfacet
  facet normal -0.965926 0.258819 0.000000
    outer loop
      vertex -12.124355652982139 7.000000000000004 50
      vertex -14 1.7145055188062944e-15 66.66666666666667
      vertex -12.124355652982139 7.000000000000004 66.66666666666667
    endloop
  endfacet
  facet normal -0.965926 -0.258819 0.000000
    outer loop
      vertex -14 1.7145055188062944e-15 50
      vertex -12.124355652982143 -6.9999999999999964 50
      vertex -12.124355652982143 -6.9999999999999964 66.66666666666667
    endloop
  endfacet
  facet normal -0.965926 -0.258819 0.000000
    outer loop
      vertex -14 1.7145055188062944e-15 50
      vertex -12.124355652982143 -6.9999999999999964 66.66666666666667
      vertex -14 1.7145055188062944e-15 66.66666666666667
    endloop
  endfacet
  facet normal -0.707107 -0.707107 0.000000
    outer loop
      vertex -12.124355652982143 -6.9999999999999964 50
      vertex -7.000000000000006 -12.124355652982139 50
      vertex -7.000000000000006 -12.124355652982139 66.66666666666667
    endloop
  endfacet
  facet normal -0.707107 -0.707107 0.000000
    outer loop
      vertex -12.124355652982143 -6.9999999999999964 50
      vertex -7.000000000000006 -12.124355652982139 66.66666666666667
      vertex -12.124355652982143 -6.9999999999999964 66.66666666666667
    endloop
  endfacet
  facet normal -0.258819 -0.965926 0.000000
    outer loop
      vertex -7.000000000000006 -12.124355652982139 50
      vertex -2.5717582782094417e-15 -14 50
      vertex -2.5717582782094417e-15 -14 66.66666666666667
    endloop
  endfacet
  facet normal -0.258819 -0.965926 0.000000
    outer loop
      vertex -7.000000000000006 -12.124355652982139 50
      vertex -2.5717582782094417e-15 -14 66.66666666666667
      vertex -7.000000000000006 -12.124355652982139 66.66666666666667
    endloop
  endfacet
  facet normal 0.258819 -0.965926 0.000000
    outer loop
      vertex -2.5717582782094417e-15 -14 50
      vertex 6.999999999999991 -12.124355652982146 50
      vertex 6.999999999999991 -12.124355652982146 66.66666666666667
    endloop
  endfacet
  facet normal 0.258819 -0.965926 0.000000
    outer loop
      vertex -2.5717582782094417e-15 -14 50
      vertex 6.999999999999991 -12.124355652982146 66.66666666666667
      vertex -2.5717582782094417e-15 -14 66.66666666666667
    endloop
  endfacet
  facet normal 0.707107 -0.707107 0.000000
    outer loop
      vertex 6.999999999999991 -12.124355652982146 50
      vertex 12.124355652982137 -7.000000000000006 50
      vertex 12.124355652982137 -7.000000000000006 66.66666666666667
    endloop
  endfacet
  facet normal 0.707107 -0.707107 0.000000
    outer loop
      vertex 6.999999999999991 -12.124355652982146 50
      vertex 12.124355652982137 -7.000000000000006 66.66666666666667
      vertex 6.999999999999991 -12.124355652982146 66.66666666666667
    endloop
  endfacet
  facet normal 0.965926 -0.258819 0.000000
    outer loop
      vertex 12.124355652982137 -7.000000000000006 50
      vertex 14 0 50
      vertex 14 0 66.66666666666667
    endloop
  endfacet
  facet normal 0.965926 -0.258819 0.000000
    outer loop
      vertex 12.124355652982137 -7.000000000000006 50
      vertex 14 0 66.66666666666667
      vertex 12.124355652982137 -7.000000000000006 66.66666666666667
    endloop
  endfacet
  facet normal 0.965926 0.258819 0.000000
    outer loop
      vertex 14 0 66.66666666666667
      vertex 12.124355652982143 6.999999999999999 66.66666666666667
      vertex 12.124355652982143 6.999999999999999 83.33333333333333
    endloop
  endfacet
  facet normal 0.965926 0.258819 0.000000
    outer loop
      vertex 14 0 66.66666666666667
      vertex 12.124355652982143 6.999999999999999 83.33333333333333
      vertex 14 0 83.33333333333333
    endloop
  endfacet
  facet normal 0.707107 0.707107 0.000000
    outer loop
      vertex 12.124355652982143 6.999999999999999 66.66666666666667
      vertex 7.000000000000002 12.12435565298214 66.66666666666667
      vertex 7.000000000000002 12.12435565298214 83.33333333333333
    endloop
  endfacet
  facet normal 0.707107 0.707107 0.000000
    outer loop
      vertex 12.124355652982143 6.999999999999999 66.66666666666667
      vertex 7.000000000000002 12.12435565298214 83.33333333333333
      vertex 12.124355652982143 6.999999999999999 83.33333333333333
    endloop
  endfacet
  facet normal 0.258819 0.965926 0.000000
    outer loop
      vertex 7.000000000000002 12.12435565298214 66.66666666666667
      vertex 8.572527594031472e-16 14 66.66666666666667
      vertex 8.572527594031472e-16 14 83.33333333333333
    endloop
  endfacet
  facet normal 0.258819 0.965926 0.000000
    outer loop
      vertex 7.000000000000002 12.12435565298214 66.66666666666667
      vertex 8.572527594031472e-16 14 83.33333333333333
      vertex 7.000000000000002 12.12435565298214 83.33333333333333
    endloop
  endfacet
  facet normal -0.258819 0.965926 0.000000
    outer loop
      vertex 8.572527594031472e-16 14 66.66666666666667
      vertex -6.9999999999999964 12.124355652982143 66.66666666666667
      vertex -6.9999999999999964 12.124355652982143 83.33333333333333
    endloop
  endfacet
  facet normal -0.258819 0.965926 0.000000
    outer loop
      vertex 8.572527594031472e-16 14 66.66666666666667
      vertex -6.9999999999999964 12.124355652982143 83.33333333333333
      vertex 8.572527594031472e-16 14 83.33333333333333
    endloop
  endfacet
  facet normal -0.707107 0.707107 0.000000
    outer loop
      vertex -6.9999999999999964 12.124355652982143 66.66666666666667
      vertex -12.124355652982139 7.000000000000004 66.66666666666667
      vertex -12.124355652982139 7.000000000000004 83.33333333333333
    endloop
  endfacet
  facet normal -0.707107 0.707107 0.000000
    outer loop
      vertex -6.9999999999999964 12.124355652982143 66.66666666666667
      vertex -12.124355652982139 7.000000000000004 83.33333333333333
      vertex -6.9999999999999964 12.124355652982143 83.33333333333333
    endloop
  endfacet
  facet normal -0.965926 0.258819 0.000000
    outer loop
      vertex -12.124355652982139 7.000000000000004 66.66666666666667
      vertex -14 1.7145055188062944e-15 66.66666666666667
      vertex -14 1.7145055188062944e-15 83.33333333333333
    endloop
  endfacet
  facet normal -0.965926 0.258819 0.000000
    outer loop
      vertex -12.124355652982139 7.000000000000004 66.66666666666667
      vertex -14 1.7145055188062944e-15 83.33333333333333
      vertex -12.124355652982139 7.000000000000004 83.33333333333333
    endloop
  endfacet
  facet normal -0.965926 -0.258819 0.000000
    outer loop
      vertex -14 1.7145055188062944e-15 66.66666666666667
      vertex -12.124355652982143 -6.9999999999999964 66.66666666666667
      vertex -12.124355652982143 -6.9999999999999964 83.33333333333333
    endloop
  endfacet
  facet normal -0.965926 -0.258819 0.000000
    outer loop
      vertex -14 1.7145055188062944e-15 66.66666666666667
      vertex -12.124355652982143 -6.9999999999999964 83.33333333333333
      vertex -14 1.7145055188062944e-15 83.33333333333333
    endloop
  endfacet
  facet normal -0.707107 -0.707107 0.000000
    outer loop
      vertex -12.124355652982143 -6.9999999999999964 66.66666666666667
      vertex -7.000000000000006 -12.124355652982139 66.66666666666667
      vertex -7.000000000000006 -12.124355652982139 83.33333333333333
    endloop
  endfacet
  facet normal -0.707107 -0.707107 0.000000
    outer loop
      vertex -12.124355652982143 -6.9999999999999964 66.66666666666667
      vertex -7.000000000000006 -12.124355652982139 83.33333333333333
      vertex -12.124355652982143 -6.9999999999999964 83.33333333333333
    endloop
  endfacet
  facet normal -0.258819 -0.965926 0.000000
    outer loop
      vertex -7.000000000000006 -12.124355652982139 66.66666666666667
      vertex -2.5717582782094417e-15 -14 66.66666666666667
      vertex -2.5717582782094417e-15 -14 83.33333333333333
    endloop
  endfacet
  facet normal -0.258819 -0.965926 0.000000
    outer loop
      vertex -7.000000000000006 -12.124355652982139 66.66666666666667
      vertex -2.5717582782094417e-15 -14 83.33333333333333
      vertex -7.000000000000006 -12.124355652982139 83.33333333333333
    endloop
  endfacet
  facet normal 0.258819 -0.965926 0.000000
    outer loop
      vertex -2.5717582782094417e-15 -14 66.66666666666667
      vertex 6.999999999999991 -12.124355652982146 66.66666666666667
      vertex 6.999999999999991 -12.124355652982146 83.33333333333333
    endloop
  endfacet
  facet normal 0.258819 -0.965926 0.000000
    outer loop
      vertex -2.5717582782094417e-15 -14 66.66666666666667
      vertex 6.999999999999991 -12.124355652982146 83.33333333333333
      vertex -2.5717582782094417e-15 -14 83.33333333333333
    endloop
  endfacet
  facet normal 0.707107 -0.707107 0.000000
    outer loop
      vertex 6.999999999999991 -12.124355652982146 66.66666666666667
      vertex 12.124355652982137 -7.000000000000006 66.66666666666667
      vertex 12.124355652982137 -7.000000000000006 83.33333333333333
    endloop
  endfacet
  facet normal 0.707107 -0.707107 0.000000
    outer loop
      vertex 6.999999999999991 -12.124355652982146 66.66666666666667
      vertex 12.124355652982137 -7.000000000000006 83.33333333333333
      vertex 6.999999999999991 -12.124355652982146 83.33333333333333
    endloop
  endfacet
  facet normal 0.965926 -0.258819 0.000000
    outer loop
      vertex 12.124355652982137 -7.000000000000006 66.66666666666667
      vertex 14 0 66.66666666666667
      vertex 14 0 83.33333333333333
    endloop
  endfacet
  facet normal 0.965926 -0.258819 0.000000
    outer loop
      vertex 12.124355652982137 -7.000000000000006 66.66666666666667
      vertex 14 0 83.33333333333333
      vertex 12.124355652982137 -7.000000000000006 83.33333333333333
    endloop
  endfacet
  facet normal 0.965926 0.258819 0.000000
    outer loop
      vertex 14 0 83.33333333333333
      vertex 12.124355652982143 6.999999999999999 83.33333333333333
      vertex 12.124355652982143 6.999999999999999 100
    endloop
  endfacet
  facet normal 0.965926 0.258819 0.000000
    outer loop
      vertex 14 0 83.33333333333333
      vertex 12.124355652982143 6.999999999999999 100
      vertex 14 0 100
    endloop
  endfacet
  facet normal 0.707107 0.707107 0.000000
    outer loop
      vertex 12.124355652982143 6.999999999999999 83.33333333333333
      vertex 7.000000000000002 12.12435565298214 83.33333333333333
      vertex 7.000000000000002 12.12435565298214 100
    endloop
  endfacet
  facet normal 0.707107 0.707107 0.000000
    outer loop
      vertex 12.124355652982143 6.999999999999999 83.33333333333333
      vertex 7.000000000000002 12.12435565298214 100
      vertex 12.124355652982143 6.999999999999999 100
    endloop
  endfacet
  facet normal 0.258819 0.965926 0.000000
    outer loop
      vertex 7.000000000000002 12.12435565298214 83.33333333333333
      vertex 8.572527594031472e-16 14 83.33333333333333
      vertex 8.572527594031472e-16 14 100
    endloop
  endfacet
  facet normal 0.258819 0.965926 0.000000
    outer loop
      vertex 7.000000000000002 12.12435565298214 83.33333333333333
      vertex 8.572527594031472e-16 14 100
      vertex 7.000000000000002 12.12435565298214 100
    endloop
  endfacet
  facet normal -0.258819 0.965926 0.000000
    outer loop
      vertex 8.572527594031472e-16 14 83.33333333333333
      vertex -6.9999999999999964 12.124355652982143 83.33333333333333
      vertex -6.9999999999999964 12.124355652982143 100
    endloop
  endfacet
  facet normal -0.258819 0.965926 0.000000
    outer loop
      vertex 8.572527594031472e-16 14 83.33333333333333
      vertex -6.9999999999999964 12.124355652982143 100
      vertex 8.572527594031472e-16 14 100
    endloop
  endfacet
  facet normal -0.707107 0.707107 0.000000
    outer loop
      vertex -6.9999999999999964 12.124355652982143 83.33333333333333
      vertex -12.124355652982139 7.000000000000004 83.33333333333333
      vertex -12.124355652982139 7.000000000000004 100
    endloop
  endfacet
  facet normal -0.707107 0.707107 0.000000
    outer loop
      vertex -6.9999999999999964 12.124355652982143 83.33333333333333
      vertex -12.124355652982139 7.000000000000004 100
      vertex -6.9999999999999964 12.124355652982143 100
    endloop
  endfacet
  facet normal -0.965926 0.258819 0.000000
    outer loop
      vertex -12.124355652982139 7.000000000000004 83.33333333333333
      vertex -14 1.7145055188062944e-15 83.33333333333333
      vertex -14 1.7145055188062944e-15 100
    endloop
  endfacet
  facet normal -0.965926 0.258819 0.000000
    outer loop
      vertex -12.124355652982139 7.000000000000004 83.33333333333333
      vertex -14 1.7145055188062944e-15 100
      vertex -12.124355652982139 7.000000000000004 100
    endloop
  endfacet
  facet normal -0.965926 -0.258819 0.000000
    outer loop
      vertex -14 1.7145055188062944e-15 83.33333333333333
      vertex -12.124355652982143 -6.9999999999999964 83.33333333333333
      vertex -12.124355652982143 -6.9999999999999964 100
    endloop
  endfacet
  facet normal -0.965926 -0.258819 0.000000
    outer loop
      vertex -14 1.7145055188062944e-15 83.33333333333333
      vertex -12.124355652982143 -6.9999999999999964 100
      vertex -14 1.7145055188062944e-15 100
    endloop
  endfacet
  facet normal -0.707107 -0.707107 0.000000
    outer loop
      vertex -12.124355652982143 -6.9999999999999964 83.33333333333333
      vertex -7.000000000000006 -12.124355652982139 83.33333333333333
      vertex -7.000000000000006 -12.124355652982139 100
    endloop
  endfacet
  facet normal -0.707107 -0.707107 0.000000
    outer loop
      vertex -12.124355652982143 -6.9999999999999964 83.33333333333333
      vertex -7.000000000000006 -12.124355652982139 100
      vertex -12.124355652982143 -6.9999999999999964 100
    endloop
  endfacet
  facet normal -0.258819 -0.965926 0.000000
    outer loop
      vertex -7.000000000000006 -12.124355652982139 83.33333333333333
      vertex -2.5717582782094417e-15 -14 83.33333333333333
      vertex -2.5717582782094417e-15 -14 100
    endloop
  endfacet
  facet normal -0.258819 -0.965926 0.000000
    outer loop
      vertex -7.000000000000006 -12.124355652982139 83.33333333333333
      vertex -2.5717582782094417e-15 -14 100
      vertex -7.000000000000006 -12.124355652982139 100
    endloop
  endfacet
  facet normal 0.258819 -0.965926 0.000000
    outer loop
      vertex -2.5717582782094417e-15 -14 83.33333333333333
      vertex 6.999999999999991 -12.124355652982146 83.33333333333333
      vertex 6.999999999999991 -12.124355652982146 100
    endloop
  endfacet
  facet normal 0.258819 -0.965926 0.000000
    outer loop
      vertex -2.5717582782094417e-15 -14 83.33333333333333
      vertex 6.999999999999991 -12.124355652982146 100
      vertex -2.5717582782094417e-15 -14 100
    endloop
  endfacet
  facet normal 0.707107 -0.707107 0.000000
    outer loop
      vertex 6.999999999999991 -12.124355652982146 83.33333333333333
      vertex 12.124355652982137 -7.000000000000006 83.33333333333333
      vertex 12.124355652982137 -7.000000000000006 100
    endloop
  endfacet
  facet normal 0.707107 -0.707107 0.000000
    outer loop
      vertex 6.999999999999991 -12.124355652982146 83.33333333333333
      vertex 12.124355652982137 -7.000000000000006 100
      vertex 6.999999999999991 -12.124355652982146 100
    endloop
  endfacet
  facet normal 0.965926 -0.258819 0.000000
    outer loop
      vertex 12.124355652982137 -7.000000000000006 83.33333333333333
      vertex 14 0 83.33333333333333
      vertex 14 0 100
    endloop
  endfacet
  facet normal 0.965926 -0.258819 0.000000
    outer loop
      vertex 12.124355652982137 -7.000000000000006 83.33333333333333
      vertex 14 0 100
      vertex 12.124355652982137 -7.000000000000006 100
    endloop
  endfacet
  facet normal 0.965926 0.258819 0.000000
    outer loop
      vertex 14 0 100
      vertex 12.124355652982143 6.999999999999999 100
      vertex 12.124355652982143 6.999999999999999 116.66666666666667
    endloop
  endfacet
  facet normal 0.965926 0.258819 0.000000
    outer loop
      vertex 14 0 100
      vertex 12.124355652982143 6.999999999999999 116.66666666666667
      vertex 14 0 116.66666666666667
    endloop
  endfacet
  facet normal 0.707107 0.707107 0.000000
    outer loop
      vertex 12.124355652982143 6.999999999999999 100
      vertex 7.000000000000002 12.12435565298214 100
      vertex 7.000000000000002 12.12435565298214 116.66666666666667
    endloop
  endfacet
  facet normal 0.707107 0.707107 0.000000
    outer loop
      vertex 12.124355652982143 6.999999999999999 100
      vertex 7.000000000000002 12.12435565298214 116.66666666666667
      vertex 12.124355652982143 6.999999999999999 116.66666666666667
    endloop
  endfacet
  facet normal 0.258819 0.965926 0.000000
    outer loop
      vertex 7.000000000000002 12.12435565298214 100
      vertex 8.572527594031472e-16 14 100
      vertex 8.572527594031472e-16 14 116.66666666666667
    endloop
  endfacet
  facet normal 0.258819 0.965926 0.000000
    outer loop
      vertex 7.000000000000002 12.12435565298214 100
      vertex 8.572527594031472e-16 14 116.66666666666667
      vertex 7.000000000000002 12.12435565298214 116.66666666666667
    endloop
  endfacet
  facet normal -0.258819 0.965926 0.000000
    outer loop
      vertex 8.572527594031472e-16 14 100
      vertex -6.9999999999999964 12.124355652982143 100
      vertex -6.9999999999999964 12.124355652982143 116.66666666666667
    endloop
  endfacet
  facet normal -0.258819 0.965926 0.000000
    outer loop
      vertex 8.572527594031472e-16 14 100
      vertex -6.9999999999999964 12.124355652982143 116.66666666666667
      vertex 8.572527594031472e-16 14 116.66666666666667
    endloop
  endfacet
  facet normal -0.707107 0.707107 0.000000
    outer loop
      vertex -6.9999999999999964 12.124355652982143 100
      vertex -12.124355652982139 7.000000000000004 100
      vertex -12.124355652982139 7.000000000000004 116.66666666666667
    endloop
  endfacet
  facet normal -0.707107 0.707107 0.000000
    outer loop
      vertex -6.9999999999999964 12.124355652982143 100
      vertex -12.124355652982139 7.000000000000004 116.66666666666667
      vertex -6.9999999999999964 12.124355652982143 116.66666666666667
    endloop
  endfacet
  facet normal -0.965926 0.258819 0.000000
    outer loop
      vertex -12.124355652982139 7.000000000000004 100
      vertex -14 1.7145055188062944e-15 100
      vertex -14 1.7145055188062944e-15 116.66666666666667
    endloop
  endfacet
  facet normal -0.965926 0.258819 0.000000
    outer loop
      vertex -12.124355652982139 7.000000000000004 100
      vertex -14 1.7145055188062944e-15 116.66666666666667
      vertex -12.124355652982139 7.000000000000004 116.66666666666667
    endloop
  endfacet
  facet normal -0.965926 -0.258819 0.000000
    outer loop
      vertex -14 1.7145055188062944e-15 100
      vertex -12.124355652982143 -6.9999999999999964 100
      vertex -12.124355652982143 -6.9999999999999964 116.66666666666667
    endloop
  endfacet
  facet normal -0.965926 -0.258819 0.000000
    outer loop
      vertex -14 1.7145055188062944e-15 100
      vertex -12.124355652982143 -6.9999999999999964 116.66666666666667
      vertex -14 1.7145055188062944e-15 116.66666666666667
    endloop
  endfacet
  facet normal -0.707107 -0.707107 0.000000
    outer loop
      vertex -12.124355652982143 -6.9999999999999964 100
      vertex -7.000000000000006 -12.124355652982139 100
      vertex -7.000000000000006 -12.124355652982139 116.66666666666667
    endloop
  endfacet
  facet normal -0.707107 -0.707107 0.000000
    outer loop
      vertex -12.124355652982143 -6.9999999999999964 100
      vertex -7.000000000000006 -12.124355652982139 116.66666666666667
      vertex -12.124355652982143 -6.9999999999999964 116.66666666666667
    endloop
  endfacet
  facet normal -0.258819 -0.965926 0.000000
    outer loop
      vertex -7.000000000000006 -12.124355652982139 100
      vertex -2.5717582782094417e-15 -14 100
      vertex -2.5717582782094417e-15 -14 116.66666666666667
    endloop
  endfacet
  facet normal -0.258819 -0.965926 0.000000
    outer loop
      vertex -7.000000000000006 -12.124355652982139 100
      vertex -2.5717582782094417e-15 -14 116.66666666666667
      vertex -7.000000000000006 -12.124355652982139 116.66666666666667
    endloop
  endfacet
  facet normal 0.258819 -0.965926 0.000000
    outer loop
      vertex -2.5717582782094417e-15 -14 100
      vertex 6.999999999999991 -12.124355652982146 100
      vertex 6.999999999999991 -12.124355652982146 116.66666666666667
    endloop
  endfacet
  facet normal 0.258819 -0.965926 0.000000
    outer loop
      vertex -2.5717582782094417e-15 -14 100
      vertex 6.999999999999991 -12.124355652982146 116.66666666666667
      vertex -2.5717582782094417e-15 -14 116.66666666666667
    endloop
  endfacet
  facet normal 0.707107 -0.707107 0.000000
    outer loop
      vertex 6.999999999999991 -12.124355652982146 100
      vertex 12.124355652982137 -7.000000000000006 100
      vertex 12.124355652982137 -7.000000000000006 116.66666666666667
    endloop
  endfacet
  facet normal 0.707107 -0.707107 0.000000
    outer loop
      vertex 6.999999999999991 -12.124355652982146 100
      vertex 12.124355652982137 -7.000000000000006 116.66666666666667
      vertex 6.999999999999991 -12.124355652982146 116.66666666666667
    endloop
  endfacet
  facet normal 0.965926 -0.258819 0.000000
    outer loop
      vertex 12.124355652982137 -7.000000000000006 100
      vertex 14 0 100
      vertex 14 0 116.66666666666667
    endloop
  endfacet
  facet normal 0.965926 -0.258819 0.000000
    outer loop
      vertex 12.124355652982137 -7.000000000000006 100
      vertex 14 0 116.66666666666667
      vertex 12.124355652982137 -7.000000000000006 116.66666666666667
    endloop
  endfacet
  facet normal 0.965926 0.258819 0.000000
    outer loop
      vertex 14 0 116.66666666666667
      vertex 12.124355652982143 6.999999999999999 116.66666666666667
      vertex 12.124355652982143 6.999999999999999 133.33333333333334
    endloop
  endfacet
  facet normal 0.965926 0.258819 0.000000
    outer loop
      vertex 14 0 116.66666666666667
      vertex 12.124355652982143 6.999999999999999 133.33333333333334
      vertex 14 0 133.33333333333334
    endloop
  endfacet
  facet normal 0.707107 0.707107 0.000000
    outer loop
      vertex 12.124355652982143 6.999999999999999 116.66666666666667
      vertex 7.000000000000002 12.12435565298214 116.66666666666667
      vertex 7.000000000000002 12.12435565298214 133.33333333333334
    endloop
  endfacet
  facet normal 0.707107 0.707107 0.000000
    outer loop
      vertex 12.124355652982143 6.999999999999999 116.66666666666667
      vertex 7.000000000000002 12.12435565298214 133.33333333333334
      vertex 12.124355652982143 6.999999999999999 133.33333333333334
    endloop
  endfacet
  facet normal 0.258819 0.965926 0.000000
    outer loop
      vertex 7.000000000000002 12.12435565298214 116.66666666666667
      vertex 8.572527594031472e-16 14 116.66666666666667
      vertex 8.572527594031472e-16 14 133.33333333333334
    endloop
  endfacet
  facet normal 0.258819 0.965926 0.000000
    outer loop
      vertex 7.000000000000002 12.12435565298214 116.66666666666667
      vertex 8.572527594031472e-16 14 133.33333333333334
      vertex 7.000000000000002 12.12435565298214 133.33333333333334
    endloop
  endfacet
  facet normal -0.258819 0.965926 0.000000
    outer loop
      vertex 8.572527594031472e-16 14 116.66666666666667
      vertex -6.9999999999999964 12.124355652982143 116.66666666666667
      vertex -6.9999999999999964 12.124355652982143 133.33333333333334
    endloop
  endfacet
  facet normal -0.258819 0.965926 0.000000
    outer loop
      vertex 8.572527594031472e-16 14 116.66666666666667
      vertex -6.9999999999999964 12.124355652982143 133.33333333333334
      vertex 8.572527594031472e-16 14 133.33333333333334
    endloop
  endfacet
  facet normal -0.707107 0.707107 0.000000
    outer loop
      vertex -6.9999999999999964 12.124355652982143 116.66666666666667
      vertex -12.124355652982139 7.000000000000004 116.66666666666667
      vertex -12.124355652982139 7.000000000000004 133.33333333333334
    endloop
  endfacet
  facet normal -0.707107 0.707107 0.000000
    outer loop
      vertex -6.9999999999999964 12.124355652982143 116.66666666666667
      vertex -12.124355652982139 7.000000000000004 133.33333333333334
      vertex -6.9999999999999964 12.124355652982143 133.33333333333334
    endloop
  endfacet
  facet normal -0.965926 0.258819 0.000000
    outer loop
      vertex -12.124355652982139 7.000000000000004 116.66666666666667
      vertex -14 1.7145055188062944e-15 116.66666666666667
      vertex -14 1.7145055188062944e-15 133.33333333333334
    endloop
  endfacet
  facet normal -0.965926 0.258819 0.000000
    outer loop
      vertex -12.124355652982139 7.000000000000004 116.66666666666667
      vertex -14 1.7145055188062944e-15 133.33333333333334
      vertex -12.124355652982139 7.000000000000004 133.33333333333334
    endloop
  endfacet
  facet normal -0.965926 -0.258819 0.000000
    outer loop
      vertex -14 1.7145055188062944e-15 116.66666666666667
      vertex -12.124355652982143 -6.9999999999999964 116.66666666666667
      vertex -12.124355652982143 -6.9999999999999964 133.33333333333334
    endloop
  endfacet
  facet normal -0.965926 -0.258819 0.000000
    outer loop
      vertex -14 1.7145055188062944e-15 116.66666666666667
      vertex -12.124355652982143 -6.9999999999999964 133.33333333333334
      vertex -14 1.7145055188062944e-15 133.33333333333334
    endloop
  endfacet
  facet normal -0.707107 -0.707107 0.000000
    outer loop
      vertex -12.124355652982143 -6.9999999999999964 116.66666666666667
      vertex -7.000000000000006 -12.124355652982139 116.66666666666667
      vertex -7.000000000000006 -12.124355652982139 133.33333333333334
    endloop
  endfacet
  facet normal -0.707107 -0.707107 0.000000
    outer loop
      vertex -12.124355652982143 -6.9999999999999964 116.66666666666667
      vertex -7.000000000000006 -12.124355652982139 133.33333333333334
      vertex -12.124355652982143 -6.9999999999999964 133.33333333333334
    endloop
  endfacet
  facet normal -0.258819 -0.965926 0.000000
    outer loop
      vertex -7.000000000000006 -12.124355652982139 116.66666666666667
      vertex -2.5717582782094417e-15 -14 116.66666666666667
      vertex -2.5717582782094417e-15 -14 133.33333333333334
    endloop
  endfacet
  facet normal -0.258819 -0.965926 0.000000
    outer loop
      vertex -7.000000000000006 -12.124355652982139 116.66666666666667
      vertex -2.5717582782094417e-15 -14 133.33333333333334
      vertex -7.000000000000006 -12.124355652982139 133.33333333333334
    endloop
  endfacet
  facet normal 0.258819 -0.965926 0.000000
    outer loop
      vertex -2.5717582782094417e-15 -14 116.66666666666667
      vertex 6.999999999999991 -12.124355652982146 116.66666666666667
      vertex 6.999999999999991 -12.124355652982146 133.33333333333334
    endloop
  endfacet
  facet normal 0.258819 -0.965926 0.000000
    outer loop
      vertex -2.5717582782094417e-15 -14 116.66666666666667
      vertex 6.999999999999991 -12.124355652982146 133.33333333333334
      vertex -2.5717582782094417e-15 -14 133.33333333333334
    endloop
  endfacet
  facet normal 0.707107 -0.707107 0.000000
    outer loop
      vertex 6.999999999999991 -12.124355652982146 116.66666666666667
      vertex 12.124355652982137 -7.000000000000006 116.66666666666667
      vertex 12.124355652982137 -7.000000000000006 133.33333333333334
    endloop
  endfacet
  facet normal 0.707107 -0.707107 0.000000
    outer loop
      vertex 6.999999999999991 -12.124355652982146 116.66666666666667
      vertex 12.124355652982137 -7.000000000000006 133.33333333333334
      vertex 6.999999999999991 -12.124355652982146 133.33333333333334
    endloop
  endfacet
  facet normal 0.965926 -0.258819 0.000000
    outer loop
      vertex 12.124355652982137 -7.000000000000006 116.66666666666667
      vertex 14 0 116.66666666666667
      vertex 14 0 133.33333333333334
    endloop
  endfacet
  facet normal 0.965926 -0.258819 0.000000
    outer loop
      vertex 12.124355652982137 -7.000000000000006 116.66666666666667
      vertex 14 0 133.33333333333334
      vertex 12.124355652982137 -7.000000000000006 133.33333333333334
    endloop
  endfacet
  facet normal 0.965926 0.258819 0.000000
    outer loop
      vertex 14 0 133.33333333333334
      vertex 12.124355652982143 6.999999999999999 133.33333333333334
      vertex 12.124355652982143 6.999999999999999 150
    endloop
  endfacet
  facet normal 0.965926 0.258819 0.000000
    outer loop
      vertex 14 0 133.33333333333334
      vertex 12.124355652982143 6.999999999999999 150
      vertex 14 0 150
    endloop
  endfacet
  facet normal 0.707107 0.707107 0.000000
    outer loop
      vertex 12.124355652982143 6.999999999999999 133.33333333333334
      vertex 7.000000000000002 12.12435565298214 133.33333333333334
      vertex 7.000000000000002 12.12435565298214 150
    endloop
  endfacet
  facet normal 0.707107 0.707107 0.000000
    outer loop
      vertex 12.124355652982143 6.999999999999999 133.33333333333334
      vertex 7.000000000000002 12.12435565298214 150
      vertex 12.124355652982143 6.999999999999999 150
    endloop
  endfacet
  facet normal 0.258819 0.965926 0.000000
    outer loop
      vertex 7.000000000000002 12.12435565298214 133.33333333333334
      vertex 8.572527594031472e-16 14 133.33333333333334
      vertex 8.572527594031472e-16 14 150
    endloop
  endfacet
  facet normal 0.258819 0.965926 0.000000
    outer loop
      vertex 7.000000000000002 12.12435565298214 133.33333333333334
      vertex 8.572527594031472e-16 14 150
      vertex 7.000000000000002 12.12435565298214 150
    endloop
  endfacet
  facet normal -0.258819 0.965926 0.000000
    outer loop
      vertex 8.572527594031472e-16 14 133.33333333333334
      vertex -6.9999999999999964 12.124355652982143 133.33333333333334
      vertex -6.9999999999999964 12.124355652982143 150
    endloop
  endfacet
  facet normal -0.258819 0.965926 0.000000
    outer loop
      vertex 8.572527594031472e-16 14 133.33333333333334
      vertex -6.9999999999999964 12.124355652982143 150
      vertex 8.572527594031472e-16 14 150
    endloop
  endfacet
  facet normal -0.707107 0.707107 0.000000
    outer loop
      vertex -6.9999999999999964 12.124355652982143 133.33333333333334
      vertex -12.124355652982139 7.000000000000004 133.33333333333334
      vertex -12.124355652982139 7.000000000000004 150
    endloop
  endfacet
  facet normal -0.707107 0.707107 0.000000
    outer loop
      vertex -6.9999999999999964 12.124355652982143 133.33333333333334
      vertex -12.124355652982139 7.000000000000004 150
      vertex -6.9999999999999964 12.124355652982143 150
    endloop
  endfacet
  facet normal -0.965926 0.258819 0.000000
    outer loop
      vertex -12.124355652982139 7.000000000000004 133.33333333333334
      vertex -14 1.7145055188062944e-15 133.33333333333334
      vertex -14 1.7145055188062944e-15 150
    endloop
  endfacet
  facet normal -0.965926 0.258819 0.000000
    outer loop
      vertex -12.124355652982139 7.000000000000004 133.33333333333334
      vertex -14 1.7145055188062944e-15 150
      vertex -12.124355652982139 7.000000000000004 150
    endloop
  endfacet
  facet normal -0.965926 -0.258819 0.000000
    outer loop
      vertex -14 1.7145055188062944e-15 133.33333333333334
      vertex -12.124355652982143 -6.9999999999999964 133.33333333333334
      vertex -12.124355652982143 -6.9999999999999964 150
    endloop
  endfacet
  facet normal -0.965926 -0.258819 0.000000
    outer loop
      vertex -14 1.7145055188062944e-15 133.33333333333334
      vertex -12.124355652982143 -6.9999999999999964 150
      vertex -14 1.7145055188062944e-15 150
    endloop
  endfacet
  facet normal -0.707107 -0.707107 0.000000
    outer loop
      vertex -12.124355652982143 -6.9999999999999964 133.33333333333334
      vertex -7.000000000000006 -12.124355652982139 133.33333333333334
      vertex -7.000000000000006 -12.124355652982139 150
    endloop
  endfacet
  facet normal -0.707107 -0.707107 0.000000
    outer loop
      vertex -12.124355652982143 -6.9999999999999964 133.33333333333334
      vertex -7.000000000000006 -12.124355652982139 150
      vertex -12.124355652982143 -6.9999999999999964 150
    endloop
  endfacet
  facet normal -0.258819 -0.965926 0.000000
    outer loop
      vertex -7.000000000000006 -12.124355652982139 133.33333333333334
      vertex -2.5717582782094417e-15 -14 133.33333333333334
      vertex -2.5717582782094417e-15 -14 150
    endloop
  endfacet
  facet normal -0.258819 -0.965926 0.000000
    outer loop
      vertex -7.000000000000006 -12.124355652982139 133.33333333333334
      vertex -2.5717582782094417e-15 -14 150
      vertex -7.000000000000006 -12.124355652982139 150
    endloop
  endfacet
  facet normal 0.258819 -0.965926 0.000000
    outer loop
      vertex -2.5717582782094417e-15 -14 133.33333333333334
      vertex 6.999999999999991 -12.124355652982146 133.33333333333334
      vertex 6.999999999999991 -12.124355652982146 150
    endloop
  endfacet
  facet normal 0.258819 -0.965926 0.000000
    outer loop
      vertex -2.5717582782094417e-15 -14 133.33333333333334
      vertex 6.999999999999991 -12.124355652982146 150
      vertex -2.5717582782094417e-15 -14 150
    endloop
  endfacet
  facet normal 0.707107 -0.707107 0.000000
    outer loop
      vertex 6.999999999999991 -12.124355652982146 133.33333333333334
      vertex 12.124355652982137 -7.000000000000006 133.33333333333334
      vertex 12.124355652982137 -7.000000000000006 150
    endloop
  endfacet
  facet normal 0.707107 -0.707107 0.000000
    outer loop
      vertex 6.999999999999991 -12.124355652982146 133.33333333333334
      vertex 12.124355652982137 -7.000000000000006 150
      vertex 6.999999999999991 -12.124355652982146 150
    endloop
  endfacet
  facet normal 0.965926 -0.258819 0.000000
    outer loop
      vertex 12.124355652982137 -7.000000000000006 133.33333333333334
      vertex 14 0 133.33333333333334
      vertex 14 0 150
    endloop
  endfacet
  facet normal 0.965926 -0.258819 0.000000
    outer loop
      vertex 12.124355652982137 -7.000000000000006 133.33333333333334
      vertex 14 0 150
      vertex 12.124355652982137 -7.000000000000006 150
    endloop
  endfacet
  facet normal 0.942070 0.252427 0.220873
    outer loop
      vertex 14 0 150
      vertex 12.124355652982143 6.999999999999999 150
      vertex 10.500000000000002 6.06217782649107 158
    endloop
  endfacet
  facet normal 0.942070 0.252427 0.220873
    outer loop
      vertex 14 0 150
      vertex 10.500000000000002 6.06217782649107 158
      vertex 12.124355652982143 0 158
    endloop
  endfacet
  facet normal 0.689643 0.689643 0.220873
    outer loop
      vertex 12.124355652982143 6.999999999999999 150
      vertex 7.000000000000002 12.12435565298214 150
      vertex 6.062177826491073 10.5 158
    endloop
  endfacet
  facet normal 0.689643 0.689643 0.220873
    outer loop
      vertex 12.124355652982143 6.999999999999999 150
      vertex 6.062177826491073 10.5 158
      vertex 10.500000000000002 6.06217782649107 158
    endloop
  endfacet
  facet normal 0.252427 0.942070 0.220873
    outer loop
      vertex 7.000000000000002 12.12435565298214 150
      vertex 8.572527594031472e-16 14 150
      vertex 7.424026671074349e-16 12.124355652982143 158
    endloop
  endfacet
  facet normal 0.252427 0.942070 0.220873
    outer loop
      vertex 7.000000000000002 12.12435565298214 150
      vertex 7.424026671074349e-16 12.124355652982143 158
      vertex 6.062177826491073 10.5 158
    endloop
  endfacet
  facet normal -0.252427 0.942070 0.220873
    outer loop
      vertex 8.572527594031472e-16 14 150
      vertex -6.9999999999999964 12.124355652982143 150
      vertex -6.062177826491069 10.500000000000002 158
    endloop
  endfacet
  facet normal -0.252427 0.942070 0.220873
    outer loop
      vertex 8.572527594031472e-16 14 150
      vertex -6.062177826491069 10.500000000000002 158
      vertex 7.424026671074349e-16 12.124355652982143 158
    endloop
  endfacet
  facet normal -0.689643 0.689643 0.220873
    outer loop
      vertex -6.9999999999999964 12.124355652982143 150
      vertex -12.124355652982139 7.000000000000004 150
      vertex -10.5 6.062177826491076 158
    endloop
  endfacet
  facet normal -0.689643 0.689643 0.220873
    outer loop
      vertex -6.9999999999999964 12.124355652982143 150
      vertex -10.5 6.062177826491076 158
      vertex -6.062177826491069 10.500000000000002 158
    endloop
  endfacet
  facet normal -0.942070 0.252427 0.220873
    outer loop
      vertex -12.124355652982139 7.000000000000004 150
      vertex -14 1.7145055188062944e-15 150
      vertex -12.124355652982143 1.4848053342148698e-15 158
    endloop
  endfacet
  facet normal -0.942070 0.252427 0.220873
    outer loop
      vertex -12.124355652982139 7.000000000000004 150
      vertex -12.124355652982143 1.4848053342148698e-15 158
      vertex -10.5 6.062177826491076 158
    endloop
  endfacet
  facet normal -0.942070 -0.252427 0.220873
    outer loop
      vertex -14 1.7145055188062944e-15 150
      vertex -12.124355652982143 -6.9999999999999964 150
      vertex -10.500000000000004 -6.062177826491068 158
    endloop
  endfacet
  facet normal -0.942070 -0.252427 0.220873
    outer loop
      vertex -14 1.7145055188062944e-15 150
      vertex -10.500000000000004 -6.062177826491068 158
      vertex -12.124355652982143 1.4848053342148698e-15 158
    endloop
  endfacet
  facet normal -0.689643 -0.689643 0.220873
    outer loop
      vertex -12.124355652982143 -6.9999999999999964 150
      vertex -7.000000000000006 -12.124355652982139 150
      vertex -6.062177826491077 -10.5 158
    endloop
  endfacet
  facet normal -0.689643 -0.689643 0.220873
    outer loop
      vertex -12.124355652982143 -6.9999999999999964 150
      vertex -6.062177826491077 -10.5 158
      vertex -10.500000000000004 -6.062177826491068 158
    endloop
  endfacet
  facet normal -0.252427 -0.942070 0.220873
    outer loop
      vertex -7.000000000000006 -12.124355652982139 150
      vertex -2.5717582782094417e-15 -14 150
      vertex -2.2272080013223045e-15 -12.124355652982143 158
    endloop
  endfacet
  facet normal -0.252427 -0.942070 0.220873
    outer loop
      vertex -7.000000000000006 -12.124355652982139 150
      vertex -2.2272080013223045e-15 -12.124355652982143 158
      vertex -6.062177826491077 -10.5 158
    endloop
  endfacet
  facet normal 0.252427 -0.942070 0.220873
    outer loop
      vertex -2.5717582782094417e-15 -14 150
      vertex 6.999999999999991 -12.124355652982146 150
      vertex 6.062177826491063 -10.500000000000005 158
    endloop
  endfacet
  facet normal 0.252427 -0.942070 0.220873
    outer loop
      vertex -2.5717582782094417e-15 -14 150
      vertex 6.062177826491063 -10.500000000000005 158
      vertex -2.2272080013223045e-15 -12.124355652982143 158
    endloop
  endfacet
  facet normal 0.689643 -0.689643 0.220873
    outer loop
      vertex 6.999999999999991 -12.124355652982146 150
      vertex 12.124355652982137 -7.000000000000006 150
      vertex 10.499999999999998 -6.062177826491077 158
    endloop
  endfacet
  facet normal 0.689643 -0.689643 0.220873
    outer loop
      vertex 6.999999999999991 -12.124355652982146 150
      vertex 10.499999999999998 -6.062177826491077 158
      vertex 6.062177826491063 -10.500000000000005 158
    endloop
  endfacet
  facet normal 0.942070 -0.252427 0.220873
    outer loop
      vertex 12.124355652982137 -7.000000000000006 150
      vertex 14 0 150
      vertex 12.124355652982143 0 158
    endloop
  endfacet
  facet normal 0.942070 -0.252427 0.220873
    outer loop
      vertex 12.124355652982137 -7.000000000000006 150
      vertex 12.124355652982143 0 158
      vertex 10.499999999999998 -6.062177826491077 158
    endloop
  endfacet
  facet normal 0.737727 0.197673 0.645511
    outer loop
      vertex 12.124355652982143 0 158
      vertex 10.500000000000002 6.06217782649107 158
      vertex 7.000000000000002 0 163.85640646055103
    endloop
  endfacet
  facet normal 0.737727 0.197673 0.645511
    outer loop
      vertex 10.500000000000002 6.06217782649107 158
      vertex 6.062177826491072 3.5000000000000004 163.85640646055103
      vertex 7.000000000000002 0 163.85640646055103
    endloop
  endfacet
  facet normal 0.540054 0.540054 0.645511
    outer loop
      vertex 10.500000000000002 6.06217782649107 158
      vertex 6.062177826491073 10.5 158
      vertex 3.5000000000000018 6.062177826491071 163.85640646055103
    endloop
  endfacet
  facet normal 0.540054 0.540054 0.645511
    outer loop
      vertex 10.500000000000002 6.06217782649107 158
      vertex 3.5000000000000018 6.062177826491071 163.85640646055103
      vertex 6.062177826491072 3.5000000000000004 163.85640646055103
    endloop
  endfacet
  facet normal 0.197673 0.737727 0.645511
    outer loop
      vertex 6.062177826491073 10.5 158
      vertex 7.424026671074349e-16 12.124355652982143 158
      vertex 4.286263797015737e-16 7.000000000000002 163.85640646055103
    endloop
  endfacet
  facet normal 0.197673 0.737727 0.645511
    outer loop
      vertex 6.062177826491073 10.5 158
      vertex 4.286263797015737e-16 7.000000000000002 163.85640646055103
      vertex 3.5000000000000018 6.062177826491071 163.85640646055103
    endloop
  endfacet
  facet normal -0.197673 0.737727 0.645511
    outer loop
      vertex 7.424026671074349e-16 12.124355652982143 158
      vertex -6.062177826491069 10.500000000000002 158
      vertex -3.499999999999999 6.062177826491072 163.85640646055103
    endloop
  endfacet
  facet normal -0.197673 0.737727 0.645511
    outer loop
      vertex 7.424026671074349e-16 12.124355652982143 158
      vertex -3.499999999999999 6.062177826491072 163.85640646055103
      vertex 4.286263797015737e-16 7.000000000000002 163.85640646055103
    endloop
  endfacet
  facet normal -0.540054 0.540054 0.645511
    outer loop
      vertex -6.062177826491069 10.500000000000002 158
      vertex -10.5 6.062177826491076 158
      vertex -6.062177826491071 3.500000000000003 163.85640646055103
    endloop
  endfacet
  facet normal -0.540054 0.540054 0.645511
    outer loop
      vertex -6.062177826491069 10.500000000000002 158
      vertex -6.062177826491071 3.500000000000003 163.85640646055103
      vertex -3.499999999999999 6.062177826491072 163.85640646055103
    endloop
  endfacet
  facet normal -0.737727 0.197673 0.645511
    outer loop
      vertex -10.5 6.062177826491076 158
      vertex -12.124355652982143 1.4848053342148698e-15 158
      vertex -7.000000000000002 8.572527594031474e-16 163.85640646055103
    endloop
  endfacet
  facet normal -0.737727 0.197673 0.645511
    outer loop
      vertex -10.5 6.062177826491076 158
      vertex -7.000000000000002 8.572527594031474e-16 163.85640646055103
      vertex -6.062177826491071 3.500000000000003 163.85640646055103
    endloop
  endfacet
  facet normal -0.737727 -0.197673 0.645511
    outer loop
      vertex -12.124355652982143 1.4848053342148698e-15 158
      vertex -10.500000000000004 -6.062177826491068 158
      vertex -6.062177826491073 -3.499999999999999 163.85640646055103
    endloop
  endfacet
  facet normal -0.737727 -0.197673 0.645511
    outer loop
      vertex -12.124355652982143 1.4848053342148698e-15 158
      vertex -6.062177826491073 -3.499999999999999 163.85640646055103
      vertex -7.000000000000002 8.572527594031474e-16 163.85640646055103
    endloop
  endfacet
  facet normal -0.540054 -0.540054 0.645511
    outer loop
      vertex -10.500000000000004 -6.062177826491068 158
      vertex -6.062177826491077 -10.5 158
      vertex -3.500000000000004 -6.062177826491071 163.85640646055103
    endloop
  endfacet
  facet normal -0.540054 -0.540054 0.645511
    outer loop
      vertex -10.500000000000004 -6.062177826491068 158
      vertex -3.500000000000004 -6.062177826491071 163.85640646055103
      vertex -6.062177826491073 -3.499999999999999 163.85640646055103
    endloop
  endfacet
  facet normal -0.197673 -0.737727 0.645511
    outer loop
      vertex -6.062177826491077 -10.5 158
      vertex -2.2272080013223045e-15 -12.124355652982143 158
      vertex -3.500000000000004 -6.062177826491071 163.85640646055103
    endloop
  endfacet
  facet normal -0.197673 -0.737727 0.645511
    outer loop
      vertex -2.2272080013223045e-15 -12.124355652982143 158
      vertex -1.285879139104721e-15 -7.000000000000002 163.85640646055103
      vertex -3.500000000000004 -6.062177826491071 163.85640646055103
    endloop
  endfacet
  facet normal 0.197673 -0.737727 0.645511
    outer loop
      vertex -2.2272080013223045e-15 -12.124355652982143 158
      vertex 6.062177826491063 -10.500000000000005 158
      vertex 3.499999999999996 -6.062177826491075 163.85640646055103
    endloop
  endfacet
  facet normal 0.197673 -0.737727 0.645511
    outer loop
      vertex -2.2272080013223045e-15 -12.124355652982143 158
      vertex 3.499999999999996 -6.062177826491075 163.85640646055103
      vertex -1.285879139104721e-15 -7.000000000000002 163.85640646055103
    endloop
  endfacet
  facet normal 0.540054 -0.540054 0.645511
    outer loop
      vertex 6.062177826491063 -10.500000000000005 158
      vertex 10.499999999999998 -6.062177826491077 158
      vertex 6.06217782649107 -3.500000000000004 163.85640646055103
    endloop
  endfacet
  facet normal 0.540054 -0.540054 0.645511
    outer loop
      vertex 6.062177826491063 -10.500000000000005 158
      vertex 6.06217782649107 -3.500000000000004 163.85640646055103
      vertex 3.499999999999996 -6.062177826491075 163.85640646055103
    endloop
  endfacet
  facet normal 0.737727 -0.197673 0.645511
    outer loop
      vertex 10.499999999999998 -6.062177826491077 158
      vertex 12.124355652982143 0 158
      vertex 7.000000000000002 0 163.85640646055103
    endloop
  endfacet
  facet normal 0.737727 -0.197673 0.645511
    outer loop
      vertex 10.499999999999998 -6.062177826491077 158
      vertex 7.000000000000002 0 163.85640646055103
      vertex 6.06217782649107 -3.500000000000004 163.85640646055103
    endloop
  endfacet
  facet normal 0.291909 0.078217 0.953242
    outer loop
      vertex 7.000000000000002 0 163.85640646055103
      vertex 6.062177826491072 3.5000000000000004 163.85640646055103
      vertex 7.424026671074348e-16 4.2862637970157356e-16 166
    endloop
  endfacet
  facet normal 0.213692 0.213692 0.953242
    outer loop
      vertex 6.062177826491072 3.5000000000000004 163.85640646055103
      vertex 3.5000000000000018 6.062177826491071 163.85640646055103
      vertex 4.286263797015737e-16 7.424026671074347e-16 166
    endloop
  endfacet
  facet normal 0.078217 0.291909 0.953242
    outer loop
      vertex 3.5000000000000018 6.062177826491071 163.85640646055103
      vertex 4.286263797015737e-16 7.000000000000002 163.85640646055103
      vertex 4.286263797015737e-16 7.424026671074347e-16 166
    endloop
  endfacet
  facet normal -0.078217 0.291909 0.953242
    outer loop
      vertex 4.286263797015737e-16 7.000000000000002 163.85640646055103
      vertex -3.499999999999999 6.062177826491072 163.85640646055103
      vertex -4.286263797015734e-16 7.424026671074348e-16 166
    endloop
  endfacet
  facet normal -0.213692 0.213692 0.953242
    outer loop
      vertex -3.499999999999999 6.062177826491072 163.85640646055103
      vertex -6.062177826491071 3.500000000000003 163.85640646055103
      vertex -7.424026671074346e-16 4.286263797015739e-16 166
    endloop
  endfacet
  facet normal -0.291909 0.078217 0.953242
    outer loop
      vertex -6.062177826491071 3.500000000000003 163.85640646055103
      vertex -7.000000000000002 8.572527594031474e-16 163.85640646055103
      vertex -7.424026671074346e-16 4.286263797015739e-16 166
    endloop
  endfacet
  facet normal -0.291909 -0.078217 0.953242
    outer loop
      vertex -7.000000000000002 8.572527594031474e-16 163.85640646055103
      vertex -6.062177826491073 -3.499999999999999 163.85640646055103
      vertex -7.424026671074349e-16 -4.2862637970157336e-16 166
    endloop
  endfacet
  facet normal -0.213692 -0.213692 0.953242
    outer loop
      vertex -6.062177826491073 -3.499999999999999 163.85640646055103
      vertex -3.500000000000004 -6.062177826491071 163.85640646055103
      vertex -4.28626379701574e-16 -7.424026671074346e-16 166
    endloop
  endfacet
  facet normal -0.078217 -0.291909 0.953242
    outer loop
      vertex -3.500000000000004 -6.062177826491071 163.85640646055103
      vertex -1.285879139104721e-15 -7.000000000000002 163.85640646055103
      vertex -4.28626379701574e-16 -7.424026671074346e-16 166
    endloop
  endfacet
  facet normal 0.078217 -0.291909 0.953242
    outer loop
      vertex -1.285879139104721e-15 -7.000000000000002 163.85640646055103
      vertex 3.499999999999996 -6.062177826491075 163.85640646055103
      vertex 4.28626379701573e-16 -7.424026671074351e-16 166
    endloop
  endfacet
  facet normal 0.213692 -0.213692 0.953242
    outer loop
      vertex 3.499999999999996 -6.062177826491075 163.85640646055103
      vertex 6.06217782649107 -3.500000000000004 163.85640646055103
      vertex 7.424026671074346e-16 -4.28626379701574e-16 166
    endloop
  endfacet
  facet normal 0.291909 -0.078217 0.953242
    outer loop
      vertex 6.06217782649107 -3.500000000000004 163.85640646055103
      vertex 7.000000000000002 0 163.85640646055103
      vertex 7.424026671074346e-16 -4.28626379701574e-16 166
    endloop
  endfacet
endsolid thermometer_tube
