solid thermometer_bulb
  facet normal 0.000000 0.000000 -1.000000
    outer loop
      vertex -1.3322676295501878e-15 -3.3306690738754696e-16 -32.45656565656566
      vertex 4.676537180435968 2.699999999999999 -32.45656565656566
      vertex 5.399999999999999 -2.331468351712829e-16 -32.45656565656566
    endloop
  endfacet
  facet normal 0.000000 0.000000 -1.000000
    outer loop
      vertex -1.3322676295501878e-15 -3.3306690738754696e-16 -32.45656565656566
      vertex 2.6999999999999997 4.676537180435968 -32.45656565656566
      vertex 4.676537180435968 2.699999999999999 -32.45656565656566
    endloop
  endfacet
  facet normal 0.000000 0.000000 -1.000000
    outer loop
      vertex -1.3322676295501878e-15 -3.3306690738754696e-16 -32.45656565656566
      vertex -6.019327049153462e-16 5.3999999999999995 -32.45656565656566
      vertex 2.6999999999999997 4.676537180435968 -32.45656565656566
    endloop
  endfacet
  facet normal 0.000000 0.000000 -1.000000
    outer loop
      vertex -1.3322676295501878e-15 -3.3306690738754696e-16 -32.45656565656566
      vertex -2.6999999999999997 4.676537180435969 -32.45656565656566
      vertex -6.019327049153462e-16 5.3999999999999995 -32.45656565656566
    endloop
  endfacet
  facet normal 0.000000 0.000000 -1.000000
    outer loop
      vertex -1.3322676295501878e-15 -3.3306690738754696e-16 -32.45656565656566
      vertex -4.67653718043597 2.699999999999999 -32.45656565656566
      vertex -2.6999999999999997 4.676537180435969 -32.45656565656566
    endloop
  endfacet
  facet normal 0.000000 0.000000 -1.000000
    outer loop
      vertex -1.3322676295501878e-15 -3.3306690738754696e-16 -32.45656565656566
      vertex -5.4 4.281624363682878e-16 -32.45656565656566
      vertex -4.67653718043597 2.699999999999999 -32.45656565656566
    endloop
  endfacet
  facet normal 0.000000 0.000000 -1.000000
    outer loop
      vertex -1.3322676295501878e-15 -3.3306690738754696e-16 -32.45656565656566
      vertex -4.67653718043597 -2.699999999999999 -32.45656565656566
      vertex -5.4 4.281624363682878e-16 -32.45656565656566
    endloop
  endfacet
  facet normal 0.000000 0.000000 -1.000000
    outer loop
      vertex -1.3322676295501878e-15 -3.3306690738754696e-16 -32.45656565656566
      vertex -2.700000000000003 -4.676537180435967 -32.45656565656566
      vertex -4.67653718043597 -2.699999999999999 -32.45656565656566
    endloop
  endfacet
  facet normal 0.000000 0.000000 -1.000000
    outer loop
      vertex -1.3322676295501878e-15 -3.3306690738754696e-16 -32.45656565656566
      vertex -1.9245512479944875e-15 -5.3999999999999995 -32.45656565656566
      vertex -2.700000000000003 -4.676537180435967 -32.45656565656566
    endloop
  endfacet
  facet normal 0.000000 0.000000 -1.000000
    outer loop
      vertex -1.3322676295501878e-15 -3.3306690738754696e-16 -32.45656565656566
      vertex 2.6999999999999997 -4.676537180435968 -32.45656565656566
      vertex -1.9245512479944875e-15 -5.3999999999999995 -32.45656565656566
    endloop
  endfacet
  facet normal 0.000000 0.000000 -1.000000
    outer loop
      vertex -1.3322676295501878e-15 -3.3306690738754696e-16 -32.45656565656566
      vertex 4.676537180435966 -2.7000000000000024 -32.45656565656566
      vertex 2.6999999999999997 -4.676537180435968 -32.45656565656566
    endloop
  endfacet
  facet normal 0.000000 0.000000 -1.000000
    outer loop
      vertex -1.3322676295501878e-15 -3.3306690738754696e-16 -32.45656565656566
      vertex 5.399999999999999 -2.331468351712829e-16 -32.45656565656566
      vertex 4.676537180435966 -2.7000000000000024 -32.45656565656566
    endloop
  endfacet
  facet normal 0.587798 0.157500 -0.793528
    outer loop
      vertex 5.399999999999999 -2.331468351712829e-16 -32.45656565656566
      vertex 4.676537180435968 2.699999999999999 -32.45656565656566
      vertex 12.959999999999997 -9.325873406851313e-17 -26.856565656565653
    endloop
  endfacet
  facet normal 0.587798 0.157500 -0.793528
    outer loop
      vertex 4.676537180435968 2.699999999999999 -32.45656565656566
      vertex 11.223689233046324 6.479999999999999 -26.856565656565653
      vertex 12.959999999999997 -9.325873406851313e-17 -26.856565656565653
    endloop
  endfacet
  facet normal 0.430298 0.430298 -0.793528
    outer loop
      vertex 4.676537180435968 2.699999999999999 -32.45656565656566
      vertex 2.6999999999999997 4.676537180435968 -32.45656565656566
      vertex 6.48 11.223689233046324 -26.856565656565653
    endloop
  endfacet
  facet normal 0.430298 0.430298 -0.793528
    outer loop
      vertex 4.676537180435968 2.699999999999999 -32.45656565656566
      vertex 6.48 11.223689233046324 -26.856565656565653
      vertex 11.223689233046324 6.479999999999999 -26.856565656565653
    endloop
  endfacet
  facet normal 0.157500 0.587798 -0.793528
    outer loop
      vertex 2.6999999999999997 4.676537180435968 -32.45656565656566
      vertex -6.019327049153462e-16 5.3999999999999995 -32.45656565656566
      vertex 4.2053618957343216e-16 12.959999999999999 -26.856565656565653
    endloop
  endfacet
  facet normal 0.157500 0.587798 -0.793528
    outer loop
      vertex 2.6999999999999997 4.676537180435968 -32.45656565656566
      vertex 4.2053618957343216e-16 12.959999999999999 -26.856565656565653
      vertex 6.48 11.223689233046324 -26.856565656565653
    endloop
  endfacet
  facet normal -0.157500 0.587798 -0.793528
    outer loop
      vertex -6.019327049153462e-16 5.3999999999999995 -32.45656565656566
      vertex -2.6999999999999997 4.676537180435969 -32.45656565656566
      vertex 4.2053618957343216e-16 12.959999999999999 -26.856565656565653
    endloop
  endfacet
  facet normal -0.157500 0.587798 -0.793528
    outer loop
      vertex -2.6999999999999997 4.676537180435969 -32.45656565656566
      vertex -6.479999999999997 11.223689233046326 -26.856565656565653
      vertex 4.2053618957343216e-16 12.959999999999999 -26.856565656565653
    endloop
  endfacet
  facet normal -0.430298 0.430298 -0.793528
    outer loop
      vertex -2.6999999999999997 4.676537180435969 -32.45656565656566
      vertex -4.67653718043597 2.699999999999999 -32.45656565656566
      vertex -6.479999999999997 11.223689233046326 -26.856565656565653
    endloop
  endfacet
  facet normal -0.430298 0.430298 -0.793528
    outer loop
      vertex -4.67653718043597 2.699999999999999 -32.45656565656566
      vertex -11.223689233046326 6.479999999999999 -26.856565656565653
      vertex -6.479999999999997 11.223689233046326 -26.856565656565653
    endloop
  endfacet
  facet normal -0.587798 0.157500 -0.793528
    outer loop
      vertex -4.67653718043597 2.699999999999999 -32.45656565656566
      vertex -5.4 4.281624363682878e-16 -32.45656565656566
      vertex -12.96 1.4938835176264567e-15 -26.856565656565653
    endloop
  endfacet
  facet normal -0.587798 0.157500 -0.793528
    outer loop
      vertex -4.67653718043597 2.699999999999999 -32.45656565656566
      vertex -12.96 1.4938835176264567e-15 -26.856565656565653
      vertex -11.223689233046326 6.479999999999999 -26.856565656565653
    endloop
  endfacet
  facet normal -0.587798 -0.157500 -0.793528
    outer loop
      vertex -5.4 4.281624363682878e-16 -32.45656565656566
      vertex -4.67653718043597 -2.699999999999999 -32.45656565656566
      vertex -11.223689233046327 -6.479999999999996 -26.856565656565653
    endloop
  endfacet
  facet normal -0.587798 -0.157500 -0.793528
    outer loop
      vertex -5.4 4.281624363682878e-16 -32.45656565656566
      vertex -11.223689233046327 -6.479999999999996 -26.856565656565653
      vertex -12.96 1.4938835176264567e-15 -26.856565656565653
    endloop
  endfacet
  facet normal -0.430298 -0.430298 -0.793528
    outer loop
      vertex -4.67653718043597 -2.699999999999999 -32.45656565656566
      vertex -2.700000000000003 -4.676537180435967 -32.45656565656566
      vertex -6.480000000000006 -11.223689233046322 -26.856565656565653
    endloop
  endfacet
  facet normal -0.430298 -0.430298 -0.793528
    outer loop
      vertex -4.67653718043597 -2.699999999999999 -32.45656565656566
      vertex -6.480000000000006 -11.223689233046322 -26.856565656565653
      vertex -11.223689233046327 -6.479999999999996 -26.856565656565653
    endloop
  endfacet
  facet normal -0.157500 -0.587798 -0.793528
    outer loop
      vertex -2.700000000000003 -4.676537180435967 -32.45656565656566
      vertex -1.9245512479944875e-15 -5.3999999999999995 -32.45656565656566
      vertex -2.7537483138165072e-15 -12.959999999999999 -26.856565656565653
    endloop
  endfacet
  facet normal -0.157500 -0.587798 -0.793528
    outer loop
      vertex -2.700000000000003 -4.676537180435967 -32.45656565656566
      vertex -2.7537483138165072e-15 -12.959999999999999 -26.856565656565653
      vertex -6.480000000000006 -11.223689233046322 -26.856565656565653
    endloop
  endfacet
  facet normal 0.157500 -0.587798 -0.793528
    outer loop
      vertex -1.9245512479944875e-15 -5.3999999999999995 -32.45656565656566
      vertex 2.6999999999999997 -4.676537180435968 -32.45656565656566
      vertex -2.7537483138165072e-15 -12.959999999999999 -26.856565656565653
    endloop
  endfacet
  facet normal 0.157500 -0.587798 -0.793528
    outer loop
      vertex 2.6999999999999997 -4.676537180435968 -32.45656565656566
      vertex 6.48 -11.223689233046324 -26.856565656565653
      vertex -2.7537483138165072e-15 -12.959999999999999 -26.856565656565653
    endloop
  endfacet
  facet normal 0.430298 -0.430298 -0.793528
    outer loop
      vertex 2.6999999999999997 -4.676537180435968 -32.45656565656566
      vertex 4.676537180435966 -2.7000000000000024 -32.45656565656566
      vertex 11.22368923304632 -6.480000000000005 -26.856565656565653
    endloop
  endfacet
  facet normal 0.430298 -0.430298 -0.793528
    outer loop
      vertex 2.6999999999999997 -4.676537180435968 -32.45656565656566
      vertex 11.22368923304632 -6.480000000000005 -26.856565656565653
      vertex 6.48 -11.223689233046324 -26.856565656565653
    endloop
  endfacet
  facet normal 0.587798 -0.157500 -0.793528
    outer loop
      vertex 4.676537180435966 -2.7000000000000024 -32.45656565656566
      vertex 5.399999999999999 -2.331468351712829e-16 -32.45656565656566
      vertex 12.959999999999997 -9.325873406851313e-17 -26.856565656565653
    endloop
  endfacet
  facet normal 0.587798 -0.157500 -0.793528
    outer loop
      vertex 4.676537180435966 -2.7000000000000024 -32.45656565656566
      vertex 12.959999999999997 -9.325873406851313e-17 -26.856565656565653
      vertex 11.22368923304632 -6.480000000000005 -26.856565656565653
    endloop
  endfacet
  facet normal 0.858072 0.229920 -0.459184
    outer loop
      vertex 12.959999999999997 -9.325873406851313e-17 -26.856565656565653
      vertex 11.223689233046324 6.479999999999999 -26.856565656565653
      vertex 14.653149832032701 8.459999999999997 -19.456565656565655
    endloop
  endfacet
  facet normal 0.858072 0.229920 -0.459184
    outer loop
      vertex 12.959999999999997 -9.325873406851313e-17 -26.856565656565653
      vertex 14.653149832032701 8.459999999999997 -19.456565656565655
      vertex 16.919999999999998 -1.9984014443252835e-17 -19.456565656565655
    endloop
  endfacet
  facet normal 0.628152 0.628152 -0.459184
    outer loop
      vertex 11.223689233046324 6.479999999999999 -26.856565656565653
      vertex 6.48 11.223689233046324 -26.856565656565653
      vertex 8.46 14.6531498320327 -19.456565656565655
    endloop
  endfacet
  facet normal 0.628152 0.628152 -0.459184
    outer loop
      vertex 11.223689233046324 6.479999999999999 -26.856565656565653
      vertex 8.46 14.6531498320327 -19.456565656565655
      vertex 14.653149832032701 8.459999999999997 -19.456565656565655
    endloop
  endfacet
  facet normal 0.229920 0.858072 -0.459184
    outer loop
      vertex 6.48 11.223689233046324 -26.856565656565653
      vertex 4.2053618957343216e-16 12.959999999999999 -26.856565656565653
      vertex 9.561151343056493e-16 16.919999999999998 -19.456565656565655
    endloop
  endfacet
  facet normal 0.229920 0.858072 -0.459184
    outer loop
      vertex 6.48 11.223689233046324 -26.856565656565653
      vertex 9.561151343056493e-16 16.919999999999998 -19.456565656565655
      vertex 8.46 14.6531498320327 -19.456565656565655
    endloop
  endfacet
  facet normal -0.229920 0.858072 -0.459184
    outer loop
      vertex 4.2053618957343216e-16 12.959999999999999 -26.856565656565653
      vertex -6.479999999999997 11.223689233046326 -26.856565656565653
      vertex -8.459999999999996 14.653149832032701 -19.456565656565655
    endloop
  endfacet
  facet normal -0.229920 0.858072 -0.459184
    outer loop
      vertex 4.2053618957343216e-16 12.959999999999999 -26.856565656565653
      vertex -8.459999999999996 14.653149832032701 -19.456565656565655
      vertex 9.561151343056493e-16 16.919999999999998 -19.456565656565655
    endloop
  endfacet
  facet normal -0.628152 0.628152 -0.459184
    outer loop
      vertex -6.479999999999997 11.223689233046326 -26.856565656565653
      vertex -11.223689233046326 6.479999999999999 -26.856565656565653
      vertex -14.653149832032701 8.459999999999997 -19.456565656565655
    endloop
  endfacet
  facet normal -0.628152 0.628152 -0.459184
    outer loop
      vertex -6.479999999999997 11.223689233046326 -26.856565656565653
      vertex -14.653149832032701 8.459999999999997 -19.456565656565655
      vertex -8.459999999999996 14.653149832032701 -19.456565656565655
    endloop
  endfacet
  facet normal -0.858072 0.229920 -0.459184
    outer loop
      vertex -11.223689233046326 6.479999999999999 -26.856565656565653
      vertex -12.96 1.4938835176264567e-15 -26.856565656565653
      vertex -14.653149832032701 8.459999999999997 -19.456565656565655
    endloop
  endfacet
  facet normal -0.858072 0.229920 -0.459184
    outer loop
      vertex -12.96 1.4938835176264567e-15 -26.856565656565653
      vertex -16.919999999999998 2.052118369714069e-15 -19.456565656565655
      vertex -14.653149832032701 8.459999999999997 -19.456565656565655
    endloop
  endfacet
  facet normal -0.858072 -0.229920 -0.459184
    outer loop
      vertex -12.96 1.4938835176264567e-15 -26.856565656565653
      vertex -11.223689233046327 -6.479999999999996 -26.856565656565653
      vertex -14.653149832032705 -8.459999999999994 -19.456565656565655
    endloop
  endfacet
  facet normal -0.858072 -0.229920 -0.459184
    outer loop
      vertex -12.96 1.4938835176264567e-15 -26.856565656565653
      vertex -14.653149832032705 -8.459999999999994 -19.456565656565655
      vertex -16.919999999999998 2.052118369714069e-15 -19.456565656565655
    endloop
  endfacet
  facet normal -0.628152 -0.628152 -0.459184
    outer loop
      vertex -11.223689233046327 -6.479999999999996 -26.856565656565653
      vertex -6.480000000000006 -11.223689233046322 -26.856565656565653
      vertex -14.653149832032705 -8.459999999999994 -19.456565656565655
    endloop
  endfacet
  facet normal -0.628152 -0.628152 -0.459184
    outer loop
      vertex -6.480000000000006 -11.223689233046322 -26.856565656565653
      vertex -8.460000000000006 -14.653149832032698 -19.456565656565655
      vertex -14.653149832032705 -8.459999999999994 -19.456565656565655
    endloop
  endfacet
  facet normal -0.229920 -0.858072 -0.459184
    outer loop
      vertex -6.480000000000006 -11.223689233046322 -26.856565656565653
      vertex -2.7537483138165072e-15 -12.959999999999999 -26.856565656565653
      vertex -3.1880896340089933e-15 -16.919999999999998 -19.456565656565655
    endloop
  endfacet
  facet normal -0.229920 -0.858072 -0.459184
    outer loop
      vertex -6.480000000000006 -11.223689233046322 -26.856565656565653
      vertex -3.1880896340089933e-15 -16.919999999999998 -19.456565656565655
      vertex -8.460000000000006 -14.653149832032698 -19.456565656565655
    endloop
  endfacet
  facet normal 0.229920 -0.858072 -0.459184
    outer loop
      vertex -2.7537483138165072e-15 -12.959999999999999 -26.856565656565653
      vertex 6.48 -11.223689233046324 -26.856565656565653
      vertex -3.1880896340089933e-15 -16.919999999999998 -19.456565656565655
    endloop
  endfacet
  facet normal 0.229920 -0.858072 -0.459184
    outer loop
      vertex 6.48 -11.223689233046324 -26.856565656565653
      vertex 8.46 -14.6531498320327 -19.456565656565655
      vertex -3.1880896340089933e-15 -16.919999999999998 -19.456565656565655
    endloop
  endfacet
  facet normal 0.628152 -0.628152 -0.459184
    outer loop
      vertex 6.48 -11.223689233046324 -26.856565656565653
      vertex 11.22368923304632 -6.480000000000005 -26.856565656565653
      vertex 14.653149832032696 -8.460000000000006 -19.456565656565655
    endloop
  endfacet
  facet normal 0.628152 -0.628152 -0.459184
    outer loop
      vertex 6.48 -11.223689233046324 -26.856565656565653
      vertex 14.653149832032696 -8.460000000000006 -19.456565656565655
      vertex 8.46 -14.6531498320327 -19.456565656565655
    endloop
  endfacet
  facet normal 0.858072 -0.229920 -0.459184
    outer loop
      vertex 11.22368923304632 -6.480000000000005 -26.856565656565653
      vertex 12.959999999999997 -9.325873406851313e-17 -26.856565656565653
      vertex 16.919999999999998 -1.9984014443252835e-17 -19.456565656565655
    endloop
  endfacet
  facet normal 0.858072 -0.229920 -0.459184
    outer loop
      vertex 11.22368923304632 -6.480000000000005 -26.856565656565653
      vertex 16.919999999999998 -1.9984014443252835e-17 -19.456565656565655
      vertex 14.653149832032696 -8.460000000000006 -19.456565656565655
    endloop
  endfacet
  facet normal 0.955375 0.255992 -0.147401
    outer loop
      vertex 16.919999999999998 -1.9984014443252835e-17 -19.456565656565655
      vertex 14.653149832032701 8.459999999999997 -19.456565656565655
      vertex 18 0 -12.456565656565655
    endloop
  endfacet
  facet normal 0.955375 0.255992 -0.147401
    outer loop
      vertex 14.653149832032701 8.459999999999997 -19.456565656565655
      vertex 15.588457268119896 8.999999999999998 -12.456565656565655
      vertex 18 0 -12.456565656565655
    endloop
  endfacet
  facet normal 0.699383 0.699383 -0.147401
    outer loop
      vertex 14.653149832032701 8.459999999999997 -19.456565656565655
      vertex 8.46 14.6531498320327 -19.456565656565655
      vertex 9.000000000000002 15.588457268119894 -12.456565656565655
    endloop
  endfacet
  facet normal 0.699383 0.699383 -0.147401
    outer loop
      vertex 14.653149832032701 8.459999999999997 -19.456565656565655
      vertex 9.000000000000002 15.588457268119894 -12.456565656565655
      vertex 15.588457268119896 8.999999999999998 -12.456565656565655
    endloop
  endfacet
  facet normal 0.255992 0.955375 -0.147401
    outer loop
      vertex 8.46 14.6531498320327 -19.456565656565655
      vertex 9.561151343056493e-16 16.919999999999998 -19.456565656565655
      vertex 9.000000000000002 15.588457268119894 -12.456565656565655
    endloop
  endfacet
  facet normal 0.255992 0.955375 -0.147401
    outer loop
      vertex 9.561151343056493e-16 16.919999999999998 -19.456565656565655
      vertex 1.102182119232618e-15 18 -12.456565656565655
      vertex 9.000000000000002 15.588457268119894 -12.456565656565655
    endloop
  endfacet
  facet normal -0.255992 0.955375 -0.147401
    outer loop
      vertex 9.561151343056493e-16 16.919999999999998 -19.456565656565655
      vertex -8.459999999999996 14.653149832032701 -19.456565656565655
      vertex 1.102182119232618e-15 18 -12.456565656565655
    endloop
  endfacet
  facet normal -0.255992 0.955375 -0.147401
    outer loop
      vertex -8.459999999999996 14.653149832032701 -19.456565656565655
      vertex -8.999999999999996 15.588457268119896 -12.456565656565655
      vertex 1.102182119232618e-15 18 -12.456565656565655
    endloop
  endfacet
  facet normal -0.699383 0.699383 -0.147401
    outer loop
      vertex -8.459999999999996 14.653149832032701 -19.456565656565655
      vertex -14.653149832032701 8.459999999999997 -19.456565656565655
      vertex -15.588457268119896 8.999999999999998 -12.456565656565655
    endloop
  endfacet
  facet normal -0.699383 0.699383 -0.147401
    outer loop
      vertex -8.459999999999996 14.653149832032701 -19.456565656565655
      vertex -15.588457268119896 8.999999999999998 -12.456565656565655
      vertex -8.999999999999996 15.588457268119896 -12.456565656565655
    endloop
  endfacet
  facet normal -0.955375 0.255992 -0.147401
    outer loop
      vertex -14.653149832032701 8.459999999999997 -19.456565656565655
      vertex -16.919999999999998 2.052118369714069e-15 -19.456565656565655
      vertex -18 2.204364238465236e-15 -12.456565656565655
    endloop
  endfacet
  facet normal -0.955375 0.255992 -0.147401
    outer loop
      vertex -14.653149832032701 8.459999999999997 -19.456565656565655
      vertex -18 2.204364238465236e-15 -12.456565656565655
      vertex -15.588457268119896 8.999999999999998 -12.456565656565655
    endloop
  endfacet
  facet normal -0.955375 -0.255992 -0.147401
    outer loop
      vertex -16.919999999999998 2.052118369714069e-15 -19.456565656565655
      vertex -14.653149832032705 -8.459999999999994 -19.456565656565655
      vertex -15.5884572681199 -8.999999999999995 -12.456565656565655
    endloop
  endfacet
  facet normal -0.955375 -0.255992 -0.147401
    outer loop
      vertex -16.919999999999998 2.052118369714069e-15 -19.456565656565655
      vertex -15.5884572681199 -8.999999999999995 -12.456565656565655
      vertex -18 2.204364238465236e-15 -12.456565656565655
    endloop
  endfacet
  facet normal -0.699383 -0.699383 -0.147401
    outer loop
      vertex -14.653149832032705 -8.459999999999994 -19.456565656565655
      vertex -8.460000000000006 -14.653149832032698 -19.456565656565655
      vertex -15.5884572681199 -8.999999999999995 -12.456565656565655
    endloop
  endfacet
  facet normal -0.699383 -0.699383 -0.147401
    outer loop
      vertex -8.460000000000006 -14.653149832032698 -19.456565656565655
      vertex -9.000000000000007 -15.588457268119893 -12.456565656565655
      vertex -15.5884572681199 -8.999999999999995 -12.456565656565655
    endloop
  endfacet
  facet normal -0.255992 -0.955375 -0.147401
    outer loop
      vertex -8.460000000000006 -14.653149832032698 -19.456565656565655
      vertex -3.1880896340089933e-15 -16.919999999999998 -19.456565656565655
      vertex -3.3065463576978533e-15 -18 -12.456565656565655
    endloop
  endfacet
  facet normal -0.255992 -0.955375 -0.147401
    outer loop
      vertex -8.460000000000006 -14.653149832032698 -19.456565656565655
      vertex -3.3065463576978533e-15 -18 -12.456565656565655
      vertex -9.000000000000007 -15.588457268119893 -12.456565656565655
    endloop
  endfacet
  facet normal 0.255992 -0.955375 -0.147401
    outer loop
      vertex -3.1880896340089933e-15 -16.919999999999998 -19.456565656565655
      vertex 8.46 -14.6531498320327 -19.456565656565655
      vertex 9.000000000000002 -15.588457268119894 -12.456565656565655
    endloop
  endfacet
  facet normal 0.255992 -0.955375 -0.147401
    outer loop
      vertex -3.1880896340089933e-15 -16.919999999999998 -19.456565656565655
      vertex 9.000000000000002 -15.588457268119894 -12.456565656565655
      vertex -3.3065463576978533e-15 -18 -12.456565656565655
    endloop
  endfacet
  facet normal 0.699383 -0.699383 -0.147401
    outer loop
      vertex 8.46 -14.6531498320327 -19.456565656565655
      vertex 14.653149832032696 -8.460000000000006 -19.456565656565655
      vertex 15.58845726811989 -9.000000000000007 -12.456565656565655
    endloop
  endfacet
  facet normal 0.699383 -0.699383 -0.147401
    outer loop
      vertex 8.46 -14.6531498320327 -19.456565656565655
      vertex 15.58845726811989 -9.000000000000007 -12.456565656565655
      vertex 9.000000000000002 -15.588457268119894 -12.456565656565655
    endloop
  endfacet
  facet normal 0.955375 -0.255992 -0.147401
    outer loop
      vertex 14.653149832032696 -8.460000000000006 -19.456565656565655
      vertex 16.919999999999998 -1.9984014443252835e-17 -19.456565656565655
      vertex 18 0 -12.456565656565655
    endloop
  endfacet
  facet normal 0.955375 -0.255992 -0.147401
    outer loop
      vertex 14.653149832032696 -8.460000000000006 -19.456565656565655
      vertex 18 0 -12.456565656565655
      vertex 15.58845726811989 -9.000000000000007 -12.456565656565655
    endloop
  endfacet
  facet normal 0.955375 0.255992 0.147401
    outer loop
      vertex 18 0 -12.456565656565655
      vertex 15.588457268119896 8.999999999999998 -12.456565656565655
      vertex 14.653149832032701 8.459999999999997 -5.456565656565655
    endloop
  endfacet
  facet normal 0.955375 0.255992 0.147401
    outer loop
      vertex 18 0 -12.456565656565655
      vertex 14.653149832032701 8.459999999999997 -5.456565656565655
      vertex 16.919999999999998 -1.9984014443252835e-17 -5.456565656565655
    endloop
  endfacet
  facet normal 0.699383 0.699383 0.147401
    outer loop
      vertex 15.588457268119896 8.999999999999998 -12.456565656565655
      vertex 9.000000000000002 15.588457268119894 -12.456565656565655
      vertex 8.46 14.6531498320327 -5.456565656565655
    endloop
  endfacet
  facet normal 0.699383 0.699383 0.147401
    outer loop
      vertex 15.588457268119896 8.999999999999998 -12.456565656565655
      vertex 8.46 14.6531498320327 -5.456565656565655
      vertex 14.653149832032701 8.459999999999997 -5.456565656565655
    endloop
  endfacet
  facet normal 0.255992 0.955375 0.147401
    outer loop
      vertex 9.000000000000002 15.588457268119894 -12.456565656565655
      vertex 1.102182119232618e-15 18 -12.456565656565655
      vertex 9.561151343056493e-16 16.919999999999998 -5.456565656565655
    endloop
  endfacet
  facet normal 0.255992 0.955375 0.147401
    outer loop
      vertex 9.000000000000002 15.588457268119894 -12.456565656565655
      vertex 9.561151343056493e-16 16.919999999999998 -5.456565656565655
      vertex 8.46 14.6531498320327 -5.456565656565655
    endloop
  endfacet
  facet normal -0.255992 0.955375 0.147401
    outer loop
      vertex 1.102182119232618e-15 18 -12.456565656565655
      vertex -8.999999999999996 15.588457268119896 -12.456565656565655
      vertex -8.459999999999996 14.653149832032701 -5.456565656565655
    endloop
  endfacet
  facet normal -0.255992 0.955375 0.147401
    outer loop
      vertex 1.102182119232618e-15 18 -12.456565656565655
      vertex -8.459999999999996 14.653149832032701 -5.456565656565655
      vertex 9.561151343056493e-16 16.919999999999998 -5.456565656565655
    endloop
  endfacet
  facet normal -0.699383 0.699383 0.147401
    outer loop
      vertex -8.999999999999996 15.588457268119896 -12.456565656565655
      vertex -15.588457268119896 8.999999999999998 -12.456565656565655
      vertex -14.653149832032701 8.459999999999997 -5.456565656565655
    endloop
  endfacet
  facet normal -0.699383 0.699383 0.147401
    outer loop
      vertex -8.999999999999996 15.588457268119896 -12.456565656565655
      vertex -14.653149832032701 8.459999999999997 -5.456565656565655
      vertex -8.459999999999996 14.653149832032701 -5.456565656565655
    endloop
  endfacet
  facet normal -0.955375 0.255992 0.147401
    outer loop
      vertex -15.588457268119896 8.999999999999998 -12.456565656565655
      vertex -18 2.204364238465236e-15 -12.456565656565655
      vertex -16.919999999999998 2.052118369714069e-15 -5.456565656565655
    endloop
  endfacet
  facet normal -0.955375 0.255992 0.147401
    outer loop
      vertex -15.588457268119896 8.999999999999998 -12.456565656565655
      vertex -16.919999999999998 2.052118369714069e-15 -5.456565656565655
      vertex -14.653149832032701 8.459999999999997 -5.456565656565655
    endloop
  endfacet
  facet normal -0.955375 -0.255992 0.147401
    outer loop
      vertex -18 2.204364238465236e-15 -12.456565656565655
      vertex -15.5884572681199 -8.999999999999995 -12.456565656565655
      vertex -14.653149832032705 -8.459999999999994 -5.456565656565655
    endloop
  endfacet
  facet normal -0.955375 -0.255992 0.147401
    outer loop
      vertex -18 2.204364238465236e-15 -12.456565656565655
      vertex -14.653149832032705 -8.459999999999994 -5.456565656565655
      vertex -16.919999999999998 2.052118369714069e-15 -5.456565656565655
    endloop
  endfacet
  facet normal -0.699383 -0.699383 0.147401
    outer loop
      vertex -15.5884572681199 -8.999999999999995 -12.456565656565655
      vertex -9.000000000000007 -15.588457268119893 -12.456565656565655
      vertex -8.460000000000006 -14.653149832032698 -5.456565656565655
    endloop
  endfacet
  facet normal -0.699383 -0.699383 0.147401
    outer loop
      vertex -15.5884572681199 -8.999999999999995 -12.456565656565655
      vertex -8.460000000000006 -14.653149832032698 -5.456565656565655
      vertex -14.653149832032705 -8.459999999999994 -5.456565656565655
    endloop
  endfacet
  facet normal -0.255992 -0.955375 0.147401
    outer loop
      vertex -9.000000000000007 -15.588457268119893 -12.456565656565655
      vertex -3.3065463576978533e-15 -18 -12.456565656565655
      vertex -3.1880896340089933e-15 -16.919999999999998 -5.456565656565655
    endloop
  endfacet
  facet normal -0.255992 -0.955375 0.147401
    outer loop
      vertex -9.000000000000007 -15.588457268119893 -12.456565656565655
      vertex -3.1880896340089933e-15 -16.919999999999998 -5.456565656565655
      vertex -8.460000000000006 -14.653149832032698 -5.456565656565655
    endloop
  endfacet
  facet normal 0.255992 -0.955375 0.147401
    outer loop
      vertex -3.3065463576978533e-15 -18 -12.456565656565655
      vertex 9.000000000000002 -15.588457268119894 -12.456565656565655
      vertex 8.46 -14.6531498320327 -5.456565656565655
    endloop
  endfacet
  facet normal 0.255992 -0.955375 0.147401
    outer loop
      vertex -3.3065463576978533e-15 -18 -12.456565656565655
      vertex 8.46 -14.6531498320327 -5.456565656565655
      vertex -3.1880896340089933e-15 -16.919999999999998 -5.456565656565655
    endloop
  endfacet
  facet normal 0.699383 -0.699383 0.147401
    outer loop
      vertex 9.000000000000002 -15.588457268119894 -12.456565656565655
      vertex 15.58845726811989 -9.000000000000007 -12.456565656565655
      vertex 14.653149832032696 -8.460000000000006 -5.456565656565655
    endloop
  endfacet
  facet normal 0.699383 -0.699383 0.147401
    outer loop
      vertex 9.000000000000002 -15.588457268119894 -12.456565656565655
      vertex 14.653149832032696 -8.460000000000006 -5.456565656565655
      vertex 8.46 -14.6531498320327 -5.456565656565655
    endloop
  endfacet
  facet normal 0.955375 -0.255992 0.147401
    outer loop
      vertex 15.58845726811989 -9.000000000000007 -12.456565656565655
      vertex 18 0 -12.456565656565655
      vertex 16.919999999999998 -1.9984014443252835e-17 -5.456565656565655
    endloop
  endfacet
  facet normal 0.955375 -0.255992 0.147401
    outer loop
      vertex 15.58845726811989 -9.000000000000007 -12.456565656565655
      vertex 16.919999999999998 -1.9984014443252835e-17 -5.456565656565655
      vertex 14.653149832032696 -8.460000000000006 -5.456565656565655
    endloop
  endfacet
  facet normal 0.858072 0.229920 0.459184
    outer loop
      vertex 16.919999999999998 -1.9984014443252835e-17 -5.456565656565655
      vertex 14.653149832032701 8.459999999999997 -5.456565656565655
      vertex 13.999999999999998 -7.401486830834375e-17 0
    endloop
  endfacet
  facet normal 0.858072 0.229920 0.459184
    outer loop
      vertex 14.653149832032701 8.459999999999997 -5.456565656565655
      vertex 12.12435565298214 6.999999999999999 0
      vertex 13.999999999999998 -7.401486830834375e-17 0
    endloop
  endfacet
  facet normal 0.628152 0.628152 0.459184
    outer loop
      vertex 14.653149832032701 8.459999999999997 -5.456565656565655
      vertex 8.46 14.6531498320327 -5.456565656565655
      vertex 7.000000000000002 12.12435565298214 0
    endloop
  endfacet
  facet normal 0.628152 0.628152 0.459184
    outer loop
      vertex 14.653149832032701 8.459999999999997 -5.456565656565655
      vertex 7.000000000000002 12.12435565298214 0
      vertex 12.12435565298214 6.999999999999999 0
    endloop
  endfacet
  facet normal 0.229920 0.858072 0.459184
    outer loop
      vertex 8.46 14.6531498320327 -5.456565656565655
      vertex 9.561151343056493e-16 16.919999999999998 -5.456565656565655
      vertex 5.611932861697724e-16 14 0
    endloop
  endfacet
  facet normal 0.229920 0.858072 0.459184
    outer loop
      vertex 8.46 14.6531498320327 -5.456565656565655
      vertex 5.611932861697724e-16 14 0
      vertex 7.000000000000002 12.12435565298214 0
    endloop
  endfacet
  facet normal -0.229920 0.858072 0.459184
    outer loop
      vertex 9.561151343056493e-16 16.919999999999998 -5.456565656565655
      vertex -8.459999999999996 14.653149832032701 -5.456565656565655
      vertex -6.9999999999999964 12.12435565298214 0
    endloop
  endfacet
  facet normal -0.229920 0.858072 0.459184
    outer loop
      vertex 9.561151343056493e-16 16.919999999999998 -5.456565656565655
      vertex -6.9999999999999964 12.12435565298214 0
      vertex 5.611932861697724e-16 14 0
    endloop
  endfacet
  facet normal -0.628152 0.628152 0.459184
    outer loop
      vertex -8.459999999999996 14.653149832032701 -5.456565656565655
      vertex -14.653149832032701 8.459999999999997 -5.456565656565655
      vertex -12.124355652982143 6.999999999999999 0
    endloop
  endfacet
  facet normal -0.628152 0.628152 0.459184
    outer loop
      vertex -8.459999999999996 14.653149832032701 -5.456565656565655
      vertex -12.124355652982143 6.999999999999999 0
      vertex -6.9999999999999964 12.12435565298214 0
    endloop
  endfacet
  facet normal -0.858072 0.229920 0.459184
    outer loop
      vertex -14.653149832032701 8.459999999999997 -5.456565656565655
      vertex -16.919999999999998 2.052118369714069e-15 -5.456565656565655
      vertex -12.124355652982143 6.999999999999999 0
    endloop
  endfacet
  facet normal -0.858072 0.229920 0.459184
    outer loop
      vertex -16.919999999999998 2.052118369714069e-15 -5.456565656565655
      vertex -14.000000000000002 1.640490650497951e-15 0
      vertex -12.124355652982143 6.999999999999999 0
    endloop
  endfacet
  facet normal -0.858072 -0.229920 0.459184
    outer loop
      vertex -16.919999999999998 2.052118369714069e-15 -5.456565656565655
      vertex -14.653149832032705 -8.459999999999994 -5.456565656565655
      vertex -12.124355652982144 -6.999999999999996 0
    endloop
  endfacet
  facet normal -0.858072 -0.229920 0.459184
    outer loop
      vertex -16.919999999999998 2.052118369714069e-15 -5.456565656565655
      vertex -12.124355652982144 -6.999999999999996 0
      vertex -14.000000000000002 1.640490650497951e-15 0
    endloop
  endfacet
  facet normal -0.628152 -0.628152 0.459184
    outer loop
      vertex -14.653149832032705 -8.459999999999994 -5.456565656565655
      vertex -8.460000000000006 -14.653149832032698 -5.456565656565655
      vertex -12.124355652982144 -6.999999999999996 0
    endloop
  endfacet
  facet normal -0.628152 -0.628152 0.459184
    outer loop
      vertex -8.460000000000006 -14.653149832032698 -5.456565656565655
      vertex -7.000000000000005 -12.124355652982139 0
      vertex -12.124355652982144 -6.999999999999996 0
    endloop
  endfacet
  facet normal -0.229920 -0.858072 0.459184
    outer loop
      vertex -8.460000000000006 -14.653149832032698 -5.456565656565655
      vertex -3.1880896340089933e-15 -16.919999999999998 -5.456565656565655
      vertex -2.867817751442817e-15 -14 0
    endloop
  endfacet
  facet normal -0.229920 -0.858072 0.459184
    outer loop
      vertex -8.460000000000006 -14.653149832032698 -5.456565656565655
      vertex -2.867817751442817e-15 -14 0
      vertex -7.000000000000005 -12.124355652982139 0
    endloop
  endfacet
  facet normal 0.229920 -0.858072 0.459184
    outer loop
      vertex -3.1880896340089933e-15 -16.919999999999998 -5.456565656565655
      vertex 8.46 -14.6531498320327 -5.456565656565655
      vertex 7.000000000000002 -12.12435565298214 0
    endloop
  endfacet
  facet normal 0.229920 -0.858072 0.459184
    outer loop
      vertex -3.1880896340089933e-15 -16.919999999999998 -5.456565656565655
      vertex 7.000000000000002 -12.12435565298214 0
      vertex -2.867817751442817e-15 -14 0
    endloop
  endfacet
  facet normal 0.628152 -0.628152 0.459184
    outer loop
      vertex 8.46 -14.6531498320327 -5.456565656565655
      vertex 14.653149832032696 -8.460000000000006 -5.456565656565655
      vertex 12.124355652982137 -7.000000000000005 0
    endloop
  endfacet
  facet normal 0.628152 -0.628152 0.459184
    outer loop
      vertex 8.46 -14.6531498320327 -5.456565656565655
      vertex 12.124355652982137 -7.000000000000005 0
      vertex 7.000000000000002 -12.12435565298214 0
    endloop
  endfacet
  facet normal 0.858072 -0.229920 0.459184
    outer loop
      vertex 14.653149832032696 -8.460000000000006 -5.456565656565655
      vertex 16.919999999999998 -1.9984014443252835e-17 -5.456565656565655
      vertex 13.999999999999998 -7.401486830834375e-17 0
    endloop
  endfacet
  facet normal 0.858072 -0.229920 0.459184
    outer loop
      vertex 14.653149832032696 -8.460000000000006 -5.456565656565655
      vertex 13.999999999999998 -7.401486830834375e-17 0
      vertex 12.124355652982137 -7.000000000000005 0
    endloop
  endfacet
  facet normal 0.000000 0.000000 1.000000
    outer loop
      vertex -1.3322676295501878e-15 -3.3306690738754696e-16 0
      vertex 13.999999999999998 -7.401486830834375e-17 0
      vertex 12.12435565298214 6.999999999999999 0
    endloop
  endfacet
  facet normal 0.000000 0.000000 1.000000
    outer loop
      vertex -1.3322676295501878e-15 -3.3306690738754696e-16 0
      vertex 12.12435565298214 6.999999999999999 0
      vertex 7.000000000000002 12.12435565298214 0
    endloop
  endfacet
  facet normal 0.000000 0.000000 1.000000
    outer loop
      vertex -1.3322676295501878e-15 -3.3306690738754696e-16 0
      vertex 7.000000000000002 12.12435565298214 0
      vertex 5.611932861697724e-16 14 0
    endloop
  endfacet
  facet normal 0.000000 0.000000 1.000000
    outer loop
      vertex -1.3322676295501878e-15 -3.3306690738754696e-16 0
      vertex 5.611932861697724e-16 14 0
      vertex -6.9999999999999964 12.12435565298214 0
    endloop
  endfacet
  facet normal 0.000000 0.000000 1.000000
    outer loop
      vertex -1.3322676295501878e-15 -3.3306690738754696e-16 0
      vertex -6.9999999999999964 12.12435565298214 0
      vertex -12.124355652982143 6.999999999999999 0
    endloop
  endfacet
  facet normal 0.000000 0.000000 1.000000
    outer loop
      vertex -1.3322676295501878e-15 -3.3306690738754696e-16 0
      vertex -12.124355652982143 6.999999999999999 0
      vertex -14.000000000000002 1.640490650497951e-15 0
    endloop
  endfacet
  facet normal 0.000000 0.000000 1.000000
    outer loop
      vertex -1.3322676295501878e-15 -3.3306690738754696e-16 0
      vertex -14.000000000000002 1.640490650497951e-15 0
      vertex -12.124355652982144 -6.999999999999996 0
    endloop
  endfacet
  facet normal 0.000000 0.000000 1.000000
    outer loop
      vertex -1.3322676295501878e-15 -3.3306690738754696e-16 0
      vertex -12.124355652982144 -6.999999999999996 0
      vertex -7.000000000000005 -12.124355652982139 0
    endloop
  endfacet
  facet normal 0.000000 0.000000 1.000000
    outer loop
      vertex -1.3322676295501878e-15 -3.3306690738754696e-16 0
      vertex -7.000000000000005 -12.124355652982139 0
      vertex -2.867817751442817e-15 -14 0
    endloop
  endfacet
  facet normal 0.000000 0.000000 1.000000
    outer loop
      vertex -1.3322676295501878e-15 -3.3306690738754696e-16 0
      vertex -2.867817751442817e-15 -14 0
      vertex 7.000000000000002 -12.12435565298214 0
    endloop
  endfacet
  facet normal 0.000000 0.000000 1.000000
    outer loop
      vertex -1.3322676295501878e-15 -3.3306690738754696e-16 0
      vertex 7.000000000000002 -12.12435565298214 0
      vertex 12.124355652982137 -7.000000000000005 0
    endloop
  endfacet
  facet normal 0.000000 0.000000 1.000000
    outer loop
      vertex -1.3322676295501878e-15 -3.3306690738754696e-16 0
      vertex 12.124355652982137 -7.000000000000005 0
      vertex 13.999999999999998 -7.401486830834375e-17 0
    endloop
  endfacet
endsolid thermometer_bulb
