<svg xmlns="http://www.w3.org/2000/svg" viewBox="0 0 480 480" width="480" height="480" role="img"><polygon points="117.71,347.61 216.31,347.61 136.69,454" fill="#f6f8fc" stroke="#c2c9d6" stroke-width="0.5"/><polygon points="117.71,347.61 61.23,208.46 216.31,347.61" fill="#f6f8fc" stroke="#c2c9d6" stroke-width="0.5"/><polygon points="117.71,347.61 56.61,380.38 61.23,208.46" fill="#f6f8fc" stroke="#c2c9d6" stroke-width="0.5"/><polygon points="117.71,347.61 136.69,454 56.61,380.38" fill="#f6f8fc" stroke="#c2c9d6" stroke-width="0.5"/><polygon points="453.78,267.6 356.61,358.23 289.62,344.16" fill="#f6f8fc" stroke="#c2c9d6" stroke-width="0.5"/><polygon points="453.78,267.6 289.62,344.16 451.58,193.11" fill="#f6f8fc" stroke="#c2c9d6" stroke-width="0.5"/><polygon points="216.31,347.61 61.23,208.46 284.69,344.66" fill="#f6f8fc" stroke="#c2c9d6" stroke-width="0.5"/><polygon points="61.23,208.46 26.22,112.74 284.69,344.66" fill="#f6f8fc" stroke="#c2c9d6" stroke-width="0.5"/><polygon points="113.21,49.14 283.63,26 312.33,66.95" fill="#f6f8fc" stroke="#c2c9d6" stroke-width="0.5"/><polygon points="113.21,49.14 312.33,66.95 28.29,105.52" fill="#f6f8fc" stroke="#c2c9d6" stroke-width="0.5"/><polygon points="358.36,42.39 440.19,114.06 315.54,68.21" fill="#f6f8fc" stroke="#c2c9d6" stroke-width="0.5"/><polygon points="440.19,114.06 451.92,187.65 315.54,68.21" fill="#f6f8fc" stroke="#c2c9d6" stroke-width="0.5"/><polygon points="451.58,193.11 289.62,344.16 377.42,185.73" fill="#f6f8fc" stroke="#c2c9d6" stroke-width="0.5"/><polygon points="289.62,344.16 280.24,276.36 377.42,185.73" fill="#f6f8fc" stroke="#c2c9d6" stroke-width="0.5"/><polygon points="284.69,344.66 26.22,112.74 125.16,137.21" fill="#f6f8fc" stroke="#c2c9d6" stroke-width="0.5"/><polygon points="284.69,344.66 125.16,137.21 280.24,276.36" fill="#f6f8fc" stroke="#c2c9d6" stroke-width="0.5"/><polygon points="28.29,105.52 312.33,66.95 125.16,137.21" fill="#f6f8fc" stroke="#c2c9d6" stroke-width="0.5"/><polygon points="312.33,66.95 295.59,114.06 125.16,137.21" fill="#f6f8fc" stroke="#c2c9d6" stroke-width="0.5"/><polygon points="315.54,68.21 451.92,187.65 377.42,185.73" fill="#f6f8fc" stroke="#c2c9d6" stroke-width="0.5"/><polygon points="315.54,68.21 377.42,185.73 295.59,114.06" fill="#f6f8fc" stroke="#c2c9d6" stroke-width="0.5"/><polygon points="269.6,178.34 377.42,185.73 280.24,276.36" fill="#f6f8fc" stroke="#c2c9d6" stroke-width="0.5"/><polygon points="269.6,178.34 280.24,276.36 125.16,137.21" fill="#f6f8fc" stroke="#c2c9d6" stroke-width="0.5"/><polygon points="269.6,178.34 125.16,137.21 295.59,114.06" fill="#f6f8fc" stroke="#c2c9d6" stroke-width="0.5"/><polygon points="269.6,178.34 295.59,114.06 377.42,185.73" fill="#f6f8fc" stroke="#c2c9d6" stroke-width="0.5"/><line x1="117.71" y1="347.61" x2="216.31" y2="347.61" stroke="#c2c9d6" stroke-width="0.6" stroke-linecap="round"/><line x1="216.31" y1="347.61" x2="136.69" y2="454" stroke="#1f2328" stroke-width="1.8" stroke-linecap="round"/><line x1="117.71" y1="347.61" x2="136.69" y2="454" stroke="#c2c9d6" stroke-width="0.6" stroke-linecap="round"/><line x1="117.71" y1="347.61" x2="61.23" y2="208.46" stroke="#c2c9d6" stroke-width="0.6" stroke-linecap="round"/><line x1="216.31" y1="347.61" x2="61.23" y2="208.46" stroke="#c2410c" stroke-width="1.4" stroke-linecap="round"/><line x1="117.71" y1="347.61" x2="56.61" y2="380.38" stroke="#c2c9d6" stroke-width="0.6" stroke-linecap="round"/><line x1="61.23" y1="208.46" x2="56.61" y2="380.38" stroke="#1f2328" stroke-width="1.8" stroke-linecap="round"/><line x1="136.69" y1="454" x2="56.61" y2="380.38" stroke="#1f2328" stroke-width="1.8" stroke-linecap="round"/><line x1="356.61" y1="358.23" x2="453.78" y2="267.6" stroke="#1f2328" stroke-width="1.8" stroke-linecap="round"/><line x1="356.61" y1="358.23" x2="289.62" y2="344.16" stroke="#1f2328" stroke-width="1.8" stroke-linecap="round"/><line x1="453.78" y1="267.6" x2="289.62" y2="344.16" stroke="#c2c9d6" stroke-width="0.6" stroke-linecap="round"/><line x1="289.62" y1="344.16" x2="451.58" y2="193.11" stroke="#c2410c" stroke-width="1.4" stroke-linecap="round"/><line x1="453.78" y1="267.6" x2="451.58" y2="193.11" stroke="#1f2328" stroke-width="1.8" stroke-linecap="round"/><line x1="61.23" y1="208.46" x2="284.69" y2="344.66" stroke="#c2c9d6" stroke-width="0.6" stroke-linecap="round"/><line x1="216.31" y1="347.61" x2="284.69" y2="344.66" stroke="#1f2328" stroke-width="1.8" stroke-linecap="round"/><line x1="61.23" y1="208.46" x2="26.22" y2="112.74" stroke="#1f2328" stroke-width="1.8" stroke-linecap="round"/><line x1="284.69" y1="344.66" x2="26.22" y2="112.74" stroke="#c2410c" stroke-width="1.4" stroke-linecap="round"/><line x1="113.21" y1="49.14" x2="283.63" y2="26" stroke="#1f2328" stroke-width="1.8" stroke-linecap="round"/><line x1="283.63" y1="26" x2="312.33" y2="66.95" stroke="#1f2328" stroke-width="1.8" stroke-linecap="round"/><line x1="113.21" y1="49.14" x2="312.33" y2="66.95" stroke="#c2c9d6" stroke-width="0.6" stroke-linecap="round"/><line x1="28.29" y1="105.52" x2="312.33" y2="66.95" stroke="#c2410c" stroke-width="1.4" stroke-linecap="round"/><line x1="113.21" y1="49.14" x2="28.29" y2="105.52" stroke="#1f2328" stroke-width="1.8" stroke-linecap="round"/><line x1="440.19" y1="114.06" x2="358.36" y2="42.39" stroke="#1f2328" stroke-width="1.8" stroke-linecap="round"/><line x1="440.19" y1="114.06" x2="315.54" y2="68.21" stroke="#c2c9d6" stroke-width="0.6" stroke-linecap="round"/><line x1="358.36" y1="42.39" x2="315.54" y2="68.21" stroke="#1f2328" stroke-width="1.8" stroke-linecap="round"/><line x1="440.19" y1="114.06" x2="451.92" y2="187.65" stroke="#1f2328" stroke-width="1.8" stroke-linecap="round"/><line x1="451.92" y1="187.65" x2="315.54" y2="68.21" stroke="#c2410c" stroke-width="1.4" stroke-linecap="round"/><line x1="289.62" y1="344.16" x2="377.42" y2="185.73" stroke="#c2c9d6" stroke-width="0.6" stroke-linecap="round"/><line x1="451.58" y1="193.11" x2="377.42" y2="185.73" stroke="#1f2328" stroke-width="1.8" stroke-linecap="round"/><line x1="289.62" y1="344.16" x2="280.24" y2="276.36" stroke="#1f2328" stroke-width="1.8" stroke-linecap="round"/><line x1="377.42" y1="185.73" x2="280.24" y2="276.36" stroke="#c2410c" stroke-width="1.4" stroke-linecap="round"/><line x1="26.22" y1="112.74" x2="125.16" y2="137.21" stroke="#1f2328" stroke-width="1.8" stroke-linecap="round"/><line x1="284.69" y1="344.66" x2="125.16" y2="137.21" stroke="#c2c9d6" stroke-width="0.6" stroke-linecap="round"/><line x1="280.24" y1="276.36" x2="125.16" y2="137.21" stroke="#c2410c" stroke-width="1.4" stroke-linecap="round"/><line x1="284.69" y1="344.66" x2="280.24" y2="276.36" stroke="#1f2328" stroke-width="1.8" stroke-linecap="round"/><line x1="312.33" y1="66.95" x2="125.16" y2="137.21" stroke="#c2c9d6" stroke-width="0.6" stroke-linecap="round"/><line x1="28.29" y1="105.52" x2="125.16" y2="137.21" stroke="#1f2328" stroke-width="1.8" stroke-linecap="round"/><line x1="312.33" y1="66.95" x2="295.59" y2="114.06" stroke="#1f2328" stroke-width="1.8" stroke-linecap="round"/><line x1="125.16" y1="137.21" x2="295.59" y2="114.06" stroke="#c2410c" stroke-width="1.4" stroke-linecap="round"/><line x1="451.92" y1="187.65" x2="377.42" y2="185.73" stroke="#1f2328" stroke-width="1.8" stroke-linecap="round"/><line x1="315.54" y1="68.21" x2="377.42" y2="185.73" stroke="#c2c9d6" stroke-width="0.6" stroke-linecap="round"/><line x1="377.42" y1="185.73" x2="295.59" y2="114.06" stroke="#c2410c" stroke-width="1.4" stroke-linecap="round"/><line x1="315.54" y1="68.21" x2="295.59" y2="114.06" stroke="#1f2328" stroke-width="1.8" stroke-linecap="round"/><line x1="377.42" y1="185.73" x2="269.6" y2="178.34" stroke="#c2c9d6" stroke-width="0.6" stroke-linecap="round"/><line x1="280.24" y1="276.36" x2="269.6" y2="178.34" stroke="#c2c9d6" stroke-width="0.6" stroke-linecap="round"/><line x1="125.16" y1="137.21" x2="269.6" y2="178.34" stroke="#c2c9d6" stroke-width="0.6" stroke-linecap="round"/><line x1="295.59" y1="114.06" x2="269.6" y2="178.34" stroke="#c2c9d6" stroke-width="0.6" stroke-linecap="round"/></svg>
