<svg xmlns="http://www.w3.org/2000/svg" viewBox="0 0 480 480" width="480" height="480" role="img"><polygon points="178.22,150.62 229.03,150.62 203.63,174.9" fill="#f6f8fc" stroke="#c2c9d6" stroke-width="0.5"/><polygon points="229.03,150.62 253.83,175.53 203.63,174.9" fill="#f6f8fc" stroke="#c2c9d6" stroke-width="0.5"/><polygon points="229.03,150.62 279.83,151.89 253.83,175.53" fill="#f6f8fc" stroke="#c2c9d6" stroke-width="0.5"/><polygon points="279.83,151.89 303.99,177.41 253.83,175.53" fill="#f6f8fc" stroke="#c2c9d6" stroke-width="0.5"/><polygon points="279.83,151.89 330.58,154.43 303.99,177.41" fill="#f6f8fc" stroke="#c2c9d6" stroke-width="0.5"/><polygon points="330.58,154.43 354.1,180.54 303.99,177.41" fill="#f6f8fc" stroke="#c2c9d6" stroke-width="0.5"/><polygon points="330.58,154.43 381.25,158.23 354.1,180.54" fill="#f6f8fc" stroke="#c2c9d6" stroke-width="0.5"/><polygon points="381.25,158.23 404.11,184.92 354.1,180.54" fill="#f6f8fc" stroke="#c2c9d6" stroke-width="0.5"/><polygon points="381.25,158.23 431.81,163.29 404.11,184.92" fill="#f6f8fc" stroke="#c2c9d6" stroke-width="0.5"/><polygon points="431.81,163.29 454,190.54 404.11,184.92" fill="#f6f8fc" stroke="#c2c9d6" stroke-width="0.5"/><polygon points="26,158.23 76.67,154.43 53.15,180.54" fill="#f6f8fc" stroke="#c2c9d6" stroke-width="0.5"/><polygon points="76.67,154.43 103.26,177.41 53.15,180.54" fill="#f6f8fc" stroke="#c2c9d6" stroke-width="0.5"/><polygon points="76.67,154.43 127.42,151.89 103.26,177.41" fill="#f6f8fc" stroke="#c2c9d6" stroke-width="0.5"/><polygon points="127.42,151.89 153.43,175.53 103.26,177.41" fill="#f6f8fc" stroke="#c2c9d6" stroke-width="0.5"/><polygon points="127.42,151.89 178.22,150.62 153.43,175.53" fill="#f6f8fc" stroke="#c2c9d6" stroke-width="0.5"/><polygon points="178.22,150.62 203.63,174.9 153.43,175.53" fill="#f6f8fc" stroke="#c2c9d6" stroke-width="0.5"/><polygon points="203.63,174.9 253.83,175.53 228.42,199.32" fill="#f6f8fc" stroke="#c2c9d6" stroke-width="0.5"/><polygon points="203.63,174.9 227.6,200.13 178.83,199.32" fill="#f6f8fc" stroke="#c2c9d6" stroke-width="0.5"/><polygon points="253.83,175.53 303.99,177.41 278.01,200.56" fill="#f6f8fc" stroke="#c2c9d6" stroke-width="0.5"/><polygon points="253.83,175.53 277.16,201.35 228.42,199.32" fill="#f6f8fc" stroke="#c2c9d6" stroke-width="0.5"/><polygon points="303.99,177.41 354.1,180.54 327.54,203.03" fill="#f6f8fc" stroke="#c2c9d6" stroke-width="0.5"/><polygon points="303.99,177.41 326.68,203.8 278.01,200.56" fill="#f6f8fc" stroke="#c2c9d6" stroke-width="0.5"/><polygon points="354.1,180.54 404.11,184.92 377,206.74" fill="#f6f8fc" stroke="#c2c9d6" stroke-width="0.5"/><polygon points="354.1,180.54 377,206.74 328.31,203.9" fill="#f6f8fc" stroke="#c2c9d6" stroke-width="0.5"/><polygon points="404.11,184.92 454,190.54 426.35,211.68" fill="#f6f8fc" stroke="#c2c9d6" stroke-width="0.5"/><polygon points="404.11,184.92 425.45,212.41 377,206.74" fill="#f6f8fc" stroke="#c2c9d6" stroke-width="0.5"/><polygon points="53.15,180.54 103.26,177.41 79.71,203.03" fill="#f6f8fc" stroke="#c2c9d6" stroke-width="0.5"/><polygon points="53.15,180.54 79.71,203.03 31.13,207.49" fill="#f6f8fc" stroke="#c2c9d6" stroke-width="0.5"/><polygon points="103.26,177.41 153.43,175.53 129.24,200.56" fill="#f6f8fc" stroke="#c2c9d6" stroke-width="0.5"/><polygon points="103.26,177.41 128.46,201.41 79.71,203.03" fill="#f6f8fc" stroke="#c2c9d6" stroke-width="0.5"/><polygon points="153.43,175.53 203.63,174.9 178.83,199.32" fill="#f6f8fc" stroke="#c2c9d6" stroke-width="0.5"/><polygon points="153.43,175.53 178.83,199.32 130.09,201.35" fill="#f6f8fc" stroke="#c2c9d6" stroke-width="0.5"/><polygon points="178.83,199.32 227.6,200.13 202.86,221.03" fill="#f6f8fc" stroke="#c2c9d6" stroke-width="0.5"/><polygon points="228.42,199.32 251.91,221.62 205.57,222.27" fill="#f6f8fc" stroke="#c2c9d6" stroke-width="0.5"/><polygon points="228.42,199.32 277.16,201.35 251.91,221.62" fill="#f6f8fc" stroke="#c2c9d6" stroke-width="0.5"/><polygon points="277.16,201.35 298.03,226.11 251.91,221.62" fill="#f6f8fc" stroke="#c2c9d6" stroke-width="0.5"/><polygon points="278.01,200.56 326.68,203.8 300.93,223.44" fill="#f6f8fc" stroke="#c2c9d6" stroke-width="0.5"/><polygon points="328.31,203.9 351.41,226.59 305.07,226.47" fill="#f6f8fc" stroke="#c2c9d6" stroke-width="0.5"/><polygon points="328.31,203.9 377,206.74 351.41,226.59" fill="#f6f8fc" stroke="#c2c9d6" stroke-width="0.5"/><polygon points="377,206.74 398.75,230.74 352.5,227.92" fill="#f6f8fc" stroke="#c2c9d6" stroke-width="0.5"/><polygon points="377,206.74 425.45,212.41 398.75,230.74" fill="#f6f8fc" stroke="#c2c9d6" stroke-width="0.5"/><polygon points="425.45,212.41 444.41,238.67 398.75,230.74" fill="#f6f8fc" stroke="#c2c9d6" stroke-width="0.5"/><polygon points="31.13,207.49 79.71,203.03 57.37,226.48" fill="#f6f8fc" stroke="#c2c9d6" stroke-width="0.5"/><polygon points="79.71,203.03 103.68,224.81 57.37,226.48" fill="#f6f8fc" stroke="#c2c9d6" stroke-width="0.5"/><polygon points="79.71,203.03 128.46,201.41 104.79,223.52" fill="#f6f8fc" stroke="#c2c9d6" stroke-width="0.5"/><polygon points="128.46,201.41 151.12,224.54 104.79,223.52" fill="#f6f8fc" stroke="#c2c9d6" stroke-width="0.5"/><polygon points="130.09,201.35 178.83,199.32 155.34,221.62" fill="#f6f8fc" stroke="#c2c9d6" stroke-width="0.5"/><polygon points="178.83,199.32 201.68,222.27 155.34,221.62" fill="#f6f8fc" stroke="#c2c9d6" stroke-width="0.5"/><polygon points="205.57,222.27 251.91,221.62 229,240.56" fill="#f6f8fc" stroke="#c2c9d6" stroke-width="0.5"/><polygon points="201.68,222.27 220.01,245.66 178.25,240.56" fill="#f6f8fc" stroke="#c2c9d6" stroke-width="0.5"/><polygon points="251.91,221.62 298.03,226.11 273.17,242.4" fill="#f6f8fc" stroke="#c2c9d6" stroke-width="0.5"/><polygon points="251.91,221.62 273.17,242.4 231.1,242.84" fill="#f6f8fc" stroke="#c2c9d6" stroke-width="0.5"/><polygon points="305.07,226.47 351.41,226.59 328.19,245.14" fill="#f6f8fc" stroke="#c2c9d6" stroke-width="0.5"/><polygon points="298.03,226.11 314.36,250.95 273.17,242.4" fill="#f6f8fc" stroke="#c2c9d6" stroke-width="0.5"/><polygon points="352.5,227.92 398.75,230.74 374.49,247.91" fill="#f6f8fc" stroke="#c2c9d6" stroke-width="0.5"/><polygon points="352.5,227.92 374.49,247.91 332.46,249.87" fill="#f6f8fc" stroke="#c2c9d6" stroke-width="0.5"/><polygon points="398.75,230.74 444.41,238.67 418.4,253.04" fill="#f6f8fc" stroke="#c2c9d6" stroke-width="0.5"/><polygon points="398.75,230.74 415.97,254.97 374.49,247.91" fill="#f6f8fc" stroke="#c2c9d6" stroke-width="0.5"/><polygon points="57.37,226.48 103.68,224.81 81.19,244.25" fill="#f6f8fc" stroke="#c2c9d6" stroke-width="0.5"/><polygon points="57.37,226.48 81.19,244.25 39.55,250.27" fill="#f6f8fc" stroke="#c2c9d6" stroke-width="0.5"/><polygon points="104.79,223.52 151.12,224.54 127.55,242.64" fill="#f6f8fc" stroke="#c2c9d6" stroke-width="0.5"/><polygon points="103.68,224.81 123.16,247.26 81.19,244.25" fill="#f6f8fc" stroke="#c2c9d6" stroke-width="0.5"/><polygon points="155.34,221.62 201.68,222.27 178.25,240.56" fill="#f6f8fc" stroke="#c2c9d6" stroke-width="0.5"/><polygon points="155.34,221.62 178.25,240.56 136.36,244.5" fill="#f6f8fc" stroke="#c2c9d6" stroke-width="0.5"/><polygon points="178.25,240.56 220.01,245.66 197.29,258.23" fill="#f6f8fc" stroke="#c2c9d6" stroke-width="0.5"/><polygon points="231.1,242.84 252.29,257.85 217.44,264.93" fill="#f6f8fc" stroke="#c2c9d6" stroke-width="0.5"/><polygon points="231.1,242.84 273.17,242.4 252.29,257.85" fill="#f6f8fc" stroke="#c2c9d6" stroke-width="0.5"/><polygon points="273.17,242.4 290.67,261.58 255.1,261.06" fill="#f6f8fc" stroke="#c2c9d6" stroke-width="0.5"/><polygon points="273.17,242.4 314.36,250.95 290.67,261.58" fill="#f6f8fc" stroke="#c2c9d6" stroke-width="0.5"/><polygon points="332.46,249.87 354.19,264.1 319.61,272.44" fill="#f6f8fc" stroke="#c2c9d6" stroke-width="0.5"/><polygon points="332.46,249.87 374.49,247.91 354.19,264.1" fill="#f6f8fc" stroke="#c2c9d6" stroke-width="0.5"/><polygon points="374.49,247.91 389.4,269.18 354.19,264.1" fill="#f6f8fc" stroke="#c2c9d6" stroke-width="0.5"/><polygon points="374.49,247.91 415.97,254.97 392.68,266.45" fill="#f6f8fc" stroke="#c2c9d6" stroke-width="0.5"/><polygon points="415.97,254.97 425.98,278.93 392.68,266.45" fill="#f6f8fc" stroke="#c2c9d6" stroke-width="0.5"/><polygon points="39.55,250.27 81.19,244.25 62.55,262.33" fill="#f6f8fc" stroke="#c2c9d6" stroke-width="0.5"/><polygon points="81.19,244.25 101.08,260.95 65.76,265.14" fill="#f6f8fc" stroke="#c2c9d6" stroke-width="0.5"/><polygon points="81.19,244.25 123.16,247.26 101.08,260.95" fill="#f6f8fc" stroke="#c2c9d6" stroke-width="0.5"/><polygon points="123.16,247.26 135.44,270.14 101.08,260.95" fill="#f6f8fc" stroke="#c2c9d6" stroke-width="0.5"/><polygon points="136.36,244.5 178.25,240.56 158.73,257.69" fill="#f6f8fc" stroke="#c2c9d6" stroke-width="0.5"/><polygon points="178.25,240.56 194.14,261.11 158.73,257.69" fill="#f6f8fc" stroke="#c2c9d6" stroke-width="0.5"/><polygon points="217.44,264.93 252.29,257.85 237.36,273.67" fill="#f6f8fc" stroke="#c2c9d6" stroke-width="0.5"/><polygon points="194.14,261.11 199.56,282.18 175.23,271.88" fill="#f6f8fc" stroke="#c2c9d6" stroke-width="0.5"/><polygon points="255.1,261.06 290.67,261.58 272.7,273.86" fill="#f6f8fc" stroke="#c2c9d6" stroke-width="0.5"/><polygon points="255.1,261.06 272.7,273.86 247.38,281.4" fill="#f6f8fc" stroke="#c2c9d6" stroke-width="0.5"/><polygon points="319.61,272.44 354.19,264.1 339.84,280.46" fill="#f6f8fc" stroke="#c2c9d6" stroke-width="0.5"/><polygon points="319.61,272.44 339.84,280.46 317.19,294.06" fill="#f6f8fc" stroke="#c2c9d6" stroke-width="0.5"/><polygon points="354.19,264.1 389.4,269.18 370,279.05" fill="#f6f8fc" stroke="#c2c9d6" stroke-width="0.5"/><polygon points="354.19,264.1 370,279.05 343.92,283.29" fill="#f6f8fc" stroke="#c2c9d6" stroke-width="0.5"/><polygon points="392.68,266.45 425.98,278.93 404.93,284.43" fill="#f6f8fc" stroke="#c2c9d6" stroke-width="0.5"/><polygon points="389.4,269.18 393.83,290.48 370,279.05" fill="#f6f8fc" stroke="#c2c9d6" stroke-width="0.5"/><polygon points="65.76,265.14 101.08,260.95 84.9,275.49" fill="#f6f8fc" stroke="#c2c9d6" stroke-width="0.5"/><polygon points="65.76,265.14 84.9,275.49 60.8,286.33" fill="#f6f8fc" stroke="#c2c9d6" stroke-width="0.5"/><polygon points="101.08,260.95 135.44,270.14 115.02,277.65" fill="#f6f8fc" stroke="#c2c9d6" stroke-width="0.5"/><polygon points="101.08,260.95 110.87,280.38 84.9,275.49" fill="#f6f8fc" stroke="#c2c9d6" stroke-width="0.5"/><polygon points="158.73,257.69 194.14,261.11 175.23,271.88" fill="#f6f8fc" stroke="#c2c9d6" stroke-width="0.5"/><polygon points="158.73,257.69 175.23,271.88 149.38,277.34" fill="#f6f8fc" stroke="#c2c9d6" stroke-width="0.5"/><polygon points="175.23,271.88 199.56,282.18 182.48,288.65" fill="#f6f8fc" stroke="#c2c9d6" stroke-width="0.5"/><polygon points="247.38,281.4 263.64,289.72 251.67,299.16" fill="#f6f8fc" stroke="#c2c9d6" stroke-width="0.5"/><polygon points="247.38,281.4 272.7,273.86 263.64,289.72" fill="#f6f8fc" stroke="#c2c9d6" stroke-width="0.5"/><polygon points="317.19,294.06 335.01,298.08 325.76,310.2" fill="#f6f8fc" stroke="#c2c9d6" stroke-width="0.5"/><polygon points="317.19,294.06 339.84,280.46 335.01,298.08" fill="#f6f8fc" stroke="#c2c9d6" stroke-width="0.5"/><polygon points="343.92,283.29 358.99,293.63 345.91,301.45" fill="#f6f8fc" stroke="#c2c9d6" stroke-width="0.5"/><polygon points="343.92,283.29 370,279.05 358.99,293.63" fill="#f6f8fc" stroke="#c2c9d6" stroke-width="0.5"/><polygon points="370,279.05 376.45,296.15 361.25,295.09" fill="#f6f8fc" stroke="#c2c9d6" stroke-width="0.5"/><polygon points="370,279.05 393.83,290.48 376.45,296.15" fill="#f6f8fc" stroke="#c2c9d6" stroke-width="0.5"/><polygon points="393.83,290.48 386.8,307.35 376.45,296.15" fill="#f6f8fc" stroke="#c2c9d6" stroke-width="0.5"/><polygon points="60.8,286.33 84.9,275.49 78.03,292.42" fill="#f6f8fc" stroke="#c2c9d6" stroke-width="0.5"/><polygon points="84.9,275.49 95.55,290.34 80.58,293.25" fill="#f6f8fc" stroke="#c2c9d6" stroke-width="0.5"/><polygon points="84.9,275.49 110.87,280.38 95.55,290.34" fill="#f6f8fc" stroke="#c2c9d6" stroke-width="0.5"/><polygon points="110.87,280.38 108.43,298.49 95.55,290.34" fill="#f6f8fc" stroke="#c2c9d6" stroke-width="0.5"/><polygon points="149.38,277.34 175.23,271.88 164.91,286.96" fill="#f6f8fc" stroke="#c2c9d6" stroke-width="0.5"/><polygon points="175.23,271.88 179.94,289.53 164.91,286.96" fill="#f6f8fc" stroke="#c2c9d6" stroke-width="0.5"/><polygon points="91.57,309.86 111.09,313.83 102.56,326.47" fill="#f6f8fc" stroke="#c2c9d6" stroke-width="0.5"/><polygon points="91.57,309.86 102.56,326.47 87.6,329.38" fill="#f6f8fc" stroke="#c2c9d6" stroke-width="0.5"/><polygon points="91.57,309.86 87.6,329.38 74.96,320.85" fill="#f6f8fc" stroke="#c2c9d6" stroke-width="0.5"/><polygon points="91.57,309.86 74.96,320.85 72.06,305.88" fill="#f6f8fc" stroke="#c2c9d6" stroke-width="0.5"/><polygon points="91.57,309.86 72.06,305.88 80.58,293.25" fill="#f6f8fc" stroke="#c2c9d6" stroke-width="0.5"/><polygon points="91.57,309.86 80.58,293.25 95.55,290.34" fill="#f6f8fc" stroke="#c2c9d6" stroke-width="0.5"/><polygon points="91.57,309.86 95.55,290.34 108.18,298.87" fill="#f6f8fc" stroke="#c2c9d6" stroke-width="0.5"/><polygon points="91.57,309.86 108.18,298.87 111.09,313.83" fill="#f6f8fc" stroke="#c2c9d6" stroke-width="0.5"/><line x1="178.22" y1="150.62" x2="229.03" y2="150.62" stroke="#1f2328" stroke-width="1.8" stroke-linecap="round"/><line x1="229.03" y1="150.62" x2="203.63" y2="174.9" stroke="#c2410c" stroke-width="1.4" stroke-linecap="round"/><line x1="178.22" y1="150.62" x2="203.63" y2="174.9" stroke="#c2410c" stroke-width="1.4" stroke-linecap="round"/><line x1="229.03" y1="150.62" x2="253.83" y2="175.53" stroke="#c2410c" stroke-width="1.4" stroke-linecap="round"/><line x1="203.63" y1="174.9" x2="253.83" y2="175.53" stroke="#1f6feb" stroke-width="1.4" stroke-linecap="round" stroke-dasharray="5 3"/><line x1="229.03" y1="150.62" x2="279.83" y2="151.89" stroke="#1f2328" stroke-width="1.8" stroke-linecap="round"/><line x1="253.83" y1="175.53" x2="279.83" y2="151.89" stroke="#c2410c" stroke-width="1.4" stroke-linecap="round"/><line x1="279.83" y1="151.89" x2="303.99" y2="177.41" stroke="#c2410c" stroke-width="1.4" stroke-linecap="round"/><line x1="253.83" y1="175.53" x2="303.99" y2="177.41" stroke="#1f6feb" stroke-width="1.4" stroke-linecap="round" stroke-dasharray="5 3"/><line x1="279.83" y1="151.89" x2="330.58" y2="154.43" stroke="#1f2328" stroke-width="1.8" stroke-linecap="round"/><line x1="303.99" y1="177.41" x2="330.58" y2="154.43" stroke="#c2410c" stroke-width="1.4" stroke-linecap="round"/><line x1="330.58" y1="154.43" x2="354.1" y2="180.54" stroke="#c2410c" stroke-width="1.4" stroke-linecap="round"/><line x1="303.99" y1="177.41" x2="354.1" y2="180.54" stroke="#1f6feb" stroke-width="1.4" stroke-linecap="round" stroke-dasharray="5 3"/><line x1="330.58" y1="154.43" x2="381.25" y2="158.23" stroke="#1f2328" stroke-width="1.8" stroke-linecap="round"/><line x1="354.1" y1="180.54" x2="381.25" y2="158.23" stroke="#c2410c" stroke-width="1.4" stroke-linecap="round"/><line x1="381.25" y1="158.23" x2="404.11" y2="184.92" stroke="#c2410c" stroke-width="1.4" stroke-linecap="round"/><line x1="354.1" y1="180.54" x2="404.11" y2="184.92" stroke="#1f6feb" stroke-width="1.4" stroke-linecap="round" stroke-dasharray="5 3"/><line x1="381.25" y1="158.23" x2="431.81" y2="163.29" stroke="#1f2328" stroke-width="1.8" stroke-linecap="round"/><line x1="404.11" y1="184.92" x2="431.81" y2="163.29" stroke="#c2410c" stroke-width="1.4" stroke-linecap="round"/><line x1="431.81" y1="163.29" x2="454" y2="190.54" stroke="#1f2328" stroke-width="1.8" stroke-linecap="round"/><line x1="404.11" y1="184.92" x2="454" y2="190.54" stroke="#1f6feb" stroke-width="1.4" stroke-linecap="round" stroke-dasharray="5 3"/><line x1="26" y1="158.23" x2="76.67" y2="154.43" stroke="#1f2328" stroke-width="1.8" stroke-linecap="round"/><line x1="53.15" y1="180.54" x2="76.67" y2="154.43" stroke="#c2410c" stroke-width="1.4" stroke-linecap="round"/><line x1="26" y1="158.23" x2="53.15" y2="180.54" stroke="#1f2328" stroke-width="1.8" stroke-linecap="round"/><line x1="76.67" y1="154.43" x2="103.26" y2="177.41" stroke="#c2410c" stroke-width="1.4" stroke-linecap="round"/><line x1="53.15" y1="180.54" x2="103.26" y2="177.41" stroke="#1f6feb" stroke-width="1.4" stroke-linecap="round" stroke-dasharray="5 3"/><line x1="76.67" y1="154.43" x2="127.42" y2="151.89" stroke="#1f2328" stroke-width="1.8" stroke-linecap="round"/><line x1="103.26" y1="177.41" x2="127.42" y2="151.89" stroke="#c2410c" stroke-width="1.4" stroke-linecap="round"/><line x1="127.42" y1="151.89" x2="153.43" y2="175.53" stroke="#c2410c" stroke-width="1.4" stroke-linecap="round"/><line x1="103.26" y1="177.41" x2="153.43" y2="175.53" stroke="#1f6feb" stroke-width="1.4" stroke-linecap="round" stroke-dasharray="5 3"/><line x1="178.22" y1="150.62" x2="127.42" y2="151.89" stroke="#1f2328" stroke-width="1.8" stroke-linecap="round"/><line x1="178.22" y1="150.62" x2="153.43" y2="175.53" stroke="#c2410c" stroke-width="1.4" stroke-linecap="round"/><line x1="203.63" y1="174.9" x2="153.43" y2="175.53" stroke="#1f6feb" stroke-width="1.4" stroke-linecap="round" stroke-dasharray="5 3"/><line x1="253.83" y1="175.53" x2="228.42" y2="199.32" stroke="#c2410c" stroke-width="1.4" stroke-linecap="round"/><line x1="203.63" y1="174.9" x2="228.42" y2="199.32" stroke="#1f2328" stroke-width="1.8" stroke-linecap="round"/><line x1="203.63" y1="174.9" x2="227.6" y2="200.13" stroke="#1f2328" stroke-width="1.8" stroke-linecap="round"/><line x1="227.6" y1="200.13" x2="178.83" y2="199.32" stroke="#1f6feb" stroke-width="1.4" stroke-linecap="round" stroke-dasharray="5 3"/><line x1="203.63" y1="174.9" x2="178.83" y2="199.32" stroke="#c2410c" stroke-width="1.4" stroke-linecap="round"/><line x1="303.99" y1="177.41" x2="278.01" y2="200.56" stroke="#c2410c" stroke-width="1.4" stroke-linecap="round"/><line x1="253.83" y1="175.53" x2="278.01" y2="200.56" stroke="#1f2328" stroke-width="1.8" stroke-linecap="round"/><line x1="253.83" y1="175.53" x2="277.16" y2="201.35" stroke="#1f2328" stroke-width="1.8" stroke-linecap="round"/><line x1="228.42" y1="199.32" x2="277.16" y2="201.35" stroke="#1f6feb" stroke-width="1.4" stroke-linecap="round" stroke-dasharray="5 3"/><line x1="354.1" y1="180.54" x2="327.54" y2="203.03" stroke="#1f2328" stroke-width="1.8" stroke-linecap="round"/><line x1="303.99" y1="177.41" x2="327.54" y2="203.03" stroke="#1f2328" stroke-width="1.8" stroke-linecap="round"/><line x1="303.99" y1="177.41" x2="326.68" y2="203.8" stroke="#1f2328" stroke-width="1.8" stroke-linecap="round"/><line x1="278.01" y1="200.56" x2="326.68" y2="203.8" stroke="#1f6feb" stroke-width="1.4" stroke-linecap="round" stroke-dasharray="5 3"/><line x1="404.11" y1="184.92" x2="377" y2="206.74" stroke="#c2410c" stroke-width="1.4" stroke-linecap="round"/><line x1="354.1" y1="180.54" x2="377" y2="206.74" stroke="#c2410c" stroke-width="1.4" stroke-linecap="round"/><line x1="328.31" y1="203.9" x2="377" y2="206.74" stroke="#1f6feb" stroke-width="1.4" stroke-linecap="round" stroke-dasharray="5 3"/><line x1="354.1" y1="180.54" x2="328.31" y2="203.9" stroke="#1f2328" stroke-width="1.8" stroke-linecap="round"/><line x1="454" y1="190.54" x2="426.35" y2="211.68" stroke="#1f2328" stroke-width="1.8" stroke-linecap="round"/><line x1="404.11" y1="184.92" x2="426.35" y2="211.68" stroke="#1f2328" stroke-width="1.8" stroke-linecap="round"/><line x1="404.11" y1="184.92" x2="425.45" y2="212.41" stroke="#1f2328" stroke-width="1.8" stroke-linecap="round"/><line x1="377" y1="206.74" x2="425.45" y2="212.41" stroke="#1f6feb" stroke-width="1.4" stroke-linecap="round" stroke-dasharray="5 3"/><line x1="103.26" y1="177.41" x2="79.71" y2="203.03" stroke="#c2410c" stroke-width="1.4" stroke-linecap="round"/><line x1="53.15" y1="180.54" x2="79.71" y2="203.03" stroke="#c2410c" stroke-width="1.4" stroke-linecap="round"/><line x1="31.13" y1="207.49" x2="79.71" y2="203.03" stroke="#1f6feb" stroke-width="1.4" stroke-linecap="round" stroke-dasharray="5 3"/><line x1="53.15" y1="180.54" x2="31.13" y2="207.49" stroke="#1f2328" stroke-width="1.8" stroke-linecap="round"/><line x1="153.43" y1="175.53" x2="129.24" y2="200.56" stroke="#1f2328" stroke-width="1.8" stroke-linecap="round"/><line x1="103.26" y1="177.41" x2="129.24" y2="200.56" stroke="#1f2328" stroke-width="1.8" stroke-linecap="round"/><line x1="103.26" y1="177.41" x2="128.46" y2="201.41" stroke="#1f2328" stroke-width="1.8" stroke-linecap="round"/><line x1="79.71" y1="203.03" x2="128.46" y2="201.41" stroke="#1f6feb" stroke-width="1.4" stroke-linecap="round" stroke-dasharray="5 3"/><line x1="153.43" y1="175.53" x2="178.83" y2="199.32" stroke="#c2410c" stroke-width="1.4" stroke-linecap="round"/><line x1="178.83" y1="199.32" x2="130.09" y2="201.35" stroke="#1f6feb" stroke-width="1.4" stroke-linecap="round" stroke-dasharray="5 3"/><line x1="153.43" y1="175.53" x2="130.09" y2="201.35" stroke="#1f2328" stroke-width="1.8" stroke-linecap="round"/><line x1="227.6" y1="200.13" x2="202.86" y2="221.03" stroke="#1f2328" stroke-width="1.8" stroke-linecap="round"/><line x1="178.83" y1="199.32" x2="202.86" y2="221.03" stroke="#1f2328" stroke-width="1.8" stroke-linecap="round"/><line x1="228.42" y1="199.32" x2="251.91" y2="221.62" stroke="#c2410c" stroke-width="1.4" stroke-linecap="round"/><line x1="205.57" y1="222.27" x2="251.91" y2="221.62" stroke="#1f6feb" stroke-width="1.4" stroke-linecap="round" stroke-dasharray="5 3"/><line x1="228.42" y1="199.32" x2="205.57" y2="222.27" stroke="#1f2328" stroke-width="1.8" stroke-linecap="round"/><line x1="277.16" y1="201.35" x2="251.91" y2="221.62" stroke="#c2410c" stroke-width="1.4" stroke-linecap="round"/><line x1="277.16" y1="201.35" x2="298.03" y2="226.11" stroke="#1f2328" stroke-width="1.8" stroke-linecap="round"/><line x1="251.91" y1="221.62" x2="298.03" y2="226.11" stroke="#1f6feb" stroke-width="1.4" stroke-linecap="round" stroke-dasharray="5 3"/><line x1="326.68" y1="203.8" x2="300.93" y2="223.44" stroke="#1f2328" stroke-width="1.8" stroke-linecap="round"/><line x1="278.01" y1="200.56" x2="300.93" y2="223.44" stroke="#1f2328" stroke-width="1.8" stroke-linecap="round"/><line x1="328.31" y1="203.9" x2="351.41" y2="226.59" stroke="#c2410c" stroke-width="1.4" stroke-linecap="round"/><line x1="305.07" y1="226.47" x2="351.41" y2="226.59" stroke="#1f6feb" stroke-width="1.4" stroke-linecap="round" stroke-dasharray="5 3"/><line x1="328.31" y1="203.9" x2="305.07" y2="226.47" stroke="#1f2328" stroke-width="1.8" stroke-linecap="round"/><line x1="377" y1="206.74" x2="351.41" y2="226.59" stroke="#1f2328" stroke-width="1.8" stroke-linecap="round"/><line x1="377" y1="206.74" x2="398.75" y2="230.74" stroke="#c2410c" stroke-width="1.4" stroke-linecap="round"/><line x1="352.5" y1="227.92" x2="398.75" y2="230.74" stroke="#1f6feb" stroke-width="1.4" stroke-linecap="round" stroke-dasharray="5 3"/><line x1="377" y1="206.74" x2="352.5" y2="227.92" stroke="#1f2328" stroke-width="1.8" stroke-linecap="round"/><line x1="425.45" y1="212.41" x2="398.75" y2="230.74" stroke="#c2410c" stroke-width="1.4" stroke-linecap="round"/><line x1="425.45" y1="212.41" x2="444.41" y2="238.67" stroke="#1f2328" stroke-width="1.8" stroke-linecap="round"/><line x1="398.75" y1="230.74" x2="444.41" y2="238.67" stroke="#1f6feb" stroke-width="1.4" stroke-linecap="round" stroke-dasharray="5 3"/><line x1="79.71" y1="203.03" x2="57.37" y2="226.48" stroke="#c2410c" stroke-width="1.4" stroke-linecap="round"/><line x1="31.13" y1="207.49" x2="57.37" y2="226.48" stroke="#1f2328" stroke-width="1.8" stroke-linecap="round"/><line x1="79.71" y1="203.03" x2="103.68" y2="224.81" stroke="#1f2328" stroke-width="1.8" stroke-linecap="round"/><line x1="57.37" y1="226.48" x2="103.68" y2="224.81" stroke="#1f6feb" stroke-width="1.4" stroke-linecap="round" stroke-dasharray="5 3"/><line x1="128.46" y1="201.41" x2="104.79" y2="223.52" stroke="#c2410c" stroke-width="1.4" stroke-linecap="round"/><line x1="79.71" y1="203.03" x2="104.79" y2="223.52" stroke="#1f2328" stroke-width="1.8" stroke-linecap="round"/><line x1="128.46" y1="201.41" x2="151.12" y2="224.54" stroke="#1f2328" stroke-width="1.8" stroke-linecap="round"/><line x1="104.79" y1="223.52" x2="151.12" y2="224.54" stroke="#1f6feb" stroke-width="1.4" stroke-linecap="round" stroke-dasharray="5 3"/><line x1="178.83" y1="199.32" x2="155.34" y2="221.62" stroke="#c2410c" stroke-width="1.4" stroke-linecap="round"/><line x1="130.09" y1="201.35" x2="155.34" y2="221.62" stroke="#1f2328" stroke-width="1.8" stroke-linecap="round"/><line x1="178.83" y1="199.32" x2="201.68" y2="222.27" stroke="#1f2328" stroke-width="1.8" stroke-linecap="round"/><line x1="201.68" y1="222.27" x2="155.34" y2="221.62" stroke="#1f6feb" stroke-width="1.4" stroke-linecap="round" stroke-dasharray="5 3"/><line x1="251.91" y1="221.62" x2="229" y2="240.56" stroke="#1f2328" stroke-width="1.8" stroke-linecap="round"/><line x1="205.57" y1="222.27" x2="229" y2="240.56" stroke="#1f2328" stroke-width="1.8" stroke-linecap="round"/><line x1="201.68" y1="222.27" x2="220.01" y2="245.66" stroke="#1f2328" stroke-width="1.8" stroke-linecap="round"/><line x1="220.01" y1="245.66" x2="178.25" y2="240.56" stroke="#1f6feb" stroke-width="1.4" stroke-linecap="round" stroke-dasharray="5 3"/><line x1="201.68" y1="222.27" x2="178.25" y2="240.56" stroke="#c2410c" stroke-width="1.4" stroke-linecap="round"/><line x1="298.03" y1="226.11" x2="273.17" y2="242.4" stroke="#c2410c" stroke-width="1.4" stroke-linecap="round"/><line x1="251.91" y1="221.62" x2="273.17" y2="242.4" stroke="#c2410c" stroke-width="1.4" stroke-linecap="round"/><line x1="231.1" y1="242.84" x2="273.17" y2="242.4" stroke="#1f6feb" stroke-width="1.4" stroke-linecap="round" stroke-dasharray="5 3"/><line x1="251.91" y1="221.62" x2="231.1" y2="242.84" stroke="#1f2328" stroke-width="1.8" stroke-linecap="round"/><line x1="351.41" y1="226.59" x2="328.19" y2="245.14" stroke="#1f2328" stroke-width="1.8" stroke-linecap="round"/><line x1="305.07" y1="226.47" x2="328.19" y2="245.14" stroke="#1f2328" stroke-width="1.8" stroke-linecap="round"/><line x1="298.03" y1="226.11" x2="314.36" y2="250.95" stroke="#1f2328" stroke-width="1.8" stroke-linecap="round"/><line x1="273.17" y1="242.4" x2="314.36" y2="250.95" stroke="#1f6feb" stroke-width="1.4" stroke-linecap="round" stroke-dasharray="5 3"/><line x1="398.75" y1="230.74" x2="374.49" y2="247.91" stroke="#c2410c" stroke-width="1.4" stroke-linecap="round"/><line x1="352.5" y1="227.92" x2="374.49" y2="247.91" stroke="#c2410c" stroke-width="1.4" stroke-linecap="round"/><line x1="332.46" y1="249.87" x2="374.49" y2="247.91" stroke="#1f6feb" stroke-width="1.4" stroke-linecap="round" stroke-dasharray="5 3"/><line x1="352.5" y1="227.92" x2="332.46" y2="249.87" stroke="#1f2328" stroke-width="1.8" stroke-linecap="round"/><line x1="444.41" y1="238.67" x2="418.4" y2="253.04" stroke="#1f2328" stroke-width="1.8" stroke-linecap="round"/><line x1="398.75" y1="230.74" x2="418.4" y2="253.04" stroke="#1f2328" stroke-width="1.8" stroke-linecap="round"/><line x1="398.75" y1="230.74" x2="415.97" y2="254.97" stroke="#1f2328" stroke-width="1.8" stroke-linecap="round"/><line x1="374.49" y1="247.91" x2="415.97" y2="254.97" stroke="#1f6feb" stroke-width="1.4" stroke-linecap="round" stroke-dasharray="5 3"/><line x1="103.68" y1="224.81" x2="81.19" y2="244.25" stroke="#c2410c" stroke-width="1.4" stroke-linecap="round"/><line x1="57.37" y1="226.48" x2="81.19" y2="244.25" stroke="#c2410c" stroke-width="1.4" stroke-linecap="round"/><line x1="39.55" y1="250.27" x2="81.19" y2="244.25" stroke="#1f6feb" stroke-width="1.4" stroke-linecap="round" stroke-dasharray="5 3"/><line x1="57.37" y1="226.48" x2="39.55" y2="250.27" stroke="#1f2328" stroke-width="1.8" stroke-linecap="round"/><line x1="151.12" y1="224.54" x2="127.55" y2="242.64" stroke="#1f2328" stroke-width="1.8" stroke-linecap="round"/><line x1="104.79" y1="223.52" x2="127.55" y2="242.64" stroke="#1f2328" stroke-width="1.8" stroke-linecap="round"/><line x1="103.68" y1="224.81" x2="123.16" y2="247.26" stroke="#1f2328" stroke-width="1.8" stroke-linecap="round"/><line x1="81.19" y1="244.25" x2="123.16" y2="247.26" stroke="#1f6feb" stroke-width="1.4" stroke-linecap="round" stroke-dasharray="5 3"/><line x1="155.34" y1="221.62" x2="178.25" y2="240.56" stroke="#c2410c" stroke-width="1.4" stroke-linecap="round"/><line x1="178.25" y1="240.56" x2="136.36" y2="244.5" stroke="#1f6feb" stroke-width="1.4" stroke-linecap="round" stroke-dasharray="5 3"/><line x1="155.34" y1="221.62" x2="136.36" y2="244.5" stroke="#1f2328" stroke-width="1.8" stroke-linecap="round"/><line x1="220.01" y1="245.66" x2="197.29" y2="258.23" stroke="#1f2328" stroke-width="1.8" stroke-linecap="round"/><line x1="178.25" y1="240.56" x2="197.29" y2="258.23" stroke="#1f2328" stroke-width="1.8" stroke-linecap="round"/><line x1="231.1" y1="242.84" x2="252.29" y2="257.85" stroke="#c2410c" stroke-width="1.4" stroke-linecap="round"/><line x1="217.44" y1="264.93" x2="252.29" y2="257.85" stroke="#c2410c" stroke-width="1.4" stroke-linecap="round"/><line x1="231.1" y1="242.84" x2="217.44" y2="264.93" stroke="#1f2328" stroke-width="1.8" stroke-linecap="round"/><line x1="273.17" y1="242.4" x2="252.29" y2="257.85" stroke="#1f2328" stroke-width="1.8" stroke-linecap="round"/><line x1="273.17" y1="242.4" x2="290.67" y2="261.58" stroke="#c2410c" stroke-width="1.4" stroke-linecap="round"/><line x1="255.1" y1="261.06" x2="290.67" y2="261.58" stroke="#c2410c" stroke-width="1.4" stroke-linecap="round"/><line x1="273.17" y1="242.4" x2="255.1" y2="261.06" stroke="#1f2328" stroke-width="1.8" stroke-linecap="round"/><line x1="314.36" y1="250.95" x2="290.67" y2="261.58" stroke="#1f2328" stroke-width="1.8" stroke-linecap="round"/><line x1="332.46" y1="249.87" x2="354.19" y2="264.1" stroke="#c2410c" stroke-width="1.4" stroke-linecap="round"/><line x1="319.61" y1="272.44" x2="354.19" y2="264.1" stroke="#c2410c" stroke-width="1.4" stroke-linecap="round"/><line x1="332.46" y1="249.87" x2="319.61" y2="272.44" stroke="#1f2328" stroke-width="1.8" stroke-linecap="round"/><line x1="374.49" y1="247.91" x2="354.19" y2="264.1" stroke="#c2410c" stroke-width="1.4" stroke-linecap="round"/><line x1="374.49" y1="247.91" x2="389.4" y2="269.18" stroke="#1f2328" stroke-width="1.8" stroke-linecap="round"/><line x1="354.19" y1="264.1" x2="389.4" y2="269.18" stroke="#c2410c" stroke-width="1.4" stroke-linecap="round"/><line x1="415.97" y1="254.97" x2="392.68" y2="266.45" stroke="#c2410c" stroke-width="1.4" stroke-linecap="round"/><line x1="374.49" y1="247.91" x2="392.68" y2="266.45" stroke="#1f2328" stroke-width="1.8" stroke-linecap="round"/><line x1="415.97" y1="254.97" x2="425.98" y2="278.93" stroke="#1f2328" stroke-width="1.8" stroke-linecap="round"/><line x1="392.68" y1="266.45" x2="425.98" y2="278.93" stroke="#c2410c" stroke-width="1.4" stroke-linecap="round"/><line x1="81.19" y1="244.25" x2="62.55" y2="262.33" stroke="#1f2328" stroke-width="1.8" stroke-linecap="round"/><line x1="39.55" y1="250.27" x2="62.55" y2="262.33" stroke="#1f2328" stroke-width="1.8" stroke-linecap="round"/><line x1="81.19" y1="244.25" x2="101.08" y2="260.95" stroke="#c2410c" stroke-width="1.4" stroke-linecap="round"/><line x1="65.76" y1="265.14" x2="101.08" y2="260.95" stroke="#c2410c" stroke-width="1.4" stroke-linecap="round"/><line x1="81.19" y1="244.25" x2="65.76" y2="265.14" stroke="#1f2328" stroke-width="1.8" stroke-linecap="round"/><line x1="123.16" y1="247.26" x2="101.08" y2="260.95" stroke="#c2410c" stroke-width="1.4" stroke-linecap="round"/><line x1="123.16" y1="247.26" x2="135.44" y2="270.14" stroke="#1f2328" stroke-width="1.8" stroke-linecap="round"/><line x1="101.08" y1="260.95" x2="135.44" y2="270.14" stroke="#c2410c" stroke-width="1.4" stroke-linecap="round"/><line x1="178.25" y1="240.56" x2="158.73" y2="257.69" stroke="#c2410c" stroke-width="1.4" stroke-linecap="round"/><line x1="136.36" y1="244.5" x2="158.73" y2="257.69" stroke="#1f2328" stroke-width="1.8" stroke-linecap="round"/><line x1="178.25" y1="240.56" x2="194.14" y2="261.11" stroke="#1f2328" stroke-width="1.8" stroke-linecap="round"/><line x1="194.14" y1="261.11" x2="158.73" y2="257.69" stroke="#c2410c" stroke-width="1.4" stroke-linecap="round"/><line x1="252.29" y1="257.85" x2="237.36" y2="273.67" stroke="#1f2328" stroke-width="1.8" stroke-linecap="round"/><line x1="217.44" y1="264.93" x2="237.36" y2="273.67" stroke="#1f2328" stroke-width="1.8" stroke-linecap="round"/><line x1="194.14" y1="261.11" x2="199.56" y2="282.18" stroke="#1f2328" stroke-width="1.8" stroke-linecap="round"/><line x1="199.56" y1="282.18" x2="175.23" y2="271.88" stroke="#c2410c" stroke-width="1.4" stroke-linecap="round"/><line x1="194.14" y1="261.11" x2="175.23" y2="271.88" stroke="#c2410c" stroke-width="1.4" stroke-linecap="round"/><line x1="290.67" y1="261.58" x2="272.7" y2="273.86" stroke="#1f2328" stroke-width="1.8" stroke-linecap="round"/><line x1="255.1" y1="261.06" x2="272.7" y2="273.86" stroke="#c2410c" stroke-width="1.4" stroke-linecap="round"/><line x1="247.38" y1="281.4" x2="272.7" y2="273.86" stroke="#c2410c" stroke-width="1.4" stroke-linecap="round"/><line x1="255.1" y1="261.06" x2="247.38" y2="281.4" stroke="#1f2328" stroke-width="1.8" stroke-linecap="round"/><line x1="354.19" y1="264.1" x2="339.84" y2="280.46" stroke="#1f2328" stroke-width="1.8" stroke-linecap="round"/><line x1="319.61" y1="272.44" x2="339.84" y2="280.46" stroke="#c2410c" stroke-width="1.4" stroke-linecap="round"/><line x1="317.19" y1="294.06" x2="339.84" y2="280.46" stroke="#c2410c" stroke-width="1.4" stroke-linecap="round"/><line x1="319.61" y1="272.44" x2="317.19" y2="294.06" stroke="#1f2328" stroke-width="1.8" stroke-linecap="round"/><line x1="389.4" y1="269.18" x2="370" y2="279.05" stroke="#c2410c" stroke-width="1.4" stroke-linecap="round"/><line x1="354.19" y1="264.1" x2="370" y2="279.05" stroke="#c2410c" stroke-width="1.4" stroke-linecap="round"/><line x1="343.92" y1="283.29" x2="370" y2="279.05" stroke="#c2410c" stroke-width="1.4" stroke-linecap="round"/><line x1="354.19" y1="264.1" x2="343.92" y2="283.29" stroke="#1f2328" stroke-width="1.8" stroke-linecap="round"/><line x1="425.98" y1="278.93" x2="404.93" y2="284.43" stroke="#1f2328" stroke-width="1.8" stroke-linecap="round"/><line x1="392.68" y1="266.45" x2="404.93" y2="284.43" stroke="#1f2328" stroke-width="1.8" stroke-linecap="round"/><line x1="389.4" y1="269.18" x2="393.83" y2="290.48" stroke="#1f2328" stroke-width="1.8" stroke-linecap="round"/><line x1="370" y1="279.05" x2="393.83" y2="290.48" stroke="#c2410c" stroke-width="1.4" stroke-linecap="round"/><line x1="101.08" y1="260.95" x2="84.9" y2="275.49" stroke="#c2410c" stroke-width="1.4" stroke-linecap="round"/><line x1="65.76" y1="265.14" x2="84.9" y2="275.49" stroke="#c2410c" stroke-width="1.4" stroke-linecap="round"/><line x1="60.8" y1="286.33" x2="84.9" y2="275.49" stroke="#c2410c" stroke-width="1.4" stroke-linecap="round"/><line x1="65.76" y1="265.14" x2="60.8" y2="286.33" stroke="#1f2328" stroke-width="1.8" stroke-linecap="round"/><line x1="135.44" y1="270.14" x2="115.02" y2="277.65" stroke="#1f2328" stroke-width="1.8" stroke-linecap="round"/><line x1="101.08" y1="260.95" x2="115.02" y2="277.65" stroke="#1f2328" stroke-width="1.8" stroke-linecap="round"/><line x1="101.08" y1="260.95" x2="110.87" y2="280.38" stroke="#1f2328" stroke-width="1.8" stroke-linecap="round"/><line x1="84.9" y1="275.49" x2="110.87" y2="280.38" stroke="#c2410c" stroke-width="1.4" stroke-linecap="round"/><line x1="158.73" y1="257.69" x2="175.23" y2="271.88" stroke="#c2410c" stroke-width="1.4" stroke-linecap="round"/><line x1="175.23" y1="271.88" x2="149.38" y2="277.34" stroke="#c2410c" stroke-width="1.4" stroke-linecap="round"/><line x1="158.73" y1="257.69" x2="149.38" y2="277.34" stroke="#1f2328" stroke-width="1.8" stroke-linecap="round"/><line x1="199.56" y1="282.18" x2="182.48" y2="288.65" stroke="#1f2328" stroke-width="1.8" stroke-linecap="round"/><line x1="175.23" y1="271.88" x2="182.48" y2="288.65" stroke="#1f2328" stroke-width="1.8" stroke-linecap="round"/><line x1="247.38" y1="281.4" x2="263.64" y2="289.72" stroke="#c2410c" stroke-width="1.4" stroke-linecap="round"/><line x1="251.67" y1="299.16" x2="263.64" y2="289.72" stroke="#1f2328" stroke-width="1.8" stroke-linecap="round"/><line x1="247.38" y1="281.4" x2="251.67" y2="299.16" stroke="#1f2328" stroke-width="1.8" stroke-linecap="round"/><line x1="272.7" y1="273.86" x2="263.64" y2="289.72" stroke="#1f2328" stroke-width="1.8" stroke-linecap="round"/><line x1="317.19" y1="294.06" x2="335.01" y2="298.08" stroke="#c2410c" stroke-width="1.4" stroke-linecap="round"/><line x1="325.76" y1="310.2" x2="335.01" y2="298.08" stroke="#1f2328" stroke-width="1.8" stroke-linecap="round"/><line x1="317.19" y1="294.06" x2="325.76" y2="310.2" stroke="#1f2328" stroke-width="1.8" stroke-linecap="round"/><line x1="339.84" y1="280.46" x2="335.01" y2="298.08" stroke="#1f2328" stroke-width="1.8" stroke-linecap="round"/><line x1="343.92" y1="283.29" x2="358.99" y2="293.63" stroke="#c2410c" stroke-width="1.4" stroke-linecap="round"/><line x1="345.91" y1="301.45" x2="358.99" y2="293.63" stroke="#1f2328" stroke-width="1.8" stroke-linecap="round"/><line x1="343.92" y1="283.29" x2="345.91" y2="301.45" stroke="#1f2328" stroke-width="1.8" stroke-linecap="round"/><line x1="370" y1="279.05" x2="358.99" y2="293.63" stroke="#1f2328" stroke-width="1.8" stroke-linecap="round"/><line x1="370" y1="279.05" x2="376.45" y2="296.15" stroke="#c2410c" stroke-width="1.4" stroke-linecap="round"/><line x1="361.25" y1="295.09" x2="376.45" y2="296.15" stroke="#1f2328" stroke-width="1.8" stroke-linecap="round"/><line x1="370" y1="279.05" x2="361.25" y2="295.09" stroke="#1f2328" stroke-width="1.8" stroke-linecap="round"/><line x1="393.83" y1="290.48" x2="376.45" y2="296.15" stroke="#c2410c" stroke-width="1.4" stroke-linecap="round"/><line x1="393.83" y1="290.48" x2="386.8" y2="307.35" stroke="#1f2328" stroke-width="1.8" stroke-linecap="round"/><line x1="376.45" y1="296.15" x2="386.8" y2="307.35" stroke="#1f2328" stroke-width="1.8" stroke-linecap="round"/><line x1="84.9" y1="275.49" x2="78.03" y2="292.42" stroke="#1f2328" stroke-width="1.8" stroke-linecap="round"/><line x1="60.8" y1="286.33" x2="78.03" y2="292.42" stroke="#1f2328" stroke-width="1.8" stroke-linecap="round"/><line x1="84.9" y1="275.49" x2="95.55" y2="290.34" stroke="#c2410c" stroke-width="1.4" stroke-linecap="round"/><line x1="80.58" y1="293.25" x2="95.55" y2="290.34" stroke="#c2410c" stroke-width="1.4" stroke-linecap="round"/><line x1="84.9" y1="275.49" x2="80.58" y2="293.25" stroke="#1f2328" stroke-width="1.8" stroke-linecap="round"/><line x1="110.87" y1="280.38" x2="95.55" y2="290.34" stroke="#c2410c" stroke-width="1.4" stroke-linecap="round"/><line x1="110.87" y1="280.38" x2="108.43" y2="298.49" stroke="#1f2328" stroke-width="1.8" stroke-linecap="round"/><line x1="95.55" y1="290.34" x2="108.43" y2="298.49" stroke="#1f2328" stroke-width="1.8" stroke-linecap="round"/><line x1="175.23" y1="271.88" x2="164.91" y2="286.96" stroke="#c2410c" stroke-width="1.4" stroke-linecap="round"/><line x1="149.38" y1="277.34" x2="164.91" y2="286.96" stroke="#1f2328" stroke-width="1.8" stroke-linecap="round"/><line x1="175.23" y1="271.88" x2="179.94" y2="289.53" stroke="#1f2328" stroke-width="1.8" stroke-linecap="round"/><line x1="179.94" y1="289.53" x2="164.91" y2="286.96" stroke="#1f2328" stroke-width="1.8" stroke-linecap="round"/><line x1="111.09" y1="313.83" x2="91.57" y2="309.86" stroke="#c2c9d6" stroke-width="0.6" stroke-linecap="round"/><line x1="111.09" y1="313.83" x2="102.56" y2="326.47" stroke="#1f2328" stroke-width="1.8" stroke-linecap="round"/><line x1="102.56" y1="326.47" x2="91.57" y2="309.86" stroke="#c2c9d6" stroke-width="0.6" stroke-linecap="round"/><line x1="102.56" y1="326.47" x2="87.6" y2="329.38" stroke="#1f2328" stroke-width="1.8" stroke-linecap="round"/><line x1="87.6" y1="329.38" x2="91.57" y2="309.86" stroke="#c2c9d6" stroke-width="0.6" stroke-linecap="round"/><line x1="87.6" y1="329.38" x2="74.96" y2="320.85" stroke="#1f2328" stroke-width="1.8" stroke-linecap="round"/><line x1="74.96" y1="320.85" x2="91.57" y2="309.86" stroke="#c2c9d6" stroke-width="0.6" stroke-linecap="round"/><line x1="74.96" y1="320.85" x2="72.06" y2="305.88" stroke="#1f2328" stroke-width="1.8" stroke-linecap="round"/><line x1="72.06" y1="305.88" x2="91.57" y2="309.86" stroke="#c2c9d6" stroke-width="0.6" stroke-linecap="round"/><line x1="72.06" y1="305.88" x2="80.58" y2="293.25" stroke="#1f2328" stroke-width="1.8" stroke-linecap="round"/><line x1="80.58" y1="293.25" x2="91.57" y2="309.86" stroke="#c2c9d6" stroke-width="0.6" stroke-linecap="round"/><line x1="95.55" y1="290.34" x2="91.57" y2="309.86" stroke="#c2c9d6" stroke-width="0.6" stroke-linecap="round"/><line x1="95.55" y1="290.34" x2="108.18" y2="298.87" stroke="#1f2328" stroke-width="1.8" stroke-linecap="round"/><line x1="108.18" y1="298.87" x2="91.57" y2="309.86" stroke="#c2c9d6" stroke-width="0.6" stroke-linecap="round"/><line x1="111.09" y1="313.83" x2="108.18" y2="298.87" stroke="#1f2328" stroke-width="1.8" stroke-linecap="round"/></svg>
