<svg xmlns="http://www.w3.org/2000/svg" viewBox="0 0 480 480" width="480" height="480" role="img"><polygon points="85.49,57.76 128.85,57.76 107.17,123.99" fill="#f6f8fc" stroke="#c2c9d6" stroke-width="0.5"/><polygon points="128.85,57.76 150.52,123.99 107.17,123.99" fill="#f6f8fc" stroke="#c2c9d6" stroke-width="0.5"/><polygon points="128.85,57.76 172.2,57.76 150.52,123.99" fill="#f6f8fc" stroke="#c2c9d6" stroke-width="0.5"/><polygon points="172.2,57.76 193.88,123.99 150.52,123.99" fill="#f6f8fc" stroke="#c2c9d6" stroke-width="0.5"/><polygon points="172.2,57.76 215.55,57.76 193.88,123.99" fill="#f6f8fc" stroke="#c2c9d6" stroke-width="0.5"/><polygon points="215.55,57.76 237.23,123.99 193.88,123.99" fill="#f6f8fc" stroke="#c2c9d6" stroke-width="0.5"/><polygon points="215.55,57.76 258.91,57.76 237.23,123.99" fill="#f6f8fc" stroke="#c2c9d6" stroke-width="0.5"/><polygon points="258.91,57.76 280.58,123.99 237.23,123.99" fill="#f6f8fc" stroke="#c2c9d6" stroke-width="0.5"/><polygon points="258.91,57.76 302.26,57.76 280.58,123.99" fill="#f6f8fc" stroke="#c2c9d6" stroke-width="0.5"/><polygon points="302.26,57.76 323.94,123.99 280.58,123.99" fill="#f6f8fc" stroke="#c2c9d6" stroke-width="0.5"/><polygon points="302.26,57.76 345.62,57.76 323.94,123.99" fill="#f6f8fc" stroke="#c2c9d6" stroke-width="0.5"/><polygon points="345.62,57.76 367.29,123.99 323.94,123.99" fill="#f6f8fc" stroke="#c2c9d6" stroke-width="0.5"/><polygon points="345.62,57.76 388.97,57.76 367.29,123.99" fill="#f6f8fc" stroke="#c2c9d6" stroke-width="0.5"/><polygon points="388.97,57.76 410.65,123.99 367.29,123.99" fill="#f6f8fc" stroke="#c2c9d6" stroke-width="0.5"/><polygon points="388.97,57.76 432.32,57.76 410.65,123.99" fill="#f6f8fc" stroke="#c2c9d6" stroke-width="0.5"/><polygon points="432.32,57.76 454,123.99 410.65,123.99" fill="#f6f8fc" stroke="#c2c9d6" stroke-width="0.5"/><polygon points="107.17,123.99 150.52,123.99 128.85,190.22" fill="#f6f8fc" stroke="#c2c9d6" stroke-width="0.5"/><polygon points="107.17,123.99 128.85,190.22 85.49,190.22" fill="#f6f8fc" stroke="#c2c9d6" stroke-width="0.5"/><polygon points="150.52,123.99 193.88,123.99 172.2,190.22" fill="#f6f8fc" stroke="#c2c9d6" stroke-width="0.5"/><polygon points="150.52,123.99 172.2,190.22 128.85,190.22" fill="#f6f8fc" stroke="#c2c9d6" stroke-width="0.5"/><polygon points="193.88,123.99 237.23,123.99 215.55,190.22" fill="#f6f8fc" stroke="#c2c9d6" stroke-width="0.5"/><polygon points="193.88,123.99 215.55,190.22 172.2,190.22" fill="#f6f8fc" stroke="#c2c9d6" stroke-width="0.5"/><polygon points="237.23,123.99 280.58,123.99 258.91,190.22" fill="#f6f8fc" stroke="#c2c9d6" stroke-width="0.5"/><polygon points="237.23,123.99 258.91,190.22 215.55,190.22" fill="#f6f8fc" stroke="#c2c9d6" stroke-width="0.5"/><polygon points="280.58,123.99 323.94,123.99 302.26,190.22" fill="#f6f8fc" stroke="#c2c9d6" stroke-width="0.5"/><polygon points="280.58,123.99 302.26,190.22 258.91,190.22" fill="#f6f8fc" stroke="#c2c9d6" stroke-width="0.5"/><polygon points="323.94,123.99 367.29,123.99 345.62,190.22" fill="#f6f8fc" stroke="#c2c9d6" stroke-width="0.5"/><polygon points="323.94,123.99 345.62,190.22 302.26,190.22" fill="#f6f8fc" stroke="#c2c9d6" stroke-width="0.5"/><polygon points="367.29,123.99 410.65,123.99 388.97,190.22" fill="#f6f8fc" stroke="#c2c9d6" stroke-width="0.5"/><polygon points="367.29,123.99 388.97,190.22 345.62,190.22" fill="#f6f8fc" stroke="#c2c9d6" stroke-width="0.5"/><polygon points="410.65,123.99 454,123.99 432.32,190.22" fill="#f6f8fc" stroke="#c2c9d6" stroke-width="0.5"/><polygon points="410.65,123.99 432.32,190.22 388.97,190.22" fill="#f6f8fc" stroke="#c2c9d6" stroke-width="0.5"/><polygon points="85.49,190.22 128.85,190.22 107.17,256.44" fill="#f6f8fc" stroke="#c2c9d6" stroke-width="0.5"/><polygon points="128.85,190.22 150.52,256.44 107.17,256.44" fill="#f6f8fc" stroke="#c2c9d6" stroke-width="0.5"/><polygon points="128.85,190.22 172.2,190.22 150.52,256.44" fill="#f6f8fc" stroke="#c2c9d6" stroke-width="0.5"/><polygon points="172.2,190.22 193.88,256.44 150.52,256.44" fill="#f6f8fc" stroke="#c2c9d6" stroke-width="0.5"/><polygon points="172.2,190.22 215.55,190.22 193.88,256.44" fill="#f6f8fc" stroke="#c2c9d6" stroke-width="0.5"/><polygon points="215.55,190.22 237.23,256.44 193.88,256.44" fill="#f6f8fc" stroke="#c2c9d6" stroke-width="0.5"/><polygon points="215.55,190.22 258.91,190.22 237.23,256.44" fill="#f6f8fc" stroke="#c2c9d6" stroke-width="0.5"/><polygon points="258.91,190.22 280.58,256.44 237.23,256.44" fill="#f6f8fc" stroke="#c2c9d6" stroke-width="0.5"/><polygon points="258.91,190.22 302.26,190.22 280.58,256.44" fill="#f6f8fc" stroke="#c2c9d6" stroke-width="0.5"/><polygon points="302.26,190.22 323.94,256.44 280.58,256.44" fill="#f6f8fc" stroke="#c2c9d6" stroke-width="0.5"/><polygon points="302.26,190.22 345.62,190.22 323.94,256.44" fill="#f6f8fc" stroke="#c2c9d6" stroke-width="0.5"/><polygon points="345.62,190.22 367.29,256.44 323.94,256.44" fill="#f6f8fc" stroke="#c2c9d6" stroke-width="0.5"/><polygon points="345.62,190.22 388.97,190.22 367.29,256.44" fill="#f6f8fc" stroke="#c2c9d6" stroke-width="0.5"/><polygon points="388.97,190.22 410.65,256.44 367.29,256.44" fill="#f6f8fc" stroke="#c2c9d6" stroke-width="0.5"/><polygon points="388.97,190.22 432.32,190.22 410.65,256.44" fill="#f6f8fc" stroke="#c2c9d6" stroke-width="0.5"/><polygon points="85.49,190.22 107.17,256.44 63.81,256.44" fill="#f6f8fc" stroke="#c2c9d6" stroke-width="0.5"/><polygon points="107.17,256.44 150.52,256.44 128.85,308.55" fill="#f6f8fc" stroke="#c2c9d6" stroke-width="0.5"/><polygon points="107.17,256.44 128.85,308.55 85.49,308.55" fill="#f6f8fc" stroke="#c2c9d6" stroke-width="0.5"/><polygon points="150.52,256.44 193.88,256.44 172.2,308.55" fill="#f6f8fc" stroke="#c2c9d6" stroke-width="0.5"/><polygon points="150.52,256.44 172.2,308.55 128.85,308.55" fill="#f6f8fc" stroke="#c2c9d6" stroke-width="0.5"/><polygon points="193.88,256.44 237.23,256.44 215.55,308.55" fill="#f6f8fc" stroke="#c2c9d6" stroke-width="0.5"/><polygon points="193.88,256.44 215.55,308.55 172.2,308.55" fill="#f6f8fc" stroke="#c2c9d6" stroke-width="0.5"/><polygon points="237.23,256.44 280.58,256.44 258.91,308.55" fill="#f6f8fc" stroke="#c2c9d6" stroke-width="0.5"/><polygon points="237.23,256.44 258.91,308.55 215.55,308.55" fill="#f6f8fc" stroke="#c2c9d6" stroke-width="0.5"/><polygon points="280.58,256.44 323.94,256.44 302.26,308.55" fill="#f6f8fc" stroke="#c2c9d6" stroke-width="0.5"/><polygon points="280.58,256.44 302.26,308.55 258.91,308.55" fill="#f6f8fc" stroke="#c2c9d6" stroke-width="0.5"/><polygon points="323.94,256.44 367.29,256.44 345.62,308.55" fill="#f6f8fc" stroke="#c2c9d6" stroke-width="0.5"/><polygon points="323.94,256.44 345.62,308.55 302.26,308.55" fill="#f6f8fc" stroke="#c2c9d6" stroke-width="0.5"/><polygon points="367.29,256.44 410.65,256.44 388.97,308.55" fill="#f6f8fc" stroke="#c2c9d6" stroke-width="0.5"/><polygon points="367.29,256.44 388.97,308.55 345.62,308.55" fill="#f6f8fc" stroke="#c2c9d6" stroke-width="0.5"/><polygon points="63.81,256.44 107.17,256.44 85.49,308.55" fill="#f6f8fc" stroke="#c2c9d6" stroke-width="0.5"/><polygon points="63.81,256.44 85.49,308.55 42.14,308.55" fill="#f6f8fc" stroke="#c2c9d6" stroke-width="0.5"/><polygon points="85.49,308.55 128.85,308.55 107.17,341.7" fill="#f6f8fc" stroke="#c2c9d6" stroke-width="0.5"/><polygon points="128.85,308.55 150.52,341.7 112.71,344.73" fill="#f6f8fc" stroke="#c2c9d6" stroke-width="0.5"/><polygon points="128.85,308.55 172.2,308.55 150.52,341.7" fill="#f6f8fc" stroke="#c2c9d6" stroke-width="0.5"/><polygon points="172.2,308.55 193.88,341.7 156.06,344.73" fill="#f6f8fc" stroke="#c2c9d6" stroke-width="0.5"/><polygon points="172.2,308.55 215.55,308.55 193.88,341.7" fill="#f6f8fc" stroke="#c2c9d6" stroke-width="0.5"/><polygon points="215.55,308.55 237.23,341.7 199.42,344.73" fill="#f6f8fc" stroke="#c2c9d6" stroke-width="0.5"/><polygon points="215.55,308.55 258.91,308.55 237.23,341.7" fill="#f6f8fc" stroke="#c2c9d6" stroke-width="0.5"/><polygon points="258.91,308.55 275.04,344.73 237.23,341.7" fill="#f6f8fc" stroke="#c2c9d6" stroke-width="0.5"/><polygon points="258.91,308.55 302.26,308.55 280.58,341.7" fill="#f6f8fc" stroke="#c2c9d6" stroke-width="0.5"/><polygon points="302.26,308.55 318.4,344.73 280.58,341.7" fill="#f6f8fc" stroke="#c2c9d6" stroke-width="0.5"/><polygon points="302.26,308.55 345.62,308.55 323.94,341.7" fill="#f6f8fc" stroke="#c2c9d6" stroke-width="0.5"/><polygon points="345.62,308.55 361.75,344.73 323.94,341.7" fill="#f6f8fc" stroke="#c2c9d6" stroke-width="0.5"/><polygon points="345.62,308.55 388.97,308.55 367.29,341.7" fill="#f6f8fc" stroke="#c2c9d6" stroke-width="0.5"/><polygon points="42.14,308.55 63.81,341.7 26,344.73" fill="#f6f8fc" stroke="#c2c9d6" stroke-width="0.5"/><polygon points="42.14,308.55 85.49,308.55 63.81,341.7" fill="#f6f8fc" stroke="#c2c9d6" stroke-width="0.5"/><polygon points="85.49,308.55 101.63,344.73 63.81,341.7" fill="#f6f8fc" stroke="#c2c9d6" stroke-width="0.5"/><polygon points="112.71,344.73 150.52,341.7 133.5,366.79" fill="#f6f8fc" stroke="#c2c9d6" stroke-width="0.5"/><polygon points="101.63,344.73 106.78,374.6 80.84,366.79" fill="#f6f8fc" stroke="#c2c9d6" stroke-width="0.5"/><polygon points="156.06,344.73 193.88,341.7 176.85,366.79" fill="#f6f8fc" stroke="#c2c9d6" stroke-width="0.5"/><polygon points="156.06,344.73 176.85,366.79 150.91,374.6" fill="#f6f8fc" stroke="#c2c9d6" stroke-width="0.5"/><polygon points="199.42,344.73 237.23,341.7 220.21,366.79" fill="#f6f8fc" stroke="#c2c9d6" stroke-width="0.5"/><polygon points="193.88,341.7 203.71,370.38 176.85,366.79" fill="#f6f8fc" stroke="#c2c9d6" stroke-width="0.5"/><polygon points="237.23,341.7 275.04,344.73 254.25,366.79" fill="#f6f8fc" stroke="#c2c9d6" stroke-width="0.5"/><polygon points="237.23,341.7 254.25,366.79 227.4,370.38" fill="#f6f8fc" stroke="#c2c9d6" stroke-width="0.5"/><polygon points="280.58,341.7 318.4,344.73 297.61,366.79" fill="#f6f8fc" stroke="#c2c9d6" stroke-width="0.5"/><polygon points="275.04,344.73 280.2,374.6 254.25,366.79" fill="#f6f8fc" stroke="#c2c9d6" stroke-width="0.5"/><polygon points="323.94,341.7 361.75,344.73 340.96,366.79" fill="#f6f8fc" stroke="#c2c9d6" stroke-width="0.5"/><polygon points="323.94,341.7 340.96,366.79 314.11,370.38" fill="#f6f8fc" stroke="#c2c9d6" stroke-width="0.5"/><polygon points="26,344.73 63.81,341.7 46.79,366.79" fill="#f6f8fc" stroke="#c2c9d6" stroke-width="0.5"/><polygon points="361.75,344.73 366.91,374.6 340.96,366.79" fill="#f6f8fc" stroke="#c2c9d6" stroke-width="0.5"/><polygon points="63.81,341.7 101.63,344.73 80.84,366.79" fill="#f6f8fc" stroke="#c2c9d6" stroke-width="0.5"/><polygon points="63.81,341.7 80.84,366.79 53.98,370.38" fill="#f6f8fc" stroke="#c2c9d6" stroke-width="0.5"/><polygon points="80.84,366.79 106.78,374.6 88.98,386.72" fill="#f6f8fc" stroke="#c2c9d6" stroke-width="0.5"/><polygon points="150.91,374.6 168.71,386.72 157.03,395.24" fill="#f6f8fc" stroke="#c2c9d6" stroke-width="0.5"/><polygon points="150.91,374.6 176.85,366.79 168.71,386.72" fill="#f6f8fc" stroke="#c2c9d6" stroke-width="0.5"/><polygon points="176.85,366.79 188.06,385.18 173.91,388.12" fill="#f6f8fc" stroke="#c2c9d6" stroke-width="0.5"/><polygon points="176.85,366.79 203.71,370.38 188.06,385.18" fill="#f6f8fc" stroke="#c2c9d6" stroke-width="0.5"/><polygon points="227.4,370.38 243.05,385.18 230.17,391.74" fill="#f6f8fc" stroke="#c2c9d6" stroke-width="0.5"/><polygon points="227.4,370.38 254.25,366.79 243.05,385.18" fill="#f6f8fc" stroke="#c2c9d6" stroke-width="0.5"/><polygon points="254.25,366.79 257.19,388.12 243.05,385.18" fill="#f6f8fc" stroke="#c2c9d6" stroke-width="0.5"/><polygon points="254.25,366.79 280.2,374.6 262.4,386.72" fill="#f6f8fc" stroke="#c2c9d6" stroke-width="0.5"/><polygon points="280.2,374.6 274.07,395.24 262.4,386.72" fill="#f6f8fc" stroke="#c2c9d6" stroke-width="0.5"/><polygon points="314.11,370.38 340.96,366.79 329.75,385.18" fill="#f6f8fc" stroke="#c2c9d6" stroke-width="0.5"/><polygon points="340.96,366.79 349.11,386.72 334.67,387.38" fill="#f6f8fc" stroke="#c2c9d6" stroke-width="0.5"/><polygon points="340.96,366.79 366.91,374.6 349.11,386.72" fill="#f6f8fc" stroke="#c2c9d6" stroke-width="0.5"/><polygon points="366.91,374.6 360.78,395.24 349.11,386.72" fill="#f6f8fc" stroke="#c2c9d6" stroke-width="0.5"/><polygon points="53.98,370.38 80.84,366.79 69.63,385.18" fill="#f6f8fc" stroke="#c2c9d6" stroke-width="0.5"/><polygon points="80.84,366.79 83.78,388.12 69.63,385.18" fill="#f6f8fc" stroke="#c2c9d6" stroke-width="0.5"/><polygon points="342.69,404.48 360.45,410.9 350.7,421.57" fill="#f6f8fc" stroke="#c2c9d6" stroke-width="0.5"/><polygon points="342.69,404.48 350.7,421.57 336.27,422.24" fill="#f6f8fc" stroke="#c2c9d6" stroke-width="0.5"/><polygon points="342.69,404.48 336.27,422.24 325.59,412.5" fill="#f6f8fc" stroke="#c2c9d6" stroke-width="0.5"/><polygon points="342.69,404.48 325.59,412.5 324.93,398.06" fill="#f6f8fc" stroke="#c2c9d6" stroke-width="0.5"/><polygon points="342.69,404.48 324.93,398.06 334.67,387.38" fill="#f6f8fc" stroke="#c2c9d6" stroke-width="0.5"/><polygon points="342.69,404.48 334.67,387.38 349.11,386.72" fill="#f6f8fc" stroke="#c2c9d6" stroke-width="0.5"/><polygon points="342.69,404.48 349.11,386.72 359.78,396.46" fill="#f6f8fc" stroke="#c2c9d6" stroke-width="0.5"/><polygon points="342.69,404.48 359.78,396.46 360.45,410.9" fill="#f6f8fc" stroke="#c2c9d6" stroke-width="0.5"/><line x1="85.49" y1="57.76" x2="128.85" y2="57.76" stroke="#1f2328" stroke-width="1.8" stroke-linecap="round"/><line x1="128.85" y1="57.76" x2="107.17" y2="123.99" stroke="#c2410c" stroke-width="1.4" stroke-linecap="round"/><line x1="85.49" y1="57.76" x2="107.17" y2="123.99" stroke="#1f2328" stroke-width="1.8" stroke-linecap="round"/><line x1="128.85" y1="57.76" x2="150.52" y2="123.99" stroke="#c2410c" stroke-width="1.4" stroke-linecap="round"/><line x1="107.17" y1="123.99" x2="150.52" y2="123.99" stroke="#1f6feb" stroke-width="1.4" stroke-linecap="round" stroke-dasharray="5 3"/><line x1="128.85" y1="57.76" x2="172.2" y2="57.76" stroke="#1f2328" stroke-width="1.8" stroke-linecap="round"/><line x1="150.52" y1="123.99" x2="172.2" y2="57.76" stroke="#c2410c" stroke-width="1.4" stroke-linecap="round"/><line x1="172.2" y1="57.76" x2="193.88" y2="123.99" stroke="#c2410c" stroke-width="1.4" stroke-linecap="round"/><line x1="150.52" y1="123.99" x2="193.88" y2="123.99" stroke="#1f6feb" stroke-width="1.4" stroke-linecap="round" stroke-dasharray="5 3"/><line x1="172.2" y1="57.76" x2="215.55" y2="57.76" stroke="#1f2328" stroke-width="1.8" stroke-linecap="round"/><line x1="193.88" y1="123.99" x2="215.55" y2="57.76" stroke="#c2410c" stroke-width="1.4" stroke-linecap="round"/><line x1="215.55" y1="57.76" x2="237.23" y2="123.99" stroke="#c2410c" stroke-width="1.4" stroke-linecap="round"/><line x1="193.88" y1="123.99" x2="237.23" y2="123.99" stroke="#1f6feb" stroke-width="1.4" stroke-linecap="round" stroke-dasharray="5 3"/><line x1="215.55" y1="57.76" x2="258.91" y2="57.76" stroke="#1f2328" stroke-width="1.8" stroke-linecap="round"/><line x1="237.23" y1="123.99" x2="258.91" y2="57.76" stroke="#c2410c" stroke-width="1.4" stroke-linecap="round"/><line x1="258.91" y1="57.76" x2="280.58" y2="123.99" stroke="#c2410c" stroke-width="1.4" stroke-linecap="round"/><line x1="237.23" y1="123.99" x2="280.58" y2="123.99" stroke="#1f6feb" stroke-width="1.4" stroke-linecap="round" stroke-dasharray="5 3"/><line x1="258.91" y1="57.76" x2="302.26" y2="57.76" stroke="#1f2328" stroke-width="1.8" stroke-linecap="round"/><line x1="280.58" y1="123.99" x2="302.26" y2="57.76" stroke="#c2410c" stroke-width="1.4" stroke-linecap="round"/><line x1="302.26" y1="57.76" x2="323.94" y2="123.99" stroke="#c2410c" stroke-width="1.4" stroke-linecap="round"/><line x1="280.58" y1="123.99" x2="323.94" y2="123.99" stroke="#1f6feb" stroke-width="1.4" stroke-linecap="round" stroke-dasharray="5 3"/><line x1="302.26" y1="57.76" x2="345.62" y2="57.76" stroke="#1f2328" stroke-width="1.8" stroke-linecap="round"/><line x1="323.94" y1="123.99" x2="345.62" y2="57.76" stroke="#c2410c" stroke-width="1.4" stroke-linecap="round"/><line x1="345.62" y1="57.76" x2="367.29" y2="123.99" stroke="#c2410c" stroke-width="1.4" stroke-linecap="round"/><line x1="323.94" y1="123.99" x2="367.29" y2="123.99" stroke="#1f6feb" stroke-width="1.4" stroke-linecap="round" stroke-dasharray="5 3"/><line x1="345.62" y1="57.76" x2="388.97" y2="57.76" stroke="#1f2328" stroke-width="1.8" stroke-linecap="round"/><line x1="367.29" y1="123.99" x2="388.97" y2="57.76" stroke="#c2410c" stroke-width="1.4" stroke-linecap="round"/><line x1="388.97" y1="57.76" x2="410.65" y2="123.99" stroke="#c2410c" stroke-width="1.4" stroke-linecap="round"/><line x1="367.29" y1="123.99" x2="410.65" y2="123.99" stroke="#1f6feb" stroke-width="1.4" stroke-linecap="round" stroke-dasharray="5 3"/><line x1="432.32" y1="57.76" x2="388.97" y2="57.76" stroke="#1f2328" stroke-width="1.8" stroke-linecap="round"/><line x1="432.32" y1="57.76" x2="410.65" y2="123.99" stroke="#c2410c" stroke-width="1.4" stroke-linecap="round"/><line x1="432.32" y1="57.76" x2="454" y2="123.99" stroke="#1f2328" stroke-width="1.8" stroke-linecap="round"/><line x1="454" y1="123.99" x2="410.65" y2="123.99" stroke="#1f6feb" stroke-width="1.4" stroke-linecap="round" stroke-dasharray="5 3"/><line x1="150.52" y1="123.99" x2="128.85" y2="190.22" stroke="#c2410c" stroke-width="1.4" stroke-linecap="round"/><line x1="107.17" y1="123.99" x2="128.85" y2="190.22" stroke="#c2410c" stroke-width="1.4" stroke-linecap="round"/><line x1="128.85" y1="190.22" x2="85.49" y2="190.22" stroke="#1f6feb" stroke-width="1.4" stroke-linecap="round" stroke-dasharray="5 3"/><line x1="107.17" y1="123.99" x2="85.49" y2="190.22" stroke="#1f2328" stroke-width="1.8" stroke-linecap="round"/><line x1="193.88" y1="123.99" x2="172.2" y2="190.22" stroke="#c2410c" stroke-width="1.4" stroke-linecap="round"/><line x1="150.52" y1="123.99" x2="172.2" y2="190.22" stroke="#c2410c" stroke-width="1.4" stroke-linecap="round"/><line x1="128.85" y1="190.22" x2="172.2" y2="190.22" stroke="#1f6feb" stroke-width="1.4" stroke-linecap="round" stroke-dasharray="5 3"/><line x1="237.23" y1="123.99" x2="215.55" y2="190.22" stroke="#c2410c" stroke-width="1.4" stroke-linecap="round"/><line x1="193.88" y1="123.99" x2="215.55" y2="190.22" stroke="#c2410c" stroke-width="1.4" stroke-linecap="round"/><line x1="172.2" y1="190.22" x2="215.55" y2="190.22" stroke="#1f6feb" stroke-width="1.4" stroke-linecap="round" stroke-dasharray="5 3"/><line x1="280.58" y1="123.99" x2="258.91" y2="190.22" stroke="#c2410c" stroke-width="1.4" stroke-linecap="round"/><line x1="237.23" y1="123.99" x2="258.91" y2="190.22" stroke="#c2410c" stroke-width="1.4" stroke-linecap="round"/><line x1="215.55" y1="190.22" x2="258.91" y2="190.22" stroke="#1f6feb" stroke-width="1.4" stroke-linecap="round" stroke-dasharray="5 3"/><line x1="323.94" y1="123.99" x2="302.26" y2="190.22" stroke="#c2410c" stroke-width="1.4" stroke-linecap="round"/><line x1="280.58" y1="123.99" x2="302.26" y2="190.22" stroke="#c2410c" stroke-width="1.4" stroke-linecap="round"/><line x1="258.91" y1="190.22" x2="302.26" y2="190.22" stroke="#1f6feb" stroke-width="1.4" stroke-linecap="round" stroke-dasharray="5 3"/><line x1="367.29" y1="123.99" x2="345.62" y2="190.22" stroke="#c2410c" stroke-width="1.4" stroke-linecap="round"/><line x1="323.94" y1="123.99" x2="345.62" y2="190.22" stroke="#c2410c" stroke-width="1.4" stroke-linecap="round"/><line x1="302.26" y1="190.22" x2="345.62" y2="190.22" stroke="#1f6feb" stroke-width="1.4" stroke-linecap="round" stroke-dasharray="5 3"/><line x1="410.65" y1="123.99" x2="388.97" y2="190.22" stroke="#c2410c" stroke-width="1.4" stroke-linecap="round"/><line x1="367.29" y1="123.99" x2="388.97" y2="190.22" stroke="#c2410c" stroke-width="1.4" stroke-linecap="round"/><line x1="345.62" y1="190.22" x2="388.97" y2="190.22" stroke="#1f6feb" stroke-width="1.4" stroke-linecap="round" stroke-dasharray="5 3"/><line x1="454" y1="123.99" x2="432.32" y2="190.22" stroke="#1f2328" stroke-width="1.8" stroke-linecap="round"/><line x1="410.65" y1="123.99" x2="432.32" y2="190.22" stroke="#c2410c" stroke-width="1.4" stroke-linecap="round"/><line x1="432.32" y1="190.22" x2="388.97" y2="190.22" stroke="#1f6feb" stroke-width="1.4" stroke-linecap="round" stroke-dasharray="5 3"/><line x1="128.85" y1="190.22" x2="107.17" y2="256.44" stroke="#c2410c" stroke-width="1.4" stroke-linecap="round"/><line x1="85.49" y1="190.22" x2="107.17" y2="256.44" stroke="#c2410c" stroke-width="1.4" stroke-linecap="round"/><line x1="128.85" y1="190.22" x2="150.52" y2="256.44" stroke="#c2410c" stroke-width="1.4" stroke-linecap="round"/><line x1="107.17" y1="256.44" x2="150.52" y2="256.44" stroke="#1f6feb" stroke-width="1.4" stroke-linecap="round" stroke-dasharray="5 3"/><line x1="172.2" y1="190.22" x2="150.52" y2="256.44" stroke="#c2410c" stroke-width="1.4" stroke-linecap="round"/><line x1="172.2" y1="190.22" x2="193.88" y2="256.44" stroke="#c2410c" stroke-width="1.4" stroke-linecap="round"/><line x1="150.52" y1="256.44" x2="193.88" y2="256.44" stroke="#1f6feb" stroke-width="1.4" stroke-linecap="round" stroke-dasharray="5 3"/><line x1="215.55" y1="190.22" x2="193.88" y2="256.44" stroke="#c2410c" stroke-width="1.4" stroke-linecap="round"/><line x1="215.55" y1="190.22" x2="237.23" y2="256.44" stroke="#c2410c" stroke-width="1.4" stroke-linecap="round"/><line x1="193.88" y1="256.44" x2="237.23" y2="256.44" stroke="#1f6feb" stroke-width="1.4" stroke-linecap="round" stroke-dasharray="5 3"/><line x1="258.91" y1="190.22" x2="237.23" y2="256.44" stroke="#c2410c" stroke-width="1.4" stroke-linecap="round"/><line x1="258.91" y1="190.22" x2="280.58" y2="256.44" stroke="#c2410c" stroke-width="1.4" stroke-linecap="round"/><line x1="237.23" y1="256.44" x2="280.58" y2="256.44" stroke="#1f6feb" stroke-width="1.4" stroke-linecap="round" stroke-dasharray="5 3"/><line x1="302.26" y1="190.22" x2="280.58" y2="256.44" stroke="#c2410c" stroke-width="1.4" stroke-linecap="round"/><line x1="302.26" y1="190.22" x2="323.94" y2="256.44" stroke="#c2410c" stroke-width="1.4" stroke-linecap="round"/><line x1="280.58" y1="256.44" x2="323.94" y2="256.44" stroke="#1f6feb" stroke-width="1.4" stroke-linecap="round" stroke-dasharray="5 3"/><line x1="345.62" y1="190.22" x2="323.94" y2="256.44" stroke="#c2410c" stroke-width="1.4" stroke-linecap="round"/><line x1="345.62" y1="190.22" x2="367.29" y2="256.44" stroke="#c2410c" stroke-width="1.4" stroke-linecap="round"/><line x1="323.94" y1="256.44" x2="367.29" y2="256.44" stroke="#1f6feb" stroke-width="1.4" stroke-linecap="round" stroke-dasharray="5 3"/><line x1="388.97" y1="190.22" x2="367.29" y2="256.44" stroke="#c2410c" stroke-width="1.4" stroke-linecap="round"/><line x1="388.97" y1="190.22" x2="410.65" y2="256.44" stroke="#c2410c" stroke-width="1.4" stroke-linecap="round"/><line x1="367.29" y1="256.44" x2="410.65" y2="256.44" stroke="#1f6feb" stroke-width="1.4" stroke-linecap="round" stroke-dasharray="5 3"/><line x1="432.32" y1="190.22" x2="410.65" y2="256.44" stroke="#1f2328" stroke-width="1.8" stroke-linecap="round"/><line x1="107.17" y1="256.44" x2="63.81" y2="256.44" stroke="#1f6feb" stroke-width="1.4" stroke-linecap="round" stroke-dasharray="5 3"/><line x1="85.49" y1="190.22" x2="63.81" y2="256.44" stroke="#1f2328" stroke-width="1.8" stroke-linecap="round"/><line x1="150.52" y1="256.44" x2="128.85" y2="308.55" stroke="#c2410c" stroke-width="1.4" stroke-linecap="round"/><line x1="107.17" y1="256.44" x2="128.85" y2="308.55" stroke="#c2410c" stroke-width="1.4" stroke-linecap="round"/><line x1="128.85" y1="308.55" x2="85.49" y2="308.55" stroke="#c2410c" stroke-width="1.4" stroke-linecap="round"/><line x1="107.17" y1="256.44" x2="85.49" y2="308.55" stroke="#c2410c" stroke-width="1.4" stroke-linecap="round"/><line x1="193.88" y1="256.44" x2="172.2" y2="308.55" stroke="#c2410c" stroke-width="1.4" stroke-linecap="round"/><line x1="150.52" y1="256.44" x2="172.2" y2="308.55" stroke="#c2410c" stroke-width="1.4" stroke-linecap="round"/><line x1="128.85" y1="308.55" x2="172.2" y2="308.55" stroke="#c2410c" stroke-width="1.4" stroke-linecap="round"/><line x1="237.23" y1="256.44" x2="215.55" y2="308.55" stroke="#c2410c" stroke-width="1.4" stroke-linecap="round"/><line x1="193.88" y1="256.44" x2="215.55" y2="308.55" stroke="#c2410c" stroke-width="1.4" stroke-linecap="round"/><line x1="172.2" y1="308.55" x2="215.55" y2="308.55" stroke="#c2410c" stroke-width="1.4" stroke-linecap="round"/><line x1="280.58" y1="256.44" x2="258.91" y2="308.55" stroke="#c2410c" stroke-width="1.4" stroke-linecap="round"/><line x1="237.23" y1="256.44" x2="258.91" y2="308.55" stroke="#c2410c" stroke-width="1.4" stroke-linecap="round"/><line x1="215.55" y1="308.55" x2="258.91" y2="308.55" stroke="#c2410c" stroke-width="1.4" stroke-linecap="round"/><line x1="323.94" y1="256.44" x2="302.26" y2="308.55" stroke="#c2410c" stroke-width="1.4" stroke-linecap="round"/><line x1="280.58" y1="256.44" x2="302.26" y2="308.55" stroke="#c2410c" stroke-width="1.4" stroke-linecap="round"/><line x1="258.91" y1="308.55" x2="302.26" y2="308.55" stroke="#c2410c" stroke-width="1.4" stroke-linecap="round"/><line x1="367.29" y1="256.44" x2="345.62" y2="308.55" stroke="#c2410c" stroke-width="1.4" stroke-linecap="round"/><line x1="323.94" y1="256.44" x2="345.62" y2="308.55" stroke="#c2410c" stroke-width="1.4" stroke-linecap="round"/><line x1="302.26" y1="308.55" x2="345.62" y2="308.55" stroke="#c2410c" stroke-width="1.4" stroke-linecap="round"/><line x1="410.65" y1="256.44" x2="388.97" y2="308.55" stroke="#1f2328" stroke-width="1.8" stroke-linecap="round"/><line x1="367.29" y1="256.44" x2="388.97" y2="308.55" stroke="#c2410c" stroke-width="1.4" stroke-linecap="round"/><line x1="345.62" y1="308.55" x2="388.97" y2="308.55" stroke="#c2410c" stroke-width="1.4" stroke-linecap="round"/><line x1="63.81" y1="256.44" x2="85.49" y2="308.55" stroke="#c2410c" stroke-width="1.4" stroke-linecap="round"/><line x1="85.49" y1="308.55" x2="42.14" y2="308.55" stroke="#c2410c" stroke-width="1.4" stroke-linecap="round"/><line x1="63.81" y1="256.44" x2="42.14" y2="308.55" stroke="#1f2328" stroke-width="1.8" stroke-linecap="round"/><line x1="128.85" y1="308.55" x2="107.17" y2="341.7" stroke="#1f2328" stroke-width="1.8" stroke-linecap="round"/><line x1="85.49" y1="308.55" x2="107.17" y2="341.7" stroke="#1f2328" stroke-width="1.8" stroke-linecap="round"/><line x1="128.85" y1="308.55" x2="150.52" y2="341.7" stroke="#c2410c" stroke-width="1.4" stroke-linecap="round"/><line x1="112.71" y1="344.73" x2="150.52" y2="341.7" stroke="#c2410c" stroke-width="1.4" stroke-linecap="round"/><line x1="128.85" y1="308.55" x2="112.71" y2="344.73" stroke="#1f2328" stroke-width="1.8" stroke-linecap="round"/><line x1="172.2" y1="308.55" x2="150.52" y2="341.7" stroke="#1f2328" stroke-width="1.8" stroke-linecap="round"/><line x1="172.2" y1="308.55" x2="193.88" y2="341.7" stroke="#c2410c" stroke-width="1.4" stroke-linecap="round"/><line x1="156.06" y1="344.73" x2="193.88" y2="341.7" stroke="#c2410c" stroke-width="1.4" stroke-linecap="round"/><line x1="172.2" y1="308.55" x2="156.06" y2="344.73" stroke="#1f2328" stroke-width="1.8" stroke-linecap="round"/><line x1="215.55" y1="308.55" x2="193.88" y2="341.7" stroke="#1f2328" stroke-width="1.8" stroke-linecap="round"/><line x1="215.55" y1="308.55" x2="237.23" y2="341.7" stroke="#c2410c" stroke-width="1.4" stroke-linecap="round"/><line x1="199.42" y1="344.73" x2="237.23" y2="341.7" stroke="#c2410c" stroke-width="1.4" stroke-linecap="round"/><line x1="215.55" y1="308.55" x2="199.42" y2="344.73" stroke="#1f2328" stroke-width="1.8" stroke-linecap="round"/><line x1="258.91" y1="308.55" x2="237.23" y2="341.7" stroke="#c2410c" stroke-width="1.4" stroke-linecap="round"/><line x1="258.91" y1="308.55" x2="275.04" y2="344.73" stroke="#1f2328" stroke-width="1.8" stroke-linecap="round"/><line x1="237.23" y1="341.7" x2="275.04" y2="344.73" stroke="#c2410c" stroke-width="1.4" stroke-linecap="round"/><line x1="302.26" y1="308.55" x2="280.58" y2="341.7" stroke="#c2410c" stroke-width="1.4" stroke-linecap="round"/><line x1="258.91" y1="308.55" x2="280.58" y2="341.7" stroke="#1f2328" stroke-width="1.8" stroke-linecap="round"/><line x1="302.26" y1="308.55" x2="318.4" y2="344.73" stroke="#1f2328" stroke-width="1.8" stroke-linecap="round"/><line x1="280.58" y1="341.7" x2="318.4" y2="344.73" stroke="#c2410c" stroke-width="1.4" stroke-linecap="round"/><line x1="345.62" y1="308.55" x2="323.94" y2="341.7" stroke="#c2410c" stroke-width="1.4" stroke-linecap="round"/><line x1="302.26" y1="308.55" x2="323.94" y2="341.7" stroke="#1f2328" stroke-width="1.8" stroke-linecap="round"/><line x1="345.62" y1="308.55" x2="361.75" y2="344.73" stroke="#1f2328" stroke-width="1.8" stroke-linecap="round"/><line x1="323.94" y1="341.7" x2="361.75" y2="344.73" stroke="#c2410c" stroke-width="1.4" stroke-linecap="round"/><line x1="388.97" y1="308.55" x2="367.29" y2="341.7" stroke="#1f2328" stroke-width="1.8" stroke-linecap="round"/><line x1="345.62" y1="308.55" x2="367.29" y2="341.7" stroke="#1f2328" stroke-width="1.8" stroke-linecap="round"/><line x1="42.14" y1="308.55" x2="63.81" y2="341.7" stroke="#c2410c" stroke-width="1.4" stroke-linecap="round"/><line x1="26" y1="344.73" x2="63.81" y2="341.7" stroke="#c2410c" stroke-width="1.4" stroke-linecap="round"/><line x1="42.14" y1="308.55" x2="26" y2="344.73" stroke="#1f2328" stroke-width="1.8" stroke-linecap="round"/><line x1="85.49" y1="308.55" x2="63.81" y2="341.7" stroke="#c2410c" stroke-width="1.4" stroke-linecap="round"/><line x1="85.49" y1="308.55" x2="101.63" y2="344.73" stroke="#1f2328" stroke-width="1.8" stroke-linecap="round"/><line x1="101.63" y1="344.73" x2="63.81" y2="341.7" stroke="#c2410c" stroke-width="1.4" stroke-linecap="round"/><line x1="150.52" y1="341.7" x2="133.5" y2="366.79" stroke="#1f2328" stroke-width="1.8" stroke-linecap="round"/><line x1="112.71" y1="344.73" x2="133.5" y2="366.79" stroke="#1f2328" stroke-width="1.8" stroke-linecap="round"/><line x1="101.63" y1="344.73" x2="106.78" y2="374.6" stroke="#1f2328" stroke-width="1.8" stroke-linecap="round"/><line x1="106.78" y1="374.6" x2="80.84" y2="366.79" stroke="#c2410c" stroke-width="1.4" stroke-linecap="round"/><line x1="101.63" y1="344.73" x2="80.84" y2="366.79" stroke="#c2410c" stroke-width="1.4" stroke-linecap="round"/><line x1="193.88" y1="341.7" x2="176.85" y2="366.79" stroke="#c2410c" stroke-width="1.4" stroke-linecap="round"/><line x1="156.06" y1="344.73" x2="176.85" y2="366.79" stroke="#c2410c" stroke-width="1.4" stroke-linecap="round"/><line x1="150.91" y1="374.6" x2="176.85" y2="366.79" stroke="#c2410c" stroke-width="1.4" stroke-linecap="round"/><line x1="156.06" y1="344.73" x2="150.91" y2="374.6" stroke="#1f2328" stroke-width="1.8" stroke-linecap="round"/><line x1="237.23" y1="341.7" x2="220.21" y2="366.79" stroke="#1f2328" stroke-width="1.8" stroke-linecap="round"/><line x1="199.42" y1="344.73" x2="220.21" y2="366.79" stroke="#1f2328" stroke-width="1.8" stroke-linecap="round"/><line x1="193.88" y1="341.7" x2="203.71" y2="370.38" stroke="#1f2328" stroke-width="1.8" stroke-linecap="round"/><line x1="176.85" y1="366.79" x2="203.71" y2="370.38" stroke="#c2410c" stroke-width="1.4" stroke-linecap="round"/><line x1="275.04" y1="344.73" x2="254.25" y2="366.79" stroke="#c2410c" stroke-width="1.4" stroke-linecap="round"/><line x1="237.23" y1="341.7" x2="254.25" y2="366.79" stroke="#c2410c" stroke-width="1.4" stroke-linecap="round"/><line x1="227.4" y1="370.38" x2="254.25" y2="366.79" stroke="#c2410c" stroke-width="1.4" stroke-linecap="round"/><line x1="237.23" y1="341.7" x2="227.4" y2="370.38" stroke="#1f2328" stroke-width="1.8" stroke-linecap="round"/><line x1="318.4" y1="344.73" x2="297.61" y2="366.79" stroke="#1f2328" stroke-width="1.8" stroke-linecap="round"/><line x1="280.58" y1="341.7" x2="297.61" y2="366.79" stroke="#1f2328" stroke-width="1.8" stroke-linecap="round"/><line x1="275.04" y1="344.73" x2="280.2" y2="374.6" stroke="#1f2328" stroke-width="1.8" stroke-linecap="round"/><line x1="254.25" y1="366.79" x2="280.2" y2="374.6" stroke="#c2410c" stroke-width="1.4" stroke-linecap="round"/><line x1="361.75" y1="344.73" x2="340.96" y2="366.79" stroke="#c2410c" stroke-width="1.4" stroke-linecap="round"/><line x1="323.94" y1="341.7" x2="340.96" y2="366.79" stroke="#c2410c" stroke-width="1.4" stroke-linecap="round"/><line x1="314.11" y1="370.38" x2="340.96" y2="366.79" stroke="#c2410c" stroke-width="1.4" stroke-linecap="round"/><line x1="323.94" y1="341.7" x2="314.11" y2="370.38" stroke="#1f2328" stroke-width="1.8" stroke-linecap="round"/><line x1="63.81" y1="341.7" x2="46.79" y2="366.79" stroke="#1f2328" stroke-width="1.8" stroke-linecap="round"/><line x1="26" y1="344.73" x2="46.79" y2="366.79" stroke="#1f2328" stroke-width="1.8" stroke-linecap="round"/><line x1="361.75" y1="344.73" x2="366.91" y2="374.6" stroke="#1f2328" stroke-width="1.8" stroke-linecap="round"/><line x1="340.96" y1="366.79" x2="366.91" y2="374.6" stroke="#c2410c" stroke-width="1.4" stroke-linecap="round"/><line x1="63.81" y1="341.7" x2="80.84" y2="366.79" stroke="#c2410c" stroke-width="1.4" stroke-linecap="round"/><line x1="80.84" y1="366.79" x2="53.98" y2="370.38" stroke="#c2410c" stroke-width="1.4" stroke-linecap="round"/><line x1="63.81" y1="341.7" x2="53.98" y2="370.38" stroke="#1f2328" stroke-width="1.8" stroke-linecap="round"/><line x1="106.78" y1="374.6" x2="88.98" y2="386.72" stroke="#1f2328" stroke-width="1.8" stroke-linecap="round"/><line x1="80.84" y1="366.79" x2="88.98" y2="386.72" stroke="#1f2328" stroke-width="1.8" stroke-linecap="round"/><line x1="150.91" y1="374.6" x2="168.71" y2="386.72" stroke="#c2410c" stroke-width="1.4" stroke-linecap="round"/><line x1="157.03" y1="395.24" x2="168.71" y2="386.72" stroke="#1f2328" stroke-width="1.8" stroke-linecap="round"/><line x1="150.91" y1="374.6" x2="157.03" y2="395.24" stroke="#1f2328" stroke-width="1.8" stroke-linecap="round"/><line x1="176.85" y1="366.79" x2="168.71" y2="386.72" stroke="#1f2328" stroke-width="1.8" stroke-linecap="round"/><line x1="176.85" y1="366.79" x2="188.06" y2="385.18" stroke="#c2410c" stroke-width="1.4" stroke-linecap="round"/><line x1="173.91" y1="388.12" x2="188.06" y2="385.18" stroke="#1f2328" stroke-width="1.8" stroke-linecap="round"/><line x1="176.85" y1="366.79" x2="173.91" y2="388.12" stroke="#1f2328" stroke-width="1.8" stroke-linecap="round"/><line x1="203.71" y1="370.38" x2="188.06" y2="385.18" stroke="#1f2328" stroke-width="1.8" stroke-linecap="round"/><line x1="227.4" y1="370.38" x2="243.05" y2="385.18" stroke="#c2410c" stroke-width="1.4" stroke-linecap="round"/><line x1="230.17" y1="391.74" x2="243.05" y2="385.18" stroke="#1f2328" stroke-width="1.8" stroke-linecap="round"/><line x1="227.4" y1="370.38" x2="230.17" y2="391.74" stroke="#1f2328" stroke-width="1.8" stroke-linecap="round"/><line x1="254.25" y1="366.79" x2="243.05" y2="385.18" stroke="#c2410c" stroke-width="1.4" stroke-linecap="round"/><line x1="254.25" y1="366.79" x2="257.19" y2="388.12" stroke="#1f2328" stroke-width="1.8" stroke-linecap="round"/><line x1="243.05" y1="385.18" x2="257.19" y2="388.12" stroke="#1f2328" stroke-width="1.8" stroke-linecap="round"/><line x1="280.2" y1="374.6" x2="262.4" y2="386.72" stroke="#c2410c" stroke-width="1.4" stroke-linecap="round"/><line x1="254.25" y1="366.79" x2="262.4" y2="386.72" stroke="#1f2328" stroke-width="1.8" stroke-linecap="round"/><line x1="280.2" y1="374.6" x2="274.07" y2="395.24" stroke="#1f2328" stroke-width="1.8" stroke-linecap="round"/><line x1="262.4" y1="386.72" x2="274.07" y2="395.24" stroke="#1f2328" stroke-width="1.8" stroke-linecap="round"/><line x1="340.96" y1="366.79" x2="329.75" y2="385.18" stroke="#1f2328" stroke-width="1.8" stroke-linecap="round"/><line x1="314.11" y1="370.38" x2="329.75" y2="385.18" stroke="#1f2328" stroke-width="1.8" stroke-linecap="round"/><line x1="340.96" y1="366.79" x2="349.11" y2="386.72" stroke="#c2410c" stroke-width="1.4" stroke-linecap="round"/><line x1="334.67" y1="387.38" x2="349.11" y2="386.72" stroke="#c2410c" stroke-width="1.4" stroke-linecap="round"/><line x1="340.96" y1="366.79" x2="334.67" y2="387.38" stroke="#1f2328" stroke-width="1.8" stroke-linecap="round"/><line x1="366.91" y1="374.6" x2="349.11" y2="386.72" stroke="#c2410c" stroke-width="1.4" stroke-linecap="round"/><line x1="366.91" y1="374.6" x2="360.78" y2="395.24" stroke="#1f2328" stroke-width="1.8" stroke-linecap="round"/><line x1="349.11" y1="386.72" x2="360.78" y2="395.24" stroke="#1f2328" stroke-width="1.8" stroke-linecap="round"/><line x1="80.84" y1="366.79" x2="69.63" y2="385.18" stroke="#c2410c" stroke-width="1.4" stroke-linecap="round"/><line x1="53.98" y1="370.38" x2="69.63" y2="385.18" stroke="#1f2328" stroke-width="1.8" stroke-linecap="round"/><line x1="80.84" y1="366.79" x2="83.78" y2="388.12" stroke="#1f2328" stroke-width="1.8" stroke-linecap="round"/><line x1="83.78" y1="388.12" x2="69.63" y2="385.18" stroke="#1f2328" stroke-width="1.8" stroke-linecap="round"/><line x1="360.45" y1="410.9" x2="342.69" y2="404.48" stroke="#c2c9d6" stroke-width="0.6" stroke-linecap="round"/><line x1="360.45" y1="410.9" x2="350.7" y2="421.57" stroke="#1f2328" stroke-width="1.8" stroke-linecap="round"/><line x1="350.7" y1="421.57" x2="342.69" y2="404.48" stroke="#c2c9d6" stroke-width="0.6" stroke-linecap="round"/><line x1="350.7" y1="421.57" x2="336.27" y2="422.24" stroke="#1f2328" stroke-width="1.8" stroke-linecap="round"/><line x1="336.27" y1="422.24" x2="342.69" y2="404.48" stroke="#c2c9d6" stroke-width="0.6" stroke-linecap="round"/><line x1="336.27" y1="422.24" x2="325.59" y2="412.5" stroke="#1f2328" stroke-width="1.8" stroke-linecap="round"/><line x1="325.59" y1="412.5" x2="342.69" y2="404.48" stroke="#c2c9d6" stroke-width="0.6" stroke-linecap="round"/><line x1="325.59" y1="412.5" x2="324.93" y2="398.06" stroke="#1f2328" stroke-width="1.8" stroke-linecap="round"/><line x1="324.93" y1="398.06" x2="342.69" y2="404.48" stroke="#c2c9d6" stroke-width="0.6" stroke-linecap="round"/><line x1="324.93" y1="398.06" x2="334.67" y2="387.38" stroke="#1f2328" stroke-width="1.8" stroke-linecap="round"/><line x1="334.67" y1="387.38" x2="342.69" y2="404.48" stroke="#c2c9d6" stroke-width="0.6" stroke-linecap="round"/><line x1="349.11" y1="386.72" x2="342.69" y2="404.48" stroke="#c2c9d6" stroke-width="0.6" stroke-linecap="round"/><line x1="349.11" y1="386.72" x2="359.78" y2="396.46" stroke="#1f2328" stroke-width="1.8" stroke-linecap="round"/><line x1="359.78" y1="396.46" x2="342.69" y2="404.48" stroke="#c2c9d6" stroke-width="0.6" stroke-linecap="round"/><line x1="360.45" y1="410.9" x2="359.78" y2="396.46" stroke="#1f2328" stroke-width="1.8" stroke-linecap="round"/></svg>
