<svg xmlns="http://www.w3.org/2000/svg" viewBox="0 0 480 480" width="480" height="480" role="img"><polygon points="96.81,130.35 62.06,128.95 70.08,117.67" fill="#9ca9c0" stroke="#9ca9c0" stroke-width="0.6"/><polygon points="96.81,130.35 82.92,149.89 62.06,128.95" fill="#9ca9c0" stroke="#9ca9c0" stroke-width="0.6"/><polygon points="70.08,117.67 62.06,128.95 46.41,108.95" fill="#b0bbcf" stroke="#b0bbcf" stroke-width="0.6"/><polygon points="101.89,108.23 96.81,130.35 70.08,117.67" fill="#b6c0d4" stroke="#b6c0d4" stroke-width="0.6"/><polygon points="101.89,108.23 70.08,117.67 73.02,104.9" fill="#b6c0d4" stroke="#b6c0d4" stroke-width="0.6"/><polygon points="82.92,149.89 63.94,161.61 62.06,128.95" fill="#a7b3c8" stroke="#a7b3c8" stroke-width="0.6"/><polygon points="73.02,104.9 70.08,117.67 46.41,108.95" fill="#bac4d7" stroke="#bac4d7" stroke-width="0.6"/><polygon points="62.06,128.95 51.11,135.71 46.41,108.95" fill="#a7b3c8" stroke="#a7b3c8" stroke-width="0.6"/><polygon points="63.94,161.61 51.11,135.71 62.06,128.95" fill="#a7b3c8" stroke="#a7b3c8" stroke-width="0.6"/><polygon points="119.42,143.6 82.92,149.89 96.81,130.35" fill="#a4b0c5" stroke="#a4b0c5" stroke-width="0.6"/><polygon points="70.08,94.06 73.02,104.9 46.41,108.95" fill="#c3ccde" stroke="#c3ccde" stroke-width="0.6"/><polygon points="51.11,135.71 40.16,136.15 46.41,108.95" fill="#a3afc5" stroke="#a3afc5" stroke-width="0.6"/><polygon points="63.94,161.61 40.16,136.15 51.11,135.71" fill="#b2bdd1" stroke="#b2bdd1" stroke-width="0.6"/><polygon points="103.38,166.16 63.94,161.61 82.92,149.89" fill="#bfc8db" stroke="#bfc8db" stroke-width="0.6"/><polygon points="96.81,89.45 101.89,108.23 73.02,104.9" fill="#ccd5e6" stroke="#ccd5e6" stroke-width="0.6"/><polygon points="96.81,89.45 73.02,104.9 70.08,94.06" fill="#ccd5e6" stroke="#ccd5e6" stroke-width="0.6"/><polygon points="125.29,118.06 96.81,130.35 101.89,108.23" fill="#abb6cb" stroke="#abb6cb" stroke-width="0.6"/><polygon points="119.42,143.6 103.38,166.16 82.92,149.89" fill="#a4b0c5" stroke="#a4b0c5" stroke-width="0.6"/><polygon points="62.06,88.05 70.08,94.06 46.41,108.95" fill="#c8d1e3" stroke="#c8d1e3" stroke-width="0.6"/><polygon points="40.16,136.15 32.14,130.14 46.41,108.95" fill="#a3afc5" stroke="#a3afc5" stroke-width="0.6"/><polygon points="125.29,118.06 119.42,143.6 96.81,130.35" fill="#abb6cb" stroke="#abb6cb" stroke-width="0.6"/><polygon points="63.94,161.61 44.97,162.36 40.16,136.15" fill="#b2bdd1" stroke="#b2bdd1" stroke-width="0.6"/><polygon points="44.97,162.36 32.14,130.14 40.16,136.15" fill="#b1bcd0" stroke="#b1bcd0" stroke-width="0.6"/><polygon points="103.38,166.16 81.48,179.69 63.94,161.61" fill="#bfc8db" stroke="#bfc8db" stroke-width="0.6"/><polygon points="51.11,88.49 62.06,88.05 46.41,108.95" fill="#c9d2e3" stroke="#c9d2e3" stroke-width="0.6"/><polygon points="32.14,130.14 29.2,119.3 46.41,108.95" fill="#a9b4ca" stroke="#a9b4ca" stroke-width="0.6"/><polygon points="81.48,179.69 44.97,162.36 63.94,161.61" fill="#cdd6e7" stroke="#cdd6e7" stroke-width="0.6"/><polygon points="82.92,79.05 70.08,94.06 62.06,88.05" fill="#dae2f1" stroke="#dae2f1" stroke-width="0.6"/><polygon points="40.16,95.25 51.11,88.49 46.41,108.95" fill="#c4cee0" stroke="#c4cee0" stroke-width="0.6"/><polygon points="82.92,79.05 96.81,89.45 70.08,94.06" fill="#dae2f1" stroke="#dae2f1" stroke-width="0.6"/><polygon points="29.2,119.3 32.14,106.53 46.41,108.95" fill="#b2bdd1" stroke="#b2bdd1" stroke-width="0.6"/><polygon points="119.42,96.37 101.89,108.23 96.81,89.45" fill="#c8d1e2" stroke="#c8d1e2" stroke-width="0.6"/><polygon points="32.14,106.53 40.16,95.25 46.41,108.95" fill="#bcc6d9" stroke="#bcc6d9" stroke-width="0.6"/><polygon points="119.42,96.37 125.29,118.06 101.89,108.23" fill="#c8d1e2" stroke="#c8d1e2" stroke-width="0.6"/><polygon points="44.97,162.36 31.08,151.96 32.14,130.14" fill="#b1bcd0" stroke="#b1bcd0" stroke-width="0.6"/><polygon points="31.08,151.96 29.2,119.3 32.14,130.14" fill="#a3afc5" stroke="#a3afc5" stroke-width="0.6"/><polygon points="81.48,179.69 59.57,180.56 44.97,162.36" fill="#cdd6e7" stroke="#cdd6e7" stroke-width="0.6"/><polygon points="155.94,168.09 103.38,166.16 119.42,143.6" fill="#abb7cc" stroke="#abb7cc" stroke-width="0.6"/><polygon points="63.94,79.81 62.06,88.05 51.11,88.49" fill="#dce3f3" stroke="#dce3f3" stroke-width="0.6"/><polygon points="59.57,180.56 31.08,151.96 44.97,162.36" fill="#cbd4e5" stroke="#cbd4e5" stroke-width="0.6"/><polygon points="139.91,190.65 81.48,179.69 103.38,166.16" fill="#c7d0e2" stroke="#c7d0e2" stroke-width="0.6"/><polygon points="63.94,79.81 82.92,79.05 62.06,88.05" fill="#dce3f3" stroke="#dce3f3" stroke-width="0.6"/><polygon points="161.81,142.54 119.42,143.6 125.29,118.06" fill="#a4b0c6" stroke="#a4b0c6" stroke-width="0.6"/><polygon points="103.38,84.36 96.81,89.45 82.92,79.05" fill="#dae1f1" stroke="#dae1f1" stroke-width="0.6"/><polygon points="44.97,91.52 51.11,88.49 40.16,95.25" fill="#d1d9e9" stroke="#d1d9e9" stroke-width="0.6"/><polygon points="31.08,151.96 26,133.18 29.2,119.3" fill="#a3afc5" stroke="#a3afc5" stroke-width="0.6"/><polygon points="31.08,111.06 32.14,106.53 29.2,119.3" fill="#a2aec4" stroke="#a2aec4" stroke-width="0.6"/><polygon points="103.38,84.36 119.42,96.37 96.81,89.45" fill="#dae1f1" stroke="#dae1f1" stroke-width="0.6"/><polygon points="31.08,111.06 40.16,95.25 32.14,106.53" fill="#bbc5d8" stroke="#bbc5d8" stroke-width="0.6"/><polygon points="44.97,91.52 63.94,79.81 51.11,88.49" fill="#d1d9e9" stroke="#d1d9e9" stroke-width="0.6"/><polygon points="155.94,168.09 139.91,190.65 103.38,166.16" fill="#abb7cc" stroke="#abb7cc" stroke-width="0.6"/><polygon points="26,133.18 31.08,111.06 29.2,119.3" fill="#a2aec4" stroke="#a2aec4" stroke-width="0.6"/><polygon points="118,204.17 59.57,180.56 81.48,179.69" fill="#d6deee" stroke="#d6deee" stroke-width="0.6"/><polygon points="59.57,180.56 43.53,168.55 31.08,151.96" fill="#cbd4e5" stroke="#cbd4e5" stroke-width="0.6"/><polygon points="161.81,142.54 155.94,168.09 119.42,143.6" fill="#a4b0c6" stroke="#a4b0c6" stroke-width="0.6"/><polygon points="31.08,111.06 44.97,91.52 40.16,95.25" fill="#bbc5d8" stroke="#bbc5d8" stroke-width="0.6"/><polygon points="155.94,120.86 125.29,118.06 119.42,96.37" fill="#c2cbdd" stroke="#c2cbdd" stroke-width="0.6"/><polygon points="43.53,168.55 26,133.18 31.08,151.96" fill="#b9c4d7" stroke="#b9c4d7" stroke-width="0.6"/><polygon points="139.91,190.65 118,204.17 81.48,179.69" fill="#c7d0e2" stroke="#c7d0e2" stroke-width="0.6"/><polygon points="81.48,85.23 82.92,79.05 63.94,79.81" fill="#dce3f2" stroke="#dce3f2" stroke-width="0.6"/><polygon points="81.48,85.23 103.38,84.36 82.92,79.05" fill="#dce3f2" stroke="#dce3f2" stroke-width="0.6"/><polygon points="155.94,120.86 161.81,142.54 125.29,118.06" fill="#c2cbdd" stroke="#c2cbdd" stroke-width="0.6"/><polygon points="37.66,146.86 31.08,111.06 26,133.18" fill="#9ca9c0" stroke="#9ca9c0" stroke-width="0.6"/><polygon points="43.53,168.55 37.66,146.86 26,133.18" fill="#b9c4d7" stroke="#b9c4d7" stroke-width="0.6"/><polygon points="96.09,205.05 43.53,168.55 59.57,180.56" fill="#d4dcec" stroke="#d4dcec" stroke-width="0.6"/><polygon points="59.57,98.76 63.94,79.81 44.97,91.52" fill="#cdd6e7" stroke="#cdd6e7" stroke-width="0.6"/><polygon points="118,204.17 96.09,205.05 59.57,180.56" fill="#d6deee" stroke="#d6deee" stroke-width="0.6"/><polygon points="139.91,108.85 119.42,96.37 103.38,84.36" fill="#d4dcec" stroke="#d4dcec" stroke-width="0.6"/><polygon points="43.53,121.32 44.97,91.52 31.08,111.06" fill="#b2bdd1" stroke="#b2bdd1" stroke-width="0.6"/><polygon points="59.57,98.76 81.48,85.23 63.94,79.81" fill="#cdd6e7" stroke="#cdd6e7" stroke-width="0.6"/><polygon points="37.66,146.86 43.53,121.32 31.08,111.06" fill="#9ca9c0" stroke="#9ca9c0" stroke-width="0.6"/><polygon points="192.47,192.58 139.91,190.65 155.94,168.09" fill="#abb7cc" stroke="#abb7cc" stroke-width="0.6"/><polygon points="139.91,108.85 155.94,120.86 119.42,96.37" fill="#d4dcec" stroke="#d4dcec" stroke-width="0.6"/><polygon points="43.53,121.32 59.57,98.76 44.97,91.52" fill="#b2bdd1" stroke="#b2bdd1" stroke-width="0.6"/><polygon points="176.43,215.13 118,204.17 139.91,190.65" fill="#c7d0e2" stroke="#c7d0e2" stroke-width="0.6"/><polygon points="198.34,167.03 155.94,168.09 161.81,142.54" fill="#a4b0c6" stroke="#a4b0c6" stroke-width="0.6"/><polygon points="80.05,193.03 37.66,146.86 43.53,168.55" fill="#c2cbdd" stroke="#c2cbdd" stroke-width="0.6"/><polygon points="118,109.72 103.38,84.36 81.48,85.23" fill="#d6deee" stroke="#d6deee" stroke-width="0.6"/><polygon points="96.09,205.05 80.05,193.03 43.53,168.55" fill="#d4dcec" stroke="#d4dcec" stroke-width="0.6"/><polygon points="192.47,192.58 176.43,215.13 139.91,190.65" fill="#abb7cc" stroke="#abb7cc" stroke-width="0.6"/><polygon points="154.52,228.66 96.09,205.05 118,204.17" fill="#d6deee" stroke="#d6deee" stroke-width="0.6"/><polygon points="198.34,167.03 192.47,192.58 155.94,168.09" fill="#a4b0c6" stroke="#a4b0c6" stroke-width="0.6"/><polygon points="118,109.72 139.91,108.85 103.38,84.36" fill="#d6deee" stroke="#d6deee" stroke-width="0.6"/><polygon points="192.47,145.35 161.81,142.54 155.94,120.86" fill="#c2cbdd" stroke="#c2cbdd" stroke-width="0.6"/><polygon points="74.18,171.35 43.53,121.32 37.66,146.86" fill="#a4b0c6" stroke="#a4b0c6" stroke-width="0.6"/><polygon points="96.09,123.25 81.48,85.23 59.57,98.76" fill="#c7d0e2" stroke="#c7d0e2" stroke-width="0.6"/><polygon points="176.43,215.13 154.52,228.66 118,204.17" fill="#c7d0e2" stroke="#c7d0e2" stroke-width="0.6"/><polygon points="80.05,145.81 59.57,98.76 43.53,121.32" fill="#abb7cc" stroke="#abb7cc" stroke-width="0.6"/><polygon points="80.05,193.03 74.18,171.35 37.66,146.86" fill="#c2cbdd" stroke="#c2cbdd" stroke-width="0.6"/><polygon points="192.47,145.35 198.34,167.03 161.81,142.54" fill="#c2cbdd" stroke="#c2cbdd" stroke-width="0.6"/><polygon points="96.09,123.25 118,109.72 81.48,85.23" fill="#c7d0e2" stroke="#c7d0e2" stroke-width="0.6"/><polygon points="132.61,229.54 80.05,193.03 96.09,205.05" fill="#d4dcec" stroke="#d4dcec" stroke-width="0.6"/><polygon points="154.52,228.66 132.61,229.54 96.09,205.05" fill="#d6deee" stroke="#d6deee" stroke-width="0.6"/><polygon points="176.43,133.33 155.94,120.86 139.91,108.85" fill="#d4dcec" stroke="#d4dcec" stroke-width="0.6"/><polygon points="74.18,171.35 80.05,145.81 43.53,121.32" fill="#a4b0c6" stroke="#a4b0c6" stroke-width="0.6"/><polygon points="80.05,145.81 96.09,123.25 59.57,98.76" fill="#abb7cc" stroke="#abb7cc" stroke-width="0.6"/><polygon points="228.99,217.06 176.43,215.13 192.47,192.58" fill="#abb7cc" stroke="#abb7cc" stroke-width="0.6"/><polygon points="176.43,133.33 192.47,145.35 155.94,120.86" fill="#d4dcec" stroke="#d4dcec" stroke-width="0.6"/><polygon points="212.95,239.62 154.52,228.66 176.43,215.13" fill="#c7d0e2" stroke="#c7d0e2" stroke-width="0.6"/><polygon points="234.86,191.52 192.47,192.58 198.34,167.03" fill="#a4b0c6" stroke="#a4b0c6" stroke-width="0.6"/><polygon points="116.58,217.52 74.18,171.35 80.05,193.03" fill="#c2cbdd" stroke="#c2cbdd" stroke-width="0.6"/><polygon points="154.52,134.21 139.91,108.85 118,109.72" fill="#d6deee" stroke="#d6deee" stroke-width="0.6"/><polygon points="132.61,229.54 116.58,217.52 80.05,193.03" fill="#d4dcec" stroke="#d4dcec" stroke-width="0.6"/><polygon points="228.99,217.06 212.95,239.62 176.43,215.13" fill="#abb7cc" stroke="#abb7cc" stroke-width="0.6"/><polygon points="191.05,253.15 132.61,229.54 154.52,228.66" fill="#d6deee" stroke="#d6deee" stroke-width="0.6"/><polygon points="234.86,191.52 228.99,217.06 192.47,192.58" fill="#a4b0c6" stroke="#a4b0c6" stroke-width="0.6"/><polygon points="154.52,134.21 176.43,133.33 139.91,108.85" fill="#d6deee" stroke="#d6deee" stroke-width="0.6"/><polygon points="228.99,169.84 198.34,167.03 192.47,145.35" fill="#c2cbdd" stroke="#c2cbdd" stroke-width="0.6"/><polygon points="110.71,195.84 80.05,145.81 74.18,171.35" fill="#a4b0c6" stroke="#a4b0c6" stroke-width="0.6"/><polygon points="132.61,147.74 118,109.72 96.09,123.25" fill="#c7d0e2" stroke="#c7d0e2" stroke-width="0.6"/><polygon points="212.95,239.62 191.05,253.15 154.52,228.66" fill="#c7d0e2" stroke="#c7d0e2" stroke-width="0.6"/><polygon points="116.58,170.3 96.09,123.25 80.05,145.81" fill="#abb7cc" stroke="#abb7cc" stroke-width="0.6"/><polygon points="116.58,217.52 110.71,195.84 74.18,171.35" fill="#c2cbdd" stroke="#c2cbdd" stroke-width="0.6"/><polygon points="228.99,169.84 234.86,191.52 198.34,167.03" fill="#c2cbdd" stroke="#c2cbdd" stroke-width="0.6"/><polygon points="132.61,147.74 154.52,134.21 118,109.72" fill="#c7d0e2" stroke="#c7d0e2" stroke-width="0.6"/><polygon points="169.14,254.02 116.58,217.52 132.61,229.54" fill="#d4dcec" stroke="#d4dcec" stroke-width="0.6"/><polygon points="191.05,253.15 169.14,254.02 132.61,229.54" fill="#d6deee" stroke="#d6deee" stroke-width="0.6"/><polygon points="212.95,157.82 192.47,145.35 176.43,133.33" fill="#d4dcec" stroke="#d4dcec" stroke-width="0.6"/><polygon points="110.71,195.84 116.58,170.3 80.05,145.81" fill="#a4b0c6" stroke="#a4b0c6" stroke-width="0.6"/><polygon points="116.58,170.3 132.61,147.74 96.09,123.25" fill="#abb7cc" stroke="#abb7cc" stroke-width="0.6"/><polygon points="265.51,241.55 212.95,239.62 228.99,217.06" fill="#abb7cc" stroke="#abb7cc" stroke-width="0.6"/><polygon points="212.95,157.82 228.99,169.84 192.47,145.35" fill="#d4dcec" stroke="#d4dcec" stroke-width="0.6"/><polygon points="249.48,264.11 191.05,253.15 212.95,239.62" fill="#c7d0e2" stroke="#c7d0e2" stroke-width="0.6"/><polygon points="271.38,216.01 228.99,217.06 234.86,191.52" fill="#a4b0c6" stroke="#a4b0c6" stroke-width="0.6"/><polygon points="153.1,242.01 110.71,195.84 116.58,217.52" fill="#c2cbdd" stroke="#c2cbdd" stroke-width="0.6"/><polygon points="191.05,158.7 176.43,133.33 154.52,134.21" fill="#d6deee" stroke="#d6deee" stroke-width="0.6"/><polygon points="169.14,254.02 153.1,242.01 116.58,217.52" fill="#d4dcec" stroke="#d4dcec" stroke-width="0.6"/><polygon points="265.51,241.55 249.48,264.11 212.95,239.62" fill="#abb7cc" stroke="#abb7cc" stroke-width="0.6"/><polygon points="227.57,277.64 169.14,254.02 191.05,253.15" fill="#d6deee" stroke="#d6deee" stroke-width="0.6"/><polygon points="271.38,216.01 265.51,241.55 228.99,217.06" fill="#a4b0c6" stroke="#a4b0c6" stroke-width="0.6"/><polygon points="191.05,158.7 212.95,157.82 176.43,133.33" fill="#d6deee" stroke="#d6deee" stroke-width="0.6"/><polygon points="265.51,194.32 234.86,191.52 228.99,169.84" fill="#c2cbdd" stroke="#c2cbdd" stroke-width="0.6"/><polygon points="147.23,220.33 116.58,170.3 110.71,195.84" fill="#a4b0c6" stroke="#a4b0c6" stroke-width="0.6"/><polygon points="169.14,172.22 154.52,134.21 132.61,147.74" fill="#c7d0e2" stroke="#c7d0e2" stroke-width="0.6"/><polygon points="249.48,264.11 227.57,277.64 191.05,253.15" fill="#c7d0e2" stroke="#c7d0e2" stroke-width="0.6"/><polygon points="153.1,194.78 132.61,147.74 116.58,170.3" fill="#abb7cc" stroke="#abb7cc" stroke-width="0.6"/><polygon points="153.1,242.01 147.23,220.33 110.71,195.84" fill="#c2cbdd" stroke="#c2cbdd" stroke-width="0.6"/><polygon points="265.51,194.32 271.38,216.01 234.86,191.52" fill="#c2cbdd" stroke="#c2cbdd" stroke-width="0.6"/><polygon points="169.14,172.22 191.05,158.7 154.52,134.21" fill="#c7d0e2" stroke="#c7d0e2" stroke-width="0.6"/><polygon points="205.66,278.51 153.1,242.01 169.14,254.02" fill="#d4dcec" stroke="#d4dcec" stroke-width="0.6"/><polygon points="227.57,277.64 205.66,278.51 169.14,254.02" fill="#d6deee" stroke="#d6deee" stroke-width="0.6"/><polygon points="249.48,182.31 228.99,169.84 212.95,157.82" fill="#d4dcec" stroke="#d4dcec" stroke-width="0.6"/><polygon points="147.23,220.33 153.1,194.78 116.58,170.3" fill="#a4b0c6" stroke="#a4b0c6" stroke-width="0.6"/><polygon points="153.1,194.78 169.14,172.22 132.61,147.74" fill="#abb7cc" stroke="#abb7cc" stroke-width="0.6"/><polygon points="302.04,266.04 249.48,264.11 265.51,241.55" fill="#abb7cc" stroke="#abb7cc" stroke-width="0.6"/><polygon points="249.48,182.31 265.51,194.32 228.99,169.84" fill="#d4dcec" stroke="#d4dcec" stroke-width="0.6"/><polygon points="286,288.6 227.57,277.64 249.48,264.11" fill="#c7d0e2" stroke="#c7d0e2" stroke-width="0.6"/><polygon points="307.91,240.5 265.51,241.55 271.38,216.01" fill="#a4b0c6" stroke="#a4b0c6" stroke-width="0.6"/><polygon points="189.62,266.5 147.23,220.33 153.1,242.01" fill="#c2cbdd" stroke="#c2cbdd" stroke-width="0.6"/><polygon points="227.57,183.18 212.95,157.82 191.05,158.7" fill="#d6deee" stroke="#d6deee" stroke-width="0.6"/><polygon points="205.66,278.51 189.62,266.5 153.1,242.01" fill="#d4dcec" stroke="#d4dcec" stroke-width="0.6"/><polygon points="302.04,266.04 286,288.6 249.48,264.11" fill="#abb7cc" stroke="#abb7cc" stroke-width="0.6"/><polygon points="264.09,302.13 205.66,278.51 227.57,277.64" fill="#d6deee" stroke="#d6deee" stroke-width="0.6"/><polygon points="307.91,240.5 302.04,266.04 265.51,241.55" fill="#a4b0c6" stroke="#a4b0c6" stroke-width="0.6"/><polygon points="227.57,183.18 249.48,182.31 212.95,157.82" fill="#d6deee" stroke="#d6deee" stroke-width="0.6"/><polygon points="302.04,218.81 271.38,216.01 265.51,194.32" fill="#c2cbdd" stroke="#c2cbdd" stroke-width="0.6"/><polygon points="183.75,244.81 153.1,194.78 147.23,220.33" fill="#a4b0c6" stroke="#a4b0c6" stroke-width="0.6"/><polygon points="205.66,196.71 191.05,158.7 169.14,172.22" fill="#c7d0e2" stroke="#c7d0e2" stroke-width="0.6"/><polygon points="286,288.6 264.09,302.13 227.57,277.64" fill="#c7d0e2" stroke="#c7d0e2" stroke-width="0.6"/><polygon points="189.62,219.27 169.14,172.22 153.1,194.78" fill="#abb7cc" stroke="#abb7cc" stroke-width="0.6"/><polygon points="189.62,266.5 183.75,244.81 147.23,220.33" fill="#c2cbdd" stroke="#c2cbdd" stroke-width="0.6"/><polygon points="302.04,218.81 307.91,240.5 271.38,216.01" fill="#c2cbdd" stroke="#c2cbdd" stroke-width="0.6"/><polygon points="205.66,196.71 227.57,183.18 191.05,158.7" fill="#c7d0e2" stroke="#c7d0e2" stroke-width="0.6"/><polygon points="242.18,303 189.62,266.5 205.66,278.51" fill="#d4dcec" stroke="#d4dcec" stroke-width="0.6"/><polygon points="264.09,302.13 242.18,303 205.66,278.51" fill="#d6deee" stroke="#d6deee" stroke-width="0.6"/><polygon points="286,206.8 265.51,194.32 249.48,182.31" fill="#d4dcec" stroke="#d4dcec" stroke-width="0.6"/><polygon points="183.75,244.81 189.62,219.27 153.1,194.78" fill="#a4b0c6" stroke="#a4b0c6" stroke-width="0.6"/><polygon points="189.62,219.27 205.66,196.71 169.14,172.22" fill="#abb7cc" stroke="#abb7cc" stroke-width="0.6"/><polygon points="338.56,290.53 286,288.6 302.04,266.04" fill="#abb7cc" stroke="#abb7cc" stroke-width="0.6"/><polygon points="286,206.8 302.04,218.81 265.51,194.32" fill="#d4dcec" stroke="#d4dcec" stroke-width="0.6"/><polygon points="322.52,313.09 264.09,302.13 286,288.6" fill="#c7d0e2" stroke="#c7d0e2" stroke-width="0.6"/><polygon points="344.43,264.98 302.04,266.04 307.91,240.5" fill="#a4b0c6" stroke="#a4b0c6" stroke-width="0.6"/><polygon points="226.15,290.99 183.75,244.81 189.62,266.5" fill="#c2cbdd" stroke="#c2cbdd" stroke-width="0.6"/><polygon points="264.09,207.67 249.48,182.31 227.57,183.18" fill="#d6deee" stroke="#d6deee" stroke-width="0.6"/><polygon points="242.18,303 226.15,290.99 189.62,266.5" fill="#d4dcec" stroke="#d4dcec" stroke-width="0.6"/><polygon points="338.56,290.53 322.52,313.09 286,288.6" fill="#abb7cc" stroke="#abb7cc" stroke-width="0.6"/><polygon points="300.62,326.61 242.18,303 264.09,302.13" fill="#d6deee" stroke="#d6deee" stroke-width="0.6"/><polygon points="344.43,264.98 338.56,290.53 302.04,266.04" fill="#a4b0c6" stroke="#a4b0c6" stroke-width="0.6"/><polygon points="264.09,207.67 286,206.8 249.48,182.31" fill="#d6deee" stroke="#d6deee" stroke-width="0.6"/><polygon points="338.56,243.3 307.91,240.5 302.04,218.81" fill="#c2cbdd" stroke="#c2cbdd" stroke-width="0.6"/><polygon points="220.28,269.3 189.62,219.27 183.75,244.81" fill="#a4b0c6" stroke="#a4b0c6" stroke-width="0.6"/><polygon points="242.18,221.2 227.57,183.18 205.66,196.71" fill="#c7d0e2" stroke="#c7d0e2" stroke-width="0.6"/><polygon points="322.52,313.09 300.62,326.61 264.09,302.13" fill="#c7d0e2" stroke="#c7d0e2" stroke-width="0.6"/><polygon points="226.15,243.76 205.66,196.71 189.62,219.27" fill="#abb7cc" stroke="#abb7cc" stroke-width="0.6"/><polygon points="226.15,290.99 220.28,269.3 183.75,244.81" fill="#c2cbdd" stroke="#c2cbdd" stroke-width="0.6"/><polygon points="338.56,243.3 344.43,264.98 307.91,240.5" fill="#c2cbdd" stroke="#c2cbdd" stroke-width="0.6"/><polygon points="242.18,221.2 264.09,207.67 227.57,183.18" fill="#c7d0e2" stroke="#c7d0e2" stroke-width="0.6"/><polygon points="278.71,327.49 226.15,290.99 242.18,303" fill="#d4dcec" stroke="#d4dcec" stroke-width="0.6"/><polygon points="300.62,326.61 278.71,327.49 242.18,303" fill="#d6deee" stroke="#d6deee" stroke-width="0.6"/><polygon points="322.52,231.29 302.04,218.81 286,206.8" fill="#d4dcec" stroke="#d4dcec" stroke-width="0.6"/><polygon points="220.28,269.3 226.15,243.76 189.62,219.27" fill="#a4b0c6" stroke="#a4b0c6" stroke-width="0.6"/><polygon points="226.15,243.76 242.18,221.2 205.66,196.71" fill="#abb7cc" stroke="#abb7cc" stroke-width="0.6"/><polygon points="375.08,315.01 322.52,313.09 338.56,290.53" fill="#abb7cc" stroke="#abb7cc" stroke-width="0.6"/><polygon points="322.52,231.29 338.56,243.3 302.04,218.81" fill="#d4dcec" stroke="#d4dcec" stroke-width="0.6"/><polygon points="359.05,337.57 300.62,326.61 322.52,313.09" fill="#c7d0e2" stroke="#c7d0e2" stroke-width="0.6"/><polygon points="380.95,289.47 338.56,290.53 344.43,264.98" fill="#a4b0c6" stroke="#a4b0c6" stroke-width="0.6"/><polygon points="262.67,315.47 220.28,269.3 226.15,290.99" fill="#c2cbdd" stroke="#c2cbdd" stroke-width="0.6"/><polygon points="300.62,232.16 286,206.8 264.09,207.67" fill="#d6deee" stroke="#d6deee" stroke-width="0.6"/><polygon points="278.71,327.49 262.67,315.47 226.15,290.99" fill="#d4dcec" stroke="#d4dcec" stroke-width="0.6"/><polygon points="375.08,315.01 359.05,337.57 322.52,313.09" fill="#abb7cc" stroke="#abb7cc" stroke-width="0.6"/><polygon points="337.14,351.1 278.71,327.49 300.62,326.61" fill="#d6deee" stroke="#d6deee" stroke-width="0.6"/><polygon points="380.95,289.47 375.08,315.01 338.56,290.53" fill="#a4b0c6" stroke="#a4b0c6" stroke-width="0.6"/><polygon points="300.62,232.16 322.52,231.29 286,206.8" fill="#d6deee" stroke="#d6deee" stroke-width="0.6"/><polygon points="375.08,267.79 344.43,264.98 338.56,243.3" fill="#c2cbdd" stroke="#c2cbdd" stroke-width="0.6"/><polygon points="256.8,293.79 226.15,243.76 220.28,269.3" fill="#a4b0c6" stroke="#a4b0c6" stroke-width="0.6"/><polygon points="278.71,245.69 264.09,207.67 242.18,221.2" fill="#c7d0e2" stroke="#c7d0e2" stroke-width="0.6"/><polygon points="359.05,337.57 337.14,351.1 300.62,326.61" fill="#c7d0e2" stroke="#c7d0e2" stroke-width="0.6"/><polygon points="262.67,268.25 242.18,221.2 226.15,243.76" fill="#abb7cc" stroke="#abb7cc" stroke-width="0.6"/><polygon points="262.67,315.47 256.8,293.79 220.28,269.3" fill="#c2cbdd" stroke="#c2cbdd" stroke-width="0.6"/><polygon points="375.08,267.79 380.95,289.47 344.43,264.98" fill="#c2cbdd" stroke="#c2cbdd" stroke-width="0.6"/><polygon points="278.71,245.69 300.62,232.16 264.09,207.67" fill="#c7d0e2" stroke="#c7d0e2" stroke-width="0.6"/><polygon points="315.23,351.98 262.67,315.47 278.71,327.49" fill="#d4dcec" stroke="#d4dcec" stroke-width="0.6"/><polygon points="337.14,351.1 315.23,351.98 278.71,327.49" fill="#d6deee" stroke="#d6deee" stroke-width="0.6"/><polygon points="359.05,255.77 338.56,243.3 322.52,231.29" fill="#d4dcec" stroke="#d4dcec" stroke-width="0.6"/><polygon points="256.8,293.79 262.67,268.25 226.15,243.76" fill="#a4b0c6" stroke="#a4b0c6" stroke-width="0.6"/><polygon points="262.67,268.25 278.71,245.69 242.18,221.2" fill="#abb7cc" stroke="#abb7cc" stroke-width="0.6"/><polygon points="411.61,339.5 359.05,337.57 375.08,315.01" fill="#abb7cc" stroke="#abb7cc" stroke-width="0.6"/><polygon points="359.05,255.77 375.08,267.79 338.56,243.3" fill="#d4dcec" stroke="#d4dcec" stroke-width="0.6"/><polygon points="395.57,362.06 337.14,351.1 359.05,337.57" fill="#c7d0e2" stroke="#c7d0e2" stroke-width="0.6"/><polygon points="417.48,313.96 375.08,315.01 380.95,289.47" fill="#a4b0c6" stroke="#a4b0c6" stroke-width="0.6"/><polygon points="299.19,339.96 256.8,293.79 262.67,315.47" fill="#c2cbdd" stroke="#c2cbdd" stroke-width="0.6"/><polygon points="337.14,256.65 322.52,231.29 300.62,232.16" fill="#d6deee" stroke="#d6deee" stroke-width="0.6"/><polygon points="315.23,351.98 299.19,339.96 262.67,315.47" fill="#d4dcec" stroke="#d4dcec" stroke-width="0.6"/><polygon points="411.61,339.5 395.57,362.06 359.05,337.57" fill="#abb7cc" stroke="#abb7cc" stroke-width="0.6"/><polygon points="373.66,375.59 315.23,351.98 337.14,351.1" fill="#d6deee" stroke="#d6deee" stroke-width="0.6"/><polygon points="417.48,313.96 411.61,339.5 375.08,315.01" fill="#a4b0c6" stroke="#a4b0c6" stroke-width="0.6"/><polygon points="337.14,256.65 359.05,255.77 322.52,231.29" fill="#d6deee" stroke="#d6deee" stroke-width="0.6"/><polygon points="411.61,292.28 380.95,289.47 375.08,267.79" fill="#c2cbdd" stroke="#c2cbdd" stroke-width="0.6"/><polygon points="293.32,318.28 262.67,268.25 256.8,293.79" fill="#a4b0c6" stroke="#a4b0c6" stroke-width="0.6"/><polygon points="315.23,270.18 300.62,232.16 278.71,245.69" fill="#c7d0e2" stroke="#c7d0e2" stroke-width="0.6"/><polygon points="395.57,362.06 373.66,375.59 337.14,351.1" fill="#c7d0e2" stroke="#c7d0e2" stroke-width="0.6"/><polygon points="299.19,292.73 278.71,245.69 262.67,268.25" fill="#abb7cc" stroke="#abb7cc" stroke-width="0.6"/><polygon points="299.19,339.96 293.32,318.28 256.8,293.79" fill="#c2cbdd" stroke="#c2cbdd" stroke-width="0.6"/><polygon points="411.61,292.28 417.48,313.96 380.95,289.47" fill="#c2cbdd" stroke="#c2cbdd" stroke-width="0.6"/><polygon points="315.23,270.18 337.14,256.65 300.62,232.16" fill="#c7d0e2" stroke="#c7d0e2" stroke-width="0.6"/><polygon points="351.75,376.46 299.19,339.96 315.23,351.98" fill="#d4dcec" stroke="#d4dcec" stroke-width="0.6"/><polygon points="373.66,375.59 351.75,376.46 315.23,351.98" fill="#d6deee" stroke="#d6deee" stroke-width="0.6"/><polygon points="395.57,280.26 375.08,267.79 359.05,255.77" fill="#d4dcec" stroke="#d4dcec" stroke-width="0.6"/><polygon points="293.32,318.28 299.19,292.73 262.67,268.25" fill="#a4b0c6" stroke="#a4b0c6" stroke-width="0.6"/><polygon points="299.19,292.73 315.23,270.18 278.71,245.69" fill="#abb7cc" stroke="#abb7cc" stroke-width="0.6"/><polygon points="448.13,363.99 395.57,362.06 411.61,339.5" fill="#abb7cc" stroke="#abb7cc" stroke-width="0.6"/><polygon points="395.57,280.26 411.61,292.28 375.08,267.79" fill="#d4dcec" stroke="#d4dcec" stroke-width="0.6"/><polygon points="432.09,386.55 373.66,375.59 395.57,362.06" fill="#c7d0e2" stroke="#c7d0e2" stroke-width="0.6"/><polygon points="454,338.45 411.61,339.5 417.48,313.96" fill="#a4b0c6" stroke="#a4b0c6" stroke-width="0.6"/><polygon points="335.72,364.45 293.32,318.28 299.19,339.96" fill="#c2cbdd" stroke="#c2cbdd" stroke-width="0.6"/><polygon points="373.66,281.14 359.05,255.77 337.14,256.65" fill="#d6deee" stroke="#d6deee" stroke-width="0.6"/><polygon points="351.75,376.46 335.72,364.45 299.19,339.96" fill="#d4dcec" stroke="#d4dcec" stroke-width="0.6"/><polygon points="448.13,363.99 432.09,386.55 395.57,362.06" fill="#abb7cc" stroke="#abb7cc" stroke-width="0.6"/><polygon points="410.19,400.08 351.75,376.46 373.66,375.59" fill="#d6deee" stroke="#d6deee" stroke-width="0.6"/><polygon points="454,338.45 448.13,363.99 411.61,339.5" fill="#a4b0c6" stroke="#a4b0c6" stroke-width="0.6"/><polygon points="373.66,281.14 395.57,280.26 359.05,255.77" fill="#d6deee" stroke="#d6deee" stroke-width="0.6"/><polygon points="448.13,316.76 417.48,313.96 411.61,292.28" fill="#c2cbdd" stroke="#c2cbdd" stroke-width="0.6"/><polygon points="329.85,342.77 299.19,292.73 293.32,318.28" fill="#a4b0c6" stroke="#a4b0c6" stroke-width="0.6"/><polygon points="351.75,294.66 337.14,256.65 315.23,270.18" fill="#c7d0e2" stroke="#c7d0e2" stroke-width="0.6"/><polygon points="432.09,386.55 410.19,400.08 373.66,375.59" fill="#c7d0e2" stroke="#c7d0e2" stroke-width="0.6"/><polygon points="335.72,317.22 315.23,270.18 299.19,292.73" fill="#abb7cc" stroke="#abb7cc" stroke-width="0.6"/><polygon points="335.72,364.45 329.85,342.77 293.32,318.28" fill="#c2cbdd" stroke="#c2cbdd" stroke-width="0.6"/><polygon points="448.13,316.76 454,338.45 417.48,313.96" fill="#c2cbdd" stroke="#c2cbdd" stroke-width="0.6"/><polygon points="351.75,294.66 373.66,281.14 337.14,256.65" fill="#c7d0e2" stroke="#c7d0e2" stroke-width="0.6"/><polygon points="388.28,400.95 335.72,364.45 351.75,376.46" fill="#d4dcec" stroke="#d4dcec" stroke-width="0.6"/><polygon points="410.19,400.08 388.28,400.95 351.75,376.46" fill="#d6deee" stroke="#d6deee" stroke-width="0.6"/><polygon points="432.09,304.75 411.61,292.28 395.57,280.26" fill="#d4dcec" stroke="#d4dcec" stroke-width="0.6"/><polygon points="329.85,342.77 335.72,317.22 299.19,292.73" fill="#a4b0c6" stroke="#a4b0c6" stroke-width="0.6"/><polygon points="335.72,317.22 351.75,294.66 315.23,270.18" fill="#abb7cc" stroke="#abb7cc" stroke-width="0.6"/><polygon points="432.09,304.75 448.13,316.76 411.61,292.28" fill="#d4dcec" stroke="#d4dcec" stroke-width="0.6"/><polygon points="372.24,388.94 329.85,342.77 335.72,364.45" fill="#c2cbdd" stroke="#c2cbdd" stroke-width="0.6"/><polygon points="410.19,305.62 395.57,280.26 373.66,281.14" fill="#d6deee" stroke="#d6deee" stroke-width="0.6"/><polygon points="388.28,400.95 372.24,388.94 335.72,364.45" fill="#d4dcec" stroke="#d4dcec" stroke-width="0.6"/><polygon points="410.19,305.62 432.09,304.75 395.57,280.26" fill="#d6deee" stroke="#d6deee" stroke-width="0.6"/><polygon points="366.37,367.25 335.72,317.22 329.85,342.77" fill="#a4b0c6" stroke="#a4b0c6" stroke-width="0.6"/><polygon points="388.28,319.15 373.66,281.14 351.75,294.66" fill="#c7d0e2" stroke="#c7d0e2" stroke-width="0.6"/><polygon points="372.24,341.71 351.75,294.66 335.72,317.22" fill="#abb7cc" stroke="#abb7cc" stroke-width="0.6"/><polygon points="372.24,388.94 366.37,367.25 329.85,342.77" fill="#c2cbdd" stroke="#c2cbdd" stroke-width="0.6"/><polygon points="388.28,319.15 410.19,305.62 373.66,281.14" fill="#c7d0e2" stroke="#c7d0e2" stroke-width="0.6"/><polygon points="366.37,367.25 372.24,341.71 335.72,317.22" fill="#a4b0c6" stroke="#a4b0c6" stroke-width="0.6"/><polygon points="372.24,341.71 388.28,319.15 351.75,294.66" fill="#abb7cc" stroke="#abb7cc" stroke-width="0.6"/><line x1="366.37" y1="367.25" x2="372.24" y2="341.71" stroke="#1f2328" stroke-opacity="0.35" stroke-width="1" stroke-linecap="round"/><line x1="372.24" y1="341.71" x2="388.28" y2="319.15" stroke="#1f2328" stroke-opacity="0.35" stroke-width="1" stroke-linecap="round"/><line x1="388.28" y1="319.15" x2="410.19" y2="305.62" stroke="#1f2328" stroke-opacity="0.35" stroke-width="1" stroke-linecap="round"/><line x1="410.19" y1="305.62" x2="373.66" y2="281.14" stroke="#1f2328" stroke-opacity="0.35" stroke-width="1" stroke-linecap="round"/><line x1="410.19" y1="305.62" x2="432.09" y2="304.75" stroke="#1f2328" stroke-opacity="0.35" stroke-width="1" stroke-linecap="round"/><line x1="410.19" y1="305.62" x2="373.66" y2="281.14" stroke="#1f2328" stroke-opacity="0.35" stroke-width="1" stroke-linecap="round"/><line x1="432.09" y1="304.75" x2="448.13" y2="316.76" stroke="#1f2328" stroke-opacity="0.35" stroke-width="1" stroke-linecap="round"/><line x1="448.13" y1="316.76" x2="454" y2="338.45" stroke="#1f2328" stroke-opacity="0.35" stroke-width="1" stroke-linecap="round"/><line x1="454" y1="338.45" x2="448.13" y2="363.99" stroke="#1f2328" stroke-opacity="0.35" stroke-width="1" stroke-linecap="round"/><line x1="448.13" y1="363.99" x2="432.09" y2="386.55" stroke="#1f2328" stroke-opacity="0.35" stroke-width="1" stroke-linecap="round"/><line x1="432.09" y1="386.55" x2="410.19" y2="400.08" stroke="#1f2328" stroke-opacity="0.35" stroke-width="1" stroke-linecap="round"/><line x1="410.19" y1="400.08" x2="388.28" y2="400.95" stroke="#1f2328" stroke-opacity="0.35" stroke-width="1" stroke-linecap="round"/><line x1="388.28" y1="400.95" x2="372.24" y2="388.94" stroke="#1f2328" stroke-opacity="0.35" stroke-width="1" stroke-linecap="round"/><line x1="366.37" y1="367.25" x2="372.24" y2="388.94" stroke="#1f2328" stroke-opacity="0.35" stroke-width="1" stroke-linecap="round"/><line x1="373.66" y1="281.14" x2="337.14" y2="256.65" stroke="#1f2328" stroke-opacity="0.35" stroke-width="1" stroke-linecap="round"/><line x1="373.66" y1="281.14" x2="337.14" y2="256.65" stroke="#1f2328" stroke-opacity="0.35" stroke-width="1" stroke-linecap="round"/><line x1="337.14" y1="256.65" x2="300.62" y2="232.16" stroke="#1f2328" stroke-opacity="0.35" stroke-width="1" stroke-linecap="round"/><line x1="337.14" y1="256.65" x2="300.62" y2="232.16" stroke="#1f2328" stroke-opacity="0.35" stroke-width="1" stroke-linecap="round"/><line x1="300.62" y1="232.16" x2="264.09" y2="207.67" stroke="#1f2328" stroke-opacity="0.35" stroke-width="1" stroke-linecap="round"/><line x1="300.62" y1="232.16" x2="264.09" y2="207.67" stroke="#1f2328" stroke-opacity="0.35" stroke-width="1" stroke-linecap="round"/><line x1="264.09" y1="207.67" x2="227.57" y2="183.18" stroke="#1f2328" stroke-opacity="0.35" stroke-width="1" stroke-linecap="round"/><line x1="264.09" y1="207.67" x2="227.57" y2="183.18" stroke="#1f2328" stroke-opacity="0.35" stroke-width="1" stroke-linecap="round"/><line x1="227.57" y1="183.18" x2="191.05" y2="158.7" stroke="#1f2328" stroke-opacity="0.35" stroke-width="1" stroke-linecap="round"/><line x1="227.57" y1="183.18" x2="191.05" y2="158.7" stroke="#1f2328" stroke-opacity="0.35" stroke-width="1" stroke-linecap="round"/><line x1="191.05" y1="158.7" x2="154.52" y2="134.21" stroke="#1f2328" stroke-opacity="0.35" stroke-width="1" stroke-linecap="round"/><line x1="191.05" y1="158.7" x2="154.52" y2="134.21" stroke="#1f2328" stroke-opacity="0.35" stroke-width="1" stroke-linecap="round"/><line x1="154.52" y1="134.21" x2="118" y2="109.72" stroke="#1f2328" stroke-opacity="0.35" stroke-width="1" stroke-linecap="round"/><line x1="154.52" y1="134.21" x2="118" y2="109.72" stroke="#1f2328" stroke-opacity="0.35" stroke-width="1" stroke-linecap="round"/><line x1="43.53" y1="121.32" x2="37.66" y2="146.86" stroke="#1f2328" stroke-opacity="0.35" stroke-width="1" stroke-linecap="round"/><line x1="43.53" y1="121.32" x2="59.57" y2="98.76" stroke="#1f2328" stroke-opacity="0.35" stroke-width="1" stroke-linecap="round"/><line x1="118" y1="109.72" x2="81.48" y2="85.23" stroke="#1f2328" stroke-opacity="0.35" stroke-width="1" stroke-linecap="round"/><line x1="59.57" y1="98.76" x2="81.48" y2="85.23" stroke="#1f2328" stroke-opacity="0.35" stroke-width="1" stroke-linecap="round"/><line x1="81.48" y1="85.23" x2="103.38" y2="84.36" stroke="#1f2328" stroke-opacity="0.35" stroke-width="1" stroke-linecap="round"/><line x1="118" y1="109.72" x2="81.48" y2="85.23" stroke="#1f2328" stroke-opacity="0.35" stroke-width="1" stroke-linecap="round"/><line x1="103.38" y1="84.36" x2="119.42" y2="96.37" stroke="#1f2328" stroke-opacity="0.35" stroke-width="1" stroke-linecap="round"/><line x1="119.42" y1="96.37" x2="125.29" y2="118.06" stroke="#1f2328" stroke-opacity="0.35" stroke-width="1" stroke-linecap="round"/><line x1="125.29" y1="118.06" x2="119.42" y2="143.6" stroke="#1f2328" stroke-opacity="0.35" stroke-width="1" stroke-linecap="round"/><line x1="119.42" y1="143.6" x2="103.38" y2="166.16" stroke="#1f2328" stroke-opacity="0.35" stroke-width="1" stroke-linecap="round"/><line x1="103.38" y1="166.16" x2="81.48" y2="179.69" stroke="#1f2328" stroke-opacity="0.35" stroke-width="1" stroke-linecap="round"/><line x1="81.48" y1="179.69" x2="59.57" y2="180.56" stroke="#1f2328" stroke-opacity="0.35" stroke-width="1" stroke-linecap="round"/><line x1="59.57" y1="180.56" x2="43.53" y2="168.55" stroke="#1f2328" stroke-opacity="0.35" stroke-width="1" stroke-linecap="round"/><line x1="43.53" y1="121.32" x2="37.66" y2="146.86" stroke="#1f2328" stroke-opacity="0.35" stroke-width="1" stroke-linecap="round"/><line x1="43.53" y1="121.32" x2="31.08" y2="111.06" stroke="#1f2328" stroke-opacity="0.35" stroke-width="1" stroke-linecap="round"/><line x1="31.08" y1="111.06" x2="26" y2="133.18" stroke="#1f2328" stroke-opacity="0.35" stroke-width="1" stroke-linecap="round"/><line x1="43.53" y1="121.32" x2="59.57" y2="98.76" stroke="#1f2328" stroke-opacity="0.35" stroke-width="1" stroke-linecap="round"/><line x1="31.08" y1="111.06" x2="44.97" y2="91.52" stroke="#1f2328" stroke-opacity="0.35" stroke-width="1" stroke-linecap="round"/><line x1="43.53" y1="121.32" x2="31.08" y2="111.06" stroke="#1f2328" stroke-opacity="0.35" stroke-width="1" stroke-linecap="round"/><line x1="59.57" y1="98.76" x2="81.48" y2="85.23" stroke="#1f2328" stroke-opacity="0.35" stroke-width="1" stroke-linecap="round"/><line x1="44.97" y1="91.52" x2="63.94" y2="79.81" stroke="#1f2328" stroke-opacity="0.35" stroke-width="1" stroke-linecap="round"/><line x1="81.48" y1="85.23" x2="103.38" y2="84.36" stroke="#1f2328" stroke-opacity="0.35" stroke-width="1" stroke-linecap="round"/><line x1="63.94" y1="79.81" x2="82.92" y2="79.05" stroke="#1f2328" stroke-opacity="0.35" stroke-width="1" stroke-linecap="round"/><line x1="103.38" y1="84.36" x2="119.42" y2="96.37" stroke="#1f2328" stroke-opacity="0.35" stroke-width="1" stroke-linecap="round"/><line x1="82.92" y1="79.05" x2="96.81" y2="89.45" stroke="#1f2328" stroke-opacity="0.35" stroke-width="1" stroke-linecap="round"/><line x1="119.42" y1="96.37" x2="125.29" y2="118.06" stroke="#1f2328" stroke-opacity="0.35" stroke-width="1" stroke-linecap="round"/><line x1="96.81" y1="89.45" x2="101.89" y2="108.23" stroke="#1f2328" stroke-opacity="0.35" stroke-width="1" stroke-linecap="round"/><line x1="125.29" y1="118.06" x2="119.42" y2="143.6" stroke="#1f2328" stroke-opacity="0.35" stroke-width="1" stroke-linecap="round"/><line x1="101.89" y1="108.23" x2="96.81" y2="130.35" stroke="#1f2328" stroke-opacity="0.35" stroke-width="1" stroke-linecap="round"/><line x1="119.42" y1="143.6" x2="103.38" y2="166.16" stroke="#1f2328" stroke-opacity="0.35" stroke-width="1" stroke-linecap="round"/><line x1="96.81" y1="130.35" x2="82.92" y2="149.89" stroke="#1f2328" stroke-opacity="0.35" stroke-width="1" stroke-linecap="round"/><line x1="103.38" y1="166.16" x2="81.48" y2="179.69" stroke="#1f2328" stroke-opacity="0.35" stroke-width="1" stroke-linecap="round"/><line x1="82.92" y1="149.89" x2="63.94" y2="161.61" stroke="#1f2328" stroke-opacity="0.35" stroke-width="1" stroke-linecap="round"/><line x1="81.48" y1="179.69" x2="59.57" y2="180.56" stroke="#1f2328" stroke-opacity="0.35" stroke-width="1" stroke-linecap="round"/><line x1="63.94" y1="161.61" x2="44.97" y2="162.36" stroke="#1f2328" stroke-opacity="0.35" stroke-width="1" stroke-linecap="round"/><line x1="59.57" y1="180.56" x2="43.53" y2="168.55" stroke="#1f2328" stroke-opacity="0.35" stroke-width="1" stroke-linecap="round"/><line x1="44.97" y1="162.36" x2="31.08" y2="151.96" stroke="#1f2328" stroke-opacity="0.35" stroke-width="1" stroke-linecap="round"/><line x1="31.08" y1="111.06" x2="26" y2="133.18" stroke="#1f2328" stroke-opacity="0.35" stroke-width="1" stroke-linecap="round"/><line x1="31.08" y1="111.06" x2="32.14" y2="106.53" stroke="#1f2328" stroke-opacity="0.35" stroke-width="1" stroke-linecap="round"/><line x1="29.2" y1="119.3" x2="32.14" y2="106.53" stroke="#1f2328" stroke-opacity="0.35" stroke-width="1" stroke-linecap="round"/><line x1="31.08" y1="111.06" x2="44.97" y2="91.52" stroke="#1f2328" stroke-opacity="0.35" stroke-width="1" stroke-linecap="round"/><line x1="32.14" y1="106.53" x2="40.16" y2="95.25" stroke="#1f2328" stroke-opacity="0.35" stroke-width="1" stroke-linecap="round"/><line x1="31.08" y1="111.06" x2="32.14" y2="106.53" stroke="#1f2328" stroke-opacity="0.35" stroke-width="1" stroke-linecap="round"/><line x1="44.97" y1="91.52" x2="63.94" y2="79.81" stroke="#1f2328" stroke-opacity="0.35" stroke-width="1" stroke-linecap="round"/><line x1="40.16" y1="95.25" x2="51.11" y2="88.49" stroke="#1f2328" stroke-opacity="0.35" stroke-width="1" stroke-linecap="round"/><line x1="63.94" y1="79.81" x2="82.92" y2="79.05" stroke="#1f2328" stroke-opacity="0.35" stroke-width="1" stroke-linecap="round"/><line x1="51.11" y1="88.49" x2="62.06" y2="88.05" stroke="#1f2328" stroke-opacity="0.35" stroke-width="1" stroke-linecap="round"/><line x1="82.92" y1="79.05" x2="96.81" y2="89.45" stroke="#1f2328" stroke-opacity="0.35" stroke-width="1" stroke-linecap="round"/><line x1="62.06" y1="88.05" x2="70.08" y2="94.06" stroke="#1f2328" stroke-opacity="0.35" stroke-width="1" stroke-linecap="round"/><line x1="96.81" y1="89.45" x2="101.89" y2="108.23" stroke="#1f2328" stroke-opacity="0.35" stroke-width="1" stroke-linecap="round"/><line x1="70.08" y1="94.06" x2="73.02" y2="104.9" stroke="#1f2328" stroke-opacity="0.35" stroke-width="1" stroke-linecap="round"/><line x1="101.89" y1="108.23" x2="96.81" y2="130.35" stroke="#1f2328" stroke-opacity="0.35" stroke-width="1" stroke-linecap="round"/><line x1="73.02" y1="104.9" x2="70.08" y2="117.67" stroke="#1f2328" stroke-opacity="0.35" stroke-width="1" stroke-linecap="round"/><line x1="96.81" y1="130.35" x2="82.92" y2="149.89" stroke="#1f2328" stroke-opacity="0.35" stroke-width="1" stroke-linecap="round"/><line x1="70.08" y1="117.67" x2="62.06" y2="128.95" stroke="#1f2328" stroke-opacity="0.35" stroke-width="1" stroke-linecap="round"/><line x1="82.92" y1="149.89" x2="63.94" y2="161.61" stroke="#1f2328" stroke-opacity="0.35" stroke-width="1" stroke-linecap="round"/><line x1="62.06" y1="128.95" x2="51.11" y2="135.71" stroke="#1f2328" stroke-opacity="0.35" stroke-width="1" stroke-linecap="round"/><line x1="63.94" y1="161.61" x2="44.97" y2="162.36" stroke="#1f2328" stroke-opacity="0.35" stroke-width="1" stroke-linecap="round"/><line x1="51.11" y1="135.71" x2="40.16" y2="136.15" stroke="#1f2328" stroke-opacity="0.35" stroke-width="1" stroke-linecap="round"/><line x1="44.97" y1="162.36" x2="31.08" y2="151.96" stroke="#1f2328" stroke-opacity="0.35" stroke-width="1" stroke-linecap="round"/><line x1="40.16" y1="136.15" x2="32.14" y2="130.14" stroke="#1f2328" stroke-opacity="0.35" stroke-width="1" stroke-linecap="round"/><line x1="29.2" y1="119.3" x2="32.14" y2="106.53" stroke="#1f2328" stroke-opacity="0.35" stroke-width="1" stroke-linecap="round"/><line x1="32.14" y1="106.53" x2="46.41" y2="108.95" stroke="#1f2328" stroke-opacity="0.35" stroke-width="1" stroke-linecap="round"/><line x1="32.14" y1="106.53" x2="40.16" y2="95.25" stroke="#1f2328" stroke-opacity="0.35" stroke-width="1" stroke-linecap="round"/><line x1="32.14" y1="106.53" x2="46.41" y2="108.95" stroke="#1f2328" stroke-opacity="0.35" stroke-width="1" stroke-linecap="round"/><line x1="40.16" y1="95.25" x2="51.11" y2="88.49" stroke="#1f2328" stroke-opacity="0.35" stroke-width="1" stroke-linecap="round"/><line x1="51.11" y1="88.49" x2="62.06" y2="88.05" stroke="#1f2328" stroke-opacity="0.35" stroke-width="1" stroke-linecap="round"/><line x1="62.06" y1="88.05" x2="70.08" y2="94.06" stroke="#1f2328" stroke-opacity="0.35" stroke-width="1" stroke-linecap="round"/><line x1="70.08" y1="94.06" x2="73.02" y2="104.9" stroke="#1f2328" stroke-opacity="0.35" stroke-width="1" stroke-linecap="round"/><line x1="73.02" y1="104.9" x2="70.08" y2="117.67" stroke="#1f2328" stroke-opacity="0.35" stroke-width="1" stroke-linecap="round"/><line x1="70.08" y1="117.67" x2="62.06" y2="128.95" stroke="#1f2328" stroke-opacity="0.35" stroke-width="1" stroke-linecap="round"/><line x1="62.06" y1="128.95" x2="51.11" y2="135.71" stroke="#1f2328" stroke-opacity="0.35" stroke-width="1" stroke-linecap="round"/><line x1="51.11" y1="135.71" x2="40.16" y2="136.15" stroke="#1f2328" stroke-opacity="0.35" stroke-width="1" stroke-linecap="round"/><line x1="40.16" y1="136.15" x2="32.14" y2="130.14" stroke="#1f2328" stroke-opacity="0.35" stroke-width="1" stroke-linecap="round"/></svg>
